<svg width="120" height="119" viewBox="0 0 120 119" fill="none" xmlns="http://www.w3.org/2000/svg">
<path d="M60 118.234C93.1371 118.234 120 102.88 120 83.9401C120 65.0001 93.1371 49.6462 60 49.6462C26.8629 49.6462 0 65.0001 0 83.9401C0 102.88 26.8629 118.234 60 118.234Z" fill="#F5F5F5"/>
<path d="M46.3947 43.4036C46.3266 43.432 46.2585 43.4585 46.1941 43.4926C46.1297 43.5266 46.0892 43.5493 46.0395 43.5777C45.9899 43.6061 45.9144 43.6515 45.8555 43.6912C45.7966 43.731 45.758 43.7613 45.7102 43.7991C45.6623 43.8369 45.5979 43.8899 45.5427 43.9391C45.4875 43.9883 45.4544 44.0205 45.4121 44.064C45.3697 44.1075 45.309 44.1719 45.2593 44.2286C45.2097 44.2854 45.1802 44.3251 45.1416 44.3743C45.1029 44.4235 45.0496 44.4992 45.0054 44.5635C44.9612 44.6279 44.9373 44.6657 44.906 44.7187L44.884 44.7565C44.849 44.8171 44.8159 44.8795 44.7846 44.9458C44.7736 44.9647 44.7644 44.9836 44.7552 45.0025C44.7294 45.0536 44.7036 45.1066 44.6816 45.1596C44.6595 45.2126 44.6411 45.2542 44.6227 45.3015C44.6043 45.3488 44.5969 45.3601 44.5859 45.3923L44.5527 45.4775C44.5307 45.538 44.5104 45.6005 44.492 45.6667C44.4736 45.7329 44.4571 45.7764 44.4423 45.8313C44.4147 45.9316 44.3871 46.0338 44.3651 46.1397C44.3479 46.2104 44.3332 46.2823 44.3209 46.3554C44.3209 46.3952 44.3062 46.433 44.2988 46.4746C44.2915 46.5163 44.2841 46.5598 44.2786 46.6052C44.262 46.7112 44.251 46.8228 44.2399 46.9344C44.2399 46.9874 44.227 47.0385 44.2234 47.0915C44.2234 47.1123 44.2234 47.1312 44.2234 47.1521C44.2105 47.3413 44.2031 47.5191 44.2031 47.7102C44.2085 48.4807 44.2979 49.248 44.4699 49.9979C45.1545 53.0916 47.1105 56.2894 49.5026 58.1192C49.7828 58.3372 50.0753 58.5381 50.3785 58.7209L50.5036 58.7909C50.5735 58.8306 50.6435 58.8722 50.7134 58.9082L50.8735 58.9896L51.0464 59.0747L51.2212 59.1523L51.374 59.2166C51.4347 59.2412 51.4936 59.2639 51.558 59.2847L51.7033 59.3358L51.8782 59.3926L52.0327 59.4342L52.191 59.4759L52.4007 59.5175L52.4983 59.5364L52.5811 59.5459L53.836 58.8041C53.0583 58.6758 52.3118 58.3951 51.6371 57.9772C48.2145 55.9488 45.4544 51.0102 45.4544 46.9609C45.4544 45.3166 45.9107 44.0716 46.6799 43.3033L46.5584 43.3393C46.5014 43.3582 46.448 43.3809 46.3947 43.4036Z" fill="#263238"/>
<path d="M47.5016 42.0332C47.3105 42.1018 47.1258 42.1879 46.9496 42.2905L45.7002 43.0323C46.2502 42.7123 46.8698 42.5399 47.5016 42.5308V42.0332Z" fill="#37474F"/>
<path d="M52.4997 59.536L52.4021 59.5171L52.1924 59.4755L52.0341 59.4338L51.9311 59.4073L51.8795 59.3922L51.7103 59.3354L51.5649 59.2844L51.3809 59.2162L51.2281 59.1519L51.0533 59.0743L50.8804 58.9892L50.7203 58.9078C50.6504 58.8719 50.5786 58.8302 50.5068 58.7886C50.4682 58.7659 50.4277 58.747 50.3872 58.7224C50.095 58.5455 49.8124 58.3522 49.5408 58.1434C48.7618 57.5466 48.0556 56.8554 47.4376 56.0847C46.9037 55.4232 46.4248 54.7169 46.006 53.973C45.3141 52.7533 44.7989 51.4364 44.4768 50.0637L44.4658 49.9994C44.294 49.2508 44.2045 48.4847 44.199 47.7155C44.199 47.5377 44.199 47.3655 44.2174 47.1952C44.2174 47.1706 44.2174 47.146 44.2174 47.1214C44.2165 47.1044 44.2165 47.0873 44.2174 47.0703C44.2284 46.9284 44.2432 46.7884 44.2634 46.6521L44.2744 46.5651C44.2744 46.5197 44.291 46.478 44.2984 46.4326C44.3057 46.3872 44.3223 46.3077 44.3352 46.2434C44.348 46.1791 44.3609 46.111 44.3756 46.0542C44.3904 45.9974 44.4124 45.918 44.4327 45.8498C44.4327 45.8233 44.4456 45.7969 44.4529 45.7723C44.4603 45.7477 44.4529 45.7514 44.4621 45.742C44.4787 45.6871 44.4952 45.6303 44.5136 45.5755C44.532 45.5206 44.5615 45.4468 44.5872 45.3863C44.613 45.3257 44.6498 45.2216 44.6866 45.1422C44.7234 45.0627 44.74 45.0324 44.7676 44.9775L44.8007 44.9132C44.8301 44.8564 44.8614 44.8016 44.8927 44.7467C44.924 44.6918 44.9534 44.6502 44.9847 44.6029L45.027 44.5404C45.0491 44.5045 45.073 44.4704 45.097 44.4383L45.154 44.3645C45.1706 44.3437 45.1853 44.321 45.2037 44.3001L45.3049 44.1809L45.3398 44.145C45.3822 44.0996 45.4245 44.0542 45.4705 44.0106C45.4907 43.9917 45.5147 43.9747 45.5349 43.9577C45.5901 43.9085 45.6453 43.8612 45.7023 43.8176C45.7594 43.7741 45.798 43.7438 45.8477 43.7098C45.8974 43.6757 45.9692 43.6322 46.0317 43.5962C46.0943 43.5603 46.1329 43.5376 46.1863 43.5111C46.2397 43.4846 46.3188 43.4505 46.3869 43.4222C46.4549 43.3938 46.4936 43.3768 46.5488 43.3578C46.604 43.3389 46.6316 43.3313 46.6739 43.3181L46.7678 43.2935C46.823 43.2802 46.8782 43.2632 46.9352 43.2519C46.9923 43.2405 47.0971 43.2254 47.1781 43.2159C47.2591 43.2065 47.2867 43.1989 47.3437 43.1951C47.4008 43.1913 47.4431 43.1951 47.4946 43.1951V42.5593C46.8627 42.5683 46.2432 42.7408 45.6931 43.0608C45.6159 43.1081 45.5404 43.1573 45.465 43.2102L45.4263 43.2367C45.2113 43.3943 45.0133 43.5751 44.8357 43.776L44.7749 43.8441C44.7216 43.9066 44.6701 43.9709 44.6185 44.0333L44.5744 44.0996C44.4891 44.2176 44.4099 44.3402 44.337 44.4666C44.3112 44.514 44.2836 44.5613 44.2579 44.6105C44.2321 44.6597 44.1935 44.7353 44.1622 44.7997C44.1309 44.864 44.1033 44.9302 44.0739 44.9889C44.0444 45.0475 44.0187 45.1213 43.9929 45.1895C43.9524 45.2954 43.9156 45.4052 43.8807 45.5168C43.8659 45.5698 43.8494 45.6247 43.8346 45.6795C43.8089 45.7742 43.785 45.8688 43.761 45.969C43.75 46.0182 43.739 46.0655 43.7298 46.1147C43.6991 46.2586 43.6733 46.4061 43.6525 46.5575C43.6525 46.5954 43.6433 46.6332 43.6396 46.6692C43.623 46.7978 43.6102 46.9265 43.601 47.0476C43.601 47.0949 43.601 47.1422 43.5918 47.1895C43.5807 47.3579 43.5752 47.5282 43.5752 47.7023C43.5902 48.8248 43.7644 49.939 44.0923 51.0098C44.2606 51.577 44.4609 52.1336 44.6921 52.6768C44.8148 52.9518 44.9375 53.2237 45.0602 53.4924C45.4583 54.3002 45.9205 55.073 46.4421 55.8027C47.478 57.2503 48.7275 58.4783 50.0707 59.2749C50.6041 59.6014 51.1762 59.8558 51.7728 60.0318L52.5751 59.5587L52.4997 59.536Z" fill="#455A64"/>
<path d="M58.7957 53.1124C58.7957 49.4113 56.2693 44.9117 53.1522 43.0611C51.5881 42.1339 50.1749 42.0488 49.1537 42.66C48.8427 42.8492 46.7615 44.081 46.4432 44.2645C45.4164 44.8681 44.7871 46.17 44.7871 48.0262C44.7871 51.7273 47.3136 56.2269 50.4307 58.0775C51.9911 59.0047 53.4043 59.0898 54.4255 58.4805C54.7383 58.2913 56.836 57.0538 57.1507 56.8665C58.1646 56.261 58.7957 54.9611 58.7957 53.1124Z" fill="#407BFF"/>
<path opacity="0.3" d="M58.7957 53.1124C58.7957 49.4113 56.2693 44.9117 53.1522 43.0611C51.5881 42.1339 50.1749 42.0488 49.1537 42.66C48.8427 42.8492 46.7615 44.081 46.4432 44.2645C45.4164 44.8681 44.7871 46.17 44.7871 48.0262C44.7871 51.7273 47.3136 56.2269 50.4307 58.0775C51.9911 59.0047 53.4043 59.0898 54.4255 58.4805C54.7383 58.2913 56.836 57.0538 57.1507 56.8665C58.1646 56.261 58.7957 54.9611 58.7957 53.1124Z" fill="black"/>
<path d="M50.4219 44.6751C53.5372 46.5257 56.0636 51.0272 56.0636 54.7264C56.0636 58.4257 53.55 59.9281 50.4219 58.0775C47.2937 56.2269 44.7783 51.7273 44.7783 48.0262C44.7783 44.3251 47.3084 42.8246 50.4219 44.6751Z" fill="#407BFF"/>
<path d="M52.8142 59.5743H52.8418C52.9375 59.5743 53.0258 59.5856 53.1252 59.5875H53.1712C53.3065 59.588 53.4417 59.5798 53.576 59.5629H53.5907C53.7034 59.5477 53.8152 59.5262 53.9256 59.4986C53.9716 59.4891 54.0194 59.4778 54.0654 59.4645C54.1519 59.4399 54.2384 59.4115 54.3231 59.3794C54.4077 59.3472 54.45 59.3264 54.5071 59.2961C54.5384 59.2829 54.5659 59.2677 54.5954 59.2526C54.8661 59.1118 55.1143 58.9293 55.3314 58.7114C54.8415 58.8504 54.3287 58.882 53.8262 58.8041L52.5713 59.5459C52.6596 59.5572 52.7369 59.5686 52.8142 59.5743Z" fill="#263238"/>
<path d="M51.9484 43.5774C51.9804 44.0736 52.1886 44.5402 52.5335 44.8887C55.2219 47.4299 57.1871 51.5549 57.1871 55.0498C57.1871 57.5929 56.1493 59.4018 54.4527 60.0092C54.6695 59.9365 54.8775 59.8388 55.0728 59.7178L56.3223 58.9761C57.6508 58.1889 58.442 56.5162 58.442 54.3042C58.442 50.8113 56.475 46.6844 53.7866 44.1451C53.4427 43.7959 53.2346 43.3296 53.2015 42.8338V37.6852L51.9484 38.4307V43.5774Z" fill="#37474F"/>
<path d="M52.5335 44.889C52.1886 44.5405 51.9804 44.0738 51.9484 43.5777V38.4309L51.3301 38.0638V43.8861C51.3317 43.9637 51.3403 44.041 51.3558 44.1169L51.3669 44.1737C51.3845 44.2546 51.4072 44.3343 51.435 44.4121C51.4798 44.5328 51.5346 44.6492 51.5987 44.7603L51.6503 44.8379C51.6981 44.9162 51.7523 44.9903 51.8122 45.0593C51.8486 45.1024 51.888 45.1429 51.93 45.1804C52.079 45.3147 52.2244 45.4547 52.3679 45.5966L52.482 45.7121C52.6071 45.8407 52.7304 45.9713 52.85 46.1075L52.9052 46.1662C53.0414 46.3194 53.1739 46.4765 53.3063 46.6392L53.4057 46.7641C53.5143 46.9003 53.621 47.0404 53.724 47.1804L53.7995 47.2826C53.9228 47.451 54.0424 47.6251 54.1583 47.7991L54.2393 47.9259C54.335 48.0716 54.4233 48.2211 54.5171 48.3706L54.5944 48.4992C54.703 48.6885 54.806 48.8663 54.9072 49.0537L54.9643 49.1653C55.0471 49.3223 55.128 49.4813 55.2053 49.6421L55.2771 49.7916C55.3679 49.9821 55.4543 50.1751 55.5365 50.3706C55.5457 50.3971 55.5568 50.4217 55.566 50.4482C55.6377 50.6204 55.7058 50.7945 55.7721 50.9704C55.7905 51.0234 55.8107 51.0745 55.8291 51.1275C55.9009 51.3167 55.969 51.5267 56.0297 51.7254C56.0904 51.9241 56.1474 52.1266 56.199 52.3271L56.2321 52.4558C56.2799 52.645 56.3241 52.8456 56.3627 53.0405L56.3793 53.1389C56.4136 53.318 56.4431 53.4959 56.4676 53.6725C56.4676 53.7046 56.4768 53.7387 56.4823 53.7709C56.5063 53.9601 56.5265 54.1493 56.5394 54.3385C56.5394 54.3802 56.5394 54.4218 56.5486 54.4634C56.5596 54.6526 56.5688 54.8532 56.5688 55.0443C56.5688 56.1796 56.3499 57.1257 55.9579 57.8656C55.8738 58.024 55.7785 58.1757 55.6727 58.3197C55.6212 58.3897 55.5678 58.4578 55.5126 58.5222C55.4574 58.5865 55.4004 58.647 55.3415 58.7114C55.1243 58.9292 54.8761 59.1117 54.6054 59.2525C54.5778 59.2677 54.5484 59.2828 54.5171 59.2961C54.4564 59.3263 54.3938 59.3547 54.3331 59.3793C54.2724 59.4039 54.1749 59.4361 54.0957 59.4588H54.0755C54.0295 59.472 53.9835 59.4834 53.9357 59.4928L53.8529 59.5155C53.77 59.5326 53.6854 59.5458 53.6008 59.5572H53.586C53.4517 59.5741 53.3165 59.5823 53.1812 59.5818H53.0763C53.0027 59.5818 52.9273 59.5818 52.8518 59.5685H52.815C52.7378 59.5685 52.6605 59.5534 52.5813 59.542L51.7791 60.0151C52.2242 60.1471 52.6848 60.2159 53.1481 60.2194C53.2107 60.2194 53.2714 60.2194 53.3321 60.21C53.3928 60.2005 53.4996 60.21 53.5768 60.1967L53.7185 60.1759C53.8087 60.1627 53.9025 60.1494 53.9817 60.1324C54.024 60.1324 54.0663 60.1135 54.1086 60.1021L54.1601 60.087C54.2393 60.0662 54.3184 60.0472 54.3957 60.0208L54.4509 60.0037C56.1474 59.402 57.1853 57.5874 57.1853 55.0443C57.1871 51.5551 55.2219 47.4302 52.5335 44.889Z" fill="#455A64"/>
<path d="M49.1338 43.2977L49.1596 43.2863C49.1746 43.2807 49.1888 43.273 49.2019 43.2636L50.4568 42.5181C50.5376 42.4652 50.6029 42.3908 50.646 42.3029C50.6891 42.215 50.7083 42.1167 50.7015 42.0185V36.1963L49.4484 36.9418V42.7641C49.4574 42.8758 49.4318 42.9875 49.3752 43.0833C49.3187 43.1791 49.2342 43.2542 49.1338 43.2977Z" fill="#37474F"/>
<path d="M47.6225 42.5293C47.9238 42.5306 48.2243 42.5597 48.5205 42.6164C48.557 42.6266 48.5953 42.6278 48.6323 42.6198C48.6693 42.6119 48.7039 42.595 48.7334 42.5707C48.7628 42.5463 48.7862 42.5151 48.8017 42.4796C48.8171 42.4442 48.8242 42.4054 48.8223 42.3666V41.7876C48.3722 41.793 47.9262 41.8762 47.5029 42.0336V42.5369C47.5434 42.535 47.5821 42.5293 47.6225 42.5293Z" fill="#37474F"/>
<path d="M47.7801 43.1686C47.9292 43.1743 48.0778 43.1882 48.2254 43.2102C48.3689 43.2329 48.5161 43.2632 48.6633 43.3011H48.691H48.7057C48.7529 43.3128 48.8008 43.321 48.8492 43.3257H48.8621C48.9019 43.3295 48.9419 43.3295 48.9817 43.3257H49.0038C49.0413 43.3193 49.0782 43.3098 49.1142 43.2973C49.2146 43.2538 49.2991 43.1788 49.3556 43.0829C49.4121 42.9871 49.4378 42.8754 49.4288 42.7637V36.9414L48.8106 36.563V42.3569C48.8125 42.3957 48.8054 42.4344 48.7899 42.4699C48.7745 42.5054 48.7511 42.5366 48.7216 42.5609C48.6922 42.5853 48.6576 42.6021 48.6206 42.6101C48.5836 42.618 48.5453 42.6168 48.5088 42.6066C48.2126 42.55 47.9121 42.5208 47.6108 42.5196C47.5703 42.5196 47.5317 42.5196 47.4912 42.5196V43.1554C47.5354 43.1554 47.5777 43.1554 47.6219 43.1554C47.666 43.1554 47.7304 43.1667 47.7801 43.1686Z" fill="#455A64"/>
<path d="M58.218 56.6315C58.218 51.1631 54.4845 44.5215 49.8787 41.7797C47.5786 40.4136 45.4975 40.2849 43.9904 41.178L41.4713 42.6728C39.9661 43.5697 39.0332 45.4865 39.0332 48.2188C39.0332 53.6872 42.7668 60.3288 47.3707 63.0706C49.6708 64.4348 51.7519 64.5654 53.259 63.6723L55.7762 62.1737C57.2851 61.2825 58.218 59.3638 58.218 56.6315Z" fill="#407BFF"/>
<path opacity="0.1" d="M53.2675 63.6708C56.5239 61.7375 56.5237 55.4682 53.2671 49.668C50.0105 43.8677 44.7307 40.7329 41.4743 42.6662C38.2179 44.5995 38.2181 50.8688 41.4747 56.6691C44.7313 62.4693 50.0111 65.6041 53.2675 63.6708Z" fill="black"/>
<path d="M55.7149 58.1208C55.7149 52.6524 51.9814 46.0108 47.3756 43.269C45.0718 41.901 42.987 41.7742 41.4781 42.673L40.2305 43.4129C38.718 44.3079 37.7832 46.2284 37.7832 48.9645C37.7832 54.4329 41.5168 61.0745 46.1207 63.8163C48.4245 65.1824 50.5093 65.3111 52.0182 64.4142L53.2731 63.6687C54.7801 62.7737 55.7149 60.8493 55.7149 58.1208Z" fill="#F0F0F0"/>
<path d="M46.1207 44.0086C50.7209 46.7429 54.46 53.392 54.46 58.8604C54.46 64.3288 50.7264 66.5446 46.1207 63.8104C41.5149 61.0762 37.7832 54.427 37.7832 48.9586C37.7832 43.4902 41.5168 41.2801 46.1207 44.0086Z" fill="#E0E0E0"/>
<path d="M55.0727 58.8663C55.0727 53.2048 51.1938 46.2965 46.4243 43.4658C45.0203 42.6313 43.6642 42.2093 42.3908 42.2093C41.5202 42.1969 40.6623 42.425 39.9067 42.8697C39.4908 43.1195 37.809 44.1091 37.3821 44.3645C35.6708 45.3958 34.6514 47.5642 34.6514 50.4555C34.6514 56.1169 38.5303 63.0253 43.2998 65.856C44.7038 66.6904 46.06 67.1124 47.3333 67.1124C48.2097 67.1249 49.0731 66.8934 49.8321 66.4426C50.2406 66.1947 51.9023 65.2183 52.3255 64.9667C54.0478 63.9392 55.0727 61.767 55.0727 58.8663Z" fill="#455A64"/>
<path d="M47.3333 67.1126C46.0618 67.1126 44.7038 66.6907 43.2998 65.8562C38.5321 63.0179 34.6514 56.1171 34.6514 50.4557C34.6514 46.3497 36.7049 43.6987 39.8828 43.6987C41.1561 43.6987 42.5123 44.1207 43.9162 44.9551C48.6839 47.7934 52.5647 54.6942 52.5647 60.3556C52.5647 64.4598 50.5111 67.1126 47.3333 67.1126Z" fill="#37474F"/>
<path d="M45.4688 61.2523C44.752 61.2301 44.0537 61.0133 43.4447 60.6241C41.0636 59.2106 39.126 55.7612 39.126 52.9324C39.126 50.8831 40.1527 49.5586 41.7389 49.5586C42.4523 49.5823 43.1471 49.7983 43.7538 50.1849C46.1349 51.6003 48.0725 55.0497 48.0725 57.8785C48.0817 59.9278 47.0549 61.2523 45.4688 61.2523Z" fill="#263238"/>
<path d="M34.8335 70.8781C34.8335 65.2167 30.9546 58.3083 26.185 55.4757C24.781 54.6432 23.4249 54.2212 22.1534 54.2212C21.2827 54.2083 20.4248 54.4364 19.6693 54.8816C19.2534 55.1314 17.5697 56.121 17.1446 56.3764C15.4315 57.4077 14.4121 59.5761 14.4121 62.4655C14.4121 68.1269 18.291 75.0372 23.0606 77.8679C24.4645 78.7023 25.8207 79.1243 27.0922 79.1243C27.97 79.135 28.8342 78.901 29.5929 78.4469C30.0032 78.199 31.6648 77.2226 32.0862 76.971C33.8085 75.9511 34.8335 73.7788 34.8335 70.8781Z" fill="#455A64"/>
<path d="M27.0942 79.124C25.8226 79.124 24.4665 78.702 23.0625 77.8676C18.293 75.0293 14.4141 68.1266 14.4141 62.4652C14.4141 58.361 16.4676 55.7101 19.6473 55.7101C20.9188 55.7101 22.2749 56.132 23.6789 56.9646C28.4466 59.8029 32.3274 66.7056 32.3274 72.367C32.3255 76.4711 30.272 79.124 27.0942 79.124Z" fill="#37474F"/>
<path d="M31.7086 72.3672C31.7086 66.8988 27.9751 60.2572 23.3693 57.5155C21.0655 56.1474 18.9807 56.0187 17.481 56.9175L16.2335 57.6593C14.7227 58.5543 13.7861 60.4729 13.7861 63.209C13.7861 68.6775 17.5197 75.319 22.1254 78.0608C24.4292 79.4288 26.5122 79.5556 28.0137 78.6606L29.2687 77.9151C30.7757 77.0182 31.7086 75.0995 31.7086 72.3672Z" fill="#F0F0F0"/>
<path d="M22.1157 58.2586C26.7159 60.9928 30.455 67.642 30.455 73.1104C30.455 78.5788 26.7214 80.7945 22.1157 78.0679C17.5099 75.3413 13.7764 68.6846 13.7764 63.2161C13.7764 57.7477 17.5099 55.5244 22.1157 58.2586Z" fill="#E0E0E0"/>
<path d="M30.4552 73.1105C30.4552 67.6421 26.7217 61.0005 22.1159 58.2587C19.8158 56.8926 17.7346 56.7639 16.2276 57.657L13.7085 59.1461C12.2015 60.043 11.2686 61.9617 11.2686 64.6921C11.2686 70.1606 15.0021 76.8021 19.6079 79.5439C21.9061 80.9101 23.9873 81.0387 25.4962 80.1456L28.0116 78.6527C29.5204 77.7634 30.4552 75.8447 30.4552 73.1105Z" fill="#407BFF"/>
<path opacity="0.1" d="M19.6079 59.7482C24.2081 62.4824 27.9453 69.1315 27.9453 74.6C27.9453 80.0684 24.2136 82.2841 19.6079 79.5499C15.0021 76.8157 11.2686 70.1666 11.2686 64.6981C11.2686 59.2297 15.0021 57.014 19.6079 59.7482Z" fill="black"/>
<path d="M13.6203 62.861C13.5522 62.8875 13.4841 62.9158 13.4179 62.948C13.3516 62.9802 13.3148 63.0048 13.2651 63.035C13.2154 63.0653 13.14 63.1088 13.0811 63.1486C13.0222 63.1883 12.9836 63.2186 12.9357 63.2564C12.8879 63.2943 12.8235 63.3454 12.7683 63.3946L12.6358 63.5213C12.5843 63.5743 12.5346 63.6292 12.4849 63.686C12.4352 63.7427 12.404 63.7825 12.3653 63.8317C12.3267 63.8809 12.2752 63.9565 12.231 64.0209C12.1868 64.0852 12.1629 64.1249 12.1316 64.1779L12.1095 64.2158C12.0746 64.2763 12.0415 64.3369 12.0083 64.405L11.9807 64.4618C11.955 64.5128 11.9292 64.5639 11.9053 64.6169C11.8814 64.6699 11.8667 64.7115 11.8483 64.7588C11.8299 64.8061 11.8225 64.8194 11.8115 64.8497L11.7783 64.9367C11.7562 64.9972 11.736 65.0597 11.7158 65.1259C11.6955 65.1921 11.6826 65.2357 11.6679 65.2905C11.6385 65.3902 11.6127 65.4924 11.5906 65.5971C11.5741 65.669 11.5594 65.7409 11.5465 65.8147L11.5244 65.932C11.5244 65.9755 11.5097 66.019 11.5042 66.0625C11.4876 66.1704 11.4766 66.2801 11.4655 66.3918C11.4655 66.4448 11.4526 66.4959 11.449 66.5507C11.449 66.5697 11.449 66.5905 11.449 66.6113C11.4361 66.791 11.4287 66.9765 11.4287 67.1695C11.434 67.9399 11.5235 68.7073 11.6955 69.4571C12.3837 72.5565 14.3416 75.7543 16.7374 77.5841C17.0185 77.8009 17.3109 78.0017 17.6133 78.1858L17.7384 78.2558L17.9482 78.3731L18.1083 78.4545L18.2812 78.5377C18.3401 78.5661 18.3971 78.5907 18.4652 78.6153C18.5333 78.6399 18.5664 78.6607 18.618 78.6796L18.802 78.7497L18.9455 78.8007L19.1295 78.8556L19.2841 78.8991L19.4423 78.9389C19.5122 78.9559 19.5822 78.9691 19.6521 78.9824L19.7478 79.0013L19.8306 79.0108L21.0579 78.2577C20.2768 78.1314 19.527 77.8506 18.8498 77.4308C15.4328 75.4024 12.6634 70.4732 12.6634 66.4145C12.6634 64.7721 13.1198 63.527 13.8889 62.7588C13.8484 62.7701 13.8061 62.7796 13.7675 62.7928L13.6203 62.861Z" fill="#263238"/>
<path d="M14.7253 61.491C14.5345 61.5597 14.3498 61.6452 14.1733 61.7464L12.9238 62.4881C13.4746 62.1708 14.094 62.001 14.7253 61.9943V61.491Z" fill="#37474F"/>
<path d="M19.7174 78.9938L19.6217 78.9749C19.5518 78.9616 19.4837 78.9484 19.412 78.9313C19.3402 78.9143 19.3071 78.9049 19.2537 78.8916L19.1488 78.8651L19.0992 78.8481L18.9151 78.7932L18.7679 78.7421L18.5839 78.6721C18.5324 78.6532 18.4827 78.6305 18.4312 78.6078L18.2472 78.5321L18.0742 78.4469L17.9141 78.3656L17.7007 78.2464L17.5811 78.1801C17.2892 78.0026 17.0067 77.8093 16.7346 77.6011C15.9556 77.0043 15.2494 76.3131 14.6314 75.5424C14.0999 74.8808 13.6235 74.1745 13.2072 73.4308C12.5125 72.2078 11.9955 70.887 11.6725 69.5101C11.6725 69.4893 11.6725 69.4685 11.6597 69.4458C11.4948 68.697 11.4115 67.9316 11.4112 67.1638C11.4112 66.986 11.4112 66.8138 11.4296 66.6435C11.4296 66.6189 11.4296 66.5924 11.4296 66.5678C11.4288 66.5508 11.4288 66.5337 11.4296 66.5167C11.4407 66.3748 11.4554 66.2367 11.4756 66.1004L11.4867 66.0134C11.4867 65.968 11.5032 65.9245 11.5106 65.8809C11.518 65.8374 11.5345 65.7561 11.5456 65.6917C11.5566 65.6274 11.5713 65.5593 11.5879 65.5025C11.6045 65.4457 11.6247 65.3644 11.6431 65.2963L11.6652 65.2206C11.666 65.2105 11.666 65.2004 11.6652 65.1903C11.6836 65.1335 11.7001 65.0786 11.7185 65.0238C11.7369 64.9689 11.7664 64.8932 11.7903 64.8346C11.8142 64.7759 11.8547 64.6699 11.8915 64.5924C11.9283 64.5148 11.9449 64.4826 11.9725 64.4277L12.0056 64.3615C12.035 64.3066 12.0663 64.2499 12.0976 64.1969C12.1289 64.1439 12.1583 64.1004 12.1896 64.0531L12.2301 63.9888L12.3313 63.8771L12.3865 63.8052C12.4049 63.7844 12.4196 63.7617 12.438 63.7409C12.4564 63.7201 12.5043 63.6614 12.5392 63.6217L12.5723 63.5857L12.703 63.4514C12.7232 63.4324 12.7471 63.4173 12.7674 63.3984C12.8226 63.3492 12.8778 63.3038 12.9348 63.2603C12.9919 63.2167 13.0305 63.1865 13.0802 63.1524C13.1299 63.1183 13.2017 63.0748 13.2642 63.0389C13.3268 63.0029 13.3654 62.9783 13.4169 62.9518C13.4685 62.9253 13.5513 62.8913 13.6194 62.8648L13.7813 62.7986L13.9064 62.7607L13.9874 62.7418C14.0426 62.7267 14.0978 62.7115 14.1548 62.7002C14.2119 62.6888 14.3149 62.6737 14.3977 62.6642C14.4529 62.6642 14.5063 62.6472 14.5633 62.6415C14.6204 62.6358 14.6627 62.6415 14.7142 62.6415V62.0057C14.0823 62.0148 13.4628 62.1872 12.9128 62.5072C12.8336 62.5526 12.7582 62.6037 12.6846 62.6548L12.6459 62.6831C12.4303 62.8406 12.2316 63.0214 12.0534 63.2224L11.9945 63.2905C11.9412 63.353 11.8897 63.4173 11.8381 63.4798C11.8234 63.5006 11.8087 63.5233 11.7921 63.5441C11.7093 63.6614 11.6302 63.7844 11.5566 63.9225L11.4775 64.0644C11.4444 64.1269 11.4131 64.1912 11.3818 64.2537C11.3505 64.3161 11.3229 64.3842 11.2935 64.4523C11.264 64.5205 11.2383 64.5829 11.2125 64.6529C11.172 64.7589 11.1352 64.8667 11.1003 64.9784C11.0837 65.0313 11.069 65.0862 11.0543 65.1411C11.0285 65.2376 11.0027 65.3303 10.9807 65.4325L10.9475 65.5782C10.9181 65.722 10.8923 65.8696 10.8721 66.021C10.8721 66.0569 10.8721 66.0966 10.8592 66.1326C10.8427 66.2594 10.8298 66.388 10.8206 66.511L10.8095 66.653C10.8003 66.8214 10.793 66.9917 10.793 67.1657C10.806 68.2861 10.9783 69.3985 11.3045 70.4676C11.4729 71.0341 11.6732 71.5901 11.9044 72.1327C12.0209 72.4065 12.1436 72.6783 12.2724 72.9483C12.6697 73.7566 13.132 74.5294 13.6543 75.2586C14.6903 76.7061 15.9397 77.9342 17.283 78.7327C17.8171 79.0576 18.389 79.3119 18.9851 79.4895L19.7873 79.0146L19.7174 78.9938Z" fill="#455A64"/>
<path d="M25.2528 72.9989C25.2528 69.2996 22.7263 64.7981 19.6092 62.9476C18.0451 62.0204 16.6319 61.9353 15.6107 62.5483L12.9002 64.151C11.8735 64.7546 11.2441 66.0583 11.2441 67.9127C11.2441 71.6138 13.7706 76.1134 16.8877 77.964C18.4481 78.8911 19.8613 78.9782 20.8826 78.367L23.6077 76.7549C24.6216 76.1475 25.2528 74.8513 25.2528 72.9989Z" fill="#407BFF"/>
<path opacity="0.3" d="M25.2528 72.9989C25.2528 69.2996 22.7263 64.7981 19.6092 62.9476C18.0451 62.0204 16.6319 61.9353 15.6107 62.5483L12.9002 64.151C11.8735 64.7546 11.2441 66.0583 11.2441 67.9127C11.2441 71.6138 13.7706 76.1134 16.8877 77.964C18.4481 78.8911 19.8613 78.9782 20.8826 78.367L23.6077 76.7549C24.6216 76.1475 25.2528 74.8513 25.2528 72.9989Z" fill="black"/>
<path d="M20.8702 78.37C23.074 77.0617 23.074 72.8191 20.8702 68.8941C18.6665 64.969 15.0935 62.8478 12.8897 64.1561C10.6859 65.4645 10.6859 69.707 12.8897 73.6321C15.0934 77.5572 18.6664 79.6784 20.8702 78.37Z" fill="#407BFF"/>
<path d="M19.8131 77.2C21.5309 76.1848 21.5371 72.8809 19.8267 69.8207C18.1163 66.7604 15.3372 65.1026 13.6193 66.1178C11.9014 67.133 11.8953 70.4369 13.6057 73.4972C15.316 76.5574 18.0952 78.2153 19.8131 77.2Z" fill="#263238"/>
<path d="M19.0571 68.8591L16.4662 71.5195L13.373 66.0076C14.1624 65.5346 15.2591 65.6027 16.4662 66.3198C17.4941 66.9692 18.377 67.8346 19.0571 68.8591Z" fill="#455A64"/>
<path d="M20.8471 74.1231C20.8471 75.5574 20.3558 76.5678 19.559 77.0333L16.4658 71.5194L19.0567 68.859C20.1405 70.4503 20.8471 72.3917 20.8471 74.1231Z" fill="#37474F"/>
<path d="M19.563 77.0332C18.7736 77.5006 17.6695 77.4401 16.4661 76.7229C15.4365 76.0756 14.5542 75.2083 13.8789 74.1798L16.4661 71.5194L19.563 77.0332Z" fill="#455A64"/>
<path d="M16.4655 71.5195L13.8783 74.1799C12.7908 72.5905 12.0879 70.6434 12.0879 68.9234C12.0879 67.4854 12.5792 66.4787 13.376 66.0076L16.4655 71.5195Z" fill="#37474F"/>
<path d="M20.0345 79.0317H20.0603C20.156 79.0317 20.2443 79.043 20.3437 79.043H20.3897C20.5277 79.043 20.662 79.0336 20.7945 79.0184H20.8092C20.9219 79.0044 21.0338 78.9835 21.1441 78.956C21.1901 78.9446 21.238 78.9352 21.284 78.9219C21.3705 78.8973 21.4569 78.867 21.5397 78.8349C21.6225 78.8027 21.6685 78.7819 21.7238 78.7535L21.8121 78.7081C22.0831 78.5686 22.3314 78.3867 22.5481 78.1688C22.0581 78.3071 21.5453 78.338 21.0429 78.2597L19.7861 79.0033C19.8763 79.0146 19.9573 79.026 20.0345 79.0317Z" fill="#263238"/>
<path d="M19.1685 63.0348C19.2009 63.5309 19.4091 63.9974 19.7537 64.3461C22.4402 66.8854 24.4073 71.0123 24.4073 74.5053C24.4073 77.0503 23.3695 78.8573 21.6729 79.4647C21.8898 79.3932 22.0979 79.296 22.293 79.1752L23.5424 78.4335C24.871 77.6463 25.6622 75.9736 25.6622 73.7616C25.6622 70.2687 23.6952 66.1418 21.0068 63.6025C20.6652 63.2524 20.4597 62.7861 20.429 62.2912V57.1426L19.1759 57.8881L19.1685 63.0348Z" fill="#37474F"/>
<path d="M19.7532 64.3464C19.4086 63.9977 19.2004 63.5311 19.1681 63.0351V57.8883L18.5498 57.5212V63.3435C18.5514 63.4205 18.56 63.4971 18.5756 63.5724L18.5866 63.6311C18.6042 63.712 18.6269 63.7917 18.6547 63.8695C18.6992 63.9897 18.754 64.1056 18.8185 64.2158C18.835 64.2442 18.8516 64.2688 18.87 64.2953C18.9178 64.3731 18.9713 64.4471 19.0301 64.5166C19.0676 64.5594 19.1075 64.5998 19.1497 64.6377C19.2987 64.7702 19.4441 64.9102 19.5876 65.054L19.7017 65.1694C19.8268 65.2981 19.9501 65.4287 20.0697 65.563L20.1249 65.6236C20.2611 65.7768 20.3936 65.9339 20.5242 66.0947C20.5592 66.1364 20.5923 66.1799 20.6254 66.2215C20.734 66.3577 20.8407 66.4959 20.9438 66.6378C20.9695 66.6718 20.9953 66.704 21.0192 66.7381C21.1425 66.9084 21.2603 67.0806 21.3872 67.2565L21.4682 67.3833C21.5639 67.529 21.6522 67.6766 21.746 67.8261L21.8233 67.9566C21.9319 68.1459 22.0349 68.3237 22.1361 68.5092L22.1932 68.6227C22.276 68.7797 22.357 68.9387 22.4342 69.0995L22.506 69.2471C22.5962 69.4363 22.69 69.6255 22.7636 69.828C22.7747 69.8526 22.7857 69.8791 22.7949 69.9037C22.8673 70.0778 22.9354 70.2519 22.9992 70.4259C23.0194 70.4789 23.0396 70.5319 23.058 70.5849C23.128 70.7836 23.1979 70.9822 23.2586 71.1828C23.3193 71.3834 23.3745 71.584 23.4279 71.7845C23.4389 71.8262 23.45 71.8697 23.4592 71.9132C23.5095 72.1075 23.5536 72.3024 23.5917 72.4979L23.6082 72.5963C23.6432 72.7741 23.6708 72.952 23.6965 73.1299C23.6965 73.162 23.6965 73.1942 23.7094 73.2264C23.7352 73.4156 23.7536 73.6048 23.7683 73.794C23.7683 73.8357 23.7683 73.8773 23.7683 73.9189C23.7794 74.1081 23.7886 74.3068 23.7886 74.4979C23.7886 75.6332 23.5696 76.5888 23.1776 77.3211C23.0936 77.4795 22.9982 77.6312 22.8924 77.7752C22.8409 77.8452 22.7875 77.9133 22.7323 77.9776C22.6771 78.042 22.6201 78.1025 22.5612 78.1669C22.3445 78.3847 22.0962 78.5666 21.8252 78.7061L21.7368 78.7516C21.6743 78.7799 21.6117 78.8083 21.5528 78.8329C21.494 78.8575 21.3964 78.8916 21.3173 78.9143H21.2971C21.2511 78.9275 21.2032 78.937 21.1572 78.9483L21.0744 78.9692C20.9916 78.9862 20.907 79.0013 20.8223 79.0108H20.7966C20.6622 79.0267 20.527 79.0349 20.3917 79.0354H20.2869C20.2132 79.0354 20.1378 79.0354 20.0624 79.0221H20.0348C19.9575 79.0221 19.8784 79.0051 19.8011 78.9938L18.9988 79.4687C19.4439 79.6008 19.9045 79.6696 20.3678 79.673C20.4304 79.673 20.4911 79.673 20.5518 79.673C20.6125 79.673 20.7193 79.673 20.7966 79.6598L20.9382 79.639C21.0284 79.6257 21.1223 79.6125 21.1995 79.5955L21.3283 79.5652L21.3799 79.5501C21.459 79.5292 21.5381 79.5084 21.6154 79.4838L21.6706 79.4649C23.3672 78.8651 24.405 77.0505 24.405 74.5055C24.4068 71.0125 22.4398 66.8857 19.7532 64.3464Z" fill="#455A64"/>
<path d="M16.3428 62.7549L16.3796 62.7417L16.4219 62.719L17.6676 61.9848C17.7484 61.9319 17.8137 61.8576 17.8568 61.7697C17.8999 61.6817 17.9191 61.5835 17.9124 61.4853V55.6536L16.6593 56.3991V62.2194C16.6685 62.3317 16.6428 62.444 16.5859 62.5402C16.529 62.6365 16.4439 62.7116 16.3428 62.7549Z" fill="#37474F"/>
<path d="M14.8423 61.9848C15.1436 61.9851 15.4442 62.0142 15.7402 62.0718C15.7767 62.0816 15.8148 62.0825 15.8517 62.0744C15.8885 62.0663 15.9229 62.0494 15.9523 62.0251C15.9816 62.0008 16.005 61.9698 16.0206 61.9345C16.0362 61.8993 16.0435 61.8608 16.042 61.8221V61.243C15.5917 61.2465 15.1454 61.3297 14.7227 61.489V61.9924C14.7631 61.9848 14.8018 61.9848 14.8423 61.9848Z" fill="#37474F"/>
<path d="M15.0001 62.6241C15.1454 62.6241 15.2945 62.6449 15.4454 62.6676C15.5928 62.6901 15.739 62.7204 15.8833 62.7585C15.8919 62.7574 15.9005 62.7574 15.9091 62.7585H15.9256C15.9733 62.7711 16.0219 62.7793 16.071 62.7831H16.0839C16.1237 62.7859 16.1637 62.7859 16.2035 62.7831H16.2256C16.2632 62.7776 16.3002 62.7681 16.336 62.7547C16.4371 62.7114 16.5222 62.6362 16.5791 62.54C16.636 62.4437 16.6617 62.3314 16.6525 62.2192V56.3988L16.0342 56.0204V61.8161C16.0357 61.8548 16.0284 61.8934 16.0128 61.9286C15.9972 61.9639 15.9738 61.9949 15.9445 62.0192C15.9151 62.0435 15.8807 62.0603 15.8438 62.0685C15.807 62.0766 15.7689 62.0757 15.7324 62.0659C15.4364 62.0083 15.1357 61.9792 14.8344 61.9789C14.794 61.9789 14.7553 61.9789 14.7148 61.9789V62.6146H14.8455C14.9081 62.626 14.9504 62.6222 15.0001 62.6241Z" fill="#455A64"/>
<path d="M17.0529 52.8452C16.8247 52.7108 16.5119 52.7297 16.166 52.936C15.7994 53.18 15.4943 53.5099 15.2758 53.8987C15.0573 54.2875 14.9317 54.7241 14.9092 55.1726C14.9092 55.5869 15.0509 55.8783 15.2772 56.0108L20.2896 58.9853L22.0561 55.8235L17.0529 52.8452Z" fill="#407BFF"/>
<path opacity="0.3" d="M17.0529 52.8452C16.8247 52.7108 16.5119 52.7297 16.166 52.936C15.7994 53.18 15.4943 53.5099 15.2758 53.8987C15.0573 54.2875 14.9317 54.7241 14.9092 55.1726C14.9092 55.5869 15.0509 55.8783 15.2772 56.0108L20.2896 58.9853L22.0561 55.8235L17.0529 52.8452Z" fill="black"/>
<path opacity="0.3" d="M15.0619 54.3873C14.9668 54.6379 14.9151 54.9037 14.9092 55.1726C14.9092 55.587 15.0509 55.8784 15.2772 56.0108L20.2896 58.9853L20.9134 57.8689L15.0619 54.3873Z" fill="black"/>
<path d="M19.9258 58.1473C19.9486 57.6997 20.0743 57.264 20.2924 56.8759C20.5105 56.4878 20.815 56.1584 21.1807 55.9146C21.523 55.7102 21.834 55.6894 22.0603 55.82C22.2866 55.9505 22.4283 56.2438 22.4283 56.6582C22.4048 57.1057 22.2791 57.5412 22.0613 57.9295C21.8436 58.3177 21.5401 58.6477 21.1752 58.8929C20.8274 59.0972 20.5146 59.118 20.2883 58.9818C20.0619 58.8456 19.9258 58.5598 19.9258 58.1473Z" fill="#407BFF"/>
<path opacity="0.2" d="M19.9258 58.1473C19.9486 57.6997 20.0743 57.264 20.2924 56.8759C20.5105 56.4878 20.815 56.1584 21.1807 55.9146C21.523 55.7102 21.834 55.6894 22.0603 55.82C22.2866 55.9505 22.4283 56.2438 22.4283 56.6582C22.4048 57.1057 22.2791 57.5412 22.0613 57.9295C21.8436 58.3177 21.5401 58.6477 21.1752 58.8929C20.8274 59.0972 20.5146 59.118 20.2883 58.9818C20.0619 58.8456 19.9258 58.5598 19.9258 58.1473Z" fill="black"/>
<path d="M20.469 57.822C20.4825 57.568 20.5539 57.3208 20.6777 57.1006C20.8014 56.8803 20.9739 56.6931 21.1812 56.5543C21.2492 56.4922 21.3345 56.4537 21.425 56.4444C21.5155 56.435 21.6066 56.4553 21.6853 56.5022C21.7639 56.5492 21.8262 56.6204 21.8632 56.7059C21.9002 56.7913 21.9101 56.8866 21.8914 56.9781C21.8779 57.2316 21.8066 57.4783 21.6832 57.6982C21.5598 57.9181 21.3878 58.1051 21.1812 58.244C21.113 58.3053 21.0279 58.3432 20.9377 58.3523C20.8475 58.3614 20.7569 58.3413 20.6784 58.2948C20.5999 58.2483 20.5375 58.1777 20.5 58.093C20.4624 58.0082 20.4516 57.9134 20.469 57.822Z" fill="#37474F"/>
<path d="M21.5592 56.7887C21.5628 56.6746 21.5367 56.5616 21.4838 56.4613C21.3771 56.4677 21.2734 56.5008 21.182 56.5578C20.9748 56.6967 20.8023 56.8838 20.6785 57.1041C20.5548 57.3244 20.4833 57.5716 20.4699 57.8256C20.4673 57.9395 20.4933 58.0523 20.5453 58.1529C20.6527 58.1466 20.7569 58.1135 20.849 58.0564C21.0559 57.9173 21.228 57.7301 21.3514 57.5098C21.4748 57.2896 21.546 57.0425 21.5592 56.7887Z" fill="#263238"/>
<path d="M49.6575 33.4884C49.4312 33.354 49.1165 33.3729 48.7706 33.5792C48.4054 33.8237 48.1015 34.1533 47.8834 34.5412C47.6654 34.9292 47.5394 35.3645 47.5156 35.812C47.5156 36.2263 47.6592 36.5159 47.8836 36.6502L52.8942 39.6247L54.6626 36.4629L49.6575 33.4884Z" fill="#407BFF"/>
<path opacity="0.3" d="M49.6575 33.4884C49.4312 33.354 49.1165 33.3729 48.7706 33.5792C48.4054 33.8237 48.1015 34.1533 47.8834 34.5412C47.6654 34.9292 47.5394 35.3645 47.5156 35.812C47.5156 36.2263 47.6592 36.5159 47.8836 36.6502L52.8942 39.6247L54.6626 36.4629L49.6575 33.4884Z" fill="black"/>
<path opacity="0.3" d="M47.6626 35.0286C47.5694 35.279 47.5184 35.5439 47.5117 35.8119C47.5117 36.2263 47.6552 36.5158 47.8797 36.6502L52.8903 39.6247L53.5159 38.5064L47.6626 35.0286Z" fill="black"/>
<path d="M52.5322 38.7902C52.5558 38.3427 52.6815 37.9072 52.8992 37.5189C53.1169 37.1307 53.4205 36.8006 53.7853 36.5555C54.1294 36.353 54.4404 36.3322 54.6667 36.4628C54.8931 36.5933 55.0348 36.8866 55.0348 37.301C55.0119 37.7487 54.8863 38.1844 54.6681 38.5724C54.45 38.9605 54.1456 39.29 53.7798 39.5338C53.4339 39.7401 53.1211 39.759 52.8929 39.6246C52.6647 39.4903 52.5322 39.2008 52.5322 38.7902Z" fill="#407BFF"/>
<path opacity="0.2" d="M52.5322 38.7902C52.5558 38.3427 52.6815 37.9072 52.8992 37.5189C53.1169 37.1307 53.4205 36.8006 53.7853 36.5555C54.1294 36.353 54.4404 36.3322 54.6667 36.4628C54.8931 36.5933 55.0348 36.8866 55.0348 37.301C55.0119 37.7487 54.8863 38.1844 54.6681 38.5724C54.45 38.9605 54.1456 39.29 53.7798 39.5338C53.4339 39.7401 53.1211 39.759 52.8929 39.6246C52.6647 39.4903 52.5322 39.2008 52.5322 38.7902Z" fill="black"/>
<path d="M53.0761 38.4685C53.0893 38.2147 53.1605 37.9676 53.2839 37.7474C53.4073 37.5271 53.5795 37.3398 53.7864 37.2008C53.8581 37.1478 53.942 37.1151 54.0298 37.1058C54.1176 37.0965 54.2062 37.111 54.2869 37.1478C54.3605 37.2 54.419 37.2717 54.4562 37.3553C54.4935 37.4389 54.5081 37.5313 54.4985 37.6227C54.4854 37.8768 54.414 38.1241 54.2903 38.3444C54.1665 38.5647 53.9939 38.7518 53.7864 38.8905C53.7185 38.9523 53.6334 38.9906 53.5431 38.9999C53.4529 39.0093 53.362 38.9892 53.2835 38.9425C53.2049 38.8959 53.1427 38.825 53.1054 38.7399C53.0682 38.6549 53.058 38.5599 53.0761 38.4685Z" fill="#37474F"/>
<path d="M54.1656 37.4318C54.1682 37.3179 54.1422 37.2051 54.0902 37.1045C53.9828 37.1108 53.8786 37.1439 53.7866 37.201C53.5794 37.34 53.407 37.5272 53.2833 37.7474C53.1595 37.9677 53.088 38.2148 53.0744 38.4688C53.0715 38.583 53.0981 38.696 53.1517 38.7961C53.2585 38.7897 53.3621 38.7566 53.4535 38.6996C53.6607 38.5606 53.8331 38.3734 53.9568 38.1532C54.0805 37.9329 54.1521 37.6858 54.1656 37.4318Z" fill="#263238"/>
<path d="M53.5153 22.7406L48.1055 19.5238C47.7591 18.8452 47.3433 18.2064 46.8652 17.6184C49.7689 18.1388 52.0653 19.9477 53.5153 22.7406Z" fill="#407BFF"/>
<path opacity="0.2" d="M53.5153 22.7406L48.1055 19.5238C47.7591 18.8452 47.3433 18.2064 46.8652 17.6184C49.7689 18.1388 52.0653 19.9477 53.5153 22.7406Z" fill="black"/>
<path d="M52.5134 36.5878C52.7886 35.0835 52.9309 33.5565 52.9385 32.0258C52.9385 21.6774 45.8744 17.4825 37.1597 22.6576C28.445 27.8327 21.379 40.4138 21.379 50.7622C21.3705 52.128 21.5138 53.4904 21.8059 54.8228L19.7708 56.0319C19.5174 54.6828 19.3941 53.3113 19.4028 51.9373C19.4028 40.2909 27.3557 26.126 37.1652 20.3037C46.9747 14.4814 54.9258 19.2006 54.9258 30.8488C54.9226 32.3703 54.7996 33.8891 54.5578 35.3901L52.5337 36.5954" fill="#37474F"/>
<path d="M52.5159 36.5878C52.7898 35.0826 52.9314 33.5551 52.9392 32.0238C52.9392 25.1987 49.8662 21.0492 45.2715 20.5023C46.7086 22.474 47.533 25.2877 47.533 28.8279C47.5242 30.3548 47.3825 31.8778 47.1097 33.3786L52.5159 36.5878Z" fill="#263238"/>
<path d="M49.3984 18.8429C46.2113 17.1399 41.9037 17.4919 37.1617 20.3074C27.3504 26.1259 19.3993 40.2889 19.3993 51.9391C19.3906 53.3119 19.5139 54.6822 19.7673 56.03L14.3703 52.8246C14.1115 51.4793 13.9839 50.1108 13.9894 48.7394C13.9894 37.0911 21.9405 22.9281 31.7519 17.104C36.652 14.1938 41.0867 13.9194 44.3013 15.8248C45.1257 16.3055 48.16 18.1087 49.3984 18.8429Z" fill="#455A64"/>
<path d="M17.0098 51.2391C16.8594 51.2336 16.7129 51.188 16.5848 51.1067C16.3215 50.9299 16.1021 50.6922 15.9443 50.4126C15.7864 50.133 15.6945 49.8192 15.6758 49.4964C15.6758 49.065 15.8929 48.7869 16.2278 48.7869C16.3781 48.7916 16.5246 48.8366 16.6529 48.9174C16.9168 49.0958 17.1364 49.3351 17.2942 49.6164C17.4521 49.8976 17.5437 50.213 17.5619 50.5371C17.56 50.9591 17.3429 51.2391 17.0098 51.2391Z" fill="#263238"/>
<path d="M50.199 17.7245C48.6278 16.8579 46.8681 16.4164 45.0853 16.4416C42.3749 16.4416 39.4841 17.3423 36.4903 19.1171C29.5623 23.2289 23.5176 31.3785 20.371 39.9709L14.9648 36.7542C18.1114 28.1618 24.1653 20.0122 31.0841 15.9004C34.0779 14.1256 36.9724 13.2211 39.6791 13.2211C41.5298 13.1951 43.354 13.6743 44.9657 14.61C45.8214 15.1284 49.0544 17.0433 50.199 17.7245Z" fill="#407BFF"/>
<path opacity="0.6" d="M50.199 17.7245C48.6278 16.8579 46.8681 16.4164 45.0853 16.4416C42.3749 16.4416 39.4841 17.3423 36.4903 19.1171C29.5623 23.2289 23.5176 31.3785 20.371 39.9709L14.9648 36.7542C18.1114 28.1618 24.1653 20.0122 31.0841 15.9004C34.0779 14.1256 36.9724 13.2211 39.6791 13.2211C41.5298 13.1951 43.354 13.6743 44.9657 14.61C45.8214 15.1284 49.0544 17.0433 50.199 17.7245Z" fill="white"/>
<path d="M53.513 22.7388C51.7797 19.4105 48.8373 17.4672 45.0854 17.4672C42.5516 17.4672 39.8264 18.3206 36.989 20.0065C30.199 24.0369 24.2795 32.056 21.2359 40.4857L20.3711 39.971C23.5177 31.3786 29.5624 23.2289 36.4903 19.1172C39.4841 17.3423 42.3786 16.4417 45.0854 16.4417C49.0342 16.4417 52.1716 18.3603 54.1019 21.6925L53.513 22.7388Z" fill="#407BFF"/>
<path d="M106.895 75.3265C104.102 72.2498 100.097 69.8948 94.8783 68.2613C94.4554 68.1475 94.0146 68.1221 93.582 68.1867C87.7614 69.3144 83.0038 72.2525 78.6766 75.4998C78.6072 75.5476 78.5495 75.6115 78.5082 75.6862C78.4668 75.7609 78.443 75.8445 78.4384 75.9303C78.4339 76.0162 78.4489 76.1019 78.4821 76.1808C78.5153 76.2597 78.566 76.3296 78.63 76.3849L78.84 76.5768C71.5804 74.5426 62.6538 75.3051 56.6543 78.867C49.0163 83.3994 49.0163 90.7551 56.6543 95.2901C64.2924 99.8251 76.6777 99.8225 84.3157 95.2901C89.7007 92.0908 91.2823 87.4998 89.0785 83.4794C90.6457 84.2161 92.2513 84.8632 93.8879 85.4176C94.3008 85.531 94.7389 85.4962 95.1298 85.3189C99.5374 83.0261 103.735 79.2776 106.864 76.3156C106.996 76.1885 107.073 76.013 107.079 75.8276C107.084 75.6422 107.019 75.462 106.895 75.3265Z" fill="#E0E0E0"/>
<path d="M93.6982 52.5227L94.6783 52.552L95.4924 41.3598L94.5123 41.3304L93.6982 52.5227Z" fill="#455A64"/>
<path d="M102.069 57.2469L103.049 57.2762L103.861 46.084L102.881 46.0547L102.069 57.2469Z" fill="#455A64"/>
<path d="M101.737 58.2068H103.36L105.717 75.523C105.717 75.562 105.706 75.6 105.685 75.6327C105.664 75.6653 105.635 75.6911 105.6 75.707C105.511 75.753 105.412 75.7769 105.311 75.7769C105.211 75.7769 105.112 75.753 105.022 75.707C104.994 75.6926 104.969 75.6724 104.949 75.6476C104.929 75.6229 104.914 75.594 104.906 75.563L101.737 58.2068Z" fill="#455A64"/>
<path d="M92.0088 52.4269H93.6292L95.9886 69.7404C95.9882 69.7797 95.9767 69.818 95.9555 69.8506C95.9343 69.8833 95.9044 69.9089 95.8693 69.9244C95.7803 69.9716 95.6816 69.9963 95.5815 69.9963C95.4814 69.9963 95.3827 69.9716 95.2937 69.9244C95.2651 69.9108 95.2398 69.8908 95.2196 69.8659C95.1995 69.841 95.1849 69.8118 95.1771 69.7804L92.0088 52.4269Z" fill="#455A64"/>
<path d="M79.4814 75.2138L82.2816 58.2068H83.902L80.2956 75.2537C80.2873 75.2842 80.2729 75.3126 80.2532 75.337C80.2336 75.3613 80.2091 75.3811 80.1815 75.395C80.092 75.4423 79.9929 75.4669 79.8924 75.4669C79.7918 75.4669 79.6927 75.4423 79.6033 75.395C79.5683 75.3805 79.5384 75.3554 79.5176 75.323C79.4968 75.2907 79.486 75.2526 79.4866 75.2138H79.4814Z" fill="#455A64"/>
<path d="M90.0205 81.4713L92.3747 64.1577H93.9951L90.832 81.5139C90.8238 81.5444 90.8094 81.5728 90.7897 81.5972C90.77 81.6215 90.7456 81.6413 90.7179 81.6552C90.6285 81.7025 90.5294 81.7271 90.4289 81.7271C90.3283 81.7271 90.2292 81.7025 90.1398 81.6552C90.105 81.6404 90.0753 81.6152 90.0545 81.5829C90.0337 81.5506 90.0228 81.5127 90.0231 81.4739L90.0205 81.4713Z" fill="#455A64"/>
<path d="M82.2828 58.2068H83.9032L83.2447 61.3234C82.8765 61.0088 82.517 60.6862 82.1661 60.3557C82.0886 60.2774 82.023 60.1875 81.9717 60.089L82.2828 58.2068Z" fill="#37474F"/>
<path d="M103.36 58.2068L103.64 60.2757C103.584 60.4875 103.476 60.681 103.327 60.8382C103.026 61.1235 102.707 61.4088 102.375 61.694L101.737 58.2068H103.36Z" fill="#37474F"/>
<path d="M92.0537 66.5412L92.3752 64.1577H93.9956L93.4771 67.0638C92.9897 66.9038 92.5152 66.7296 92.0537 66.5412Z" fill="#37474F"/>
<path d="M93.4684 52.8772C93.5412 52.8635 93.6149 52.8546 93.6888 52.8506L95.5296 66.389C95.234 66.5543 94.9385 66.7142 94.6403 66.8715L92.1436 53.1652C92.5791 53.0612 93.0199 52.9599 93.4684 52.8772Z" fill="#37474F"/>
<path d="M93.4876 65.7571C88.8986 64.1948 85.191 61.9046 82.1654 59.0466C81.9463 58.8133 81.8165 58.5066 81.7998 58.1827V57.2843C81.8081 57.1263 81.848 56.9718 81.9172 56.8305C81.9864 56.6891 82.0832 56.5641 82.2017 56.4631C85.5512 53.9798 89.403 52.3065 93.4695 51.5682C93.7929 51.5177 94.1229 51.5359 94.4392 51.6215C98.3126 52.8372 101.285 54.5871 103.355 56.871C103.559 57.1231 103.676 57.4369 103.69 57.7642V58.6653C103.675 58.989 103.546 59.2961 103.327 59.5291C100.993 61.726 97.6852 63.9841 94.4081 65.6878C94.1182 65.8195 93.793 65.844 93.4876 65.7571Z" fill="#407BFF"/>
<path opacity="0.4" d="M81.7998 57.2761V58.1746C81.8165 58.4984 81.9463 58.8052 82.1654 59.0384C85.1884 61.8965 88.9064 64.1893 93.4851 65.749C93.6534 65.7986 93.8297 65.8131 94.0036 65.7916V51.5387C93.8305 51.5245 93.6564 51.5316 93.4851 51.5601C89.4174 52.2986 85.5646 53.9728 82.2146 56.4577C82.094 56.557 81.9948 56.681 81.9234 56.822C81.8519 56.9629 81.8099 57.1176 81.7998 57.2761Z" fill="black"/>
<path opacity="0.5" d="M93.998 51.5388V65.7917C94.1404 65.7804 94.2794 65.7415 94.4077 65.6771C97.6823 63.9761 101.003 61.7179 103.327 59.5211C103.546 59.2881 103.675 58.981 103.69 58.6573V57.7588C103.676 57.4315 103.558 57.1178 103.355 56.8657C101.284 54.5799 98.3157 52.8336 94.4492 51.6268C94.3028 51.5789 94.1513 51.5493 93.998 51.5388Z" fill="black"/>
<path d="M103.327 57.588C100.993 59.7875 97.6852 62.0404 94.4081 63.7414C94.1182 63.8725 93.7935 63.8979 93.4877 63.8133C88.8986 62.259 85.191 59.9715 82.1654 57.1108C82.118 57.0697 82.0805 57.0179 82.056 56.9593C82.0315 56.9008 82.0206 56.8372 82.0241 56.7735C82.0276 56.7099 82.0455 56.648 82.0763 56.5927C82.1071 56.5374 82.1501 56.4902 82.2017 56.4549C85.5507 53.9705 89.4027 52.2971 93.4695 51.56C93.7929 51.5095 94.1229 51.5277 94.4392 51.6133C98.3126 52.8291 101.285 54.5762 103.355 56.8549C103.443 56.9576 103.489 57.0909 103.483 57.2273C103.478 57.3637 103.422 57.4928 103.327 57.588Z" fill="#407BFF"/>
<path opacity="0.3" d="M103.327 57.588C100.993 59.7875 97.6852 62.0404 94.4081 63.7414C94.1182 63.8725 93.7935 63.8979 93.4877 63.8133C88.8986 62.259 85.191 59.9715 82.1654 57.1108C82.118 57.0697 82.0805 57.0179 82.056 56.9593C82.0315 56.9008 82.0206 56.8372 82.0241 56.7735C82.0276 56.7099 82.0455 56.648 82.0763 56.5927C82.1071 56.5374 82.1501 56.4902 82.2017 56.4549C85.5507 53.9705 89.4027 52.2971 93.4695 51.56C93.7929 51.5095 94.1229 51.5277 94.4392 51.6133C98.3126 52.8291 101.285 54.5762 103.355 56.8549C103.443 56.9576 103.489 57.0909 103.483 57.2273C103.478 57.3637 103.422 57.4928 103.327 57.588Z" fill="black"/>
<path d="M105.78 44.2336C102.669 40.1278 98.6067 37.7185 93.5942 37.0058C93.2841 36.9762 92.9723 37.0372 92.6945 37.1818C92.5744 37.2663 92.4753 37.3785 92.405 37.5096C92.3348 37.6406 92.2954 37.7868 92.29 37.9363V41.7221C92.2933 41.863 92.3448 41.9982 92.4353 42.104C92.5259 42.2098 92.6498 42.2794 92.7852 42.3007C97.7978 43.0116 101.86 45.4209 104.971 49.5284C105.05 49.6373 105.165 49.7138 105.294 49.7445C105.423 49.7752 105.558 49.7582 105.676 49.6964C105.797 49.6126 105.897 49.5006 105.968 49.3694C106.039 49.2383 106.078 49.0918 106.083 48.9419V45.156C106.068 44.8254 105.963 44.5057 105.78 44.2336Z" fill="#407BFF"/>
<path opacity="0.5" d="M102.486 46.7826L105.999 44.6951C106.05 44.8444 106.078 45.0009 106.082 45.159V48.9448C106.077 49.0947 106.038 49.2412 105.967 49.3724C105.896 49.5035 105.796 49.6156 105.675 49.6993C105.557 49.7611 105.422 49.7782 105.293 49.7474C105.164 49.7167 105.05 49.6402 104.97 49.5313C104.226 48.5385 103.395 47.6183 102.486 46.7826Z" fill="black"/>
<path opacity="0.3" d="M102.486 46.7826C99.7918 44.3244 96.5613 42.8288 92.795 42.2955C92.6595 42.2743 92.5356 42.2047 92.4451 42.0989C92.3545 41.9931 92.3031 41.8579 92.2998 41.717V37.9312C92.3052 37.7816 92.3446 37.6355 92.4148 37.5045C92.4851 37.3734 92.5842 37.2612 92.7043 37.1766C92.9821 37.0321 93.2939 36.9711 93.6039 37.0007C98.6165 37.7116 102.678 40.1209 105.79 44.2284C105.887 44.3679 105.961 44.5228 106.01 44.687L102.486 46.7826Z" fill="black"/>
<path d="M104.968 49.5288C101.862 45.4177 97.8044 43.0067 92.7953 42.2957C92.6598 42.2745 92.536 42.2048 92.4454 42.0991C92.3549 41.9933 92.3034 41.8581 92.3001 41.7172V37.9313C92.2977 37.8664 92.3094 37.8018 92.3343 37.7421C92.3592 37.6825 92.3968 37.6292 92.4442 37.5863C92.4916 37.5435 92.5477 37.512 92.6085 37.4942C92.6692 37.4764 92.733 37.4727 92.7953 37.4834C97.8078 38.1944 101.87 40.6036 104.981 44.7112C105.164 44.9825 105.268 45.3014 105.282 45.631V49.4195C105.271 49.7074 105.139 49.7608 104.968 49.5288Z" fill="#407BFF"/>
<path opacity="0.4" d="M104.968 49.5288C101.862 45.4177 97.8044 43.0067 92.7953 42.2957C92.6598 42.2745 92.536 42.2048 92.4454 42.0991C92.3549 41.9933 92.3034 41.8581 92.3001 41.7172V37.9313C92.2977 37.8664 92.3094 37.8018 92.3343 37.7421C92.3592 37.6825 92.3968 37.6292 92.4442 37.5863C92.4916 37.5435 92.5477 37.512 92.6085 37.4942C92.6692 37.4764 92.733 37.4727 92.7953 37.4834C97.8078 38.1944 101.87 40.6036 104.981 44.7112C105.164 44.9825 105.268 45.3014 105.282 45.631V49.4195C105.271 49.7074 105.139 49.7608 104.968 49.5288Z" fill="black"/>
<path d="M91.6502 32.543C89.812 32.6763 89.0031 32.9456 88.2797 34.7158C87.6756 36.2142 85.7052 43.6685 85.7052 43.6685C85.7052 43.6685 81.7902 46.156 79.7705 47.1984L81.9613 49.014C81.9613 49.014 86.903 47.2598 87.7715 46.8332C88.6401 46.4066 88.6219 46.1533 89.5683 43.0207C90.9294 38.563 91.6502 32.543 91.6502 32.543Z" fill="#FFBDA7"/>
<path d="M91.7688 32.4309C90.6772 32.3749 89.2331 32.7162 88.489 33.9453C87.7449 35.1743 86.2256 41.0877 86.2256 41.0877C86.2256 41.0877 88.1857 42.8447 90.7109 42.81L91.9554 36.6913L91.7688 32.4309Z" fill="#407BFF"/>
<path d="M85.9542 74.3043C85.9542 74.3043 85.6742 77.6236 85.192 78.706C84.6755 79.9393 84.0147 81.1032 83.2241 82.1719C83.0323 82.4385 82.5889 82.9051 82.4308 83.1104C82.3931 83.1512 82.3648 83.2001 82.3477 83.2535C82.3306 83.3069 82.3252 83.3635 82.3319 83.4193C82.3386 83.4751 82.3572 83.5287 82.3864 83.5762C82.4156 83.6238 82.4546 83.6641 82.5008 83.6943C82.9389 84.0809 84.7149 84.0835 85.6664 83.265C86.6179 82.4465 87.3828 81.1455 87.9428 80.4976C88.2228 80.175 88.4873 79.8658 88.6791 79.6365C88.7715 79.5292 88.8349 79.3989 88.8631 79.2586C88.8913 79.1183 88.8833 78.9728 88.8399 78.8367C88.814 78.7567 88.788 78.666 88.7569 78.5567C88.4769 77.5863 88.941 74.7682 88.941 74.7682C88.0258 73.5978 87.0172 74.0457 85.9542 74.3043Z" fill="#FFBDA7"/>
<path d="M88.9877 79.7883C89.0251 79.9651 89.0171 80.1489 88.9644 80.3215C88.8737 80.5695 88.2307 81.0414 87.8962 81.2333C87.5122 81.472 87.2104 81.8281 87.0329 82.2518C86.6543 82.9983 86.0684 83.8114 85.3061 84.2194C84.2817 84.7386 83.1277 84.9246 81.9979 84.7526C80.5952 84.5686 80.4422 83.7315 80.4422 83.7315C80.4422 83.7315 80.3282 82.9316 80.6678 82.7983C81.0075 82.665 88.9877 79.7883 88.9877 79.7883Z" fill="#263238"/>
<path d="M89.13 78.8022C89.1534 79.1378 89.1047 79.4746 88.9874 79.7887C88.6062 80.3939 87.6495 80.6365 87.1284 81.463C86.6073 82.2895 86.0032 83.5532 84.2013 84.0198C82.3993 84.4863 80.9863 83.9638 80.6234 83.4466C80.2604 82.9293 80.543 82.4121 81.6786 81.7056C82.8842 80.9511 84.2713 79.0395 84.2713 79.0395C84.725 78.3863 84.8961 77.5412 85.1346 76.784C85.1554 76.712 85.1943 76.624 85.2694 76.6187C85.3446 76.6134 85.4043 76.7254 85.4561 76.8027C85.5482 76.9141 85.676 76.9879 85.8165 77.0106C86.2964 77.1622 86.798 77.2281 87.2995 77.2053C87.3538 77.1953 87.4095 77.1966 87.4634 77.209C87.5172 77.2213 87.5682 77.2445 87.6132 77.2772C87.6436 77.3172 87.6659 77.3631 87.6788 77.4121C87.6917 77.4611 87.695 77.5122 87.6884 77.5625C87.6836 77.6892 87.6724 77.8156 87.6547 77.9411C87.6391 78.0014 87.6391 78.0648 87.6547 78.1251C87.6732 78.1665 87.7034 78.2013 87.7412 78.2251C87.7791 78.2488 87.823 78.2604 87.8673 78.2584C87.9609 78.255 88.0514 78.2225 88.1266 78.165C88.2727 78.0837 88.3992 77.9696 88.4966 77.8311C88.594 77.6926 88.6598 77.5334 88.6892 77.3652C88.6892 77.3652 88.6892 77.1733 88.7048 77C88.7596 77.0257 88.8087 77.0626 88.8493 77.1084C88.8898 77.1543 88.9209 77.2081 88.9407 77.2666C88.9694 77.4128 88.9902 77.5605 89.0029 77.7091C89.0711 78.0698 89.1136 78.4352 89.13 78.8022Z" fill="#37474F"/>
<path d="M78.2109 69.9586C78.2109 69.9586 77.8583 73.3899 77.4331 74.491C76.9699 75.7441 76.3605 76.9348 75.6182 78.0369C75.4367 78.3035 75.0167 78.7967 74.8663 79.0073C74.8304 79.0499 74.804 79.1001 74.7892 79.1544C74.7744 79.2087 74.7714 79.2657 74.7806 79.3213C74.7898 79.3769 74.8108 79.4297 74.8423 79.4759C74.8737 79.5221 74.9147 79.5606 74.9623 79.5885C75.416 79.9565 77.1894 79.8765 78.1072 79.0153C79.025 78.1542 79.7276 76.8185 80.2591 76.1466C80.5184 75.8107 80.7777 75.4881 80.9592 75.2535C81.0442 75.142 81.1003 75.0101 81.1221 74.8701C81.1439 74.7302 81.1306 74.5869 81.0836 74.4537C81.0551 74.3763 81.024 74.2857 80.9877 74.187C80.6688 73.2273 81.5062 70.5718 81.5062 70.5718C80.5288 69.4414 79.261 69.6547 78.2109 69.9586Z" fill="#FFBDA7"/>
<path d="M81.2661 75.6213C81.3024 75.7982 81.2944 75.9817 81.2428 76.1546C81.1521 76.3998 80.5065 76.8744 80.1746 77.0637C79.7912 77.303 79.4895 77.6589 79.3112 78.0821C78.9301 78.8313 78.3468 79.6418 77.5845 80.0497C76.56 80.5688 75.4061 80.7548 74.2762 80.5829C72.8736 80.3963 72.7206 79.5591 72.7206 79.5591C72.7206 79.5591 72.6092 78.7593 72.9488 78.626C73.2884 78.4927 81.2661 75.6213 81.2661 75.6213Z" fill="#263238"/>
<path d="M81.4054 74.6456C81.4296 74.981 81.3818 75.3178 81.2653 75.6321C80.8842 76.2373 79.9249 76.4799 79.4064 77.3064C78.8879 78.1328 78.2812 79.3966 76.4766 79.8631C74.6721 80.3297 73.2617 79.8045 72.8987 79.2899C72.5358 78.7754 72.8184 78.2555 73.954 77.5463C75.1596 76.7945 76.5467 74.8802 76.5467 74.8802C77.0004 74.2244 77.1715 73.3792 77.4074 72.6247C77.4308 72.5501 77.4696 72.4647 77.5448 72.4594C77.62 72.4541 77.6797 72.5634 77.7315 72.6407C77.821 72.7539 77.9488 72.8282 78.0893 72.8487C78.2491 72.9002 78.4119 72.9411 78.5767 72.9713C78.9057 73.0348 79.2405 73.0599 79.5749 73.046C79.6292 73.0356 79.685 73.0366 79.7389 73.049C79.7928 73.0614 79.8438 73.0848 79.8886 73.1179C79.9186 73.1576 79.9405 73.2031 79.9529 73.2516C79.9654 73.3002 79.9682 73.3508 79.9612 73.4005C79.9591 73.5274 79.9479 73.654 79.9275 73.7791C79.9133 73.8405 79.9133 73.9044 79.9275 73.9658C79.9465 74.0074 79.9771 74.0423 80.0154 74.0661C80.0537 74.0898 80.098 74.1013 80.1427 74.0991C80.2312 74.0902 80.3161 74.0581 80.389 74.0057C80.532 73.9235 80.6548 73.8087 80.7478 73.67C80.8408 73.5313 80.9017 73.3726 80.9257 73.2059C80.9331 73.0835 80.9469 72.9615 80.9672 72.8407C81.0762 72.8951 81.1607 72.9905 81.2031 73.1073C81.242 73.2512 81.2368 73.4059 81.2653 73.5498C81.3379 73.9111 81.3847 74.2773 81.4054 74.6456Z" fill="#37474F"/>
<path d="M101.648 50.1017L97.3567 49.7871L88.6323 49.0646C88.6323 49.0646 80.6234 53.6742 79.4827 56.263C78.8215 57.764 78.1863 69.2229 78.0645 70.9265C78.666 71.417 80.4238 71.9529 81.1601 71.825C81.6164 70.4733 82.0131 69.8947 82.6483 67.9058C83.1669 66.2848 83.6439 65.2024 84.0147 64.0826C84.4365 62.7703 84.6978 61.409 84.7925 60.0302C84.7925 60.0302 87.6185 58.0413 89.7393 57.2121C88.57 58.5265 86.8874 60.902 86.6696 61.4246C86.0188 62.9309 85.7803 73.7365 85.7803 75.2349C86.2496 75.8881 88.4871 76.0214 89.0523 75.6215C89.7316 73.1687 90.2345 71.9876 90.7816 69.972C91.6527 66.7594 91.3701 65.4557 91.2431 64.2826C91.2431 64.2826 93.5013 62.8056 96.4285 60.5501C97.6626 59.5983 99.1871 58.2866 100.032 57.2841C101.58 55.4445 101.811 52.1946 101.648 50.1017Z" fill="#37474F"/>
<path d="M89.7291 57.2252L92.1455 54.4524C92.1455 54.4524 89.6876 53.3433 89.2313 50.9465C89.2313 50.9465 88.832 52.9674 90.7117 54.6097L89.0731 56.9586L84.7822 60.0406C86.5556 59.0914 88.3161 58.1023 89.7291 57.2252Z" fill="#263238"/>
<path d="M95.641 32.3909C96.7657 32.4394 97.8845 32.5848 98.9856 32.8255C100.222 33.2601 100.583 33.5907 101.182 35.3476C102.076 37.9684 101.801 41.5809 101.801 44.0577C101.801 47.3477 101.726 51.1522 101.726 51.1522C99.0219 53.493 90.2171 52.4265 88.7471 49.1233C88.7471 49.1233 89.0893 44.9908 89.0893 37.4671C89.0893 33.8199 90.3675 32.3136 92.6335 32.3136C92.6361 32.3136 94.5028 32.3429 95.641 32.3909Z" fill="#455A64"/>
<path d="M93.7559 23.9582C93.78 24.5071 93.6452 25.051 93.3687 25.5211C93.0922 25.9912 92.6863 26.3665 92.2024 26.5994C91.7184 26.8324 91.1782 26.9125 90.65 26.8297C90.1218 26.7469 89.6293 26.5049 89.2349 26.1343C88.8404 25.7638 88.5616 25.2812 88.4339 24.7477C88.3061 24.2142 88.335 23.6537 88.517 23.1372C88.699 22.6206 89.0258 22.1711 89.4563 21.8455C89.8867 21.52 90.4013 21.3329 90.935 21.3081C91.2895 21.2917 91.6436 21.3471 91.9772 21.4714C92.3108 21.5957 92.6173 21.7863 92.8793 22.0324C93.1412 22.2785 93.3534 22.5752 93.5038 22.9056C93.6543 23.2361 93.7399 23.5937 93.7559 23.9582Z" fill="#263238"/>
<path d="M98.0804 26.2589C98.0804 26.2589 97.6474 29.0663 97.4477 29.5329C97.3153 29.8187 97.0801 30.0405 96.7918 30.1514L96.7451 28.1918L98.0804 26.2589Z" fill="#263238"/>
<path d="M97.5609 22.2997C97.7207 22.2811 97.8824 22.3069 98.0293 22.3744C98.1761 22.4419 98.3026 22.5487 98.3957 22.6836C98.7742 23.2541 98.5824 24.7152 98.082 26.2695L97.0449 26.4454L97.5609 22.2997Z" fill="#263238"/>
<path d="M97.9052 22.5929L99.173 22.4196C99.1704 22.3331 99.1503 22.2481 99.1139 22.1701C99.0775 22.0921 99.0257 22.0228 98.9618 21.9665C98.8978 21.9103 98.8232 21.8685 98.7426 21.8436C98.662 21.8188 98.5772 21.8116 98.4937 21.8224C98.32 21.8524 98.1633 21.9481 98.0545 22.0905C97.9457 22.233 97.8924 22.4122 97.9052 22.5929Z" fill="#263238"/>
<path d="M98.0139 22.2625L98.8124 21.1961C98.7485 21.1396 98.674 21.0972 98.5935 21.0717C98.5129 21.0462 98.4281 21.0381 98.3444 21.0478C98.2607 21.0576 98.1798 21.085 98.1069 21.1284C98.0339 21.1718 97.9705 21.2303 97.9205 21.3001C97.8165 21.4435 97.7684 21.6218 97.7857 21.7999C97.8029 21.978 97.8843 22.143 98.0139 22.2625Z" fill="#263238"/>
<path d="M96.729 26.4508C96.9442 26.5735 97.2216 26.1309 97.4679 25.8296C97.7142 25.5284 98.435 25.2164 98.8939 26.1442C98.988 26.3352 99.0426 26.5443 99.0541 26.7581C99.0656 26.9719 99.0337 27.1859 98.9606 27.3864C98.8875 27.5869 98.7747 27.7696 98.6293 27.9229C98.4839 28.0763 98.3091 28.1969 98.1161 28.2771C97.9346 28.3593 97.7338 28.3855 97.5381 28.3523C97.3425 28.3192 97.1604 28.2282 97.0142 28.0905L97.0608 32.7161C95.9512 35.4969 91.4736 34.873 93.0707 32.9987V31.2391C93.0707 31.2391 92.2929 31.3218 91.5695 31.3324C90.968 31.3324 90.2991 30.9405 89.9802 29.9994C89.6136 28.8604 89.3914 27.6776 89.3191 26.4802C89.2634 25.757 89.2634 25.0305 89.3191 24.3073C89.625 21.2226 93.2599 20.2575 95.2822 21.4972C97.3045 22.737 96.729 26.4508 96.729 26.4508Z" fill="#FFBDA7"/>
<path d="M92.0912 23.7555C92.8381 23.6251 93.5589 23.3693 94.225 22.9983C94.2541 22.9753 94.2877 22.9588 94.3234 22.9501C94.3592 22.9413 94.3964 22.9405 94.4324 22.9477C94.5102 22.9717 94.5465 23.0543 94.5776 23.129C94.6954 23.4828 94.8393 23.8268 95.008 24.1581C95.1812 24.4913 95.4657 24.7489 95.8092 24.8833C95.9363 24.9025 96.0548 24.9611 96.1488 25.0512C96.2214 25.1564 96.2604 25.2822 96.2603 25.4111C96.2554 25.5778 96.2363 25.7438 96.2033 25.907C96.1721 26.1336 96.1177 26.5256 96.2499 26.7202C96.278 26.7618 96.3142 26.7969 96.3563 26.8233C96.3984 26.8496 96.4454 26.8666 96.4942 26.8732C96.5431 26.8797 96.5927 26.8756 96.64 26.8612C96.6872 26.8468 96.731 26.8224 96.7685 26.7895C96.9218 26.6327 97.0512 26.4529 97.1522 26.2563C97.2713 26.0643 97.4094 25.8857 97.5644 25.7231C97.7096 25.5791 97.637 25.2778 97.6603 25.0779C97.7096 24.6753 97.7278 24.2781 97.7407 23.8621C97.7407 23.5182 97.9533 22.7451 98 22.4065C98.07 21.9186 98.0207 22.0919 97.8418 21.7506C97.4529 20.151 95.708 19.5671 94.3417 19.7164C93.7349 19.7865 93.1244 19.8168 92.5139 19.807C91.7452 19.8022 90.9784 19.729 90.2219 19.5884C90.1191 19.5604 90.011 19.5604 89.9082 19.5884C89.8289 19.6287 89.7653 19.6955 89.7276 19.7778C89.6899 19.8601 89.6805 19.9531 89.7008 20.0416C89.7431 20.2184 89.8247 20.3827 89.9393 20.5215C89.7086 20.4159 89.464 20.3458 89.2134 20.3136C89.0873 20.2978 88.9594 20.3109 88.8388 20.3519C88.7182 20.3929 88.608 20.4609 88.5159 20.5509C88.4229 20.6764 88.3581 20.8217 88.3262 20.9762C88.2944 21.1306 88.2963 21.2904 88.3318 21.444C88.4237 21.9478 88.6457 22.4169 88.9746 22.802C89.3036 23.1871 89.7272 23.4741 90.2012 23.6329C90.8127 23.8281 91.4607 23.8701 92.0912 23.7555Z" fill="#263238"/>
<path d="M93.0762 31.2311C93.0762 31.2311 94.9325 30.8259 95.5703 30.4313C95.9497 30.1953 96.2507 29.8468 96.4337 29.4315C96.3524 29.8434 96.1949 30.2353 95.9696 30.5859C95.5185 31.2631 93.0762 31.8603 93.0762 31.8603V31.2311Z" fill="#F0997A"/>
<path d="M93.0583 26.1416C93.052 26.1962 93.0571 26.2515 93.0731 26.304C93.0892 26.3564 93.1158 26.4047 93.1513 26.4458C93.1868 26.4868 93.2304 26.5197 93.2792 26.5422C93.3279 26.5647 93.3808 26.5764 93.4342 26.5764C93.4876 26.5764 93.5405 26.5647 93.5892 26.5422C93.638 26.5197 93.6816 26.4868 93.7171 26.4458C93.7526 26.4047 93.7792 26.3564 93.7953 26.304C93.8113 26.2515 93.8164 26.1962 93.8101 26.1416C93.8119 26.0889 93.8034 26.0363 93.7853 25.987C93.7672 25.9376 93.7397 25.8924 93.7045 25.854C93.6694 25.8156 93.6271 25.7847 93.5803 25.7631C93.5334 25.7416 93.4829 25.7298 93.4316 25.7284C93.3294 25.7339 93.2332 25.7801 93.1635 25.8573C93.0939 25.9344 93.0561 26.0364 93.0583 26.1416Z" fill="#263238"/>
<path d="M93.2734 24.8727L94.0824 25.3393C94.1373 25.2208 94.1478 25.0857 94.112 24.9598C94.0761 24.8339 93.9963 24.726 93.8879 24.6568C93.8344 24.6263 93.7752 24.6077 93.7143 24.6022C93.6534 24.5967 93.592 24.6043 93.5341 24.6247C93.4762 24.645 93.4231 24.6776 93.3782 24.7203C93.3333 24.763 93.2976 24.8149 93.2734 24.8727Z" fill="#263238"/>
<path d="M93.6723 28.6986L92.376 29.2318C92.4027 29.3241 92.4476 29.4098 92.508 29.4835C92.5683 29.5572 92.6428 29.6172 92.7267 29.66C92.8106 29.7028 92.9022 29.7273 92.9958 29.7321C93.0893 29.7369 93.1828 29.7218 93.2705 29.6877C93.4446 29.6033 93.5821 29.4554 93.6564 29.2726C93.7306 29.0899 93.7363 28.8854 93.6723 28.6986Z" fill="#F0997A"/>
<path d="M89.7619 25.4989L90.4905 24.8857C90.4568 24.8337 90.4129 24.7895 90.3617 24.756C90.3104 24.7225 90.2529 24.7004 90.1928 24.6911C90.1328 24.6818 90.0715 24.6856 90.0129 24.7021C89.9543 24.7186 89.8997 24.7475 89.8527 24.787C89.7541 24.8727 89.6901 24.9932 89.6733 25.1249C89.6566 25.2565 89.6882 25.3899 89.7619 25.4989Z" fill="#263238"/>
<path d="M90.0064 26.2991C90.013 26.3739 90.0406 26.4452 90.0859 26.5041C90.1312 26.5631 90.1923 26.6072 90.2616 26.631C90.3309 26.6548 90.4054 26.6574 90.4761 26.6384C90.5468 26.6193 90.6106 26.5795 90.6596 26.5238C90.7086 26.4681 90.7408 26.3989 90.7522 26.3247C90.7636 26.2504 90.7537 26.1744 90.7238 26.1059C90.6938 26.0374 90.6451 25.9793 90.5835 25.9388C90.522 25.8983 90.4503 25.8771 90.3772 25.8778C90.3259 25.8802 90.2755 25.893 90.229 25.9155C90.1826 25.9381 90.1409 25.9698 90.1064 26.009C90.0719 26.0481 90.0454 26.0939 90.0282 26.1437C90.011 26.1935 90.0036 26.2463 90.0064 26.2991Z" fill="#263238"/>
<path d="M91.8584 26.1124L91.9569 28.6052L90.6035 28.3279L91.8584 26.1124Z" fill="#F0997A"/>
<path d="M95.9355 20.3724C96.9726 21.0709 98.1497 22.4013 98.0822 25.3047C98.321 25.4606 98.5119 25.6827 98.633 25.9455C98.7542 26.2083 98.8005 26.5009 98.7667 26.7897C98.6967 27.6961 98.0122 28.432 97.2396 28.4293C96.467 28.4266 95.894 27.6908 95.964 26.7817C96.0159 26.1045 96.5577 25.3393 97.1152 25.262C97.2036 24.2692 97.0402 23.2697 96.6407 22.3613C95.7462 20.1778 93.768 19.9618 91.9531 19.7965C92.5831 19.4979 94.5406 19.4259 95.9355 20.3724Z" fill="#407BFF"/>
<path opacity="0.5" d="M95.9355 20.3724C96.9726 21.0709 98.1497 22.4013 98.0822 25.3047C98.321 25.4606 98.5119 25.6827 98.633 25.9455C98.7542 26.2083 98.8005 26.5009 98.7667 26.7897C98.6967 27.6961 98.0122 28.432 97.2396 28.4293C96.467 28.4266 95.894 27.6908 95.964 26.7817C96.0159 26.1045 96.5577 25.3393 97.1152 25.262C97.2036 24.2692 97.0402 23.2697 96.6407 22.3613C95.7462 20.1778 93.768 19.9618 91.9531 19.7965C92.5831 19.4979 94.5406 19.4259 95.9355 20.3724Z" fill="black"/>
<path d="M95.7957 26.7759C95.8734 25.7681 96.6305 24.955 97.4887 24.9576C97.6187 24.9577 97.748 24.9774 97.8724 25.0163C97.9761 25.051 98.295 25.1869 98.3572 25.2136C98.671 25.362 98.9304 25.6097 99.0974 25.9206C99.2644 26.2314 99.3303 26.5891 99.2854 26.9412C99.2076 27.9463 98.4506 28.7595 97.5924 28.7595C97.4346 28.7593 97.2782 28.7295 97.1309 28.6715L96.6849 28.4875C96.382 28.3329 96.1334 28.0848 95.974 27.778C95.8146 27.4712 95.7523 27.1209 95.7957 26.7759Z" fill="#407BFF"/>
<path opacity="0.3" d="M95.7957 26.7759C95.8734 25.7681 96.6305 24.955 97.4887 24.9576C97.6187 24.9577 97.748 24.9774 97.8724 25.0163C97.9761 25.051 98.295 25.1869 98.3572 25.2136C98.671 25.362 98.9304 25.6097 99.0974 25.9206C99.2644 26.2314 99.3303 26.5891 99.2854 26.9412C99.2076 27.9463 98.4506 28.7595 97.5924 28.7595C97.4346 28.7593 97.2782 28.7295 97.1309 28.6715L96.6849 28.4875C96.382 28.3329 96.1334 28.0848 95.974 27.778C95.8146 27.4712 95.7523 27.1209 95.7957 26.7759Z" fill="black"/>
<path d="M96.1803 26.9337C96.2581 25.9285 97.0151 25.1154 97.8733 25.118C98.7315 25.1207 99.3615 25.9365 99.2863 26.9416C99.2111 27.9468 98.4515 28.7599 97.5933 28.7599C96.7351 28.7599 96.1025 27.9388 96.1803 26.9337Z" fill="#407BFF"/>
<path opacity="0.1" d="M96.1803 26.9337C96.2581 25.9285 97.0151 25.1154 97.8733 25.118C98.7315 25.1207 99.3615 25.9365 99.2863 26.9416C99.2111 27.9468 98.4515 28.7599 97.5933 28.7599C96.7351 28.7599 96.1025 27.9388 96.1803 26.9337Z" fill="black"/>
<path d="M96.999 26.9359C97.0066 26.717 97.0921 26.5086 97.2393 26.3503C97.3866 26.192 97.5852 26.0949 97.7975 26.0774C97.8981 26.0842 97.9961 26.1126 98.0854 26.1606C98.1746 26.2087 98.2531 26.2754 98.3158 26.3565C98.3786 26.4375 98.4241 26.5312 98.4496 26.6314C98.4751 26.7317 98.48 26.8363 98.4639 26.9385C98.4563 27.1574 98.3707 27.3658 98.2235 27.5241C98.0763 27.6824 97.8776 27.7795 97.6653 27.797C97.5646 27.7906 97.4664 27.7625 97.3769 27.7146C97.2875 27.6666 97.2088 27.5999 97.146 27.5187C97.0832 27.4376 97.0377 27.3438 97.0123 27.2434C96.987 27.143 96.9825 27.0382 96.999 26.9359Z" fill="#455A64"/>
<path d="M75.2652 83.0652C72.6336 81.5029 68.3686 81.5029 65.737 83.0652C64.4226 83.8463 63.7666 84.8701 63.7666 85.8939C63.7666 86.0005 63.7666 86.6511 63.7666 86.7737C63.7873 87.7815 64.4433 88.7839 65.737 89.5518C68.3686 91.1141 72.6336 91.1141 75.2652 89.5518C76.5615 88.7813 77.2227 87.7708 77.2356 86.7577C77.2356 86.6404 77.2356 85.9872 77.2356 85.8779C77.2175 84.8595 76.5615 83.841 75.2652 83.0652Z" fill="#37474F"/>
<path d="M65.7237 88.7226C63.0921 87.1603 63.0921 84.6275 65.7237 83.0652C68.3553 81.5029 72.6202 81.5029 75.2518 83.0652C77.8834 84.6275 77.8834 87.1603 75.2518 88.7226C72.6202 90.2849 68.3553 90.2849 65.7237 88.7226Z" fill="#455A64"/>
<path d="M71.3218 85.2197V68.2634H69.6443V85.2197C69.6392 85.3029 69.6594 85.3856 69.7022 85.4563C69.7449 85.527 69.8081 85.5823 69.8829 85.6143C70.0669 85.7103 70.2703 85.7604 70.4766 85.7604C70.6829 85.7604 70.8863 85.7103 71.0703 85.6143C71.1477 85.5848 71.2139 85.5306 71.2592 85.4596C71.3045 85.3886 71.3264 85.3045 71.3218 85.2197Z" fill="#37474F"/>
<path d="M84.3011 52.6056C76.663 48.0732 64.2778 48.0732 56.6397 52.6056C52.8207 54.8717 50.9124 57.8444 50.915 60.8171V61.393C50.915 64.3657 52.8207 67.3383 56.6397 69.6045C64.2778 74.1369 76.663 74.1369 84.3011 69.6045C88.1201 67.3383 90.0283 64.3657 90.0257 61.393V60.8171C90.0283 57.8444 88.1201 54.8744 84.3011 52.6056Z" fill="#455A64"/>
<path d="M84.3193 51.0937C76.6813 46.5614 64.296 46.5614 56.6579 51.0937C52.8363 53.3599 50.9307 56.3326 50.9307 59.3053C50.9307 59.9131 50.9307 59.6839 50.9307 60.2944C50.9307 63.2671 52.8363 66.2371 56.6579 68.5059C64.296 73.0383 76.6813 73.0383 84.3193 68.5059C88.1383 66.2424 90.044 62.8592 90.044 59.8918V59.3159C90.044 56.3379 88.1383 53.3652 84.3193 51.0937Z" fill="#407BFF"/>
<path opacity="0.4" d="M84.3193 51.0937C76.6813 46.5614 64.296 46.5614 56.6579 51.0937C52.8363 53.3599 50.9307 56.3326 50.9307 59.3053C50.9307 59.9131 50.9307 59.6839 50.9307 60.2944C50.9307 63.2671 52.8363 66.2371 56.6579 68.5059C64.296 73.0383 76.6813 73.0383 84.3193 68.5059C88.1383 66.2424 90.044 62.8592 90.044 59.8918V59.3159C90.044 56.3379 88.1383 53.3652 84.3193 51.0937Z" fill="white"/>
<path opacity="0.1" d="M84.3193 51.0937C76.6813 46.5614 64.296 46.5614 56.6579 51.0937C52.8363 53.3599 50.9307 56.3326 50.9307 59.3053C50.9307 59.9131 50.9307 59.6839 50.9307 60.2944C50.9307 63.2671 52.8363 66.2371 56.6579 68.5059C64.296 73.0383 76.6813 73.0383 84.3193 68.5059C88.1383 66.2424 90.044 62.8592 90.044 59.8918V59.3159C90.044 56.3379 88.1383 53.3652 84.3193 51.0937Z" fill="black"/>
<path d="M70.488 70.9238C81.2902 70.9238 90.0472 65.7243 90.0472 59.3104C90.0472 52.8964 81.2902 47.6969 70.488 47.6969C59.6857 47.6969 50.9287 52.8964 50.9287 59.3104C50.9287 65.7243 59.6857 70.9238 70.488 70.9238Z" fill="#407BFF"/>
<path opacity="0.85" d="M56.6397 67.5217C49.0016 62.9894 49.0016 55.6336 56.6397 51.0986C64.2777 46.5636 76.663 46.5663 84.3011 51.0986C91.9391 55.631 91.9417 62.9867 84.3011 67.5217C76.6604 72.0567 64.2777 72.0567 56.6397 67.5217Z" fill="white"/>
<path opacity="0.1" d="M66.8477 54.0955L74.7476 49.4085C74.8166 49.3678 74.8948 49.3464 74.9744 49.3464C75.054 49.3464 75.1322 49.3678 75.2013 49.4085L88.9011 57.5428C88.9167 57.5518 88.9297 57.565 88.9388 57.5809C88.9479 57.5968 88.9526 57.615 88.9526 57.6334C88.9526 57.6519 88.9479 57.67 88.9388 57.6859C88.9297 57.7018 88.9167 57.715 88.9011 57.7241L80.9311 62.4564L66.8477 54.0955Z" fill="black"/>
<path d="M67.4365 53.1094V53.2907C67.4369 53.4225 67.4708 53.5519 67.535 53.6661C67.5991 53.7802 67.6912 53.875 67.8021 53.9412L80.5633 61.5182C80.6746 61.5837 80.8006 61.6181 80.9289 61.6181C81.0571 61.6181 81.1831 61.5837 81.2944 61.5182L88.2506 57.4018C88.361 57.3359 88.4526 57.2414 88.5163 57.1277C88.58 57.014 88.6136 56.8851 88.6136 56.7539V56.4873C88.6138 56.5038 88.6098 56.5201 88.6021 56.5346C88.5944 56.5491 88.5832 56.5612 88.5695 56.57L80.9289 61.1023L67.4365 53.1094Z" fill="#37474F"/>
<path d="M80.9289 61.1183V61.6169C80.8007 61.6177 80.6746 61.5837 80.5633 61.5182L67.8021 53.9412C67.6909 53.8755 67.5985 53.7807 67.5343 53.6665C67.4701 53.5522 67.4364 53.4226 67.4365 53.2907V53.1094L80.9289 61.1183Z" fill="#263238"/>
<path d="M67.4365 53.1094L75.0072 48.6171C75.0729 48.5777 75.1476 48.557 75.2237 48.557C75.2997 48.557 75.3744 48.5777 75.4402 48.6171L88.5669 56.41C88.5814 56.4191 88.5934 56.4318 88.6017 56.447C88.61 56.4621 88.6144 56.4793 88.6144 56.4967C88.6144 56.5141 88.61 56.5312 88.6017 56.5464C88.5934 56.5616 88.5814 56.5743 88.5669 56.5833L80.9315 61.1157L67.4365 53.1094Z" fill="#455A64"/>
<path d="M80.9953 60.4567L85.0788 58.0359L73.1446 50.9521L69.043 53.3596L80.9953 60.4567Z" fill="#37474F"/>
<path d="M69.043 53.3596L69.1985 53.4529L73.1446 51.1361L84.9206 58.1293L85.0761 58.0386L73.1446 50.9521L69.043 53.3596Z" fill="#263238"/>
<path d="M83.0014 53.7252L82.9262 53.7679L80.9273 54.957L77.3701 52.8454L77.2949 52.8001L79.3691 51.5684L83.0014 53.7252Z" fill="#263238"/>
<path d="M82.9272 53.7675L80.9283 54.9566L77.3711 52.8451L79.3701 51.656L82.9272 53.7675Z" fill="#37474F"/>
<path d="M85.8337 43.578C84.7811 44.2152 83.4614 45.047 82.694 45.4843C81.9266 45.9215 81.3665 46.1668 80.5032 46.6093C79.8394 46.9479 79.0046 47.2332 78.5224 47.6971C78.0401 48.161 75.5771 50.6751 75.0404 51.1097C74.5037 51.5443 74.7811 52.0162 75.7767 52.3174C76.1734 52.4467 76.5919 52.4898 77.0057 52.4439C77.4194 52.398 77.8194 52.2641 78.1801 52.0508C78.766 51.6921 79.315 51.2731 79.8187 50.8004C80.2941 50.7802 80.754 50.6201 81.1436 50.3392C81.6621 49.8993 81.9836 49.3741 82.2869 49.1128C82.5903 48.8515 85.4656 47.7451 87.646 46.8866L85.8337 43.578Z" fill="#FFBDA7"/>
<path d="M80.7106 61.2246C80.5903 61.2726 80.4609 61.2923 80.3321 61.2822C80.2033 61.272 80.0784 61.2323 79.9665 61.1659L67.2624 53.6236C67.1517 53.5585 67.0564 53.4691 66.9833 53.3617C66.9103 53.2543 66.8612 53.1316 66.8398 53.0024L65.4501 44.4709C65.4463 44.4221 65.4463 44.373 65.4501 44.3242C65.4505 44.2065 65.4737 44.0901 65.5182 43.9816C65.5627 43.8732 65.6277 43.7749 65.7094 43.6924L78.9139 51.5333C78.9948 51.5819 79.0644 51.6481 79.1177 51.7274C79.171 51.8066 79.2068 51.8969 79.2224 51.9919L80.7106 61.2246Z" fill="#37474F"/>
<path d="M80.9284 61.1182L80.8402 61.1688C80.8023 61.1921 80.7624 61.2117 80.721 61.2275L79.2172 51.9975C79.2015 51.9025 79.1658 51.8122 79.1125 51.733C79.0591 51.6537 78.9896 51.5875 78.9087 51.5389L65.7041 43.698C65.7571 43.6445 65.8163 43.5979 65.8804 43.5593L79.1031 51.4136C79.1847 51.4623 79.2549 51.5289 79.3086 51.6086C79.3624 51.6883 79.3985 51.7792 79.4142 51.8748L80.9284 61.1182Z" fill="#455A64"/>
<path d="M79.0957 51.712L79.3005 51.5894C79.3622 51.6734 79.404 51.7711 79.4224 51.8746L80.9287 61.118L80.8406 61.1686C80.8027 61.1919 80.7628 61.2115 80.7213 61.2273L79.2176 51.9973C79.2015 51.893 79.1595 51.7947 79.0957 51.712Z" fill="#263238"/>
<path d="M73.5656 53.3546C73.4722 52.784 72.8993 52.0215 72.2848 51.6616C71.6703 51.3017 71.2477 51.4643 71.341 52.0349C71.4344 52.6054 72.01 53.3679 72.6218 53.7278C73.2337 54.0877 73.6589 53.9251 73.5656 53.3546Z" fill="#407BFF"/>
<path d="M92.7335 52.8427C93.0991 52.5228 99.1193 50.4166 100.219 49.8114C101.318 49.2062 101.427 48.6677 101.738 46.9534C102.189 44.4659 102.575 38.3766 102.477 36.265C102.407 34.7374 101.59 33.4256 99.3008 33.1217C98.6111 33.8789 97.9344 35.4065 98.2144 38.8698C98.1004 40.3575 97.4366 46.6174 97.4366 46.6174C96.4903 47.124 94.2373 48.5717 93.1328 49.2035C92.355 49.6514 91.8027 49.8861 90.9393 50.3286C90.2756 50.6646 89.4434 50.9525 88.9585 51.4164C88.4737 51.8803 86.0236 54.3944 85.4895 54.8263C84.9554 55.2582 85.2302 55.7328 86.2232 56.034C86.6204 56.1632 87.0393 56.2062 87.4535 56.1603C87.8676 56.1144 88.268 55.9806 88.6293 55.7674C89.2145 55.4089 89.7627 54.9899 90.2652 54.517C90.7414 54.4966 91.202 54.3366 91.5927 54.0558C92.1164 53.6292 92.4327 53.104 92.7335 52.8427Z" fill="#FFBDA7"/>
<path d="M99.0181 32.8497C100.151 32.9644 101.72 33.4523 102.282 34.4494C102.845 35.4465 102.941 35.8784 102.71 39.0244C102.495 41.9571 102.251 43.7354 102.251 43.7354C102.251 43.7354 100.724 44.6792 97.8203 43.0955L98.0796 38.8298C98.0796 38.8298 97.4418 34.4654 99.0181 32.8497Z" fill="#407BFF"/>
<g opacity="0.2">
<path d="M59.2335 61.6965C58.3078 61.717 57.3963 61.4604 56.6097 60.958C55.9953 60.5394 55.6582 60.0169 55.6582 59.4863C55.6582 58.9558 55.9953 58.4199 56.6097 58.012C57.4047 57.5301 58.3107 57.276 59.2335 57.276C60.1563 57.276 61.0623 57.5301 61.8573 58.012C62.4718 58.4306 62.8088 58.9531 62.8088 59.4863C62.8088 60.0196 62.4718 60.5394 61.8573 60.958C61.0708 61.4604 60.1592 61.717 59.2335 61.6965Z" fill="black"/>
</g>
<path d="M62.2167 59.2145C62.4596 59.2288 62.7028 59.1934 62.9323 59.1105C63.2486 58.9905 63.5234 58.6413 63.7749 58.0441C63.9849 57.5375 64.3246 56.4258 64.086 55.8552C63.7827 55.1274 62.9245 55.1007 62.3567 55.0847H62.1623L62.1312 55.7806C62.1986 55.7806 62.3049 55.8046 62.3904 55.8072C62.7093 55.8072 63.4145 55.9299 63.4923 56.1165C63.7516 56.5671 63.0801 58.2974 62.7871 58.4866C62.4248 58.5667 62.0501 58.5667 61.6878 58.4866L61.4648 59.0678C61.7068 59.1556 61.9603 59.205 62.2167 59.2145Z" fill="#407BFF"/>
<path opacity="0.5" d="M62.2167 59.2145C62.4596 59.2288 62.7028 59.1934 62.9323 59.1105C63.2486 58.9905 63.5234 58.6413 63.7749 58.0441C63.9849 57.5375 64.3246 56.4258 64.086 55.8552C63.7827 55.1274 62.9245 55.1007 62.3567 55.0847H62.1623L62.1312 55.7806C62.1986 55.7806 62.3049 55.8046 62.3904 55.8072C62.7093 55.8072 63.4145 55.9299 63.4923 56.1165C63.7516 56.5671 63.0801 58.2974 62.7871 58.4866C62.4248 58.5667 62.0501 58.5667 61.6878 58.4866L61.4648 59.0678C61.7068 59.1556 61.9603 59.205 62.2167 59.2145Z" fill="black"/>
<path d="M56.2516 54.2423C56.3164 53.9464 56.6016 53.6558 57.1045 53.4238C58.4672 52.8853 59.9729 52.8693 61.3462 53.3785C61.8647 53.5998 62.1447 53.8824 62.2173 54.1783H62.2329C62.4533 56.1219 62.137 58.3828 61.4758 59.6385C61.4731 59.6481 61.4687 59.6571 61.4629 59.6651C61.4637 59.6713 61.4637 59.6776 61.4629 59.6838C61.3286 59.9073 61.14 60.0911 60.9158 60.217C60.4197 60.482 59.87 60.6232 59.3111 60.6292C58.7521 60.6352 58.1996 60.5059 57.6983 60.2517C57.469 60.1291 57.2763 59.9448 57.1408 59.7185V59.7025L57.1253 59.6731C56.4382 58.4307 56.0882 56.1779 56.2567 54.229L56.2516 54.2423Z" fill="#407BFF"/>
<path opacity="0.4" d="M56.2516 54.2423C56.3164 53.9464 56.6016 53.6558 57.1045 53.4238C58.4672 52.8853 59.9729 52.8693 61.3462 53.3785C61.8647 53.5998 62.1447 53.8824 62.2173 54.1783H62.2329C62.4533 56.1219 62.137 58.3828 61.4758 59.6385C61.4731 59.6481 61.4687 59.6571 61.4629 59.6651C61.4637 59.6713 61.4637 59.6776 61.4629 59.6838C61.3286 59.9073 61.14 60.0911 60.9158 60.217C60.4197 60.482 59.87 60.6232 59.3111 60.6292C58.7521 60.6352 58.1996 60.5059 57.6983 60.2517C57.469 60.1291 57.2763 59.9448 57.1408 59.7185V59.7025L57.1253 59.6731C56.4382 58.4307 56.0882 56.1779 56.2567 54.229L56.2516 54.2423Z" fill="black"/>
<path d="M57.1176 53.4238C55.9535 53.9571 55.9613 54.8075 57.1384 55.3194C58.5122 55.8264 60.0173 55.8094 61.38 55.2714C62.5441 54.7382 62.5363 53.8877 61.3592 53.3785C59.986 52.8693 58.4803 52.8853 57.1176 53.4238Z" fill="#407BFF"/>
<path opacity="0.4" d="M57.5203 53.7598C56.5792 54.1118 56.5844 54.6636 57.5203 54.9969C58.6396 55.3259 59.8278 55.3129 60.9401 54.9596C61.8812 54.6076 61.876 54.0531 60.9401 53.7198C59.8208 53.3895 58.632 53.4034 57.5203 53.7598Z" fill="black"/>
<path d="M57.5266 54.4956C57.3576 54.5536 57.1984 54.6381 57.0547 54.7462C57.2011 54.8503 57.3619 54.9312 57.5317 54.9862C58.651 55.3151 59.8392 55.3022 60.9515 54.9488C61.12 54.8897 61.279 54.8053 61.4234 54.6982C61.2769 54.5941 61.1161 54.5132 60.9463 54.4583C59.827 54.1291 58.6388 54.1421 57.5266 54.4956Z" fill="#263238"/>
<path d="M96.8613 16.1315L97.8025 14.3026L97.0428 12.0658V10.6901L99.3762 12.0658V13.4415L98.3807 15.2171C98.3642 15.2436 98.3408 15.2649 98.3132 15.2784L96.8613 16.1315Z" fill="#407BFF"/>
<path opacity="0.2" d="M96.8613 16.1315L97.8025 14.3026L97.0428 12.0658V10.6901L99.3762 12.0658V13.4415L98.3807 15.2171C98.3642 15.2436 98.3408 15.2649 98.3132 15.2784L96.8613 16.1315Z" fill="black"/>
<path d="M89.8223 1.73163C89.8351 1.48372 89.9048 1.24245 90.0255 1.02747C90.1463 0.812492 90.3147 0.629897 90.5171 0.494567L91.0797 0.171971C91.2948 0.0589375 91.533 0 91.7746 0C92.0161 0 92.2543 0.0589375 92.4694 0.171971L105.573 7.95427C105.773 8.09129 105.94 8.27435 106.061 8.48902C106.181 8.70368 106.251 8.94411 106.265 9.19134V16.1605C106.252 16.4081 106.183 16.649 106.062 16.8639C105.942 17.0788 105.774 17.2616 105.573 17.3975L105.005 17.7335C104.789 17.8443 104.551 17.9019 104.31 17.9019C104.069 17.9019 103.831 17.8443 103.615 17.7335L97.9115 14.3209L96.9159 16.0912C96.9015 16.1148 96.881 16.1339 96.8567 16.1462C96.8324 16.1585 96.8051 16.1636 96.7782 16.1608C96.7512 16.158 96.7255 16.1476 96.704 16.1305C96.6825 16.1135 96.6661 16.0906 96.6566 16.0645L95.6066 12.9479L90.5171 9.93518C90.3154 9.80037 90.1474 9.61862 90.0267 9.40463C89.9059 9.19064 89.8359 8.95043 89.8223 8.70344V1.73163Z" fill="#407BFF"/>
<path opacity="0.2" d="M106.268 16.1474C106.255 16.3949 106.185 16.6359 106.065 16.8508C105.945 17.0657 105.777 17.2485 105.576 17.3844L105.008 17.7204C104.812 17.8216 104.598 17.8792 104.379 17.8893C104.16 17.8994 103.941 17.8618 103.737 17.779C104.064 17.9043 104.313 17.715 104.313 17.3071V10.3406C104.305 10.0922 104.235 9.84997 104.111 9.63678L106.066 8.47437C106.19 8.6877 106.259 8.92982 106.268 9.17821V16.1474Z" fill="black"/>
<path opacity="0.2" d="M89.8477 1.52926C89.928 1.22532 90.1977 1.12934 90.5192 1.31864L103.623 9.10361C103.827 9.23473 103.995 9.41852 104.11 9.63683L106.065 8.47708C105.949 8.25859 105.781 8.07482 105.575 7.94386L92.4766 0.172219C92.2602 0.0605768 92.0214 0.00244141 91.7792 0.00244141C91.5371 0.00244141 91.2982 0.0605768 91.0818 0.172219L90.514 0.508145C90.3421 0.623838 90.1946 0.773829 90.0801 0.949227C89.9657 1.12463 89.8866 1.32186 89.8477 1.52926Z" fill="white"/>
<path d="M103.527 13.545C103.553 13.545 103.578 13.5343 103.597 13.5153C103.615 13.4963 103.626 13.4706 103.626 13.4437V13.0891C103.626 13.0622 103.615 13.0365 103.597 13.0175C103.578 12.9985 103.553 12.9878 103.527 12.9878C103.501 12.9878 103.476 12.9985 103.458 13.0175C103.439 13.0365 103.429 13.0622 103.429 13.0891V13.4437C103.429 13.4706 103.439 13.4963 103.458 13.5153C103.476 13.5343 103.501 13.545 103.527 13.545Z" fill="#FAFAFA"/>
<path d="M103.029 14.2542C103.055 14.2542 103.08 14.2436 103.099 14.2246C103.117 14.2056 103.127 14.1798 103.127 14.1529V11.7908C103.127 11.7639 103.117 11.7381 103.099 11.7191C103.08 11.7001 103.055 11.6895 103.029 11.6895C103.002 11.6894 102.977 11.7 102.958 11.719C102.939 11.7379 102.928 11.7637 102.928 11.7908V14.1529C102.928 14.18 102.939 14.2058 102.958 14.2247C102.977 14.2436 103.002 14.2542 103.029 14.2542Z" fill="#FAFAFA"/>
<path d="M102.531 13.425C102.557 13.425 102.582 13.4143 102.601 13.3953C102.619 13.3763 102.63 13.3506 102.63 13.3237V12.0306C102.63 12.0038 102.619 11.978 102.601 11.959C102.582 11.94 102.557 11.9293 102.531 11.9293C102.505 11.9293 102.48 11.94 102.461 11.959C102.443 11.978 102.433 12.0038 102.433 12.0306V13.3237C102.433 13.3506 102.443 13.3763 102.461 13.3953C102.48 13.4143 102.505 13.425 102.531 13.425Z" fill="#FAFAFA"/>
<path d="M101.539 12.4894C101.565 12.4894 101.59 12.4787 101.608 12.4597C101.627 12.4407 101.637 12.4149 101.637 12.3881V11.7855C101.637 11.7586 101.627 11.7329 101.608 11.7139C101.59 11.6949 101.565 11.6842 101.539 11.6842C101.512 11.6842 101.487 11.6948 101.468 11.7137C101.449 11.7326 101.438 11.7584 101.438 11.7855V12.3881C101.438 12.4152 101.449 12.4409 101.468 12.4599C101.487 12.4788 101.512 12.4894 101.539 12.4894Z" fill="#FAFAFA"/>
<path d="M101.041 12.6546C101.054 12.6546 101.067 12.6519 101.079 12.6467C101.091 12.6414 101.102 12.6337 101.112 12.624C101.121 12.6143 101.128 12.6029 101.133 12.5903C101.138 12.5777 101.14 12.5642 101.139 12.5507V11.031C101.139 11.0041 101.129 10.9784 101.111 10.9594C101.092 10.9404 101.067 10.9297 101.041 10.9297C101.015 10.9297 100.99 10.9404 100.971 10.9594C100.953 10.9784 100.942 11.0041 100.942 11.031V12.5507C100.942 12.5642 100.944 12.5777 100.949 12.5903C100.954 12.6029 100.961 12.6143 100.97 12.624C100.98 12.6337 100.991 12.6414 101.003 12.6467C101.015 12.6519 101.028 12.6546 101.041 12.6546Z" fill="#FAFAFA"/>
<path d="M100.542 13.4569C100.568 13.4569 100.593 13.4462 100.612 13.4272C100.63 13.4082 100.64 13.3824 100.64 13.3556V9.62304C100.64 9.59617 100.63 9.5704 100.612 9.5514C100.593 9.5324 100.568 9.52173 100.542 9.52173C100.516 9.52173 100.491 9.5324 100.472 9.5514C100.454 9.5704 100.443 9.59617 100.443 9.62304V13.3556C100.443 13.3824 100.454 13.4082 100.472 13.4272C100.491 13.4462 100.516 13.4569 100.542 13.4569Z" fill="#FAFAFA"/>
<path d="M100.047 12.7798C100.074 12.7798 100.099 12.7691 100.117 12.7501C100.136 12.7311 100.146 12.7054 100.146 12.6785V9.72447C100.142 9.70008 100.13 9.6779 100.112 9.66189C100.093 9.64588 100.07 9.63708 100.046 9.63708C100.022 9.63708 99.9989 9.64588 99.9806 9.66189C99.9623 9.6779 99.9501 9.70008 99.9463 9.72447V12.6785C99.9463 12.692 99.9489 12.7054 99.954 12.7179C99.9591 12.7304 99.9666 12.7416 99.9761 12.7511C99.9855 12.7605 99.9967 12.7679 100.009 12.7729C100.021 12.7778 100.034 12.7802 100.047 12.7798Z" fill="#FAFAFA"/>
<path d="M99.5497 13.1346C99.5758 13.1346 99.6009 13.1239 99.6194 13.1049C99.6378 13.0859 99.6482 13.0602 99.6482 13.0333V8.78088C99.6482 8.75401 99.6378 8.72824 99.6194 8.70924C99.6009 8.69024 99.5758 8.67957 99.5497 8.67957C99.5236 8.67957 99.4985 8.69024 99.48 8.70924C99.4616 8.72824 99.4512 8.75401 99.4512 8.78088V13.0333C99.4512 13.0466 99.4537 13.0598 99.4587 13.0721C99.4636 13.0843 99.4709 13.0955 99.48 13.1049C99.4892 13.1143 99.5 13.1218 99.512 13.1269C99.5239 13.132 99.5368 13.1346 99.5497 13.1346Z" fill="#FAFAFA"/>
<path d="M99.0526 11.7323C99.0788 11.7323 99.1038 11.7216 99.1223 11.7026C99.1408 11.6836 99.1512 11.6579 99.1512 11.631V9.59142C99.1512 9.56456 99.1408 9.53879 99.1223 9.51979C99.1038 9.50079 99.0788 9.49011 99.0526 9.49011C99.0265 9.49011 99.0014 9.50079 98.983 9.51979C98.9645 9.53879 98.9541 9.56456 98.9541 9.59142V11.6363C98.9554 11.6622 98.9664 11.6867 98.9847 11.7045C99.0031 11.7224 99.0274 11.7323 99.0526 11.7323Z" fill="#FAFAFA"/>
<path d="M98.5572 10.6605C98.5833 10.6605 98.6084 10.6498 98.6268 10.6308C98.6453 10.6118 98.6557 10.5861 98.6557 10.5592V10.074C98.6519 10.0496 98.6397 10.0274 98.6214 10.0114C98.6031 9.99536 98.5799 9.98657 98.5559 9.98657C98.5319 9.98657 98.5086 9.99536 98.4903 10.0114C98.472 10.0274 98.4599 10.0496 98.4561 10.074V10.5698C98.4587 10.5953 98.4705 10.6188 98.4893 10.6356C98.508 10.6524 98.5323 10.6613 98.5572 10.6605Z" fill="#FAFAFA"/>
<path d="M97.5643 11.223C97.5905 11.223 97.6155 11.2123 97.634 11.1933C97.6525 11.1743 97.6629 11.1486 97.6629 11.1217V8.33031C97.6629 8.30345 97.6525 8.27768 97.634 8.25868C97.6155 8.23968 97.5905 8.229 97.5643 8.229C97.5382 8.229 97.5132 8.23968 97.4947 8.25868C97.4762 8.27768 97.4658 8.30345 97.4658 8.33031V11.1217C97.4658 11.1486 97.4762 11.1743 97.4947 11.1933C97.5132 11.2123 97.5382 11.223 97.5643 11.223Z" fill="#FAFAFA"/>
<path d="M96.5691 11.3696C96.5952 11.3696 96.6203 11.3589 96.6388 11.3399C96.6573 11.3209 96.6676 11.2952 96.6676 11.2683V7.01855C96.6676 6.99168 96.6573 6.96591 96.6388 6.94691C96.6203 6.92791 96.5952 6.91724 96.5691 6.91724C96.543 6.91724 96.5179 6.92791 96.4994 6.94691C96.481 6.96591 96.4706 6.99168 96.4706 7.01855V11.255C96.4687 11.2693 96.4699 11.284 96.474 11.2978C96.4781 11.3117 96.4851 11.3245 96.4944 11.3354C96.5038 11.3462 96.5153 11.3549 96.5282 11.3608C96.541 11.3667 96.555 11.3697 96.5691 11.3696Z" fill="#FAFAFA"/>
<path d="M95.5757 8.94846C95.6018 8.94846 95.6269 8.93778 95.6454 8.91878C95.6639 8.89978 95.6742 8.87401 95.6742 8.84714V8.24461C95.6704 8.22022 95.6583 8.19804 95.64 8.18203C95.6217 8.16602 95.5984 8.15723 95.5744 8.15723C95.5504 8.15723 95.5272 8.16602 95.5089 8.18203C95.4906 8.19804 95.4784 8.22022 95.4746 8.24461V8.84714C95.4746 8.86068 95.4772 8.87407 95.4823 8.88654C95.4875 8.89901 95.4949 8.9103 95.5044 8.91974C95.5138 8.92919 95.525 8.93659 95.5372 8.94152C95.5495 8.94645 95.5626 8.94881 95.5757 8.94846Z" fill="#FAFAFA"/>
<path d="M90.6154 5.88275C90.6286 5.8831 90.6417 5.88075 90.6539 5.87582C90.6662 5.87088 90.6774 5.86348 90.6868 5.85404C90.6962 5.84459 90.7037 5.8333 90.7088 5.82083C90.7139 5.80836 90.7166 5.79497 90.7166 5.78144V5.42685C90.7189 5.41198 90.7181 5.39677 90.7141 5.38227C90.7102 5.36777 90.7032 5.35432 90.6937 5.34285C90.6842 5.33138 90.6724 5.32218 90.6591 5.31586C90.6459 5.30954 90.6314 5.30627 90.6167 5.30627C90.6021 5.30627 90.5876 5.30954 90.5743 5.31586C90.561 5.32218 90.5492 5.33138 90.5397 5.34285C90.5302 5.35432 90.5233 5.36777 90.5194 5.38227C90.5154 5.39677 90.5146 5.41198 90.5169 5.42685V5.77077C90.5155 5.78495 90.5169 5.79927 90.5212 5.81282C90.5255 5.82638 90.5325 5.83884 90.5418 5.84941C90.5511 5.85998 90.5625 5.86841 90.5752 5.87415C90.5879 5.8799 90.6016 5.88283 90.6154 5.88275Z" fill="#FAFAFA"/>
<path d="M91.1132 7.17856C91.1393 7.17856 91.1644 7.16789 91.1828 7.14889C91.2013 7.12989 91.2117 7.10412 91.2117 7.07725V4.71777C91.2117 4.6909 91.2013 4.66513 91.1828 4.64613C91.1644 4.62713 91.1393 4.61646 91.1132 4.61646C91.087 4.61646 91.062 4.62713 91.0435 4.64613C91.025 4.66513 91.0146 4.6909 91.0146 4.71777V7.07725C91.0146 7.10412 91.025 7.12989 91.0435 7.14889C91.062 7.16789 91.087 7.17856 91.1132 7.17856Z" fill="#FAFAFA"/>
<path d="M91.6015 6.94123C91.6276 6.94123 91.6527 6.93056 91.6711 6.91156C91.6896 6.89256 91.7 6.86679 91.7 6.83992V5.54687C91.7 5.52 91.6896 5.49423 91.6711 5.47523C91.6527 5.45623 91.6276 5.44556 91.6015 5.44556C91.5754 5.44556 91.5503 5.45623 91.5318 5.47523C91.5133 5.49423 91.503 5.52 91.503 5.54687V6.83725C91.5026 6.85078 91.5049 6.86424 91.5097 6.87684C91.5145 6.88944 91.5217 6.90093 91.5309 6.91062C91.5401 6.92031 91.551 6.92802 91.5632 6.93327C91.5753 6.93853 91.5883 6.94124 91.6015 6.94123Z" fill="#FAFAFA"/>
<path d="M92.6054 7.18626C92.6315 7.18626 92.6565 7.17559 92.675 7.15659C92.6935 7.13759 92.7039 7.11182 92.7039 7.08495V6.48241C92.7039 6.45554 92.6935 6.42978 92.675 6.41078C92.6565 6.39178 92.6315 6.3811 92.6054 6.3811C92.5792 6.3811 92.5542 6.39178 92.5357 6.41078C92.5172 6.42978 92.5068 6.45554 92.5068 6.48241V7.08495C92.5068 7.11182 92.5172 7.13759 92.5357 7.15659C92.5542 7.17559 92.5792 7.18626 92.6054 7.18626Z" fill="#FAFAFA"/>
<path d="M93.1024 7.9409C93.1286 7.9409 93.1536 7.93023 93.1721 7.91123C93.1906 7.89223 93.201 7.86646 93.201 7.83959V6.31725C93.201 6.29039 93.1906 6.26461 93.1721 6.24562C93.1536 6.22662 93.1286 6.21594 93.1024 6.21594C93.0763 6.21594 93.0512 6.22662 93.0328 6.24562C93.0143 6.26461 93.0039 6.29039 93.0039 6.31725V7.83959C93.0039 7.86646 93.0143 7.89223 93.0328 7.91123C93.0512 7.93023 93.0763 7.9409 93.1024 7.9409Z" fill="#FAFAFA"/>
<path d="M93.5975 9.33542C93.6108 9.33542 93.624 9.33273 93.6362 9.3275C93.6485 9.32228 93.6597 9.31462 93.669 9.30496C93.6784 9.29531 93.6859 9.28385 93.691 9.27123C93.696 9.25862 93.6987 9.2451 93.6987 9.23144V5.50425C93.6948 5.47987 93.6827 5.45769 93.6644 5.44167C93.6461 5.42566 93.6229 5.41687 93.5988 5.41687C93.5748 5.41687 93.5516 5.42566 93.5333 5.44167C93.515 5.45769 93.5029 5.47987 93.499 5.50425V9.23677C93.5003 9.26296 93.5112 9.28767 93.5295 9.30597C93.5477 9.32426 93.5721 9.33478 93.5975 9.33542Z" fill="#FAFAFA"/>
<path d="M94.5917 10.1911C94.6178 10.1911 94.6429 10.1805 94.6614 10.1615C94.6798 10.1425 94.6902 10.1167 94.6902 10.0898V5.82409C94.6902 5.79722 94.6798 5.77145 94.6614 5.75245C94.6429 5.73345 94.6178 5.72278 94.5917 5.72278C94.5656 5.72278 94.5405 5.73345 94.522 5.75245C94.5035 5.77145 94.4932 5.79722 94.4932 5.82409V10.0898C94.4932 10.1167 94.5035 10.1425 94.522 10.1615C94.5405 10.1805 94.5656 10.1911 94.5917 10.1911Z" fill="#FAFAFA"/>
<path d="M95.0904 9.15113C95.1165 9.15113 95.1416 9.14046 95.16 9.12146C95.1785 9.10246 95.1889 9.07669 95.1889 9.04982V7.46617C95.1851 7.44178 95.1729 7.4196 95.1546 7.40359C95.1363 7.38758 95.1131 7.37878 95.0891 7.37878C95.0651 7.37878 95.0418 7.38758 95.0235 7.40359C95.0052 7.4196 94.9931 7.44178 94.9893 7.46617V9.04982C94.9893 9.06335 94.9919 9.07675 94.997 9.08922C95.0021 9.10169 95.0096 9.11297 95.019 9.12242C95.0284 9.13186 95.0396 9.13927 95.0519 9.1442C95.0641 9.14913 95.0772 9.15149 95.0904 9.15113Z" fill="#FAFAFA"/>
<path d="M102.034 14.3742C102.06 14.3742 102.085 14.3636 102.104 14.3446C102.122 14.3256 102.133 14.2998 102.133 14.2729V10.4924C102.133 10.4656 102.122 10.4398 102.104 10.4208C102.085 10.4018 102.06 10.3911 102.034 10.3911C102.008 10.3911 101.983 10.4018 101.964 10.4208C101.946 10.4398 101.936 10.4656 101.936 10.4924V14.2729C101.936 14.2998 101.946 14.3256 101.964 14.3446C101.983 14.3636 102.008 14.3742 102.034 14.3742Z" fill="#FAFAFA"/>
<path d="M98.0595 10.6417C98.0856 10.6417 98.1106 10.631 98.1291 10.612C98.1476 10.593 98.158 10.5673 98.158 10.5404V9.50329C98.158 9.47642 98.1476 9.45065 98.1291 9.43165C98.1106 9.41265 98.0856 9.40198 98.0595 9.40198C98.0333 9.40198 98.0083 9.41265 97.9898 9.43165C97.9713 9.45065 97.9609 9.47642 97.9609 9.50329V10.5404C97.9609 10.5673 97.9713 10.593 97.9898 10.612C98.0083 10.631 98.0333 10.6417 98.0595 10.6417Z" fill="#FAFAFA"/>
<path d="M97.066 12.4197C97.0921 12.4197 97.1171 12.4091 97.1356 12.3901C97.1541 12.3711 97.1645 12.3453 97.1645 12.3184V6.54368C97.1606 6.5193 97.1485 6.49711 97.1302 6.4811C97.1119 6.46509 97.0887 6.4563 97.0647 6.4563C97.0406 6.4563 97.0174 6.46509 96.9991 6.4811C96.9808 6.49711 96.9687 6.5193 96.9648 6.54368V12.3184C96.9648 12.332 96.9675 12.3453 96.9726 12.3578C96.9777 12.3703 96.9852 12.3816 96.9946 12.391C97.004 12.4005 97.0152 12.4079 97.0275 12.4128C97.0397 12.4177 97.0528 12.4201 97.066 12.4197Z" fill="#FAFAFA"/>
<path d="M96.0702 9.9299C96.0963 9.9299 96.1214 9.91923 96.1399 9.90023C96.1584 9.88123 96.1687 9.85546 96.1687 9.82859V7.85302C96.1687 7.82615 96.1584 7.80038 96.1399 7.78138C96.1214 7.76238 96.0963 7.75171 96.0702 7.75171C96.0441 7.75171 96.019 7.76238 96.0005 7.78138C95.9821 7.80038 95.9717 7.82615 95.9717 7.85302V9.82859C95.9717 9.85546 95.9821 9.88123 96.0005 9.90023C96.019 9.91923 96.0441 9.9299 96.0702 9.9299Z" fill="#FAFAFA"/>
<path d="M92.119 8.47933C92.1322 8.47969 92.1453 8.47733 92.1575 8.4724C92.1698 8.46747 92.181 8.46006 92.1904 8.45062C92.1998 8.44118 92.2073 8.42989 92.2124 8.41742C92.2175 8.40495 92.2202 8.39155 92.2202 8.37802V4.59751C92.2163 4.57313 92.2042 4.55095 92.1859 4.53494C92.1676 4.51892 92.1444 4.51013 92.1203 4.51013C92.0963 4.51013 92.0731 4.51892 92.0548 4.53494C92.0365 4.55095 92.0243 4.57313 92.0205 4.59751V8.37802C92.0205 8.40489 92.0309 8.43066 92.0494 8.44966C92.0678 8.46866 92.0929 8.47933 92.119 8.47933Z" fill="#FAFAFA"/>
<path d="M94.0946 9.23644C94.121 9.23574 94.146 9.22448 94.1644 9.20506C94.1829 9.18563 94.1931 9.15958 94.1931 9.13246V6.19177C94.1931 6.17846 94.1906 6.16529 94.1856 6.153C94.1807 6.1407 94.1734 6.12954 94.1643 6.12013C94.1551 6.11072 94.1443 6.10326 94.1323 6.09817C94.1204 6.09308 94.1076 6.09045 94.0946 6.09045C94.0817 6.09045 94.0689 6.09308 94.0569 6.09817C94.045 6.10326 94.0341 6.11072 94.0249 6.12013C94.0158 6.12954 94.0085 6.1407 94.0036 6.153C93.9986 6.16529 93.9961 6.17846 93.9961 6.19177V9.14312C93.9986 9.16836 94.01 9.19177 94.0282 9.20896C94.0463 9.22615 94.07 9.23592 94.0946 9.23644Z" fill="#FAFAFA"/>
</svg>
