<svg width="120" height="119" viewBox="0 0 120 119" fill="none" xmlns="http://www.w3.org/2000/svg">
<path d="M17.5729 106.085C41.0046 122.284 78.9954 122.284 102.427 106.085C125.859 89.8854 125.856 63.6248 102.427 47.4256C78.998 31.2264 41.0046 31.2264 17.5729 47.4256C-5.85892 63.6248 -5.85632 89.8887 17.5729 106.085Z" fill="#F5F5F5"/>
<path d="M25.1971 1.27L23.3821 2.60795C23.3821 2.50426 23.3977 2.40057 23.3977 2.30022V1.63125C23.3977 0.433783 22.7443 -0.04119 21.9405 0.547507C21.5936 0.820627 21.2971 1.18821 21.0719 1.62455C20.9396 0.116019 20.0347 -0.445918 18.9094 0.383609C17.7063 1.28003 16.7288 3.46089 16.7288 5.25708V6.26054C16.7251 6.67 16.7943 7.07509 16.931 7.44462L15.435 8.55847C15.1996 8.75646 15.0038 9.02315 14.8632 9.33695C14.7227 9.65074 14.6414 10.0028 14.626 10.3647C14.626 11.0337 14.989 11.3013 15.435 10.9668L25.1971 3.6783C25.4326 3.48051 25.6285 3.21387 25.7691 2.90003C25.9096 2.58618 25.9908 2.234 26.0061 1.87207C26.0113 1.20979 25.6483 0.938857 25.1971 1.27Z" fill="#EBEBEB"/>
<path d="M32.9167 8.04653L31.5554 9.04999C31.5592 8.97202 31.5592 8.89382 31.5554 8.81585V8.31747C31.5554 7.41435 31.0628 7.04642 30.456 7.49798C30.1951 7.70569 29.9714 7.98278 29.8 8.31078C29.7015 7.17352 29.0092 6.75207 28.1691 7.37756C27.6893 7.77998 27.29 8.32307 27.0038 8.96251C26.7177 9.60195 26.5528 10.3196 26.5227 11.0569V11.8162C26.5175 12.1204 26.5654 12.4221 26.6627 12.6992L25.5322 13.5388C25.3547 13.6886 25.2071 13.8902 25.1012 14.1273C24.9953 14.3644 24.9342 14.6303 24.9229 14.9035C24.9229 15.4052 25.1951 15.6093 25.5322 15.3584L32.9037 9.86614C33.0811 9.71706 33.2288 9.51608 33.3347 9.27953C33.4405 9.04298 33.5017 8.77754 33.513 8.50478C33.526 7.9997 33.2537 7.79567 32.9167 8.04653Z" fill="#EBEBEB"/>
<path d="M105.771 17.168L104.41 18.1714C104.414 18.0935 104.414 18.0153 104.41 17.9373V17.4289C104.41 16.5258 103.917 16.1578 103.311 16.6127C103.048 16.8185 102.824 17.096 102.655 17.4255C102.556 16.2883 101.877 15.8635 101.024 16.489C100.544 16.8918 100.145 17.435 99.8598 18.0744C99.5741 18.7138 99.4096 19.4313 99.3797 20.1683V20.9276C99.3731 21.2316 99.4201 21.5335 99.5172 21.8106L98.3893 22.6502C98.2114 22.7998 98.0634 23.0013 97.9571 23.2384C97.8508 23.4755 97.7892 23.7415 97.7773 24.0149C97.7773 24.5166 98.0522 24.7207 98.3893 24.4698L105.761 18.9775C105.938 18.8285 106.086 18.6275 106.192 18.3909C106.298 18.1544 106.359 17.8889 106.37 17.6162C106.38 17.1211 106.108 16.9171 105.771 17.168Z" fill="#EBEBEB"/>
<path d="M24.5099 49.7371L4.28809 64.799V66.0533L22.8245 79.8576L43.0463 64.799V63.5447L24.5099 49.7371Z" fill="#FF5E15"/>
<path opacity="0.15" d="M4.28809 64.7992L22.8245 78.6035V79.8578L4.28809 66.0535V64.7992Z" fill="black"/>
<path opacity="0.1" d="M22.8242 78.6031L43.046 63.5446V64.7989L22.8242 79.8575V78.6031Z" fill="black"/>
<path d="M41.2464 59.0162L40.4473 61.0474L40.5767 61.1321L41.3759 59.1009L41.2464 59.0162Z" fill="#455A64"/>
<path d="M39.7709 58.8566L39.6475 58.9552L40.4268 60.5791L40.5502 60.4805L39.7709 58.8566Z" fill="#455A64"/>
<path d="M40.6337 58.6682V63.5651C40.6332 63.5787 40.6298 63.5918 40.6238 63.603C40.6179 63.6142 40.6096 63.6231 40.6 63.6287C40.5737 63.6468 40.5443 63.6563 40.5144 63.6563C40.4846 63.6563 40.4552 63.6468 40.4289 63.6287C40.4188 63.6236 40.41 63.6149 40.4036 63.6037C40.3971 63.5924 40.3933 63.579 40.3926 63.5651V58.6682H40.6337Z" fill="#455A64"/>
<path d="M43.5038 57.146C43.5038 57.5958 43.4004 58.0356 43.2067 58.4096C43.013 58.7837 42.7376 59.0752 42.4154 59.2473C42.0932 59.4195 41.7387 59.4645 41.3967 59.3768C41.0547 59.289 40.7405 59.0724 40.494 58.7543C40.2474 58.4362 40.0794 58.0309 40.0114 57.5897C39.9434 57.1485 39.9783 56.6912 40.1118 56.2756C40.2452 55.8599 40.4712 55.5047 40.7611 55.2548C41.0511 55.0049 41.392 54.8715 41.7407 54.8715C42.2081 54.8723 42.6562 55.1123 42.9867 55.5386C43.3172 55.965 43.5032 56.543 43.5038 57.146Z" fill="#FF5E15"/>
<path opacity="0.2" d="M42.2946 56.5642C42.5228 55.641 42.7639 55.2797 42.611 55.166C42.319 54.9522 41.9858 54.8505 41.6505 54.8726C41.3152 54.8948 40.9918 55.0399 40.7183 55.291C40.4448 55.5422 40.2326 55.8888 40.1065 56.2902C39.9805 56.6916 39.9459 57.1311 40.0068 57.557C40.0678 57.9829 40.2217 58.3775 40.4505 58.6944C40.6793 59.0113 40.9735 59.2373 41.2985 59.346C41.6235 59.4546 41.9657 59.4412 42.285 59.3075C42.6044 59.1738 42.8874 58.9253 43.101 58.5912C42.5695 58.7885 41.9991 57.7616 42.2946 56.5642Z" fill="black"/>
<path d="M40.2053 57.7885C40.2053 58.1048 40.1327 58.4139 39.9965 58.6768C39.8603 58.9397 39.6667 59.1447 39.4402 59.2657C39.2138 59.3867 38.9646 59.4184 38.7242 59.3567C38.4837 59.295 38.2629 59.1427 38.0896 58.9191C37.9162 58.6955 37.7982 58.4106 37.7504 58.1005C37.7026 57.7903 37.7271 57.4688 37.8209 57.1767C37.9147 56.8845 38.0736 56.6348 38.2774 56.4592C38.4812 56.2835 38.7208 56.1897 38.966 56.1897C39.2947 56.1897 39.6099 56.3581 39.8423 56.658C40.0748 56.9578 40.2053 57.3645 40.2053 57.7885Z" fill="#FF5E15"/>
<path opacity="0.2" d="M38.965 56.1897C38.705 56.1897 38.4517 56.2962 38.2416 56.4941C38.2079 57.4674 38.851 58.4207 38.6695 58.7418C38.488 59.0629 38.0498 58.8656 37.8916 58.5913C38.0008 58.8339 38.1575 59.0352 38.3461 59.1749C38.5347 59.3147 38.7485 59.388 38.9659 59.3874C39.1834 59.3868 39.3969 59.3124 39.5851 59.1717C39.7732 59.031 39.9293 58.8289 40.0378 58.5857C40.1462 58.3426 40.2031 58.0668 40.2028 57.7863C40.2025 57.5058 40.145 57.2302 40.036 56.9875C39.9271 56.7447 39.7705 56.5431 39.5821 56.4031C39.3936 56.2631 39.1799 56.1895 38.9625 56.1897H38.965Z" fill="black"/>
<path d="M40.5152 58.9992C41.771 58.9992 42.7891 57.6859 42.7891 56.0658C42.7891 54.4457 41.771 53.1323 40.5152 53.1323C39.2593 53.1323 38.2412 54.4457 38.2412 56.0658C38.2412 57.6859 39.2593 58.9992 40.5152 58.9992Z" fill="#FF5E15"/>
<path opacity="0.1" d="M42.7277 56.7343C42.6419 57.2093 42.4656 57.6491 42.2148 58.0141C41.964 58.379 41.6466 58.6575 41.2914 58.8244C40.9362 58.9913 40.5543 59.0413 40.1803 58.97C39.8063 58.8986 39.452 58.708 39.1495 58.4155C38.847 58.123 38.6058 57.7379 38.4477 57.2949C38.2896 56.8519 38.2196 56.365 38.244 55.8783C38.2685 55.3916 38.3866 54.9205 38.5877 54.5075C38.7889 54.0946 39.0666 53.7528 39.3959 53.5132C39.2038 53.6594 39.0291 53.8408 38.8773 54.0517C38.7643 54.6788 38.8145 55.3364 39.0202 55.923C39.2258 56.5095 39.5755 56.9924 40.0152 57.2969C40.4549 57.6015 40.9601 57.7107 41.4527 57.6078C41.9453 57.5049 42.398 57.1956 42.7407 56.7276L42.7277 56.7343Z" fill="black"/>
<path d="M7.55502 60.2659L6.75586 62.2971L6.88534 62.3819L7.6845 60.3507L7.55502 60.2659Z" fill="#455A64"/>
<path d="M6.0717 60.104L5.94824 60.2026L6.72754 61.8266L6.85099 61.728L6.0717 60.104Z" fill="#455A64"/>
<path d="M6.94036 59.9155V64.8124C6.93932 64.8263 6.9354 64.8395 6.92901 64.8507C6.92261 64.8618 6.91399 64.8706 6.90406 64.876C6.87737 64.8926 6.84812 64.9012 6.81849 64.9012C6.78886 64.9012 6.75962 64.8926 6.73293 64.876C6.72331 64.8704 6.71506 64.8615 6.70911 64.8503C6.70316 64.8391 6.69974 64.826 6.69922 64.8124V59.9155H6.94036Z" fill="#455A64"/>
<path d="M9.81048 58.3904C9.81048 58.8402 9.70708 59.28 9.51334 59.654C9.3196 60.028 9.04423 60.3196 8.72206 60.4917C8.39989 60.6639 8.04538 60.7089 7.70336 60.6212C7.36134 60.5334 7.04718 60.3168 6.8006 59.9987C6.55401 59.6806 6.38609 59.2753 6.31806 58.8341C6.25003 58.3929 6.28494 57.9356 6.41839 57.5199C6.55184 57.1043 6.77783 56.7491 7.06778 56.4992C7.35773 56.2492 7.69861 56.1158 8.04733 56.1158C8.51495 56.1158 8.96341 56.3555 9.29407 56.782C9.62472 57.2086 9.81048 57.7871 9.81048 58.3904Z" fill="#FF5E15"/>
<path opacity="0.2" d="M8.6024 57.8084C8.83057 56.8852 9.0717 56.5239 8.91873 56.4135C8.65454 56.2174 8.35491 56.1148 8.05011 56.1159C7.75303 56.1157 7.46073 56.2123 7.20035 56.3969C6.93997 56.5814 6.71996 56.8478 6.56074 57.1714C6.40152 57.4949 6.30826 57.8651 6.28961 58.2476C6.27096 58.6301 6.32754 59.0125 6.45408 59.3592C6.58063 59.7059 6.77303 60.0058 7.01344 60.231C7.25385 60.4561 7.53446 60.5993 7.82922 60.6471C8.12398 60.6949 8.42333 60.6459 8.69948 60.5046C8.97562 60.3632 9.21961 60.1342 9.40878 59.8387C8.88502 60.036 8.30421 59.0058 8.6024 57.8084Z" fill="black"/>
<path d="M6.51004 59.036C6.51004 59.3522 6.43735 59.6613 6.30116 59.9243C6.16497 60.1872 5.97141 60.3921 5.74494 60.5131C5.51847 60.6341 5.26927 60.6658 5.02885 60.6041C4.78843 60.5424 4.56759 60.3901 4.39426 60.1665C4.22093 59.9429 4.10289 59.658 4.05507 59.3479C4.00724 59.0378 4.03179 58.7163 4.12559 58.4241C4.2194 58.132 4.37826 57.8823 4.58207 57.7066C4.78589 57.5309 5.02551 57.4371 5.27064 57.4371C5.4335 57.4367 5.59482 57.4777 5.74534 57.5579C5.89587 57.6381 6.03263 57.7559 6.14779 57.9044C6.26294 58.053 6.35422 58.2294 6.41639 58.4236C6.47855 58.6178 6.51038 58.8259 6.51004 59.036Z" fill="#FF5E15"/>
<path opacity="0.2" d="M5.26974 57.4371C5.00994 57.4359 4.75658 57.5413 4.54633 57.7382C4.51262 58.7149 5.15306 59.6682 4.97415 59.9859C4.79524 60.3037 4.35186 60.1097 4.19629 59.8388C4.30548 60.0814 4.46224 60.2827 4.65082 60.4224C4.83939 60.5621 5.05315 60.6354 5.27063 60.6348C5.4881 60.6343 5.70163 60.5599 5.88977 60.4192C6.07791 60.2785 6.23404 60.0764 6.34247 59.8332C6.45091 59.59 6.50783 59.3143 6.50752 59.0337C6.50722 58.7532 6.4497 58.4777 6.34073 58.2349C6.23177 57.9921 6.0752 57.7906 5.88676 57.6505C5.69831 57.5105 5.48462 57.4369 5.26714 57.4371H5.26974Z" fill="black"/>
<path d="M6.81789 60.2436C8.07376 60.2436 9.09184 58.9303 9.09184 57.3102C9.09184 55.6901 8.07376 54.3767 6.81789 54.3767C5.56203 54.3767 4.54395 55.6901 4.54395 57.3102C4.54395 58.9303 5.56203 60.2436 6.81789 60.2436Z" fill="#FF5E15"/>
<path opacity="0.1" d="M9.02956 57.982C8.94273 58.4555 8.76586 58.8937 8.51491 59.2569C8.26397 59.6202 7.94685 59.8971 7.59219 60.0627C7.23752 60.2283 6.85647 60.2773 6.48343 60.2054C6.1104 60.1335 5.75712 59.9428 5.45549 59.6507C5.15386 59.3586 4.91337 58.9741 4.75573 58.5321C4.5981 58.09 4.52827 57.6043 4.55257 57.1188C4.57686 56.6332 4.69451 56.1631 4.89489 55.7509C5.09527 55.3386 5.37207 54.9973 5.70031 54.7576C5.50416 54.9035 5.32517 55.0848 5.16877 55.2961C5.0567 55.9224 5.10741 56.579 5.31308 57.1645C5.51875 57.75 5.86797 58.232 6.30693 58.5362C6.74589 58.8405 7.25022 58.9501 7.74222 58.8481C8.23421 58.7461 8.68656 58.4383 9.02956 57.972V57.982Z" fill="black"/>
<path d="M29.0986 70.1643L31.9223 68.0637L34.4555 69.9502L31.6345 72.0475L29.0986 70.1643Z" fill="#F0F0F0"/>
<path d="M9.34537 64.7992L9.34277 53.5035L22.8257 63.5415V74.8404L9.34537 64.7992Z" fill="#F0F0F0"/>
<path d="M9.34277 57.9857L22.8257 68.0303V63.5415L9.34277 53.5035V57.9857Z" fill="#E0E0E0"/>
<path d="M37.9893 63.5413V52.5601L32.9332 50.9914V49.7371L22.8262 63.5413V74.8403L37.9893 63.5413Z" fill="#FAFAFA"/>
<path d="M32.9336 49.7371V50.9914L38.8324 52.8745V51.6202L32.9336 49.7371Z" fill="#263238"/>
<path d="M25.3555 41.5786L38.8332 51.6199L32.9344 49.7367L19.4541 39.6954L25.3555 41.5786Z" fill="#37474F"/>
<path d="M21.9804 65.4315L32.9353 49.7374V48.483L21.1377 66.0536L21.9804 65.4315Z" fill="#37474F"/>
<path d="M19.4567 38.4414L32.9371 48.4827L21.1603 66.07L7.65918 56.012L19.4567 38.4414Z" fill="#455A64"/>
<path d="M15.2275 54.7109L16.9259 55.9753V59.1496L15.2275 57.8953V54.7109Z" fill="#263238"/>
<path d="M16.9248 55.9753L18.6205 54.7109V56.6409L16.9248 59.1496V55.9753Z" fill="#37474F"/>
<path d="M16.9254 52.5601L15.0508 53.9549V54.587L16.9254 55.9752L18.7975 54.587V53.9549L16.9254 52.5601Z" fill="#F5F5F5"/>
<path d="M15.0508 54.5875L16.9254 55.9756V55.3434L15.0508 53.9553V54.5875Z" fill="#E0E0E0"/>
<path d="M18.7969 54.5875L16.9248 55.9756V55.3434L18.7969 53.9553V54.5875Z" fill="#EBEBEB"/>
<path d="M15.6816 53.9547L16.9262 53.0282L18.1708 53.9547L16.9262 54.8779L15.6816 53.9547Z" fill="#FF5E15"/>
<path d="M16.9262 53.0282V54.8779L15.6816 53.9547L16.9262 53.0282Z" fill="#37474F"/>
<path d="M16.9248 53.0282L18.1694 53.9547L16.9248 54.8779V53.0282Z" fill="#263238"/>
<path d="M23.9189 66.4948L27.7123 63.6718V67.4381L23.9189 70.2611V66.4948Z" fill="#455A64"/>
<path d="M27.5438 67.3109V63.7988L23.9189 66.4948V70.0102L27.5438 67.3109Z" fill="#E0E0E0"/>
<path d="M27.7123 67.4381L27.5438 67.311L23.9189 70.0103V70.2612L27.7123 67.4381Z" fill="#37474F"/>
<path d="M23.9189 68.3778L27.7123 65.5548V65.3005L23.9189 68.1236V68.3778Z" fill="#455A64"/>
<path d="M33.1885 59.588L36.9793 56.7649V60.5312L33.1885 63.3543V59.588Z" fill="#455A64"/>
<path d="M36.8107 60.4036V56.8915L33.1885 59.5874V63.1029L36.8107 60.4036Z" fill="#E0E0E0"/>
<path d="M36.9793 60.5313L36.8107 60.4042L33.1885 63.1035V63.3543L36.9793 60.5313Z" fill="#37474F"/>
<path d="M33.1885 61.4711L36.9793 58.648V58.3938L33.1885 61.2202V61.4711Z" fill="#455A64"/>
<path d="M29.0986 70.1643V62.635L31.9223 60.5344V68.0637L29.0986 70.1643Z" fill="#37474F"/>
<path d="M31.8237 67.967V60.6083L29.0986 62.6353V69.994L31.8237 67.967Z" fill="#455A64"/>
<path d="M31.9237 60.5344L31.8252 60.608V67.9667L31.9237 68.0637V60.5344Z" fill="#263238"/>
<path d="M19.7485 65.0196L17.7676 63.5446V67.3075L19.7485 68.7826V65.0196Z" fill="#455A64"/>
<path d="M17.9365 67.1808V63.6687L19.7489 65.02V68.5321L17.9365 67.1808Z" fill="#FAFAFA"/>
<path d="M17.7676 67.3073L17.9361 67.1802L19.7485 68.5315V68.7824L17.7676 67.3073Z" fill="#37474F"/>
<path d="M19.7485 66.8897L17.7676 65.4246V65.1704L19.7485 66.6355V66.8897Z" fill="#455A64"/>
<path d="M17.9365 63.6687L19.7489 65.02V65.7459L17.9365 64.4046V63.6687Z" fill="#F5F5F5"/>
<path d="M13.8511 60.6246L11.8701 59.1495V62.9159L13.8511 64.3909V60.6246Z" fill="#455A64"/>
<path d="M12.041 62.7888V59.2767L13.8508 60.6247V64.1368L12.041 62.7888Z" fill="#FAFAFA"/>
<path d="M11.8701 62.9159L12.0412 62.7888L13.8511 64.1368V64.391L11.8701 62.9159Z" fill="#37474F"/>
<path d="M13.8511 62.4946L11.8701 61.0296V60.7754L13.8511 62.2404V62.4946Z" fill="#455A64"/>
<path d="M12.041 59.2767L13.8508 60.6247V61.3204L12.041 59.9825V59.2767Z" fill="#F5F5F5"/>
<path d="M94.6515 48.6404L74.4297 63.7023V64.9566L94.6515 80.0186L114.876 64.9566V63.7023L94.6515 48.6404Z" fill="#FF5E15"/>
<path opacity="0.15" d="M74.4297 63.7025L94.6541 78.7645L94.6515 80.0188L74.4297 64.9568V63.7025Z" fill="black"/>
<path opacity="0.1" d="M94.654 78.7645L114.876 63.7025V64.9568L94.6514 80.0188L94.654 78.7645Z" fill="black"/>
<path d="M113.132 59.2146L112.333 61.2458L112.462 61.3306L113.262 59.2994L113.132 59.2146Z" fill="#455A64"/>
<path d="M111.858 58.484L111.734 58.5833L112.519 60.2067L112.642 60.1074L111.858 58.484Z" fill="#455A64"/>
<path d="M112.523 58.8691V63.766C112.523 63.7796 112.519 63.7927 112.513 63.8039C112.508 63.8152 112.499 63.824 112.49 63.8296C112.463 63.8477 112.434 63.8572 112.404 63.8572C112.374 63.8572 112.345 63.8477 112.319 63.8296C112.309 63.8242 112.3 63.8155 112.294 63.8043C112.287 63.7931 112.283 63.7799 112.282 63.766V58.8691H112.523Z" fill="#455A64"/>
<path d="M115.393 57.3469C115.393 57.7968 115.29 58.2365 115.096 58.6105C114.903 58.9846 114.627 59.2761 114.305 59.4483C113.983 59.6204 113.628 59.6655 113.286 59.5777C112.944 59.4899 112.63 59.2733 112.384 58.9552C112.137 58.6371 111.969 58.2318 111.901 57.7906C111.833 57.3494 111.868 56.8921 112.001 56.4765C112.135 56.0609 112.361 55.7056 112.651 55.4557C112.941 55.2058 113.282 55.0724 113.63 55.0724C114.098 55.0724 114.546 55.312 114.877 55.7386C115.208 56.1651 115.393 56.7437 115.393 57.3469Z" fill="#FF5E15"/>
<path opacity="0.2" d="M114.183 56.765C114.411 55.8418 114.654 55.4806 114.499 55.3669C114.207 55.1536 113.873 55.0523 113.538 55.0749C113.203 55.0975 112.88 55.2431 112.606 55.4946C112.333 55.746 112.121 56.0929 111.996 56.4945C111.87 56.896 111.836 57.3355 111.897 57.7612C111.958 58.187 112.112 58.5814 112.341 58.898C112.57 59.2146 112.865 59.4403 113.19 59.5486C113.515 59.6568 113.857 59.6431 114.176 59.5091C114.495 59.3751 114.778 59.1263 114.992 58.792C114.468 58.9894 113.89 57.9525 114.183 56.765Z" fill="black"/>
<path d="M112.093 57.9895C112.093 58.3057 112.02 58.6148 111.884 58.8777C111.748 59.1407 111.554 59.3456 111.328 59.4666C111.101 59.5876 110.852 59.6193 110.612 59.5576C110.371 59.4959 110.151 59.3436 109.977 59.12C109.804 58.8964 109.686 58.6115 109.638 58.3014C109.59 57.9912 109.615 57.6698 109.709 57.3776C109.802 57.0855 109.961 56.8358 110.165 56.6601C110.369 56.4844 110.609 56.3906 110.854 56.3906C111.182 56.3906 111.498 56.5591 111.73 56.8589C111.962 57.1588 112.093 57.5654 112.093 57.9895Z" fill="#FF5E15"/>
<path opacity="0.2" d="M110.854 56.3906C110.594 56.391 110.341 56.4976 110.131 56.695C110.097 57.6684 110.74 58.6217 110.561 58.9428C110.382 59.2639 109.939 59.0665 109.783 58.7922C109.892 59.0349 110.049 59.2361 110.238 59.3759C110.426 59.5156 110.64 59.5889 110.858 59.5883C111.075 59.5878 111.289 59.5134 111.477 59.3727C111.665 59.232 111.821 59.0299 111.929 58.7867C112.038 58.5435 112.095 58.2678 112.094 57.9872C112.094 57.7067 112.037 57.4312 111.928 57.1884C111.819 56.9456 111.662 56.7441 111.474 56.604C111.285 56.464 111.072 56.3904 110.854 56.3906Z" fill="black"/>
<path d="M112.405 59.2001C113.661 59.2001 114.679 57.8868 114.679 56.2667C114.679 54.6466 113.661 53.3333 112.405 53.3333C111.149 53.3333 110.131 54.6466 110.131 56.2667C110.131 57.8868 111.149 59.2001 112.405 59.2001Z" fill="#FF5E15"/>
<path opacity="0.1" d="M114.616 56.9492C114.528 57.4224 114.35 57.8599 114.099 58.2224C113.847 58.5848 113.53 58.8609 113.175 59.0256C112.82 59.1903 112.439 59.2386 112.066 59.166C111.693 59.0935 111.34 58.9024 111.038 58.61C110.737 58.3175 110.496 57.933 110.339 57.4909C110.181 57.0488 110.111 56.5631 110.136 56.0775C110.16 55.592 110.277 55.1218 110.477 54.7093C110.677 54.2968 110.954 53.955 111.282 53.7147C111.084 53.8587 110.904 54.0402 110.748 54.2532C110.635 54.8803 110.685 55.5379 110.89 56.1245C111.096 56.7111 111.446 57.1939 111.885 57.4985C112.325 57.803 112.83 57.9122 113.323 57.8093C113.816 57.7064 114.268 57.3971 114.611 56.9291L114.616 56.9492Z" fill="black"/>
<path d="M77.6908 59.1075L76.8916 61.1387L77.0211 61.2234L77.8202 59.1922L77.6908 59.1075Z" fill="#455A64"/>
<path d="M76.4252 58.5392L76.3018 58.6384L77.0864 60.2619L77.2099 60.1626L76.4252 58.5392Z" fill="#455A64"/>
<path d="M77.082 58.762V63.6588C77.0807 63.6726 77.0766 63.6856 77.0703 63.6968C77.0639 63.7079 77.0554 63.7167 77.0457 63.7224C77.019 63.739 76.9897 63.7476 76.9601 63.7476C76.9305 63.7476 76.9012 63.739 76.8745 63.7224C76.8654 63.7161 76.8575 63.707 76.8517 63.6959C76.8458 63.6849 76.8421 63.6722 76.8408 63.6588V58.762H77.082Z" fill="#455A64"/>
<path d="M79.9521 57.2367C79.9521 57.6865 79.8487 58.1263 79.6549 58.5003C79.4612 58.8744 79.1858 59.1659 78.8637 59.338C78.5415 59.5102 78.187 59.5552 77.845 59.4675C77.5029 59.3797 77.1888 59.1631 76.9422 58.845C76.6956 58.5269 76.5277 58.1216 76.4597 57.6804C76.3916 57.2392 76.4265 56.7819 76.56 56.3663C76.6934 55.9506 76.9194 55.5954 77.2094 55.3455C77.4993 55.0956 77.8402 54.9622 78.1889 54.9622C78.6563 54.963 79.1044 55.203 79.4349 55.6293C79.7654 56.0557 79.9514 56.6337 79.9521 57.2367Z" fill="#FF5E15"/>
<path opacity="0.2" d="M78.7414 56.6544C78.9696 55.7312 79.2107 55.37 79.0578 55.2563C78.7658 55.043 78.4327 54.9416 78.0976 54.964C77.7625 54.9864 77.4393 55.1317 77.166 55.3829C76.8927 55.634 76.6806 55.9805 76.5547 56.3817C76.4287 56.783 76.3942 57.2222 76.455 57.6479C76.5159 58.0736 76.6696 58.468 76.8982 58.7849C77.1268 59.1018 77.4207 59.328 77.7455 59.4368C78.0702 59.5457 78.4123 59.5328 78.7316 59.3996C79.0508 59.2663 79.334 59.0184 79.5478 58.6847C79.0266 58.8787 78.4458 57.8519 78.7414 56.6544Z" fill="black"/>
<path d="M76.6516 57.879C76.6521 58.1953 76.5799 58.5048 76.444 58.7681C76.3081 59.0315 76.1148 59.2369 75.8883 59.3585C75.6619 59.48 75.4126 59.5121 75.172 59.4508C74.9315 59.3895 74.7104 59.2375 74.5368 59.014C74.3632 58.7906 74.2449 58.5057 74.1969 58.1954C74.1488 57.8852 74.1732 57.5636 74.2669 57.2712C74.3607 56.9789 74.5195 56.729 74.7234 56.5531C74.9273 56.3773 75.167 56.2834 75.4122 56.2834C75.7405 56.2834 76.0553 56.4514 76.2877 56.7506C76.5201 57.0497 76.6509 57.4555 76.6516 57.879Z" fill="#FF5E15"/>
<path opacity="0.2" d="M75.4113 56.2798C75.1516 56.2785 74.8982 56.384 74.6879 56.5808C74.6542 57.5575 75.2973 58.5075 75.1158 58.8286C74.9343 59.1497 74.4935 58.9523 74.3379 58.6814C74.4471 58.924 74.6038 59.1253 74.7924 59.265C74.981 59.4048 75.1948 59.478 75.4122 59.4775C75.6297 59.4769 75.8432 59.4025 76.0314 59.2618C76.2195 59.1211 76.3756 58.919 76.4841 58.6758C76.5925 58.4327 76.6494 58.1569 76.6491 57.8764C76.6488 57.5958 76.5913 57.3203 76.4823 57.0776C76.3734 56.8348 76.2168 56.6332 76.0284 56.4932C75.8399 56.3532 75.6262 56.2796 75.4087 56.2798H75.4113Z" fill="black"/>
<path d="M76.9595 59.0899C78.2154 59.0899 79.2334 57.7766 79.2334 56.1565C79.2334 54.5364 78.2154 53.223 76.9595 53.223C75.7036 53.223 74.6855 54.5364 74.6855 56.1565C74.6855 57.7766 75.7036 59.0899 76.9595 59.0899Z" fill="#FF5E15"/>
<path opacity="0.1" d="M79.1753 56.8285C79.089 57.3031 78.9123 57.7424 78.6613 58.1068C78.4103 58.4713 78.0929 58.7493 77.7377 58.9157C77.3825 59.0821 77.0007 59.1317 76.627 59.06C76.2532 58.9882 75.8991 58.7975 75.5969 58.505C75.2946 58.2124 75.0536 57.8273 74.8956 57.3844C74.7377 56.9416 74.6678 56.4549 74.6923 55.9684C74.7168 55.4819 74.8348 55.011 75.0358 54.5982C75.2368 54.1854 75.5144 53.8437 75.8434 53.604C75.6467 53.7488 75.4676 53.9303 75.3119 54.1425C75.2011 54.7689 75.2528 55.4248 75.459 56.0095C75.6652 56.5943 76.0145 57.0756 76.4532 57.3795C76.892 57.6834 77.3959 57.7931 77.8877 57.6917C78.3794 57.5903 78.8318 57.2835 79.1753 56.8184V56.8285Z" fill="black"/>
<path d="M98.7246 42.0908L100.42 43.3552V45.8839L98.7246 44.6195V42.0908Z" fill="#E0E0E0"/>
<path d="M100.42 43.3552L102.118 42.0908V47.1449L100.42 45.8839V43.3552Z" fill="#F0F0F0"/>
<path d="M100.42 39.9407L98.5479 41.3321V41.9643L100.42 43.3558L102.295 41.9643V41.3321L100.42 39.9407Z" fill="#455A64"/>
<path d="M98.5479 41.9643L100.42 43.3558V42.7236L98.5479 41.3322V41.9643Z" fill="#37474F"/>
<path d="M102.295 41.9643L100.42 43.3558V42.7236L102.295 41.3322V41.9643Z" fill="#263238"/>
<path d="M99.1748 41.3319L100.419 40.4087L101.667 41.3319L100.419 42.2584L99.1748 41.3319Z" fill="#FF5E15"/>
<path d="M100.419 40.4087V42.2584L99.1748 41.3319L100.419 40.4087Z" fill="#37474F"/>
<path d="M100.42 40.4087L101.667 41.3319L100.42 42.2584V40.4087Z" fill="#263238"/>
<path d="M94.654 67.4682L94.6514 56.1726L99.6997 59.9356V71.2312L94.654 67.4682Z" fill="#F0F0F0"/>
<path d="M94.6514 56.1726L99.6997 59.9356V64.4344L94.6514 60.6781V56.1726Z" fill="#E0E0E0"/>
<path d="M109.819 63.7023V52.4067L104.753 48.6404L99.6992 59.936V71.2316L109.819 63.7023Z" fill="#FAFAFA"/>
<path d="M98.8651 61.8195L104.754 48.6407V47.3864L98.0225 62.4483L98.8651 61.8195Z" fill="#37474F"/>
<path d="M94.6514 39.8564L104.753 47.3857L98.0221 62.4477L94.654 59.9357L94.6514 39.8564Z" fill="#455A64"/>
<path d="M104.753 48.6407L110.662 53.0325L111.505 52.407L104.753 47.3864V48.6407Z" fill="#263238"/>
<path d="M106.865 58.6047L108.846 57.1396V60.906L106.865 62.371V58.6047Z" fill="#455A64"/>
<path d="M108.678 60.779V57.2668L106.865 58.6048V62.1169L108.678 60.779Z" fill="#E0E0E0"/>
<path d="M108.846 60.906L108.678 60.7789L106.865 62.1169V62.3711L108.846 60.906Z" fill="#37474F"/>
<path d="M106.865 60.4878L108.846 59.0228V58.7686L106.865 60.2336V60.4878Z" fill="#455A64"/>
<path d="M100.648 63.231L102.629 61.766V65.529L100.648 66.9974V63.231Z" fill="#455A64"/>
<path d="M102.461 65.405V61.8895L100.648 63.2308V66.7429L102.461 65.405Z" fill="#E0E0E0"/>
<path d="M102.629 65.5284L102.461 65.4047L100.648 66.7426V66.9968L102.629 65.5284Z" fill="#37474F"/>
<path d="M100.648 65.1142L102.629 63.6491V63.3949L100.648 64.8599V65.1142Z" fill="#455A64"/>
<path d="M103.489 54.29L106.017 52.4069V55.2299L103.489 57.1131V54.29Z" fill="#455A64"/>
<path d="M105.849 55.1025V52.5303L103.489 54.2897V56.8619L105.849 55.1025Z" fill="#E0E0E0"/>
<path d="M106.017 55.2298L105.849 55.1027L103.489 56.8621V57.1129L106.017 55.2298Z" fill="#37474F"/>
<path d="M110.662 53.0323H109.819V52.4069L110.662 53.0323Z" fill="black"/>
<path d="M103.343 68.5159V60.9866L106.166 58.886V66.4153L103.343 68.5159Z" fill="#37474F"/>
<path d="M106.068 66.3181V58.9594L103.343 60.9863V68.3451L106.068 66.3181Z" fill="#455A64"/>
<path d="M106.166 58.886L106.067 58.9596V66.3183L106.166 66.4153V58.886Z" fill="#263238"/>
<path d="M94.6502 67.4682V56.1726L89.6045 59.9356V71.2312L94.6502 67.4682Z" fill="#FAFAFA"/>
<path d="M94.6502 56.1726L89.6045 59.9356V64.4344L94.6528 60.6781L94.6502 56.1726Z" fill="#F5F5F5"/>
<path d="M79.4844 63.7023V52.4067L84.5483 48.6404L89.6043 59.936V71.2316L79.4844 63.7023Z" fill="#EBEBEB"/>
<path d="M90.4418 61.8195L84.5508 48.6407V47.3864L91.2845 62.4483L90.4418 61.8195Z" fill="#455A64"/>
<path d="M94.6526 39.8564L84.5508 47.3857L91.2845 62.4477L94.6526 59.9357V39.8564Z" fill="#37474F"/>
<path d="M84.55 48.6407L78.6435 53.0325L77.8008 52.407L84.55 47.3864V48.6407Z" fill="#263238"/>
<path d="M83.1519 58.8924L81.1709 57.4274V61.1937L83.1519 62.6554V58.8924Z" fill="#455A64"/>
<path d="M81.3398 61.0668V57.5514L83.1523 58.8927V62.4048L81.3398 61.0668Z" fill="#FAFAFA"/>
<path d="M81.3398 57.5514L83.1523 58.9027V59.3677L81.3398 58.0264V57.5514Z" fill="#F5F5F5"/>
<path d="M86.0996 61.0969L87.912 62.4483V62.9132L86.0996 61.5719V61.0969Z" fill="#F5F5F5"/>
<path d="M81.1709 61.1936L81.3394 61.0665L83.1519 62.4045V62.6553L81.1709 61.1936Z" fill="#37474F"/>
<path d="M83.1519 60.7754L81.1709 59.3104V59.0562L83.1519 60.5212V60.7754Z" fill="#455A64"/>
<path d="M85.8152 54.29L83.2871 52.4069V55.2299L85.8152 57.1131V54.29Z" fill="#455A64"/>
<path d="M83.4561 55.1025V52.5303L85.8156 54.2897V56.8619L83.4561 55.1025Z" fill="#FAFAFA"/>
<path d="M83.4561 52.5303L85.8156 54.2897V54.7546L83.4561 53.0086V52.5303Z" fill="#F5F5F5"/>
<path d="M83.2871 55.2298L83.4556 55.1027L85.8152 56.8621V57.1129L83.2871 55.2298Z" fill="#37474F"/>
<path d="M78.6416 53.0323H79.4843V52.4069L78.6416 53.0323Z" fill="black"/>
<path d="M87.9116 62.4479L85.9307 60.9728V64.7358L87.9116 66.2108V62.4479Z" fill="#455A64"/>
<path d="M86.0996 64.609V61.0969L87.912 62.4483V65.9604L86.0996 64.609Z" fill="#FAFAFA"/>
<path d="M85.9307 64.7361L86.0992 64.609L87.9116 65.9603V66.2112L85.9307 64.7361Z" fill="#37474F"/>
<path d="M87.9116 64.3179L85.9307 62.8528V62.5986L87.9116 64.0637V64.3179Z" fill="#455A64"/>
<path d="M86.0996 61.0969L87.912 62.4483V62.9132L86.0996 61.5719V61.0969Z" fill="#F5F5F5"/>
<path d="M98.0218 62.448L95.4912 60.5615V64.0335L98.0218 65.9167V62.448Z" fill="#263238"/>
<path d="M95.6465 63.9163V60.6785L98.0216 62.4479V65.6857L95.6465 63.9163Z" fill="#FAFAFA"/>
<path d="M95.6465 60.6785V61.4311L98.0216 63.2038V62.4479L95.6465 60.6785Z" fill="#F0F0F0"/>
<path d="M95.4912 64.0333L95.6468 63.9163L98.0218 65.6857V65.9165L95.4912 64.0333Z" fill="#37474F"/>
<path d="M95.4912 62.2979L95.6468 62.1808L98.0218 63.9502V64.1844L95.4912 62.2979Z" fill="#37474F"/>
<path d="M96.7041 64.9365L96.8597 65.0502V61.5815L96.7041 61.4645V64.9365Z" fill="#37474F"/>
<path d="M92.9208 69.9939L93.3694 69.6594C93.4929 68.7188 93.5112 67.7602 93.4238 66.8129C93.1982 64.9666 92.2207 64.3277 91.8681 64.5117C91.5154 64.6956 91.4325 65.2442 92.0729 66.3112C92.6519 67.3912 92.9489 68.6813 92.9208 69.9939Z" fill="#FF5E15"/>
<g opacity="0.2">
<path d="M92.9227 69.9944L93.3713 69.6599C93.4948 68.7193 93.5132 67.7607 93.4258 66.8134C93.2002 64.967 92.2227 64.3282 91.87 64.5121C91.5174 64.6961 91.4344 65.2447 92.0749 66.3117C92.6539 67.3917 92.9509 68.6817 92.9227 69.9944Z" fill="black"/>
</g>
<path d="M93.0839 69.2714C93.0796 69.271 93.0754 69.2695 93.0715 69.2669C93.0677 69.2642 93.0643 69.2606 93.0616 69.2562C93.0589 69.2518 93.057 69.2467 93.0559 69.2412C93.0548 69.2358 93.0547 69.2301 93.0554 69.2246C93.2421 67.4953 92.7028 65.5988 92.096 64.8328C92.0902 64.8253 92.0869 64.815 92.0869 64.8044C92.0869 64.7937 92.0902 64.7835 92.096 64.7759C92.1019 64.7684 92.1098 64.7642 92.1181 64.7642C92.1263 64.7642 92.1343 64.7684 92.1401 64.7759C92.7572 65.5519 93.3069 67.4786 93.1202 69.238C93.1196 69.2433 93.1182 69.2484 93.116 69.2529C93.1138 69.2575 93.1109 69.2615 93.1076 69.2646C93.1042 69.2677 93.1003 69.2699 93.0963 69.2711C93.0922 69.2723 93.088 69.2724 93.0839 69.2714Z" fill="white"/>
<path d="M91.6767 70.9338C91.6041 70.9873 91.4589 70.8736 91.4018 70.8234C91.3065 70.7385 91.2297 70.6233 91.1789 70.4889C91.1214 70.3376 91.1015 70.167 91.1218 70.0006C91.1331 69.9124 91.1487 69.8253 91.1685 69.7397C91.1892 69.6527 91.2074 69.5691 91.2255 69.4855C91.2491 69.4032 91.2588 69.3154 91.2541 69.2279C91.2364 69.1438 91.2057 69.0651 91.1638 68.9967C91.1219 68.9283 91.0697 68.8715 91.0103 68.8299C90.9437 68.7801 90.8869 68.7109 90.8446 68.6279C90.8023 68.5449 90.7756 68.4502 90.7666 68.3516C90.7751 68.1891 90.8252 68.0349 90.9092 67.9134C90.987 67.7863 91.0777 67.6759 91.1478 67.5421C91.1956 67.47 91.224 67.3798 91.2286 67.2851C91.2333 67.1904 91.214 67.0963 91.1737 67.017C91.1081 66.8872 91.0509 66.7507 91.0026 66.6089C90.979 66.5377 90.9716 66.4593 90.9812 66.3829C90.9908 66.3065 91.0171 66.2352 91.057 66.1774C91.0963 66.1394 91.1411 66.1118 91.1887 66.0963C91.2363 66.0808 91.2859 66.0777 91.3344 66.0871C91.4266 66.1007 91.5151 66.1407 91.5937 66.2042C91.853 66.3881 91.9982 66.7828 92.2705 66.9233C92.3782 66.9677 92.4883 67.0023 92.5998 67.027C92.6558 67.0398 92.7091 67.0679 92.7561 67.1094C92.803 67.1509 92.8426 67.205 92.872 67.2678C92.9731 67.5254 92.7864 67.8431 92.8565 68.1174C92.9265 68.3917 93.1028 68.4519 93.2039 68.6727C93.2473 68.7673 93.2647 68.8781 93.2532 68.9871C93.244 69.1732 93.2089 69.3556 93.1494 69.5256C93.0817 69.6925 93.0055 69.8534 92.9213 70.0073L91.6767 70.9338Z" fill="#FF5E15"/>
<g opacity="0.1">
<path d="M91.6767 70.9338C91.6041 70.9873 91.4589 70.8736 91.4018 70.8234C91.3065 70.7385 91.2297 70.6233 91.1789 70.4889C91.1214 70.3376 91.1015 70.167 91.1218 70.0006C91.1331 69.9124 91.1487 69.8253 91.1685 69.7397C91.1892 69.6527 91.2074 69.5691 91.2255 69.4855C91.2491 69.4032 91.2588 69.3154 91.2541 69.2279C91.2364 69.1438 91.2057 69.0651 91.1638 68.9967C91.1219 68.9283 91.0697 68.8715 91.0103 68.8299C90.9437 68.7801 90.8869 68.7109 90.8446 68.6279C90.8023 68.5449 90.7756 68.4502 90.7666 68.3516C90.7751 68.1891 90.8252 68.0349 90.9092 67.9134C90.987 67.7863 91.0777 67.6759 91.1478 67.5421C91.1956 67.47 91.224 67.3798 91.2286 67.2851C91.2333 67.1904 91.214 67.0963 91.1737 67.017C91.1081 66.8872 91.0509 66.7507 91.0026 66.6089C90.979 66.5377 90.9716 66.4593 90.9812 66.3829C90.9908 66.3065 91.0171 66.2352 91.057 66.1774C91.0963 66.1394 91.1411 66.1118 91.1887 66.0963C91.2363 66.0808 91.2859 66.0777 91.3344 66.0871C91.4266 66.1007 91.5151 66.1407 91.5937 66.2042C91.853 66.3881 91.9982 66.7828 92.2705 66.9233C92.3782 66.9677 92.4883 67.0023 92.5998 67.027C92.6558 67.0398 92.7091 67.0679 92.7561 67.1094C92.803 67.1509 92.8426 67.205 92.872 67.2678C92.9731 67.5254 92.7864 67.8431 92.8565 68.1174C92.9265 68.3917 93.1028 68.4519 93.2039 68.6727C93.2473 68.7673 93.2647 68.8781 93.2532 68.9871C93.244 69.1732 93.2089 69.3556 93.1494 69.5256C93.0817 69.6925 93.0055 69.8534 92.9213 70.0073L91.6767 70.9338Z" fill="black"/>
</g>
<path d="M92.406 70.4356C92.3978 70.4341 92.3901 70.429 92.3845 70.421C92.3788 70.4131 92.3754 70.4029 92.3749 70.3921C92.4294 68.7532 91.8304 66.9436 91.3948 66.4184C91.3918 66.4147 91.3893 66.4102 91.3876 66.4053C91.3858 66.4003 91.3849 66.395 91.3848 66.3895C91.3847 66.3841 91.3854 66.3787 91.3869 66.3736C91.3884 66.3685 91.3906 66.3639 91.3935 66.3599C91.3964 66.356 91.3999 66.3528 91.4037 66.3505C91.4076 66.3483 91.4117 66.3471 91.4159 66.3469C91.4202 66.3468 91.4244 66.3477 91.4283 66.3496C91.4322 66.3516 91.4358 66.3545 91.4389 66.3582C91.8823 66.8934 92.4942 68.7331 92.4397 70.3955C92.4391 70.4064 92.4353 70.4167 92.429 70.4241C92.4228 70.4315 92.4145 70.4357 92.406 70.4356Z" fill="white"/>
<path d="M92.2131 68.499C91.9115 68.3934 91.6021 68.3295 91.29 68.3084C91.2857 68.3084 91.2814 68.3072 91.2775 68.305C91.2735 68.3028 91.27 68.2995 91.267 68.2954C91.2641 68.2914 91.2619 68.2865 91.2605 68.2813C91.2591 68.276 91.2585 68.2704 91.2589 68.2649C91.2596 68.2539 91.2634 68.2437 91.2696 68.2363C91.2759 68.2288 91.2841 68.2247 91.2926 68.2247C91.6101 68.246 91.9249 68.3122 92.2312 68.4221C92.2351 68.4236 92.2388 68.4261 92.242 68.4295C92.2451 68.4328 92.2477 68.437 92.2497 68.4416C92.2516 68.4463 92.2528 68.4514 92.2532 68.4566C92.2536 68.4619 92.2532 68.4672 92.252 68.4723C92.2491 68.482 92.2435 68.4901 92.2364 68.495C92.2292 68.4999 92.221 68.5013 92.2131 68.499Z" fill="white"/>
<path d="M103.343 68.5159L106.166 66.4153L108.7 68.3018L105.876 70.399L103.343 68.5159Z" fill="#F0F0F0"/>
<path d="M57.6801 73.9744L33.0322 92.331V93.7425L58.6264 112.805L83.2717 94.4483V93.0368L57.6801 73.9744Z" fill="#FF5E15"/>
<path d="M69.0566 99.3915L71.8829 101.522L76.6304 97.9867L73.7964 95.8627L69.0566 99.3915Z" fill="#F0F0F0"/>
<path opacity="0.15" d="M33.0322 92.3306L58.6264 111.393V112.805L33.0322 93.7421V92.3306Z" fill="black"/>
<path opacity="0.1" d="M58.6279 111.393L83.2732 93.0366V94.4481L58.6279 112.805V111.393Z" fill="black"/>
<path d="M80.5037 86.786L79.4053 89.5778L79.5833 89.6943L80.6817 86.9025L80.5037 86.786Z" fill="#263238"/>
<path d="M78.4635 86.5483L78.2959 86.6821L79.3673 88.9147L79.5348 88.7809L78.4635 86.5483Z" fill="#263238"/>
<path d="M79.6473 86.2898V93.0163C79.6458 93.0351 79.6404 93.0531 79.6318 93.0684C79.6231 93.0836 79.6115 93.0957 79.5981 93.1033C79.5615 93.1274 79.5211 93.1399 79.4801 93.1399C79.4391 93.1399 79.3986 93.1274 79.3621 93.1033C79.349 93.0955 79.3377 93.0834 79.3295 93.0681C79.3213 93.0528 79.3164 93.0349 79.3154 93.0163V86.2898H79.6473Z" fill="#263238"/>
<path d="M81.1737 87.32C82.5112 87.32 83.5954 85.9213 83.5954 84.1959C83.5954 82.4705 82.5112 81.0718 81.1737 81.0718C79.8362 81.0718 78.752 82.4705 78.752 84.1959C78.752 85.9213 79.8362 87.32 81.1737 87.32Z" fill="#455A64"/>
<path d="M81.9346 83.3996C82.2457 82.1285 82.5802 81.6335 82.3676 81.4796C81.9665 81.1864 81.5089 81.047 81.0485 81.0778C80.5881 81.1085 80.144 81.3082 79.7686 81.6532C79.3931 81.9983 79.1017 82.4745 78.9288 83.0258C78.7559 83.5771 78.7085 84.1806 78.7923 84.7654C78.876 85.3502 79.0875 85.892 79.4017 86.3272C79.716 86.7624 80.12 87.0728 80.5662 87.2219C81.0125 87.3711 81.4825 87.3529 81.921 87.1693C82.3596 86.9858 82.7484 86.6446 83.0417 86.1859C82.3261 86.4535 81.5301 85.0453 81.9346 83.3996Z" fill="#37474F"/>
<path d="M77.3611 87.2763C78.3005 87.2763 79.062 86.2939 79.062 85.082C79.062 83.8702 78.3005 82.8878 77.3611 82.8878C76.4217 82.8878 75.6602 83.8702 75.6602 85.082C75.6602 86.2939 76.4217 87.2763 77.3611 87.2763Z" fill="#455A64"/>
<path d="M77.3608 82.8848C77.0033 82.8842 76.6548 83.0293 76.3651 83.2995C76.321 84.6375 77.2026 85.9487 76.9563 86.3902C76.71 86.8317 76.1006 86.5574 75.8906 86.1861C76.0411 86.5182 76.2565 86.7934 76.5153 86.9842C76.7742 87.175 77.0674 87.2746 77.3655 87.2732C77.6636 87.2718 77.9562 87.1693 78.2139 86.976C78.4717 86.7827 78.6855 86.5055 78.834 86.172C78.9825 85.8385 79.0605 85.4605 79.0601 85.076C79.0597 84.6914 78.9809 84.3137 78.8317 83.9807C78.6825 83.6478 78.468 83.3713 78.2099 83.1789C77.9517 82.9866 77.6589 82.8851 77.3608 82.8848Z" fill="#37474F"/>
<path d="M82.5252 83.6324C82.9213 81.4677 81.882 79.2987 80.204 78.7878C78.526 78.2769 76.8446 79.6176 76.4486 81.7822C76.0525 83.9469 77.0918 86.116 78.7698 86.6269C80.4478 87.1378 82.1292 85.7971 82.5252 83.6324Z" fill="#455A64"/>
<path d="M82.5286 83.6339C82.4071 84.2794 82.1633 84.8759 81.8191 85.37C81.4749 85.864 81.041 86.2402 80.5564 86.4646C80.0717 86.6891 79.5515 86.7549 79.0423 86.6561C78.5331 86.5573 78.0508 86.297 77.6388 85.8986C77.2268 85.5002 76.8978 84.9761 76.6815 84.3733C76.4652 83.7705 76.3682 83.1078 76.3992 82.4448C76.4303 81.7817 76.5884 81.139 76.8595 80.5741C77.1305 80.0093 77.506 79.5401 77.9522 79.2086C77.6818 79.4076 77.4354 79.6567 77.221 79.9478C77.1668 80.2495 77.139 80.558 77.138 80.8677C77.1327 81.6769 77.3172 82.4693 77.6672 83.141C78.0172 83.8126 78.5164 84.332 79.0993 84.6311C79.6822 84.9303 80.3216 84.9951 80.9336 84.8171C81.5456 84.6392 82.1016 84.2267 82.5286 83.6339Z" fill="#37474F"/>
<path d="M37.8728 85.9879L36.7744 88.7797L36.9525 88.8962L38.0509 86.1044L37.8728 85.9879Z" fill="#263238"/>
<path d="M35.8384 85.766L35.6709 85.8998L36.7423 88.1323L36.9098 87.9985L35.8384 85.766Z" fill="#263238"/>
<path d="M37.0282 85.5038V92.2303C37.0272 92.2489 37.0223 92.2668 37.0141 92.2821C37.0059 92.2974 36.9946 92.3095 36.9815 92.3173C36.945 92.3414 36.9045 92.3539 36.8635 92.3539C36.8225 92.3539 36.7821 92.3414 36.7456 92.3173C36.7321 92.3097 36.7205 92.2977 36.7118 92.2824C36.7032 92.2671 36.6978 92.2491 36.6963 92.2303V85.5038H37.0282Z" fill="#263238"/>
<path d="M38.5506 86.537C39.8881 86.537 40.9724 85.1383 40.9724 83.4129C40.9724 81.6875 39.8881 80.2888 38.5506 80.2888C37.2132 80.2888 36.1289 81.6875 36.1289 83.4129C36.1289 85.1383 37.2132 86.537 38.5506 86.537Z" fill="#455A64"/>
<path d="M39.3096 82.6136C39.6207 81.3425 39.9526 80.8475 39.7426 80.6936C39.3415 80.4004 38.8839 80.261 38.4235 80.2918C37.9631 80.3225 37.519 80.5222 37.1436 80.8672C36.7681 81.2123 36.4767 81.6885 36.3038 82.2398C36.1309 82.7911 36.0835 83.3946 36.1673 83.9794C36.251 84.5642 36.4625 85.1061 36.7767 85.5412C37.091 85.9764 37.495 86.2868 37.9412 86.4359C38.3875 86.5851 38.8575 86.5669 39.296 86.3833C39.7346 86.1998 40.1234 85.8586 40.4167 85.3999C39.7011 85.6708 38.9025 84.2593 39.3096 82.6136Z" fill="#37474F"/>
<path d="M34.7371 86.4903C35.6764 86.4903 36.438 85.5079 36.438 84.296C36.438 83.0842 35.6764 82.1018 34.7371 82.1018C33.7977 82.1018 33.0361 83.0842 33.0361 84.296C33.0361 85.5079 33.7977 86.4903 34.7371 86.4903Z" fill="#455A64"/>
<path d="M34.7364 82.1018C34.3793 82.1012 34.0311 82.245 33.7408 82.5132C33.6941 83.8512 34.5783 85.1624 34.3319 85.6039C34.0856 86.0454 33.4763 85.7711 33.2637 85.3998C33.4137 85.7323 33.6288 86.0081 33.8875 86.1995C34.1462 86.3908 34.4393 86.4911 34.7375 86.4903C35.0357 86.4894 35.3285 86.3874 35.5865 86.1945C35.8445 86.0017 36.0587 85.7247 36.2076 85.3913C36.3564 85.058 36.4347 84.68 36.4346 84.2953C36.4345 83.9106 36.356 83.5327 36.207 83.1995C36.058 82.8663 35.8437 82.5895 35.5856 82.3968C35.3275 82.2042 35.0346 82.1024 34.7364 82.1018Z" fill="#37474F"/>
<path d="M39.0706 84.777C40.2898 83.2043 40.2898 80.6544 39.0706 79.0816C37.8515 77.5089 35.8748 77.5089 34.6557 79.0816C33.4366 80.6544 33.4366 83.2043 34.6557 84.777C35.8748 86.3497 37.8515 86.3497 39.0706 84.777Z" fill="#455A64"/>
<path d="M39.9021 82.8479C39.7808 83.4938 39.5371 84.0907 39.1929 84.5851C38.8487 85.0796 38.4147 85.456 37.9299 85.6806C37.445 85.9053 36.9246 85.9711 36.4151 85.8723C35.9057 85.7734 35.4233 85.5129 35.0112 85.1142C34.5991 84.7154 34.2701 84.1909 34.0539 83.5877C33.8377 82.9845 33.741 82.3215 33.7724 81.6582C33.8038 80.9949 33.9624 80.352 34.234 79.7873C34.5055 79.2225 34.8816 78.7536 35.3283 78.4226C35.057 78.6199 34.8104 78.8691 34.5971 79.1618C34.5429 79.4635 34.515 79.772 34.5141 80.0817C34.5094 80.8902 34.694 81.6817 35.0439 82.3525C35.3938 83.0234 35.8926 83.5423 36.4749 83.8413C37.0573 84.1402 37.696 84.2054 38.3076 84.0281C38.9191 83.8508 39.4748 83.4395 39.9021 82.8479Z" fill="#37474F"/>
<path d="M44.4092 88.0959L64.3172 102.92V80.3291L44.4092 65.5046V88.0959Z" fill="#F0F0F0"/>
<path d="M58.6271 94.4477V107.158L38.7217 92.3304V79.6233L58.6271 94.4477Z" fill="#F0F0F0"/>
<path d="M38.7217 83.8579L58.6271 98.6857V94.4477L38.7217 79.6233V83.8579Z" fill="#E0E0E0"/>
<path d="M44.4092 69.7396L64.3172 84.5641V80.3295L44.4092 65.5017V69.7396Z" fill="#E0E0E0"/>
<path d="M64.3174 80.3293L77.5877 70.4452V93.0364L64.3174 102.921V80.3293Z" fill="#FAFAFA"/>
<path d="M58.6279 94.4483L64.3167 87.3906V102.921L58.6279 107.159V94.4483Z" fill="#FAFAFA"/>
<path d="M70.9525 65.5017L64.3174 80.3295L77.5877 70.4454L70.9525 65.5017Z" fill="#FAFAFA"/>
<path d="M63.3672 82.4464L70.9513 65.5013V64.4443L63.3672 81.3894V82.4464Z" fill="#FF5E15"/>
<path opacity="0.1" d="M63.3672 82.4464L70.9513 65.5013V64.4443L63.3672 81.3894V82.4464Z" fill="black"/>
<path d="M51.0438 49.6195L43.4609 66.5625L63.3672 81.3886L70.9501 64.4456L51.0438 49.6195Z" fill="#FF5E15"/>
<path d="M43.4609 66.5619L63.3664 81.3897V82.4467L43.4609 67.6222V66.5619Z" fill="#FF5E15"/>
<path opacity="0.15" d="M43.4609 66.5619L63.3664 81.3897V82.4467L43.4609 67.6222V66.5619Z" fill="black"/>
<path d="M70.9512 64.4443L79.2458 70.6223L78.5327 71.1508L70.9512 65.5013V64.4443Z" fill="#FF5E15"/>
<path opacity="0.15" d="M70.9512 64.4443L79.2458 70.6223L78.5327 71.1508L70.9512 65.5013V64.4443Z" fill="black"/>
<path d="M78.5323 71.151H77.5859V70.4452L78.5323 71.151Z" fill="#FF5E15"/>
<path opacity="0.3" d="M78.5323 71.151H77.5859V70.4452L78.5323 71.151Z" fill="black"/>
<path d="M47.4619 66.3614V61.2772L49.7307 59.588L51.9917 64.6388V69.7397L47.4619 66.3614Z" fill="#F0F0F0"/>
<path opacity="0.2" d="M49.7304 59.5879L46.9301 61.6718L46.5723 61.4042L49.7304 59.0527V59.5879Z" fill="black"/>
<path d="M51.9922 69.7395L54.2558 64.6754L55.4122 62.0864L51.9922 64.6386V69.7395Z" fill="#FAFAFA"/>
<path opacity="0.4" d="M46.9307 61.6715H47.4622V61.2769L46.9307 61.6715Z" fill="black"/>
<path d="M52.5327 65.8428L49.7324 59.5879V59.0527L52.8828 66.1037L52.5327 65.8428Z" fill="#FF5E15"/>
<path opacity="0.1" d="M52.5327 65.8428L49.7324 59.5879V59.0527L52.8828 66.1037L52.5327 65.8428Z" fill="black"/>
<path d="M52.8828 66.1033L49.7324 59.0523L52.9917 56.6239L56.142 63.6749L52.8828 66.1033Z" fill="#FF5E15"/>
<path opacity="0.3" d="M52.8828 66.1033L49.7324 59.0523L52.9917 56.6239L56.142 63.6749L52.8828 66.1033Z" fill="white"/>
<path d="M50.8619 63.8222L48.5957 62.1331V65.5047L50.8619 67.1938V63.8222Z" fill="#455A64"/>
<path d="M48.8271 65.3309V62.3038L50.8625 63.8224V66.8462L48.8271 65.3309Z" fill="#E0E0E0"/>
<path d="M48.5957 65.5049L48.8265 65.3309L50.8619 66.8462V67.194L48.5957 65.5049Z" fill="#37474F"/>
<path d="M56.9404 73.4225V68.3383L59.2118 66.6492L61.4728 71.6999V76.8008L56.9404 73.4225Z" fill="#F0F0F0"/>
<path opacity="0.2" d="M59.2105 66.6491L56.4102 68.7329L56.0498 68.4653L59.2105 66.1139V66.6491Z" fill="black"/>
<path d="M61.4727 76.8006L63.7336 71.7365L64.8901 69.1476L61.4727 71.6997V76.8006Z" fill="#FAFAFA"/>
<path opacity="0.4" d="M56.4102 68.7327H56.9391V68.338L56.4102 68.7327Z" fill="black"/>
<path d="M62.0103 72.904L59.21 66.6491V66.1139L62.3577 73.1649L62.0103 72.904Z" fill="#FF5E15"/>
<path opacity="0.1" d="M62.0103 72.904L59.21 66.6491V66.1139L62.3577 73.1649L62.0103 72.904Z" fill="black"/>
<path d="M62.3577 73.1647L59.21 66.1137L62.4666 63.682L65.617 70.733L62.3577 73.1647Z" fill="#FF5E15"/>
<path opacity="0.3" d="M62.3577 73.1647L59.21 66.1137L62.4666 63.682L65.617 70.733L62.3577 73.1647Z" fill="white"/>
<path d="M60.3384 70.88L58.0723 69.1942V72.5658L60.3384 74.255V70.88Z" fill="#455A64"/>
<path d="M58.3047 72.3921V69.365L60.3375 70.8802V73.9073L58.3047 72.3921Z" fill="#E0E0E0"/>
<path d="M58.0723 72.566L58.3056 72.3921L60.3384 73.9073V74.2552L58.0723 72.566Z" fill="#37474F"/>
<path d="M44.4086 71.6091L64.3167 86.4336V87.3902L57.6815 96.5685L37.7734 81.7407V80.7874L44.4086 71.6091Z" fill="#FF5E15"/>
<path d="M44.4086 71.6091L64.3167 86.4336L57.6815 95.6119L37.7734 80.7874L44.4086 71.6091Z" fill="#FF5E15"/>
<path opacity="0.1" d="M57.6816 95.6122V96.5688L64.3168 87.3905V86.4338L57.6816 95.6122Z" fill="black"/>
<path opacity="0.15" d="M57.6815 96.5683L37.7734 81.7405V80.7872L57.6815 95.6117V96.5683Z" fill="black"/>
<path d="M46.3062 88.0928L41.5664 84.564V91.0597L46.3062 94.5885V88.0928Z" fill="#263238"/>
<path d="M41.8574 90.8423V84.7814L46.3068 88.0961V94.1537L41.8574 90.8423Z" fill="#FAFAFA"/>
<path d="M41.8574 84.7814V86.1963L46.3068 89.5077V88.0928L41.8574 84.7814Z" fill="#F0F0F0"/>
<path d="M41.5664 91.0596L41.8568 90.8422L46.3062 94.1536V94.5884L41.5664 91.0596Z" fill="#37474F"/>
<path d="M41.5664 87.812L41.8568 87.5946L46.3062 90.906V91.3409L41.5664 87.812Z" fill="#37474F"/>
<path d="M43.8379 92.7522L44.1283 92.9696V86.4739L43.8379 86.2565V92.7522Z" fill="#37474F"/>
<path d="M54.8364 94.4479L50.0967 90.9191V97.4148L54.8364 100.944V94.4479Z" fill="#263238"/>
<path d="M50.3877 97.1974V91.1365L54.8371 94.4479V100.509L50.3877 97.1974Z" fill="#FAFAFA"/>
<path d="M50.3877 91.1365V92.548L54.8371 95.8628V94.4479L50.3877 91.1365Z" fill="#F0F0F0"/>
<path d="M50.0967 97.4147L50.3871 97.1973L54.8364 100.509V100.944L50.0967 97.4147Z" fill="#37474F"/>
<path d="M50.0967 94.1671L50.3871 93.9497L54.8364 97.2611V97.696L50.0967 94.1671Z" fill="#37474F"/>
<path d="M52.3682 99.1073L52.6586 99.3247V92.829L52.3682 92.6116V99.1073Z" fill="#37474F"/>
<path d="M61.4727 95.1573L66.2124 91.6251V98.1208L61.4727 101.65V95.1573Z" fill="#263238"/>
<path d="M65.922 97.9034V91.8425L61.4727 95.1573V101.215L65.922 97.9034Z" fill="#E6E6E6"/>
<path d="M65.922 91.8425V92.4647L61.4727 95.7761V95.1573L65.922 91.8425Z" fill="#E0E0E0"/>
<path d="M66.2124 98.1207L65.922 97.9033L61.4727 101.215V101.65L66.2124 98.1207Z" fill="#37474F"/>
<path d="M66.2124 94.8726L65.922 94.6552L61.4727 97.9666V98.4014L66.2124 94.8726Z" fill="#37474F"/>
<path d="M63.9408 99.8134L63.6504 100.031V93.535L63.9408 93.3176V99.8134Z" fill="#37474F"/>
<path d="M68.9678 74.1346L73.7075 70.6057V77.1014L68.9678 80.6303V74.1346Z" fill="#263238"/>
<path d="M73.4171 76.884V70.8231L68.9678 74.1345V80.1954L73.4171 76.884Z" fill="#E6E6E6"/>
<path d="M73.4171 70.8231V71.4453L68.9678 74.7567V74.1345L73.4171 70.8231Z" fill="#E0E0E0"/>
<path d="M73.7075 77.1013L73.4171 76.8839L68.9678 80.1953V80.6302L73.7075 77.1013Z" fill="#37474F"/>
<path d="M73.7075 73.8533L73.4171 73.6359L68.9678 76.9506V77.3855L73.7075 73.8533Z" fill="#37474F"/>
<path d="M71.4359 78.7939L71.1455 79.0114V72.5156L71.4359 72.2982V78.7939Z" fill="#37474F"/>
<path d="M69.0566 99.3918V88.0961L73.7964 84.564V95.8629L69.0566 99.3918Z" fill="#37474F"/>
<path d="M73.6227 95.692V84.6941L69.0566 88.0958V99.0937L73.6227 95.692Z" fill="#455A64"/>
<path d="M73.7958 84.564L73.6221 84.6944V95.6923L73.7958 95.8629V84.564Z" fill="#263238"/>
<path d="M96.0992 5.58784C96.0846 4.70201 95.9085 3.83307 95.5851 3.05144C95.2616 2.26981 94.7999 1.5975 94.2375 1.089C93.7189 0.664198 93.2211 0.600646 92.8581 0.841476C90.6671 2.2597 75.2706 14.9936 74.2879 15.6224H74.275C74.1714 15.7111 74.088 15.8337 74.0333 15.9778C73.9786 16.1218 73.9546 16.282 73.9638 16.4419C73.9699 16.8885 74.0579 17.3268 74.2206 17.721C74.3833 18.1152 74.6161 18.454 74.8999 18.7098C74.9981 18.8087 75.115 18.872 75.2385 18.8932C75.362 18.9143 75.4877 18.8926 75.6025 18.8302H75.6181C77.1738 17.723 92.3706 9.36754 95.4769 7.22014C95.8425 6.95924 96.0784 6.3973 96.0992 5.58784Z" fill="#FF5E15"/>
<path opacity="0.1" d="M95.4934 2.84201C95.1887 2.13664 94.7575 1.53565 94.2359 1.0893C93.7173 0.664503 93.2247 0.600951 92.8617 0.838436L92.815 0.871884C90.8159 2.18976 79.358 11.6189 75.5024 14.6862L75.4765 14.7063L75.3209 14.83L75.2742 14.8668L75.1861 14.9371L75.0824 15.0173C74.6753 15.3518 74.4004 15.5458 74.3045 15.6161H74.2915C74.2586 15.6413 74.2281 15.6716 74.2008 15.7064C74.1281 15.8027 74.0711 15.9168 74.0332 16.0421C73.9953 16.1674 73.9774 16.3012 73.9804 16.4356C73.9753 16.5302 73.9753 16.6252 73.9804 16.7199C73.9804 16.7567 73.9804 16.7935 73.9934 16.8302C74.0063 16.867 74.0089 16.944 74.0193 17.0042C74.0297 17.0644 74.0374 17.0978 74.0478 17.1413C74.0582 17.1848 74.0737 17.2517 74.0893 17.3052C74.1048 17.3587 74.1126 17.3855 74.123 17.4256V17.4457L95.4934 2.84201Z" fill="black"/>
<path d="M74.896 18.7136C74.6135 18.4584 74.3816 18.1211 74.219 17.7288C74.0564 17.3366 73.9676 16.9005 73.96 16.4558C73.9833 15.6396 74.4345 15.3252 74.9712 15.7567C75.254 16.0121 75.4861 16.35 75.6488 16.7429C75.8114 17.1357 75.8999 17.5725 75.9072 18.0178C75.8865 18.834 75.4327 19.1517 74.896 18.7136Z" fill="#FF5E15"/>
<path d="M70.2945 19.2622C70.3006 19.6039 70.3687 19.9389 70.4935 20.2404C70.6182 20.5419 70.796 20.8015 71.0127 20.9982C71.0879 21.0732 71.1773 21.1211 71.2716 21.137C71.3659 21.1529 71.4618 21.1361 71.5494 21.0885L75.2728 18.5297C75.3519 18.4619 75.4156 18.3684 75.4575 18.2585C75.4994 18.1486 75.518 18.0263 75.5113 17.9042C75.5057 17.5624 75.4377 17.2271 75.3129 16.9256C75.1881 16.624 75.01 16.3645 74.7931 16.1682C74.7182 16.0923 74.629 16.0436 74.5346 16.0271C74.4403 16.0106 74.3442 16.027 74.2564 16.0745L70.533 18.6334C70.4535 18.7014 70.3895 18.7955 70.3476 18.906C70.3057 19.0165 70.2873 19.1395 70.2945 19.2622Z" fill="#37474F"/>
<path d="M70.538 18.6334C70.4575 18.7006 70.3925 18.7943 70.3496 18.9049C70.3068 19.0155 70.2876 19.1389 70.2942 19.2622C70.2929 19.516 70.3317 19.7676 70.4083 20.0014L75.2103 16.6967C75.1015 16.4869 74.9613 16.3073 74.7981 16.1682C74.7232 16.0923 74.6339 16.0436 74.5396 16.0271C74.4452 16.0106 74.3491 16.027 74.2613 16.0745L70.538 18.6334Z" fill="#263238"/>
<path d="M75.0735 23.5236C75.0735 20.4464 73.497 17.3691 70.3415 15.021C64.0356 10.3215 53.8093 10.3215 47.5009 15.021C44.3479 17.3624 42.7715 20.4464 42.7715 23.5236V29.2099C42.7715 32.2872 44.3479 35.3645 47.5035 37.7159C53.8093 42.3987 64.0356 42.3987 70.3415 37.7159C73.497 35.3745 75.0735 32.2872 75.0735 29.2099V23.5236ZM48.2761 16.7637C51.092 14.6664 54.8698 13.5125 58.9069 13.5125C62.944 13.5125 66.7296 14.6664 69.5377 16.7637C72.0839 18.6602 73.4866 21.0618 73.4866 23.527C73.4866 25.9922 72.0839 28.3904 69.5377 30.287C66.7218 32.3842 62.944 33.5382 58.9069 33.5382C54.8698 33.5382 51.0842 32.3842 48.2761 30.287C45.7274 28.3904 44.3272 25.9888 44.3272 23.527C44.3272 21.0652 45.7351 18.6602 48.2761 16.7637Z" fill="#FF5E15"/>
<path opacity="0.3" d="M47.4989 32.0296C53.8074 36.7292 64.0311 36.7292 70.3395 32.0296C76.648 27.3301 76.648 19.7172 70.3395 15.021C64.0311 10.3248 53.8074 10.3214 47.4989 15.021C41.1905 19.7205 41.1957 27.3334 47.4989 32.0296ZM44.3304 23.527C44.3304 21.0618 45.7332 18.6602 48.2794 16.7636C51.0978 14.6664 54.8756 13.5124 58.9102 13.5124C62.9447 13.5124 66.7328 14.6664 69.5409 16.7636C72.0871 18.6602 73.4899 21.0618 73.4899 23.527C73.4899 25.9921 72.0871 28.3904 69.5409 30.2869C66.7225 32.3842 62.9447 33.5381 58.9102 33.5381C54.8756 33.5381 51.0875 32.3842 48.2794 30.2869C45.7358 28.3904 44.333 25.9888 44.333 23.527H44.3304Z" fill="white"/>
<path d="M44.332 23.5234C44.3412 24.5257 44.5588 25.5064 44.9621 26.3632C45.6025 24.9316 46.7304 23.5903 48.2836 22.4363C51.0968 20.3357 54.8772 19.1818 58.9143 19.1818C62.9514 19.1818 66.737 20.3357 69.5451 22.4363C71.1008 23.5903 72.2261 24.9316 72.8692 26.3632C73.2705 25.5055 73.4871 24.5252 73.4966 23.5234C73.4966 21.0616 72.0939 18.66 69.5451 16.7634C66.7318 14.6662 62.9514 13.5122 58.9143 13.5122C54.8772 13.5122 51.0891 14.6662 48.2836 16.7634C45.7348 18.66 44.332 21.0616 44.332 23.5234Z" fill="#FF5E15"/>
<path opacity="0.1" d="M44.332 23.5234C44.3412 24.5257 44.5588 25.5064 44.9621 26.3632C45.6025 24.9316 46.7304 23.5903 48.2836 22.4363C51.0968 20.3357 54.8772 19.1818 58.9143 19.1818C62.9514 19.1818 66.737 20.3357 69.5451 22.4363C71.1008 23.5903 72.2261 24.9316 72.8692 26.3632C73.2705 25.5055 73.4871 24.5252 73.4966 23.5234C73.4966 21.0616 72.0939 18.66 69.5451 16.7634C66.7318 14.6662 62.9514 13.5122 58.9143 13.5122C54.8772 13.5122 51.0891 14.6662 48.2836 16.7634C45.7348 18.66 44.332 21.0616 44.332 23.5234Z" fill="black"/>
<path opacity="0.4" d="M48.2744 19.3323C51.0928 17.2351 54.8706 16.0778 58.9051 16.0778C62.9397 16.0778 66.7278 17.2351 69.5359 19.3323C71.6361 20.8977 72.9559 22.8043 73.3552 24.8079C72.9559 26.8148 71.6361 28.7214 69.5359 30.2868C66.7175 32.384 62.9397 33.538 58.9051 33.538C54.8706 33.538 51.0825 32.384 48.2744 30.2868C46.1742 28.7214 44.8544 26.8114 44.4551 24.8079C44.8596 22.8043 46.1793 20.8977 48.2744 19.3323Z" fill="white"/>
<path opacity="0.1" d="M55.1157 35.2067V40.8929C52.3258 40.3912 49.6707 39.3309 47.503 37.7086C44.3475 35.3672 42.771 32.2799 42.771 29.1993V23.513C42.7721 22.8861 42.8366 22.262 42.9629 21.6566C42.185 25.3192 43.7097 29.1959 47.4978 32.0257C49.681 33.6547 52.3258 34.715 55.1157 35.2067Z" fill="black"/>
</svg>
