<svg width="120" height="119" viewBox="0 0 120 119" fill="none" xmlns="http://www.w3.org/2000/svg">
<path d="M61.2591 118.234C93.7006 118.234 120 103.767 120 85.9212C120 68.0753 93.7006 53.6084 61.2591 53.6084C28.8176 53.6084 2.51855 68.0753 2.51855 85.9212C2.51855 103.767 28.8176 118.234 61.2591 118.234Z" fill="#F5F5F5"/>
<path d="M51.9163 97.2394C59.5314 97.2394 65.7047 93.8434 65.7047 89.6541C65.7047 85.4649 59.5314 82.0688 51.9163 82.0688C44.3012 82.0688 38.1279 85.4649 38.1279 89.6541C38.1279 93.8434 44.3012 97.2394 51.9163 97.2394Z" fill="#E0E0E0"/>
<path d="M75.2936 104.283C84.514 104.283 91.9886 100.171 91.9886 95.0996C91.9886 90.0277 84.514 85.9161 75.2936 85.9161C66.0732 85.9161 58.5986 90.0277 58.5986 95.0996C58.5986 100.171 66.0732 104.283 75.2936 104.283Z" fill="#E0E0E0"/>
<path d="M56.6499 86.7517C56.6499 86.0847 56.1906 85.4177 55.2666 84.9134C53.4212 83.8969 50.4278 83.8969 48.5824 84.9134C47.6583 85.4203 47.1963 86.0873 47.1963 86.7517V88.8088C47.1963 89.4758 47.6583 90.1428 48.5824 90.6497C50.4278 91.6636 53.4212 91.6636 55.2666 90.6497C56.1906 90.1401 56.6499 89.4758 56.6499 88.8088V86.7517Z" fill="#263238"/>
<path d="M55.2772 86.9705C57.1226 87.987 57.1226 89.6385 55.2772 90.6497C53.4319 91.6609 50.4384 91.6636 48.5931 90.6497C46.7477 89.6358 46.7449 87.9816 48.5931 86.9705C50.4412 85.9593 53.4319 85.9566 55.2772 86.9705Z" fill="#37474F"/>
<path d="M56.6596 86.7516H47.2061V88.8087H56.6596V86.7516Z" fill="#37474F"/>
<path d="M55.2772 84.9215C57.1226 85.9353 57.1226 87.5895 55.2772 88.598C53.4319 89.6066 50.4384 89.6146 48.5931 88.598C46.7477 87.5815 46.7449 85.93 48.5931 84.9215C50.4412 83.9129 53.4319 83.8969 55.2772 84.9215Z" fill="#455A64"/>
<path d="M53.5065 85.3802C54.3774 85.8578 54.3774 86.6342 53.5065 87.1117C53.0188 87.3473 52.4796 87.4701 51.9328 87.4701C51.386 87.4701 50.8468 87.3473 50.3591 87.1117C49.491 86.6342 49.491 85.8578 50.3591 85.3802C50.8468 85.1446 51.386 85.0219 51.9328 85.0219C52.4796 85.0219 53.0188 85.1446 53.5065 85.3802Z" fill="#263238"/>
<path d="M54.1604 47.4111H49.708V86.2473H54.1604V47.4111Z" fill="#263238"/>
<path d="M70.1164 29.4765V29.4472C70.0744 29.2257 70.024 29.0016 69.9652 28.7775C69.973 28.8012 69.9795 28.8252 69.9848 28.8495C69.9484 28.6975 69.9064 28.5454 69.8615 28.3933C69.8783 28.4493 69.8924 28.5054 69.9064 28.5614C69.8615 28.3933 69.8111 28.2279 69.7579 28.0598C69.7831 28.1318 69.8083 28.2065 69.8279 28.2786C69.7999 28.1825 69.7691 28.0865 69.7383 27.9904L69.6879 27.8383V27.817V27.833C69.3118 26.7449 68.8162 25.6977 68.2094 24.7087C68.1898 24.674 68.1702 24.6393 68.1478 24.6047C66.6217 22.1314 64.4095 19.8715 61.9397 18.4681L61.8193 18.3988C61.111 18.0069 60.3598 17.6901 59.5791 17.4543C58.9302 17.2587 58.2546 17.1553 57.5741 17.1475H57.3389H57.1961C57.0785 17.1475 56.9637 17.1688 56.8517 17.1848H56.748L56.5576 17.2195C56.4764 17.2355 56.3952 17.2542 56.3168 17.2755L56.0984 17.3369C56.0984 17.3369 56.0984 17.3369 56.0844 17.3369L55.866 17.4116C55.7932 17.4409 55.7204 17.4703 55.6532 17.5023L55.1715 17.7691L30.9187 31.1094H30.8991C29.5858 31.8111 28.7905 33.2438 28.7905 35.2795V47.8487L19.6645 52.6512C18.7604 53.1261 18.0049 53.8213 17.4754 54.6657C16.9458 55.5101 16.6612 56.4733 16.6507 57.4569C16.6402 58.4405 16.9041 59.4091 17.4154 60.2636C17.9267 61.1182 18.6672 61.8279 19.5609 62.3203C22.1022 63.717 24.9844 64.4522 27.9182 64.4522C30.852 64.4522 33.7342 63.717 36.2755 62.3203L45.7291 57.251L70.2956 43.7266V31.1547C70.2886 30.5914 70.2286 30.0297 70.1164 29.4765Z" fill="#FF5E15"/>
<path d="M30.498 46.9765V32.9345L46.101 24.4341L47.5067 37.4168L30.498 46.9765Z" fill="#FF5E15"/>
<path opacity="0.5" d="M30.498 46.9765V32.9345L46.101 24.4341L47.5067 37.4168L30.498 46.9765Z" fill="black"/>
<path d="M30.498 46.9764L47.5067 37.4167V52.6967L43.9896 54.3989L30.498 46.9764Z" fill="#FF5E15"/>
<path opacity="0.3" d="M30.498 46.9764L47.5067 37.4167V52.6967L43.9896 54.3989L30.498 46.9764Z" fill="black"/>
<path d="M70.118 29.4766L68.505 30.3224L58.6874 35.4424L56.912 36.3629L44.6414 42.7662C43.8629 41.5122 41.8412 35.6612 40.7631 34.6019C39.7245 33.5612 38.5389 32.6632 37.2404 31.9339C35.7003 31.0855 34.2581 30.6826 33.012 30.6826C32.2789 30.6683 31.554 30.8326 30.9062 31.1602L55.1619 17.8199L55.6435 17.5531C55.7107 17.5211 55.7836 17.4917 55.8564 17.4624L56.0748 17.3877C56.0748 17.3877 56.0748 17.3877 56.0888 17.3877L56.3072 17.3263C56.3856 17.305 56.4668 17.2863 56.548 17.2703L56.7384 17.2356H56.842C56.9541 17.2196 57.0689 17.2062 57.1865 17.1982H57.3293H57.5645C58.245 17.2061 58.9206 17.3095 59.5695 17.5051C60.3502 17.7409 61.1014 18.0576 61.8097 18.4496L61.9301 18.5189C65.9876 20.7734 69.3535 25.3918 70.118 29.4766Z" fill="#FF5E15"/>
<g opacity="0.3">
<path d="M70.118 29.4766L68.505 30.3224L58.6874 35.4424L56.912 36.3629L44.6414 42.7662C43.8629 41.5122 41.8412 35.6612 40.7631 34.6019C39.7245 33.5612 38.5389 32.6632 37.2404 31.9339C35.7003 31.0855 34.2581 30.6826 33.012 30.6826C32.2789 30.6682 31.554 30.8326 30.9062 31.1602L55.1619 17.8199L55.6435 17.5531C55.7107 17.5211 55.7835 17.4917 55.8564 17.4624L56.0748 17.3877C56.0748 17.3877 56.0748 17.3877 56.0888 17.3877L56.3072 17.3263C56.3856 17.305 56.4668 17.2863 56.548 17.2703L56.7384 17.2356H56.842C56.954 17.2196 57.0689 17.2062 57.1865 17.1982H57.3293H57.5645C58.245 17.2061 58.9206 17.3095 59.5695 17.5051C60.3502 17.7409 61.1014 18.0576 61.8097 18.4496L61.9301 18.5189C65.9876 20.7734 69.3535 25.3918 70.118 29.4766Z" fill="black"/>
</g>
<path d="M68.1309 24.6232C68.1541 24.6564 68.1774 24.6924 68.1977 24.7284C68.1861 24.6841 68.1658 24.6481 68.1309 24.6232Z" fill="#FF5E15"/>
<path d="M69.4321 27.1581C69.7356 27.909 69.9653 28.6852 70.1182 29.4766L68.5052 30.3224L58.6876 35.4424L56.9122 36.3629L44.6416 42.7662L45.7281 57.251L70.2946 43.7267V31.1548C70.2617 29.784 69.9696 28.4301 69.4321 27.1581Z" fill="#FF5E15"/>
<path d="M69.0679 26.3201C68.9643 26.1014 68.855 25.8799 68.7402 25.6611C68.855 25.8799 68.9699 26.1014 69.0679 26.3201Z" fill="#FF5E15"/>
<path d="M68.3135 24.8903C68.4311 25.093 68.5487 25.2958 68.6579 25.5012C68.5487 25.3065 68.4339 25.1037 68.3135 24.8903Z" fill="#FF5E15"/>
<g opacity="0.5">
<path d="M68.1289 24.6237C68.1522 24.6569 68.1754 24.6929 68.1958 24.7289C68.1842 24.6846 68.1638 24.6486 68.1289 24.6237Z" fill="black"/>
<path d="M69.4321 27.1582C69.7356 27.9092 69.9653 28.6853 70.1182 29.4767L68.5052 30.3225L58.6876 35.4425L56.9122 36.363L44.6416 42.7663L45.7281 57.2512L70.2946 43.7268V31.1549C70.2617 29.7841 69.9696 28.4302 69.4321 27.1582Z" fill="black"/>
<path d="M69.0679 26.3206C68.9643 26.1019 68.855 25.8804 68.7402 25.6616C68.855 25.8804 68.9699 26.1019 69.0679 26.3206Z" fill="black"/>
<path d="M68.3135 24.8904C68.4311 25.0932 68.5487 25.2959 68.6579 25.5014C68.5487 25.3066 68.4339 25.1038 68.3135 24.8904Z" fill="black"/>
</g>
<path d="M33.0119 32.3421C33.9892 32.3421 35.1541 32.6969 36.3722 33.372C40.4969 35.6398 43.9832 40.8185 43.9832 44.6818V54.3989L30.4917 46.9764V35.357C30.4917 32.865 31.8582 32.3421 33.0119 32.3421ZM33.0119 30.6932C30.4749 30.6932 28.7695 32.3661 28.7695 35.357V47.9262L45.7166 57.2644V44.6818C45.7166 40.2208 41.9222 34.5192 37.243 31.9446C35.7029 31.0988 34.2552 30.6932 33.0119 30.6932Z" fill="#FF5E15"/>
<path d="M28.77 47.9258L19.644 52.7283C18.7399 53.2031 17.9844 53.8983 17.4549 54.7427C16.9253 55.5871 16.6407 56.5504 16.6302 57.534C16.6196 58.5176 16.8835 59.4862 17.3949 60.3407C17.9062 61.1952 18.6467 61.9049 19.5404 62.3973C22.0817 63.794 24.9639 64.5293 27.8977 64.5293C30.8315 64.5293 33.7137 63.794 36.255 62.3973L45.7282 57.2506L28.77 47.9258Z" fill="#FF5E15"/>
<path opacity="0.2" d="M28.77 47.9258L19.644 52.7283C18.7399 53.2031 17.9844 53.8983 17.4549 54.7427C16.9253 55.5871 16.6407 56.5504 16.6302 57.534C16.6196 58.5176 16.8835 59.4862 17.3949 60.3407C17.9062 61.1952 18.6467 61.9049 19.5404 62.3973C22.0817 63.794 24.9639 64.5293 27.8977 64.5293C30.8315 64.5293 33.7137 63.794 36.255 62.3973L45.7282 57.2506L28.77 47.9258Z" fill="white"/>
<path d="M51.371 53.4224L49.4668 54.4682V36.9525L51.371 35.9039V53.4224Z" fill="#E0E0E0"/>
<path d="M54.9665 37.4276L49.4668 40.4505V36.9527L54.9665 33.9271V37.4276Z" fill="#E0E0E0"/>
<path d="M52.1911 52.806C52.1576 53.3966 51.9783 53.9714 51.6679 54.4836C51.3575 54.9959 50.9247 55.4312 50.4046 55.7542C49.4161 56.2878 48.6152 55.8582 48.6152 54.7723C48.651 54.1837 48.8317 53.6114 49.1425 53.1016C49.4533 52.5917 49.8857 52.1587 50.4046 51.8375C51.3903 51.2799 52.1911 51.7201 52.1911 52.806Z" fill="#FF5E15"/>
<path opacity="0.2" d="M52.1911 52.806C52.1576 53.3966 51.9783 53.9714 51.6679 54.4836C51.3575 54.9959 50.9247 55.4312 50.4046 55.7542C49.4161 56.2878 48.6152 55.8582 48.6152 54.7723C48.651 54.1837 48.8317 53.6114 49.1425 53.1016C49.4533 52.5917 49.8857 52.1587 50.4046 51.8375C51.3903 51.2799 52.1911 51.7201 52.1911 52.806Z" fill="black"/>
<path d="M52.785 53.1343C52.7495 53.7227 52.5693 54.2949 52.259 54.8047C51.9487 55.3145 51.5169 55.7477 50.9985 56.0692C50.0128 56.6028 49.2119 56.1706 49.2119 55.0847C49.2461 54.4942 49.4257 53.9197 49.736 53.4075C50.0464 52.8954 50.4789 52.4599 50.9985 52.1365C51.987 51.6082 52.785 52.0484 52.785 53.1343Z" fill="#FF5E15"/>
<path d="M92.6931 81.9866L95.8517 83.7315C95.8517 83.7315 94.2556 78.8783 95.1405 73.9984C95.4737 72.1575 96.1793 71.2423 96.4258 70.7487C96.6722 70.2552 98.582 67.2136 96.9018 65.8102C95.2217 64.4068 91.2873 67.1976 91.4638 74.7161C91.5504 77.1793 91.9635 79.6221 92.6931 81.9866Z" fill="#FF5E15"/>
<path opacity="0.3" d="M92.6931 81.9866L95.8517 83.7315C95.8517 83.7315 94.2556 78.8783 95.1405 73.9984C95.4737 72.1575 96.1793 71.2423 96.4258 70.7487C96.6722 70.2552 98.582 67.2136 96.9018 65.8102C95.2217 64.4068 91.2873 67.1976 91.4638 74.7161C91.5504 77.1793 91.9635 79.6221 92.6931 81.9866Z" fill="black"/>
<path d="M94.1727 82.9309C94.1442 82.9301 94.1164 82.9214 94.093 82.9057C94.0696 82.8901 94.0516 82.8682 94.0411 82.8428C94.0411 82.8108 92.8342 79.6412 92.8958 74.5719C92.9574 69.5026 95.7745 66.7491 95.8025 66.7225C95.8288 66.6973 95.8646 66.6832 95.9019 66.6832C95.9392 66.6832 95.9749 66.6973 96.0013 66.7225C96.0277 66.7476 96.0425 66.7817 96.0425 66.8172C96.0425 66.8527 96.0277 66.8868 96.0013 66.9119C95.9733 66.9386 93.2403 69.5799 93.1787 74.5745C93.1171 79.5691 94.2988 82.7148 94.2988 82.7468C94.3114 82.78 94.3096 82.8167 94.2938 82.8487C94.2781 82.8807 94.2496 82.9055 94.2147 82.9175C94.2018 82.9247 94.1876 82.9292 94.1727 82.9309Z" fill="white"/>
<path d="M95.1433 83.3501L100.366 86.285C100.366 86.285 102.757 85.9488 102.578 83.8037C102.399 81.6586 101.424 81.1516 102.634 80.2098C103.844 79.268 104.157 79.2066 104.098 78.2808C104.04 77.355 103.39 76.9468 103.082 76.5893C102.774 76.2317 101.92 75.4553 102.522 74.3401C103.124 73.2248 103.939 72.1496 102.729 71.64C102.004 71.3359 100.789 71.7174 99.9849 72.5312C99.1812 73.3449 98.512 73.9346 97.7447 74.132C96.9774 74.3294 95.3897 74.3348 95.4429 75.5887C95.4961 76.8427 95.8377 77.275 95.5185 77.8299C94.922 78.8624 92.3542 79.4281 95.1433 83.3501Z" fill="#FF5E15"/>
<path d="M97.2721 84.6758C97.2364 84.6759 97.202 84.6629 97.1759 84.6396C97.1499 84.6163 97.1342 84.5844 97.1321 84.5504C97.1321 84.4757 96.5552 77.0585 101.965 72.1866C101.978 72.1715 101.994 72.1592 102.012 72.1504C102.03 72.1417 102.05 72.1367 102.07 72.1359C102.091 72.135 102.111 72.1383 102.13 72.1455C102.149 72.1527 102.166 72.1637 102.18 72.1776C102.194 72.1916 102.205 72.2083 102.211 72.2265C102.218 72.2448 102.221 72.2642 102.219 72.2835C102.217 72.3028 102.211 72.3215 102.201 72.3384C102.191 72.3553 102.178 72.3699 102.161 72.3814C96.8409 77.1626 97.4009 84.457 97.4009 84.5291C97.404 84.5647 97.3922 84.6002 97.3681 84.6276C97.344 84.6551 97.3095 84.6724 97.2721 84.6758Z" fill="white"/>
<path d="M98.2063 78.3156C98.1711 78.3157 98.137 78.3032 98.1111 78.2804C98.0851 78.2577 98.0691 78.2264 98.0663 78.1929C98.025 77.6227 97.863 77.0665 97.5902 76.5575C97.3173 76.0486 96.9392 75.5975 96.4786 75.2314C96.4637 75.221 96.4511 75.208 96.4415 75.193C96.4319 75.178 96.4255 75.1614 96.4226 75.1441C96.4197 75.1267 96.4205 75.109 96.4248 75.0919C96.4291 75.0749 96.4369 75.0588 96.4478 75.0446C96.4586 75.0304 96.4723 75.0184 96.488 75.0092C96.5038 75.0001 96.5212 74.994 96.5394 74.9912C96.5576 74.9885 96.5762 74.9892 96.5941 74.9934C96.612 74.9975 96.6289 75.0049 96.6438 75.0152C97.1414 75.4006 97.5498 75.88 97.8434 76.4233C98.1369 76.9665 98.3091 77.5618 98.3491 78.1716C98.3507 78.1893 98.3485 78.2071 98.3426 78.2241C98.3368 78.241 98.3275 78.2566 98.3152 78.27C98.303 78.2834 98.288 78.2944 98.2712 78.3022C98.2544 78.3101 98.2362 78.3146 98.2175 78.3156H98.2063Z" fill="white"/>
<path d="M97.8114 79.5852C97.7761 79.586 97.7419 79.5735 97.7162 79.5505C97.7031 79.5381 97.6927 79.5233 97.6856 79.5071C97.6785 79.4908 97.6748 79.4734 97.6748 79.4558C97.6748 79.4382 97.6785 79.4207 97.6856 79.4045C97.6927 79.3882 97.7031 79.3735 97.7162 79.3611C97.7722 79.2997 99.1331 77.899 102.281 78.3098C102.318 78.3151 102.351 78.3339 102.374 78.3623C102.397 78.3906 102.408 78.4263 102.404 78.4619C102.398 78.4971 102.378 78.5289 102.349 78.5503C102.319 78.5718 102.281 78.5812 102.244 78.5766C99.2423 78.1844 97.9402 79.5265 97.9262 79.5398C97.9119 79.5551 97.8942 79.5672 97.8743 79.575C97.8544 79.5829 97.8329 79.5863 97.8114 79.5852Z" fill="white"/>
<path d="M35.1846 39.7054C34.9353 39.7054 34.6833 39.7054 34.4369 39.6761C34.4029 39.6738 34.3697 39.665 34.3393 39.6502C34.309 39.6354 34.282 39.615 34.2601 39.5901C34.2381 39.5652 34.2217 39.5364 34.2116 39.5053C34.2016 39.4743 34.1982 39.4416 34.2017 39.4093C34.2081 39.3444 34.241 39.2845 34.2935 39.2425C34.3459 39.2006 34.4135 39.18 34.4817 39.1852C34.814 39.2145 35.148 39.2225 35.4814 39.2092C35.5493 39.2084 35.6149 39.2327 35.6645 39.2769C35.7141 39.3212 35.7438 39.382 35.7474 39.4466C35.7497 39.5113 35.7251 39.5742 35.6789 39.6217C35.6328 39.6691 35.5688 39.6973 35.501 39.7001C35.3918 39.7054 35.2882 39.7054 35.1846 39.7054ZM36.5119 39.6041C36.4464 39.6051 36.383 39.5824 36.3345 39.5406C36.286 39.4987 36.2561 39.4408 36.2507 39.3787C36.2454 39.3165 36.2651 39.2548 36.3058 39.206C36.3465 39.1572 36.4051 39.1249 36.4699 39.1158C36.7985 39.0646 37.1231 38.9924 37.4415 38.8997C37.5058 38.8843 37.5739 38.893 37.6315 38.9242C37.6892 38.9553 37.732 39.0065 37.7511 39.0669C37.7702 39.1274 37.7642 39.1926 37.7341 39.2489C37.7041 39.3052 37.6525 39.3483 37.59 39.3693C37.2505 39.4689 36.9043 39.5464 36.5539 39.6014L36.5119 39.6041ZM33.4316 39.5347H33.3812C33.0347 39.4637 32.6926 39.3746 32.3563 39.2679C32.2916 39.2466 32.2381 39.202 32.2072 39.1438C32.1764 39.0855 32.1706 39.018 32.1911 38.9557C32.2134 38.8941 32.2603 38.8433 32.3216 38.8143C32.3829 38.7854 32.4537 38.7806 32.5187 38.801C32.8355 38.9006 33.1581 38.9825 33.4848 39.0464C33.5181 39.0528 33.5497 39.0654 33.5778 39.0835C33.6059 39.1016 33.6299 39.1249 33.6484 39.152C33.6669 39.1791 33.6796 39.2094 33.6856 39.2412C33.6917 39.2731 33.691 39.3057 33.6836 39.3373C33.6722 39.3919 33.6416 39.4413 33.5968 39.4772C33.552 39.5131 33.4957 39.5333 33.4372 39.5347H33.4316ZM38.472 39.0251C38.4135 39.0253 38.3567 39.0065 38.3109 38.9718C38.2651 38.9372 38.233 38.8887 38.22 38.8343C38.207 38.78 38.2137 38.723 38.2392 38.6729C38.2646 38.6227 38.3072 38.5822 38.36 38.5582L38.5392 38.4755C38.5696 38.4591 38.603 38.4489 38.6377 38.4452C38.6723 38.4416 38.7073 38.4446 38.7406 38.4542C38.774 38.4639 38.8049 38.4798 38.8316 38.5011C38.8582 38.5225 38.8801 38.5487 38.8958 38.5783C38.9116 38.6079 38.9208 38.6403 38.9231 38.6734C38.9253 38.7065 38.9205 38.7397 38.9089 38.771C38.8973 38.8023 38.8791 38.831 38.8555 38.8554C38.832 38.8798 38.8034 38.8994 38.7717 38.913L38.5812 39.0037C38.5491 39.0195 38.5138 39.0286 38.4776 39.0304L38.472 39.0251ZM31.4714 38.921C31.4336 38.9208 31.3963 38.9126 31.3622 38.897C31.0425 38.7551 30.7312 38.5966 30.4298 38.4221C30.4009 38.4046 30.3759 38.3818 30.3563 38.3551C30.3367 38.3284 30.3227 38.2983 30.3153 38.2664C30.3079 38.2346 30.3072 38.2017 30.3131 38.1696C30.319 38.1375 30.3316 38.1068 30.3499 38.0793C30.3683 38.0518 30.3922 38.028 30.4203 38.0093C30.4483 37.9906 30.4799 37.9773 30.5133 37.9702C30.5467 37.9632 30.5813 37.9625 30.615 37.9681C30.6487 37.9738 30.6809 37.9857 30.7098 38.0032C30.996 38.1678 31.2914 38.3174 31.5947 38.4515C31.6464 38.4763 31.6879 38.5168 31.7127 38.5667C31.7375 38.6165 31.7442 38.6728 31.7317 38.7267C31.7192 38.7806 31.6881 38.8289 31.6435 38.8641C31.599 38.8993 31.5433 38.9193 31.4854 38.921H31.4714ZM29.7073 37.9072C29.6521 37.906 29.5985 37.8893 29.5533 37.8592C29.2733 37.6617 28.9932 37.4456 28.7412 37.2162C28.7162 37.1944 28.6959 37.1682 28.6816 37.139C28.6672 37.1099 28.659 37.0783 28.6574 37.046C28.6559 37.0138 28.661 36.9816 28.6725 36.9513C28.684 36.921 28.7016 36.8931 28.7244 36.8693C28.7472 36.8455 28.7747 36.8262 28.8053 36.8125C28.836 36.7988 28.8691 36.791 28.9029 36.7895C28.9367 36.788 28.9705 36.7929 29.0024 36.8038C29.0342 36.8148 29.0634 36.8316 29.0884 36.8533C29.3405 37.0721 29.6009 37.2775 29.8641 37.4669C29.9068 37.4982 29.9382 37.5414 29.9538 37.5904C29.9695 37.6395 29.9686 37.692 29.9513 37.7406C29.934 37.7892 29.9011 37.8314 29.8574 37.8612C29.8136 37.8911 29.7611 37.9072 29.7073 37.9072ZM28.1868 36.5865C28.1509 36.5867 28.1154 36.5796 28.0826 36.5658C28.0498 36.552 28.0204 36.5318 27.9963 36.5064C27.7639 36.2637 27.5343 36.0049 27.3215 35.7381C27.3009 35.7125 27.2858 35.6833 27.277 35.6521C27.2683 35.621 27.2661 35.5885 27.2705 35.5566C27.2794 35.492 27.3149 35.4335 27.3691 35.3939C27.4233 35.3542 27.4918 35.3368 27.5596 35.3453C27.6273 35.3538 27.6887 35.3876 27.7303 35.4392C27.9347 35.706 28.1532 35.9408 28.3772 36.1756C28.4 36.1994 28.4176 36.2273 28.4291 36.2576C28.4406 36.288 28.4458 36.3201 28.4442 36.3524C28.4426 36.3846 28.4344 36.4162 28.4201 36.4453C28.4057 36.4745 28.3854 36.5007 28.3604 36.5225C28.3164 36.5605 28.2601 36.5831 28.2008 36.5865H28.1868ZM26.9463 35.0283C26.903 35.0285 26.8605 35.018 26.8227 34.9979C26.7849 34.9778 26.7532 34.9488 26.7306 34.9136C26.6186 34.7482 26.5094 34.5774 26.4058 34.4067C26.3358 34.2893 26.2658 34.1692 26.1986 34.0492C26.1729 33.9925 26.1705 33.9287 26.192 33.8705C26.2134 33.8123 26.2571 33.7639 26.3143 33.735C26.3715 33.706 26.438 33.6987 26.5006 33.7144C26.5633 33.7301 26.6174 33.7677 26.6522 33.8197C26.7166 33.9344 26.7838 34.0492 26.8511 34.1612C26.9519 34.3267 27.0555 34.4894 27.1647 34.6495C27.189 34.6869 27.2025 34.7297 27.2037 34.7737C27.2049 34.8177 27.1938 34.8611 27.1716 34.8997C27.1494 34.9382 27.1168 34.9705 27.0772 34.9931C27.0376 35.0157 26.9924 35.0279 26.9463 35.0283ZM25.983 33.2941C25.9323 33.2943 25.8826 33.2802 25.8403 33.2536C25.798 33.2271 25.7648 33.1892 25.745 33.1447C25.6077 32.8352 25.4845 32.5177 25.3781 32.2029C25.3676 32.1722 25.3636 32.1399 25.3662 32.1077C25.3688 32.0756 25.3781 32.0443 25.3934 32.0155C25.4088 31.9868 25.4299 31.9612 25.4556 31.9402C25.4814 31.9193 25.5112 31.9034 25.5433 31.8934C25.6087 31.8741 25.6794 31.88 25.7402 31.91C25.801 31.9399 25.847 31.9915 25.8682 32.0535C25.969 32.355 26.0866 32.6565 26.2182 32.9526C26.2356 32.9897 26.2428 33.0305 26.2394 33.071C26.2359 33.1115 26.2219 33.1506 26.1984 33.1845C26.175 33.2185 26.143 33.2464 26.1054 33.2655C26.0677 33.2847 26.0256 33.2945 25.983 33.2941ZM25.3557 31.4265C25.2968 31.426 25.2398 31.4064 25.194 31.3711C25.1482 31.3357 25.1164 31.2866 25.1037 31.2317C25.0288 30.9031 24.9728 30.5709 24.9357 30.2365C24.9294 30.1722 24.95 30.1081 24.993 30.0582C25.036 30.0083 25.0979 29.9765 25.1653 29.9697C25.2012 29.9618 25.2386 29.9618 25.2745 29.9697C25.2933 29.9365 25.3201 29.9081 25.3528 29.8868C25.3854 29.8654 25.4229 29.8518 25.4621 29.847C25.7884 29.804 26.1105 29.7362 26.4254 29.6442C26.4908 29.6248 26.5616 29.6308 26.6222 29.6611C26.6829 29.6914 26.7284 29.7434 26.7488 29.8056C26.7693 29.8679 26.7629 29.9354 26.7311 29.9931C26.6993 30.0509 26.6448 30.0943 26.5794 30.1138C26.2369 30.2134 25.8867 30.2874 25.5321 30.3352C25.5108 30.3379 25.4891 30.3379 25.4677 30.3352C25.5013 30.602 25.5489 30.8689 25.6077 31.1197C25.6151 31.1512 25.6158 31.1838 25.6097 31.2157C25.6037 31.2475 25.591 31.2778 25.5725 31.3049C25.554 31.332 25.53 31.3553 25.5019 31.3734C25.4738 31.3915 25.4422 31.4041 25.4089 31.4105C25.3924 31.4194 25.3744 31.4257 25.3557 31.4291V31.4265ZM24.4681 30.4073C24.1128 30.4021 23.7582 30.3744 23.4068 30.3246C23.3397 30.3145 23.2795 30.2796 23.2393 30.2274C23.1991 30.1753 23.1822 30.1101 23.1921 30.0461C23.2021 29.9821 23.2382 29.9244 23.2925 29.8856C23.3469 29.8469 23.4151 29.8301 23.4824 29.839C23.8105 29.887 24.1417 29.9128 24.4737 29.9164C24.542 29.9164 24.6075 29.9422 24.6558 29.9883C24.7041 30.0343 24.7313 30.0967 24.7313 30.1618C24.7313 30.2269 24.7041 30.2894 24.6558 30.3354C24.6075 30.3814 24.542 30.4073 24.4737 30.4073H24.4681ZM22.4351 30.1191C22.4119 30.123 22.3882 30.123 22.3651 30.1191C22.0243 30.0242 21.6904 29.9084 21.3654 29.7723C21.3026 29.7465 21.2532 29.6979 21.228 29.6374C21.2028 29.5768 21.2039 29.5092 21.231 29.4494C21.2581 29.3897 21.309 29.3426 21.3726 29.3186C21.4361 29.2945 21.5071 29.2956 21.5698 29.3214C21.8757 29.447 22.19 29.553 22.5107 29.6389C22.576 29.6575 22.6311 29.6997 22.6641 29.7566C22.6971 29.8135 22.7054 29.8804 22.6871 29.943C22.6708 29.9947 22.6375 30.04 22.5922 30.0722C22.5468 30.1044 22.4917 30.1218 22.4351 30.1218V30.1191ZM27.4559 29.7643C27.3989 29.7633 27.3439 29.7444 27.2994 29.7105C27.2549 29.6766 27.2235 29.6295 27.21 29.5768C27.1966 29.524 27.2019 29.4685 27.2251 29.4189C27.2483 29.3693 27.2881 29.3284 27.3383 29.3027C27.6267 29.1618 27.8973 28.9899 28.1448 28.7904C28.1966 28.7482 28.2639 28.7271 28.3319 28.7315C28.4 28.736 28.4635 28.7658 28.5088 28.8145C28.5309 28.839 28.5478 28.8674 28.5583 28.8981C28.5689 28.9288 28.573 28.9612 28.5704 28.9934C28.5678 29.0256 28.5586 29.0571 28.5432 29.0859C28.5278 29.1147 28.5066 29.1403 28.4808 29.1613C28.2048 29.3875 27.9011 29.581 27.5763 29.7376C27.5392 29.7564 27.4979 29.7665 27.4559 29.7669V29.7643ZM25.1457 29.4761C25.0771 29.4747 25.0119 29.4476 24.9642 29.4006C24.9165 29.3537 24.8901 29.2907 24.8909 29.2253C24.8965 28.8879 24.9236 28.5511 24.9721 28.2168C24.9756 28.1839 24.9861 28.152 25.0028 28.1231C25.0196 28.0941 25.0423 28.0687 25.0697 28.0483C25.097 28.0279 25.1284 28.013 25.1619 28.0045C25.1955 27.9959 25.2305 27.9939 25.2648 27.9986C25.2992 28.0033 25.3322 28.0145 25.3619 28.0317C25.3916 28.0488 25.4173 28.0715 25.4376 28.0984C25.4579 28.1252 25.4722 28.1557 25.4798 28.188C25.4874 28.2203 25.488 28.2537 25.4817 28.2862C25.4365 28.6002 25.4113 28.9165 25.4061 29.2333C25.4054 29.2987 25.3776 29.3611 25.3289 29.4071C25.2801 29.453 25.2143 29.4788 25.1457 29.4788V29.4761ZM20.5421 29.3507C20.4971 29.3501 20.4529 29.3391 20.4133 29.3187C20.107 29.1488 19.8115 28.9617 19.5284 28.7584C19.5012 28.7395 19.4781 28.7155 19.4608 28.6879C19.4434 28.6603 19.432 28.6297 19.4273 28.5978C19.4226 28.566 19.4247 28.5336 19.4334 28.5025C19.4421 28.4714 19.4573 28.4423 19.478 28.4169C19.4982 28.3909 19.5236 28.369 19.5527 28.3524C19.5818 28.3358 19.614 28.3248 19.6476 28.3201C19.6812 28.3154 19.7154 28.317 19.7483 28.3249C19.7812 28.3328 19.8121 28.3469 19.8393 28.3662C20.1071 28.5609 20.3877 28.7392 20.6793 28.8998C20.7289 28.9267 20.7677 28.9684 20.7898 29.0185C20.8118 29.0686 20.8157 29.1242 20.801 29.1767C20.7863 29.2292 20.7537 29.2755 20.7084 29.3084C20.663 29.3414 20.6075 29.3591 20.5505 29.3587L20.5421 29.3507ZM28.9764 28.4756C28.9313 28.4758 28.8869 28.4647 28.8476 28.4436C28.8184 28.4273 28.7928 28.4057 28.7723 28.38C28.7518 28.3543 28.7368 28.325 28.7282 28.2938C28.7196 28.2625 28.7176 28.23 28.7222 28.198C28.7269 28.1661 28.7381 28.1353 28.7552 28.1074C28.8288 27.9858 28.8906 27.8581 28.94 27.7259C28.9931 27.585 29.0251 27.4377 29.0352 27.2883C29.0373 27.2557 29.0463 27.2238 29.0617 27.1945C29.077 27.1653 29.0984 27.1393 29.1246 27.1181C29.1507 27.0969 29.1811 27.081 29.2138 27.0713C29.2466 27.0616 29.2811 27.0582 29.3153 27.0615C29.3494 27.0639 29.3827 27.0727 29.4132 27.0874C29.4437 27.1022 29.4708 27.1226 29.493 27.1474C29.5151 27.1722 29.5319 27.201 29.5422 27.2321C29.5526 27.2632 29.5563 27.2959 29.5533 27.3283C29.5385 27.5212 29.4971 27.7114 29.4301 27.894C29.3703 28.0548 29.2953 28.2102 29.2061 28.3582C29.1823 28.3958 29.1486 28.4267 29.1082 28.4478C29.0679 28.4688 29.0224 28.4794 28.9764 28.4783V28.4756ZM18.8956 28.1715C18.8287 28.1711 18.7645 28.1463 18.7164 28.1021L18.5456 27.9367C18.3579 27.7526 18.1759 27.5578 18.0023 27.355C17.9592 27.3044 17.939 27.2396 17.9461 27.1748C17.9532 27.11 17.987 27.0506 18.0401 27.0095C18.0932 26.9685 18.1612 26.9492 18.2293 26.956C18.2973 26.9627 18.3597 26.9949 18.4027 27.0455C18.5652 27.2376 18.7388 27.4217 18.9152 27.5952L19.0748 27.7499C19.099 27.7725 19.1182 27.7995 19.1314 27.8293C19.1445 27.859 19.1513 27.891 19.1513 27.9233C19.1513 27.9556 19.1445 27.9876 19.1314 28.0174C19.1182 28.0472 19.099 28.0741 19.0748 28.0967C19.0292 28.1424 18.9672 28.17 18.9012 28.1741L18.8956 28.1715ZM25.4369 27.5365C25.4119 27.5403 25.3864 27.5403 25.3613 27.5365C25.329 27.527 25.2989 27.5116 25.2727 27.491C25.2466 27.4705 25.225 27.4453 25.2092 27.4168C25.1933 27.3883 25.1835 27.3571 25.1803 27.325C25.1771 27.2929 25.1806 27.2605 25.1905 27.2296C25.2941 26.8948 25.4439 26.5745 25.6357 26.2771C25.6729 26.2219 25.7315 26.1831 25.7987 26.1691C25.8659 26.155 25.9363 26.167 25.9942 26.2024C26.0521 26.2378 26.0929 26.2937 26.1076 26.3577C26.1223 26.4218 26.1097 26.4887 26.0726 26.5439C25.9045 26.8046 25.7736 27.0854 25.6834 27.379C25.6654 27.4261 25.6327 27.4668 25.5896 27.4955C25.5465 27.5241 25.4951 27.5394 25.4425 27.5391L25.4369 27.5365ZM17.5963 26.6507C17.5533 26.6508 17.5111 26.6406 17.4734 26.621C17.4357 26.6014 17.4038 26.5731 17.3807 26.5386C17.1888 26.2574 17.0122 25.9671 16.8514 25.6688C16.8202 25.6108 16.8145 25.5433 16.8355 25.4813C16.8565 25.4193 16.9025 25.3677 16.9634 25.338C17.0243 25.3083 17.0951 25.3028 17.1602 25.3228C17.2253 25.3428 17.2795 25.3867 17.3106 25.4447C17.4627 25.7284 17.63 26.0045 17.8119 26.2718C17.837 26.3088 17.8513 26.3516 17.8531 26.3957C17.8549 26.4397 17.8442 26.4834 17.8221 26.5222C17.8 26.561 17.7674 26.5934 17.7277 26.616C17.6879 26.6386 17.6426 26.6506 17.5963 26.6507ZM29.1248 26.5893C29.0738 26.5893 29.024 26.5748 28.9816 26.5477C28.9392 26.5206 28.9062 26.4822 28.8868 26.4372C28.7797 26.1755 28.5936 25.9499 28.352 25.7889C28.3034 25.7504 28.2714 25.6962 28.262 25.6366C28.2526 25.5771 28.2665 25.5163 28.3011 25.4659C28.3357 25.4155 28.3885 25.379 28.4495 25.3633C28.5105 25.3475 28.5755 25.3537 28.632 25.3807C28.9578 25.5961 29.2092 25.8988 29.3545 26.2505C29.3678 26.28 29.3748 26.3118 29.3751 26.344C29.3754 26.3762 29.3689 26.4081 29.3562 26.4379C29.3434 26.4677 29.3245 26.4948 29.3007 26.5175C29.2768 26.5403 29.2485 26.5584 29.2172 26.5706C29.1898 26.5825 29.1605 26.5897 29.1304 26.592L29.1248 26.5893ZM26.557 25.933C26.5152 25.9328 26.474 25.923 26.4369 25.9044C26.3999 25.8858 26.3681 25.859 26.3442 25.8262C26.3251 25.7996 26.3116 25.7697 26.3046 25.7381C26.2976 25.7065 26.2972 25.6739 26.3035 25.6422C26.3097 25.6105 26.3225 25.5802 26.341 25.5532C26.3595 25.5262 26.3834 25.5029 26.4114 25.4847C26.7321 25.2734 27.1042 25.1439 27.4923 25.1085C27.527 25.1037 27.5624 25.1057 27.5963 25.1144C27.6301 25.1231 27.6618 25.1382 27.6893 25.159C27.7168 25.1797 27.7396 25.2056 27.7562 25.235C27.7728 25.2644 27.783 25.2968 27.786 25.3301C27.7891 25.3633 27.785 25.3969 27.774 25.4286C27.7629 25.4603 27.7452 25.4896 27.7219 25.5145C27.6986 25.5395 27.6702 25.5597 27.6384 25.5738C27.6066 25.588 27.5722 25.5958 27.5371 25.5968C27.2349 25.6245 26.9454 25.7266 26.697 25.8929C26.6568 25.9179 26.6105 25.9326 26.5626 25.9356L26.557 25.933ZM16.6526 24.9084C16.6012 24.9082 16.5512 24.8933 16.5088 24.8657C16.4663 24.8382 16.4335 24.7991 16.4146 24.7537C16.2858 24.4469 16.1682 24.1294 16.0673 23.8065C16.0558 23.7752 16.051 23.742 16.0533 23.7089C16.0556 23.6758 16.0649 23.6435 16.0807 23.6139C16.0964 23.5843 16.1183 23.5581 16.1451 23.5368C16.1718 23.5155 16.2027 23.4996 16.2361 23.49C16.2694 23.4805 16.3045 23.4774 16.3391 23.4811C16.3737 23.4848 16.4071 23.4952 16.4374 23.5115C16.4677 23.5279 16.4942 23.5499 16.5153 23.5763C16.5364 23.6027 16.5517 23.6329 16.5602 23.6651C16.6582 23.9719 16.7702 24.2788 16.8934 24.5722C16.9174 24.6328 16.9156 24.6999 16.8884 24.7592C16.8612 24.8185 16.8107 24.8654 16.7478 24.8897C16.7198 24.9027 16.6893 24.91 16.6582 24.9111L16.6526 24.9084ZM16.0561 23.0408C15.9971 23.0408 15.9398 23.0214 15.8939 22.986C15.848 22.9505 15.8163 22.9011 15.8041 22.846C15.7313 22.5232 15.6725 22.1923 15.6249 21.8588C15.6208 21.7967 15.6416 21.7355 15.683 21.6874C15.7245 21.6394 15.7836 21.6081 15.8483 21.6C15.9131 21.5919 15.9786 21.6074 16.0318 21.6436C16.0849 21.6798 16.1216 21.7338 16.1345 21.7948C16.1794 22.115 16.2382 22.4325 16.3082 22.7446C16.3223 22.8083 16.3092 22.8747 16.272 22.9293C16.2347 22.9838 16.1762 23.022 16.1093 23.0355L16.0561 23.0408ZM15.7761 21.0958C15.7103 21.0952 15.6472 21.071 15.5994 21.0279C15.5517 20.9849 15.5227 20.9262 15.5185 20.8637C15.5185 20.5969 15.4961 20.33 15.4961 20.0632V19.8578C15.499 19.7932 15.528 19.7321 15.577 19.6873C15.6261 19.6426 15.6914 19.6176 15.7593 19.6177C15.7931 19.6177 15.8266 19.6241 15.8577 19.6367C15.8889 19.6493 15.917 19.6677 15.9406 19.6908C15.9641 19.714 15.9825 19.7414 15.9946 19.7715C16.0068 19.8015 16.0125 19.8336 16.0113 19.8658V20.0632C16.0113 20.33 16.0113 20.5755 16.0337 20.829C16.0364 20.8616 16.0323 20.8944 16.0216 20.9254C16.011 20.9565 15.9939 20.9853 15.9716 21.0101C15.9492 21.0349 15.9219 21.0552 15.8912 21.0699C15.8606 21.0846 15.8272 21.0934 15.7929 21.0958H15.7761Z" fill="#263238"/>
<path d="M18.3583 12.163L16.8182 18.5396L0 15.1005L18.3583 12.163Z" fill="#FF5E15"/>
<path opacity="0.3" d="M18.3583 12.163L16.8182 18.5396L0 15.1005L18.3583 12.163Z" fill="black"/>
<path d="M0 15.1009L20.9402 14.5673L25.8602 21.7923L0 15.1009Z" fill="#FF5E15"/>
<path d="M0 15.1009L18.3583 12.1634L14.032 7.3822L0 15.1009Z" fill="#FF5E15"/>
<path d="M72.9382 81.5462L68.5068 81.4386L68.2782 89.9869L72.7095 90.0945L72.9382 81.5462Z" fill="#945959"/>
<path d="M67.1172 47.2215C67.1172 47.2215 66.8064 61.7678 66.9128 67.5308C66.994 71.8717 67.7053 84.8731 67.7053 84.8731C67.7053 84.8731 70.5783 86.6607 73.6054 85.1666C73.6054 85.1666 75.3527 72.0344 74.9271 68.0777C74.8725 67.598 74.8725 67.114 74.9271 66.6343L77.5985 44.6122L67.1172 47.2215Z" fill="#37474F"/>
<path d="M69.8105 88.8032C69.8105 88.8032 72.2663 88.5364 72.7619 87.7733V87.2771C72.7619 87.2771 73.1875 87.4932 73.1063 88.3149C73.0335 89.078 73.3528 90.3773 73.4004 91.9622C73.4034 92.0915 73.3746 92.2196 73.3163 92.3364C73.2579 92.4532 73.1716 92.5553 73.0643 92.6345C72.5883 92.984 71.583 93.5203 69.8105 93.5923C69.1888 93.619 66.7022 95.1371 64.6328 95.1371C62.5635 95.1371 61.2109 94.1606 61.2109 92.7946C61.2109 91.4286 65.4309 90.1932 65.4309 90.1932L67.4583 88.3256C67.4583 88.3256 67.0634 86.2899 68.3543 86.7781C69.6452 87.2664 69.8105 87.7733 69.8105 88.8032Z" fill="#37474F"/>
<path d="M69.3624 89.9903C69.335 89.9904 69.3083 89.9822 69.2861 89.9669C69.264 89.9515 69.2475 89.9298 69.2392 89.9049C68.808 88.675 67.461 88.4482 67.447 88.4455C67.4303 88.4429 67.4142 88.4372 67.3998 88.4287C67.3854 88.4202 67.3729 88.409 67.363 88.3959C67.3531 88.3828 67.346 88.3679 67.3422 88.3521C67.3384 88.3364 67.3378 88.3201 67.3406 88.3041C67.3468 88.2722 67.3657 88.2438 67.3934 88.2249C67.4211 88.206 67.4553 88.198 67.489 88.2027C67.9403 88.2865 68.3611 88.4802 68.7105 88.765C69.0599 89.0497 69.326 89.4158 69.4828 89.8276C69.4935 89.8584 69.4909 89.8919 69.4757 89.9209C69.4605 89.9499 69.4338 89.972 69.4016 89.9823L69.3624 89.9903Z" fill="#FAFAFA"/>
<path d="M68.5525 90.7534C68.5253 90.7527 68.499 90.7442 68.477 90.729C68.455 90.7137 68.4384 90.6925 68.4293 90.668C68.0009 89.4434 66.6512 89.2113 66.6372 89.2086C66.6205 89.206 66.6045 89.2003 66.5902 89.1917C66.576 89.1832 66.5636 89.172 66.5539 89.1588C66.5443 89.1456 66.5375 89.1307 66.534 89.115C66.5305 89.0992 66.5303 89.083 66.5336 89.0672C66.5363 89.0512 66.5423 89.0359 66.5512 89.0222C66.5602 89.0084 66.5719 88.9965 66.5857 88.9871C66.5994 88.9777 66.6151 88.9709 66.6316 88.9673C66.6481 88.9636 66.6652 88.9631 66.682 88.9658C67.1332 89.0496 67.5541 89.2433 67.9034 89.528C68.2528 89.8128 68.5189 90.1789 68.6757 90.5906C68.681 90.6061 68.6829 90.6223 68.6815 90.6384C68.6801 90.6546 68.6754 90.6703 68.6676 90.6847C68.6597 90.6991 68.649 90.7118 68.636 90.7223C68.623 90.7327 68.6079 90.7405 68.5917 90.7454C68.5795 90.7508 68.5661 90.7536 68.5525 90.7534Z" fill="#FAFAFA"/>
<path d="M67.8501 91.4149C67.8235 91.4151 67.7974 91.4071 67.7758 91.3923C67.7541 91.3774 67.738 91.3564 67.7297 91.3322C67.3013 90.1049 65.9516 89.8728 65.9376 89.8701C65.9193 89.8695 65.9013 89.8652 65.8849 89.8574C65.8685 89.8496 65.8541 89.8386 65.8425 89.8251C65.8309 89.8116 65.8225 89.7959 65.8178 89.779C65.8131 89.7621 65.8122 89.7445 65.8152 89.7273C65.8182 89.7101 65.8251 89.6937 65.8353 89.6792C65.8454 89.6647 65.8587 89.6524 65.8743 89.6432C65.8898 89.634 65.9073 89.6281 65.9254 89.6258C65.9436 89.6235 65.962 89.625 65.9796 89.63C66.4312 89.7131 66.8523 89.9065 67.2019 90.1914C67.5514 90.4762 67.8172 90.8427 67.9733 91.2549C67.984 91.2856 67.9814 91.3192 67.9662 91.3482C67.951 91.3772 67.9244 91.3993 67.8921 91.4096L67.8501 91.4149Z" fill="#FAFAFA"/>
<path d="M61.2227 92.7943C61.2227 94.1444 62.5472 95.1129 64.5829 95.1342L67.4812 94.027C67.4812 91.1642 65.4482 90.193 65.4482 90.193C65.4482 90.193 61.2227 91.431 61.2227 92.7943Z" fill="#EBEBEB"/>
<path d="M73.3379 92.0795C72.8422 92.445 71.7894 93.008 69.9356 93.0853C69.2831 93.112 66.6845 94.6862 64.5199 94.6862C63.0358 94.6862 61.9045 94.2059 61.3389 93.4402C61.7057 94.4514 62.9266 95.1237 64.6431 95.1237C66.7125 95.1237 69.1991 93.6056 69.8208 93.5789C71.5933 93.5069 72.5986 92.9706 73.0747 92.6211C73.1733 92.5479 73.2539 92.455 73.311 92.349C73.368 92.243 73.4002 92.1265 73.4051 92.0074C73.3845 92.033 73.3621 92.057 73.3379 92.0795Z" fill="#263238"/>
<path d="M69.6846 49.2571C69.6846 49.2571 70.0906 52.5495 72.7396 54.289L75.0778 65.4602L76.5788 51.4929L69.6846 49.2571Z" fill="#263238"/>
<path d="M84.9027 83.8896L80.4834 84.2188L81.1829 92.7438L85.6021 92.4147L84.9027 83.8896Z" fill="#945959"/>
<path d="M83.2043 47.5683C83.2043 47.5683 83.7392 49.4973 83.9968 57.4561C84.204 63.7634 84.358 67.392 84.414 68.6246C84.4276 68.9315 84.4622 69.2372 84.5176 69.5397C85.0619 72.7205 85.4265 75.9267 85.6097 79.1447C85.9878 85.2813 86.0186 88.1868 86.0186 88.1868C86.0186 88.1868 83.2855 90.2225 79.9868 88.6243L76.7946 70.3375L73.4343 53.366C73.4343 53.366 68.8279 51.6931 68.4219 47.2295L83.2043 47.5683Z" fill="#37474F"/>
<path d="M85.4448 90.4599L85.5148 91.2923C85.5148 91.2923 84.9884 91.9967 84.3668 92.2021C84.3668 92.2021 83.8907 90.5453 83.0478 90.4599C82.205 90.3745 80.4548 90.2998 80.69 91.223C80.8212 91.7043 80.9028 92.1966 80.9337 92.6931L79.3095 95.5772C79.3095 95.5772 76.0136 98.2826 77.3914 100.006C78.7691 101.73 83.3923 100.807 83.8487 98.1012C83.9218 97.6937 84.0824 97.3049 84.3204 96.9592C84.5584 96.6135 84.8688 96.3183 85.232 96.0922C85.5301 95.9131 85.7646 95.6526 85.9049 95.3447C86.0453 95.0368 86.085 94.6957 86.0189 94.3659C85.9349 93.7469 85.7389 92.557 85.7977 92.0207C85.8565 91.4844 86.0133 90.4679 85.4448 90.4599Z" fill="#37474F"/>
<path d="M77.3914 100.006C78.5367 101.439 81.9137 101.047 83.2915 99.3233C83.3519 99.0433 83.3819 98.7581 83.3811 98.4722C83.3811 95.3906 79.3095 95.5774 79.3095 95.5774C79.3095 95.5774 76.0136 98.2828 77.3914 100.006Z" fill="#EBEBEB"/>
<path d="M86.0177 94.3662C86.0177 94.3208 86.0037 94.2675 85.9953 94.2141C85.9636 94.4606 85.8738 94.6971 85.7327 94.9059C85.5916 95.1148 85.4028 95.2905 85.1804 95.4201C84.8051 95.6542 84.4845 95.9597 84.2388 96.3173C83.993 96.6749 83.8274 97.0771 83.7523 97.4985C83.2875 100.268 78.6111 101.234 77.127 99.5235C77.1841 99.6981 77.2732 99.8616 77.3902 100.006C78.7679 101.733 83.3911 100.807 83.8475 98.1015C83.9206 97.6939 84.0812 97.3051 84.3192 96.9594C84.5572 96.6137 84.8676 96.3186 85.2308 96.0924C85.5289 95.9134 85.7634 95.6529 85.9037 95.345C86.0441 95.037 86.0838 94.6959 86.0177 94.3662Z" fill="#263238"/>
<path d="M83.3263 93.336C83.2933 93.3364 83.2613 93.325 83.2367 93.304C82.251 92.4155 80.9461 92.8184 80.9321 92.8237C80.9157 92.8303 80.8981 92.8336 80.8803 92.8335C80.8625 92.8333 80.845 92.8296 80.8288 92.8226C80.8126 92.8156 80.7981 92.8056 80.7861 92.793C80.7742 92.7804 80.7652 92.7656 80.7595 92.7495C80.7539 92.7335 80.7518 92.7165 80.7535 92.6996C80.7551 92.6827 80.7603 92.6663 80.7689 92.6515C80.7775 92.6367 80.7892 92.6237 80.8033 92.6134C80.8174 92.6031 80.8336 92.5956 80.8509 92.5916C81.2899 92.4612 81.7569 92.4419 82.2061 92.5355C82.6553 92.629 83.0712 92.8322 83.4131 93.1252C83.4254 93.1364 83.4352 93.1499 83.4419 93.1648C83.4485 93.1797 83.452 93.1957 83.452 93.2119C83.452 93.2281 83.4485 93.2441 83.4419 93.259C83.4352 93.2739 83.4254 93.2874 83.4131 93.2986C83.3901 93.321 83.3591 93.3343 83.3263 93.336Z" fill="#FAFAFA"/>
<path d="M82.7619 94.406C82.7299 94.4057 82.699 94.3943 82.6751 94.3739C81.6894 93.4855 80.3845 93.8884 80.3705 93.8937C80.3378 93.904 80.3022 93.9014 80.2715 93.8867C80.2408 93.8719 80.2175 93.8461 80.2067 93.815C80.1959 93.7838 80.1986 93.7499 80.2141 93.7206C80.2296 93.6914 80.2566 93.6692 80.2893 93.6589C80.7285 93.5299 81.1951 93.5112 81.6441 93.6047C82.093 93.6982 82.509 93.9007 82.8515 94.1925C82.875 94.2159 82.8881 94.2469 82.8881 94.2792C82.8881 94.3115 82.875 94.3426 82.8515 94.3659C82.8281 94.3896 82.7961 94.404 82.7619 94.406Z" fill="#FAFAFA"/>
<path d="M82.1994 95.4755C82.1674 95.4753 82.1365 95.4639 82.1126 95.4435C81.1269 94.5551 79.822 94.9579 79.808 94.9633C79.7754 94.9735 79.7397 94.971 79.709 94.9562C79.6783 94.9415 79.655 94.9157 79.6442 94.8846C79.6334 94.8534 79.6361 94.8195 79.6516 94.7902C79.6671 94.761 79.6941 94.7388 79.7268 94.7285C80.1659 94.5987 80.6327 94.5796 81.0818 94.6731C81.5309 94.7667 81.9469 94.9696 82.289 95.2621C82.3125 95.2854 82.3256 95.3165 82.3256 95.3488C82.3256 95.3811 82.3125 95.4122 82.289 95.4355C82.2654 95.459 82.2335 95.4733 82.1994 95.4755Z" fill="#FAFAFA"/>
<path d="M53.8669 13.0436C53.6005 11.9671 53.4133 10.874 53.3068 9.7726C53.2396 8.48393 52.8476 8.03303 52.0215 8.6787C51.1954 9.32437 49.3137 11.1973 49.4257 12.6568C49.5173 14.274 50.0574 15.8391 50.991 17.1925L53.3992 17.8862L54.3625 16.0025L53.8669 13.0436Z" fill="#945959"/>
<path d="M64.3043 24.7085L59.4794 23.692C59.4794 23.692 57.4241 20.5197 56.234 18.8468C55.0439 17.1739 54.369 16.016 54.369 16.016L52.1288 15.3677L50.9863 17.206C50.9863 17.206 54.7414 26.0986 56.4832 27.6114C57.3597 28.3638 63.0217 30.034 63.0217 30.034C63.0217 30.034 65.3991 27.6434 64.3043 24.7085Z" fill="#945959"/>
<path d="M70.3866 25.9573L64.3045 24.7086C64.2219 26.5389 63.7911 28.3397 63.0332 30.0234L69.1433 31.827L70.3866 25.9573Z" fill="#FF5E15"/>
<path opacity="0.3" d="M70.3866 25.9573L64.3045 24.7086C64.2219 26.5389 63.7911 28.3397 63.0332 30.0234L69.1433 31.827L70.3866 25.9573Z" fill="white"/>
<path d="M78.823 26.6535L81.6513 27.502L83.2026 35.4741L82.2841 39.3401C82.1583 39.8652 82.1346 40.4077 82.2141 40.9409L83.2026 47.5684C83.2026 47.5684 80.4024 49.2706 75.2527 49.2706C70.1031 49.2706 67.1152 47.2349 67.1152 47.2349L67.5045 32.1924C67.6496 29.8521 68.6722 27.6394 70.3859 25.9572L73.8946 26.344L78.823 26.6535Z" fill="#FF5E15"/>
<path d="M69.9075 13.999C69.9075 13.999 67.2053 16.2589 69.5547 21.2961L72.3017 14.4846L69.9075 13.999Z" fill="#263238"/>
<path d="M78.823 26.6534L75.4179 27.6966L73.8945 26.3439V20.2634H78.823V26.6534Z" fill="#945959"/>
<path d="M73.8945 25.9569C75.5579 25.9569 78.0949 24.5455 78.0949 23.5556L78.6549 20.2552H73.8945V25.9569Z" fill="#703838"/>
<path d="M75.2065 12.6168C73.5487 12.6168 70.0232 13.4973 69.606 17.6301C69.1887 21.7629 69.8356 25.2821 71.8322 25.2821C75.7525 25.2821 79.5216 24.8072 79.5524 18.692C79.586 13.2838 76.825 12.6168 75.2065 12.6168Z" fill="#945959"/>
<path d="M78.8237 22.3019L78.1852 20.4342C78.1373 20.4727 78.0789 20.4973 78.0168 20.5054C77.9548 20.5134 77.8916 20.5044 77.8346 20.4795C77.7777 20.4547 77.7293 20.4149 77.6952 20.3648C77.6611 20.3147 77.6427 20.2564 77.642 20.1968V16.8617C77.642 16.8617 76.0123 16.4215 76.1859 15.1141C76.1859 15.1141 75.3458 15.8265 72.1507 15.8265C68.9557 15.8265 68.1744 13.2411 68.4936 11.8164C68.4936 11.8164 69.0873 12.4007 70.7786 12.4007C72.47 12.4007 79.5125 10.3757 79.6946 14.4284C79.6946 14.4284 80.2882 13.5987 81.2487 14.4284L80.0138 15.1275C80.0138 15.1275 81.4783 15.0848 81.2487 17.1312C81.1003 18.4652 80.5822 20.8371 80.2462 22.2912C80.0585 23.1036 79.5489 23.8157 78.8237 24.2789V22.3019Z" fill="#263238"/>
<path d="M72.782 18.8602V21.5149L71.1494 21.0374L72.782 18.8602Z" fill="#703838"/>
<path d="M75.3747 19.2869C75.3741 19.3849 75.3431 19.4806 75.2856 19.5619C75.228 19.6431 75.1464 19.7063 75.0512 19.7435C74.956 19.7806 74.8514 19.7901 74.7505 19.7706C74.6497 19.7512 74.5571 19.7037 74.4846 19.6342C74.412 19.5647 74.3627 19.4763 74.3428 19.3801C74.3229 19.2839 74.3334 19.1842 74.3729 19.0937C74.4124 19.0032 74.4792 18.9258 74.5648 18.8714C74.6504 18.817 74.751 18.788 74.8538 18.788C74.9225 18.788 74.9904 18.8009 75.0538 18.826C75.1172 18.8511 75.1747 18.8879 75.2231 18.9343C75.2715 18.9806 75.3098 19.0356 75.3358 19.0962C75.3619 19.1567 75.3751 19.2215 75.3747 19.2869Z" fill="#263238"/>
<path d="M71.4733 18.9347C71.4733 19.0329 71.4428 19.1288 71.3856 19.2104C71.3283 19.292 71.247 19.3557 71.1518 19.3932C71.0566 19.4308 70.9519 19.4406 70.8509 19.4215C70.7498 19.4023 70.657 19.355 70.5842 19.2856C70.5113 19.2162 70.4617 19.1278 70.4416 19.0315C70.4216 18.9353 70.4319 18.8355 70.4713 18.7448C70.5107 18.6541 70.5775 18.5766 70.6631 18.5221C70.7488 18.4676 70.8495 18.4385 70.9525 18.4385C71.0906 18.4385 71.2231 18.4908 71.3208 18.5838C71.4185 18.6769 71.4733 18.8031 71.4733 18.9347Z" fill="#263238"/>
<path d="M70.316 17.8993L71.3353 17.323C71.3353 17.323 70.9433 16.9362 70.554 17.1683C70.1648 17.4004 70.316 17.8993 70.316 17.8993Z" fill="#263238"/>
<path d="M75.9137 18.2596L74.8916 17.6859C74.8916 17.6859 75.2836 17.2991 75.6729 17.5312C76.0621 17.7633 75.9137 18.2596 75.9137 18.2596Z" fill="#263238"/>
<path d="M72.9121 22.7902C72.9121 22.7902 73.6682 22.3286 74.3962 21.8083C74.3962 21.8083 74.8191 22.5928 74.1526 22.9983C73.4862 23.4038 72.9121 22.7902 72.9121 22.7902Z" fill="#703838"/>
<path d="M78.1416 20.4608L79.945 18.5985L78.6484 17.8568L78.1416 20.4608Z" fill="#253239"/>
<path d="M78.4384 19.7351C77.8476 20.7116 78.0016 21.8962 78.8248 22.3018C79.3541 22.5686 80.9166 22.0003 81.5075 21.0238C82.0983 20.0473 81.7679 19.2122 80.9642 18.772C80.1606 18.3317 79.0293 18.7533 78.4384 19.7351Z" fill="#945959"/>
<path d="M73.8951 26.3441L73.2231 27.3606C73.0934 27.5562 73.0085 27.7756 72.9738 28.0045C72.9391 28.2335 72.9554 28.4669 73.0218 28.6894C73.0881 28.9119 73.2029 29.1187 73.3587 29.2961C73.5145 29.4735 73.7078 29.6177 73.926 29.7191C74.3225 29.903 74.755 30.0058 75.1957 30.021C75.6364 30.0362 76.0756 29.9634 76.4851 29.8074C76.8945 29.6514 77.2653 29.4156 77.5735 29.1151C77.8817 28.8145 78.1205 28.4559 78.2747 28.0623L78.8348 26.6535L76.3706 25.8131L73.8951 26.3441Z" fill="#945959"/>
<path d="M54.3712 16.016C54.3712 16.016 55.1945 14.8208 55.1805 13.6868C55.1665 12.5529 55.3149 12.0273 55.5193 11.7552C55.7238 11.483 55.4941 11.0855 54.9453 11.2216C54.4805 11.3416 53.9064 12.022 53.7804 12.649C53.762 12.7487 53.7205 12.8433 53.659 12.9259C53.5975 13.0085 53.5175 13.077 53.4248 13.1265C52.8451 13.4227 51.7642 14.2711 52.2767 16.3282L54.3712 16.016Z" fill="#945959"/>
<path d="M52.1683 14.9277C52.1427 14.9238 52.1198 14.9103 52.1046 14.8903C52.0894 14.8703 52.0831 14.8454 52.0871 14.821C52.1409 14.4498 52.2859 14.0959 52.5102 13.788C52.7345 13.4802 53.0318 13.2271 53.378 13.0494C53.459 13.008 53.5289 12.9494 53.5823 12.8781C53.6357 12.8069 53.6712 12.7249 53.6861 12.6385C53.6915 12.6145 53.7065 12.5936 53.728 12.5801C53.7495 12.5666 53.7756 12.5617 53.8009 12.5665C53.8132 12.5687 53.825 12.5732 53.8355 12.5798C53.846 12.5864 53.855 12.5949 53.862 12.6048C53.869 12.6147 53.8739 12.6259 53.8764 12.6376C53.8789 12.6494 53.8789 12.6614 53.8765 12.6732C53.8552 12.7855 53.8076 12.8917 53.7373 12.9841C53.667 13.0765 53.5758 13.1526 53.4704 13.2068C53.1502 13.371 52.8752 13.6049 52.6679 13.8896C52.4606 14.1743 52.3268 14.5017 52.2775 14.845C52.2765 14.8574 52.2729 14.8695 52.2667 14.8805C52.2606 14.8916 52.2521 14.9013 52.2419 14.909C52.2316 14.9168 52.2198 14.9224 52.2071 14.9257C52.1945 14.9289 52.1813 14.9296 52.1683 14.9277Z" fill="#703838"/>
<path d="M82.0674 37.3307L83.3107 39.828L89.6924 42.2346L87.119 34.8041L82.0674 37.3307Z" fill="#945959"/>
<path d="M81.2741 27.3896C81.2741 27.3896 79.146 29.4734 80.0672 32.4109C80.5856 34.1021 81.2545 35.748 82.0666 37.3308C82.0666 37.3308 85.6537 37.4322 87.107 34.8042L85.2785 30.4072C84.9901 29.7159 84.5361 29.0985 83.9526 28.6042C83.3692 28.1099 82.6725 27.7524 81.9182 27.5604L81.2741 27.3896Z" fill="#FF5E15"/>
<path opacity="0.3" d="M81.2741 27.3896C81.2741 27.3896 79.146 29.4734 80.0672 32.4109C80.5856 34.1021 81.2545 35.748 82.0666 37.3308C82.0666 37.3308 85.6537 37.4322 87.107 34.8042L85.2785 30.4072C84.9901 29.7159 84.5361 29.0985 83.9526 28.6042C83.3692 28.1099 82.6725 27.7524 81.9182 27.5604L81.2741 27.3896Z" fill="white"/>
<path d="M82.9519 39.364C84.5648 39.8149 89.3196 41.157 89.3196 41.157C89.3196 41.157 89.356 41.2557 89.692 42.2242C90.2073 43.7316 88.5719 47.3789 82.781 44.7322C76.9902 42.0855 74.876 40.6687 74.876 40.6687L75.506 37.3203C75.506 37.3203 81.1121 38.8491 82.9519 39.364Z" fill="#945959"/>
<path d="M83.1231 39.4416L86.1221 40.266L82.7646 38.7212L83.1231 39.4416Z" fill="#703838"/>
<path d="M74.6108 42.1813L70.8472 41.7998C70.7124 41.7867 70.5849 41.7348 70.4818 41.6509C70.3788 41.567 70.305 41.4551 70.2704 41.3302L68.215 33.9611C68.2008 33.9107 68.1993 33.8578 68.2107 33.8068C68.222 33.7557 68.2458 33.708 68.2802 33.6674C68.3146 33.6268 68.3586 33.5946 68.4086 33.5733C68.4586 33.552 68.5131 33.5422 68.5678 33.5449L72.2081 33.7076C72.3435 33.7129 72.4736 33.7592 72.5793 33.8398C72.6851 33.9204 72.7611 34.0312 72.7962 34.1558L74.986 41.7678C74.9998 41.8198 75.0002 41.8742 74.9872 41.9264C74.9743 41.9787 74.9483 42.0271 74.9114 42.0677C74.8746 42.1083 74.828 42.1398 74.7757 42.1596C74.7234 42.1794 74.6668 42.1868 74.6108 42.1813Z" fill="#37474F"/>
<path d="M69.6848 34.6257C69.6848 34.687 69.6657 34.7469 69.6299 34.7979C69.594 34.8488 69.5432 34.8885 69.4836 34.9118C69.4241 34.9352 69.3587 34.9412 69.2956 34.929C69.2325 34.9168 69.1746 34.8871 69.1293 34.8436C69.084 34.8 69.0533 34.7446 69.0411 34.6844C69.0288 34.6242 69.0357 34.5619 69.0607 34.5054C69.0857 34.4489 69.1278 34.4007 69.1816 34.367C69.2353 34.3333 69.2984 34.3156 69.3628 34.3162C69.4484 34.3169 69.5303 34.3498 69.5907 34.4078C69.651 34.4657 69.6848 34.544 69.6848 34.6257Z" fill="#263238"/>
<path d="M75.5054 37.331C75.5054 37.331 74.4161 35.5274 73.0636 35.0898L73.604 37.0722C73.604 37.0722 72.5763 37.1496 71.4142 37.1496C70.2521 37.1496 68.9808 36.4025 68.614 36.2104C68.2472 36.0183 67.9055 37.3577 69.3673 39.8817C70.829 42.4056 74.8865 40.6821 74.8865 40.6821L75.5054 37.331Z" fill="#945959"/>
<path d="M91.948 1.04547L93.9753 2.1447V1.46168C93.9753 1.41366 93.9753 1.36296 93.9753 1.31761C93.9753 1.27225 93.9753 1.22423 93.9753 1.17887V1.16286C94.0482 0.255723 94.7678 -0.0911238 95.6555 0.391794C96.0533 0.625537 96.3941 0.937545 96.6552 1.30694C96.854 0.0769636 97.9069 -0.368602 99.1754 0.333096C100.587 1.1095 101.732 3.01182 101.732 4.55929V6.02405C101.733 6.14009 101.766 6.2539 101.826 6.35442C101.887 6.45494 101.974 6.53875 102.079 6.59768L103.269 7.26203C103.526 7.40796 103.739 7.61508 103.886 7.86303C104.033 8.11097 104.11 8.39119 104.109 8.6761C104.109 8.79444 104.075 8.91054 104.013 9.01283C103.95 9.11512 103.861 9.20004 103.753 9.25914C103.646 9.31823 103.524 9.34944 103.399 9.34967C103.275 9.34989 103.153 9.31911 103.045 9.2604L91.9788 3.16123C91.6842 2.99889 91.4398 2.76542 91.2702 2.48437C91.1006 2.20331 91.0118 1.88461 91.0127 1.5604C91.0137 1.4565 91.0432 1.35464 91.0981 1.26489C91.1531 1.17514 91.2317 1.10059 91.3261 1.04861C91.4205 0.996618 91.5275 0.968985 91.6366 0.968435C91.7457 0.967884 91.853 0.994435 91.948 1.04547Z" fill="#E6E6E6"/>
<path d="M100.734 13.3319L102.232 14.1324V13.6388C102.232 13.6014 102.232 13.5667 102.232 13.5321C102.232 13.4974 102.232 13.4627 102.232 13.428C102.285 12.7583 102.817 12.5022 103.467 12.8597C103.762 13.0313 104.014 13.2616 104.206 13.5347C104.352 12.6249 105.13 12.2967 106.074 12.8143C106.625 13.1578 107.083 13.6198 107.412 14.1629C107.74 14.7061 107.931 15.3152 107.967 15.9413V17.0245C107.967 17.1102 107.991 17.1944 108.035 17.2688C108.08 17.3432 108.144 17.4052 108.222 17.4488L109.104 17.9397C109.295 18.0469 109.453 18.1998 109.563 18.3833C109.673 18.5667 109.731 18.7743 109.731 18.9856C109.731 19.0729 109.707 19.1588 109.661 19.2345C109.615 19.3101 109.549 19.373 109.47 19.4168C109.39 19.4605 109.3 19.4837 109.209 19.4839C109.117 19.484 109.027 19.4612 108.947 19.4178L100.756 14.8954C100.541 14.7749 100.362 14.6026 100.238 14.3956C100.114 14.1887 100.05 13.9544 100.051 13.7161C100.051 13.64 100.072 13.5652 100.112 13.4992C100.152 13.4331 100.209 13.378 100.278 13.3393C100.347 13.3006 100.425 13.2796 100.505 13.2783C100.585 13.277 100.664 13.2955 100.734 13.3319Z" fill="#E6E6E6"/>
</svg>
