<svg width="120" height="119" viewBox="0 0 120 119" fill="none" xmlns="http://www.w3.org/2000/svg">
<path d="M63.4974 118.234C94.7028 118.234 120 103.57 120 85.4809C120 67.3918 94.7028 52.7278 63.4974 52.7278C32.2921 52.7278 6.99512 67.3918 6.99512 85.4809C6.99512 103.57 32.2921 118.234 63.4974 118.234Z" fill="#F5F5F5"/>
<path d="M73.6414 112.636L101.362 96.5709C101.969 96.219 101.969 95.6478 101.362 95.2959L48.88 64.871C48.5392 64.6974 48.1624 64.6069 47.7803 64.6069C47.3981 64.6069 47.0213 64.6974 46.6805 64.871L18.9602 80.9365C18.3531 81.2884 18.3531 81.8596 18.9602 82.2115L71.4418 112.636C71.7827 112.81 72.1594 112.9 72.5416 112.9C72.9238 112.9 73.3006 112.81 73.6414 112.636Z" fill="#E0E0E0"/>
<path d="M24.2625 81.5459L26.4366 80.2861C26.4366 80.2861 26.9674 75.6144 26.6144 71.9958C26.1064 66.9136 22.8452 60.7959 18.9439 62.2316C15.0427 63.6673 20.7219 68.8465 21.9918 73.1587C23.2617 77.4709 24.2625 81.5459 24.2625 81.5459Z" fill="#407BFF"/>
<path opacity="0.15" d="M24.2625 81.5459L26.4366 80.2861C26.4366 80.2861 26.9674 75.6144 26.6144 71.9958C26.1064 66.9136 22.8452 60.7959 18.9439 62.2316C15.0427 63.6673 20.7219 68.8465 21.9918 73.1587C23.2617 77.4709 24.2625 81.5459 24.2625 81.5459Z" fill="black"/>
<path d="M25.3984 81.0156C25.3639 81.0143 25.3312 80.9994 25.3074 80.9741C25.2837 80.9488 25.2708 80.9152 25.2714 80.8805C25.6524 69.5837 20.0647 63.8996 19.9961 63.8435C19.9837 63.8313 19.9739 63.8169 19.9672 63.8009C19.9605 63.7849 19.957 63.7677 19.957 63.7504C19.957 63.733 19.9605 63.7159 19.9672 63.6999C19.9739 63.6839 19.9837 63.6694 19.9961 63.6573C20.0208 63.6328 20.0541 63.6191 20.0888 63.6191C20.1235 63.6191 20.1568 63.6328 20.1815 63.6573C20.2374 63.7159 25.9217 69.4791 25.5356 80.8907C25.5336 80.9254 25.5181 80.958 25.4925 80.9813C25.4668 81.0047 25.4331 81.017 25.3984 81.0156Z" fill="white"/>
<path d="M23.1137 82.4488L24.6376 81.5512C24.6376 81.5512 24.8916 78.3458 23.3372 74.4518C21.9733 71.0602 18.5927 68.2475 16.891 68.8417C15.1892 69.4358 15.24 70.6369 16.0706 71.912C16.9011 73.187 21.9453 76.2088 23.1137 82.4488Z" fill="#407BFF"/>
<path d="M23.9192 82.1121C23.8842 82.1121 23.8506 82.0981 23.8259 82.0733C23.8011 82.0484 23.7872 82.0147 23.7872 81.9795C23.8176 74.8393 17.1377 70.0095 17.0692 69.961C17.0411 69.9406 17.0221 69.9099 17.0164 69.8755C17.0107 69.8411 17.0187 69.8059 17.0387 69.7774C17.0486 69.7632 17.0612 69.7511 17.0758 69.7418C17.0904 69.7325 17.1067 69.7263 17.1237 69.7235C17.1407 69.7206 17.1582 69.7212 17.175 69.7252C17.1918 69.7292 17.2076 69.7366 17.2216 69.7468C17.2901 69.7953 24.0793 74.7016 24.0513 81.9872C24.0488 82.0208 24.0338 82.0522 24.0094 82.0754C23.985 82.0985 23.9528 82.1116 23.9192 82.1121Z" fill="white"/>
<path d="M99.6802 91.1067C100.076 91.4127 100.033 91.8487 99.5557 92.1267L73.4025 107.292C73.1076 107.442 72.7818 107.52 72.4513 107.52C72.1209 107.52 71.7951 107.442 71.5002 107.292L21.4847 78.3053C20.9996 78.0248 20.9615 77.5836 21.3729 77.2853C21.1269 77.4717 20.9242 77.7098 20.7791 77.9828C20.6339 78.2558 20.5496 78.5573 20.5322 78.8663V80.1286C20.5504 80.4605 20.646 80.7835 20.8115 81.0715C20.977 81.3594 21.2076 81.6042 21.4847 81.7862L71.4824 110.763C71.7774 110.914 72.1037 110.992 72.4348 110.992C72.7659 110.992 73.0923 110.914 73.3873 110.763L99.5481 95.5999C99.8253 95.4187 100.056 95.1744 100.222 94.8868C100.387 94.5992 100.483 94.2765 100.501 93.9449V92.6698C100.483 92.3657 100.4 92.0688 100.259 91.7993C100.117 91.5297 99.9199 91.2935 99.6802 91.1067Z" fill="#455A64"/>
<path d="M99.5632 91.022L49.5503 62.0353C49.2554 61.8856 48.9296 61.8076 48.5991 61.8076C48.2687 61.8076 47.9428 61.8856 47.6479 62.0353L21.4871 77.2031C20.9613 77.5066 20.9613 78.0013 21.4871 78.3048L71.4873 107.291C71.7822 107.441 72.108 107.519 72.4385 107.519C72.769 107.519 73.0948 107.441 73.3897 107.291L99.5505 92.1236C100.071 91.8201 100.071 91.3254 99.5632 91.022ZM92.7792 88.6784C93.2288 88.9335 93.2288 89.3619 92.7792 89.622L68.9906 103.415C68.7374 103.544 68.4577 103.61 68.174 103.61C67.8904 103.61 67.6107 103.544 67.3575 103.415L28.4159 80.837C27.9663 80.582 27.9663 80.151 28.4159 79.8909L52.207 66.1001C52.6566 65.8451 53.1265 65.687 53.576 65.9471L92.7792 88.6784Z" fill="#37474F"/>
<path d="M21.3729 77.2671C21.1269 77.4536 20.9242 77.6916 20.7791 77.9646C20.6339 78.2376 20.5496 78.5391 20.5322 78.8481V80.1104C20.5506 80.4423 20.6463 80.7652 20.8118 81.0531C20.9772 81.341 21.2077 81.5859 21.4847 81.768L71.4824 110.762C71.7765 110.918 72.1049 110.997 72.4374 110.992V107.519C72.1059 107.525 71.7782 107.447 71.4849 107.292L21.4847 78.305C20.9996 78.0321 20.9615 77.5833 21.3729 77.2671Z" fill="#263238"/>
<path d="M37.0816 71.1089C37.4346 70.9049 37.4346 70.5734 37.0816 70.3694C36.8847 70.2696 36.6672 70.2177 36.4466 70.2177C36.2261 70.2177 36.0086 70.2696 35.8117 70.3694C35.4586 70.5734 35.4586 70.9049 35.8117 71.1089C36.0086 71.2086 36.2261 71.2606 36.4466 71.2606C36.6672 71.2606 36.8847 71.2086 37.0816 71.1089Z" fill="black"/>
<path d="M85.5016 98.8458C86.3322 98.3664 86.3322 97.5861 85.5016 97.1067C85.0365 96.8681 84.5216 96.7437 83.9993 96.7437C83.4769 96.7437 82.9621 96.8681 82.4969 97.1067C81.6664 97.5861 81.6664 98.3664 82.4969 98.8458C82.9621 99.0844 83.4769 99.2089 83.9993 99.2089C84.5216 99.2089 85.0365 99.0844 85.5016 98.8458Z" stroke="#E6E6E6" stroke-miterlimit="10"/>
<path d="M36.4439 73.562L41.3713 70.7085C41.6633 70.5377 41.6786 70.2699 41.4043 70.1092C41.2443 70.0327 41.0688 69.9945 40.8917 69.9976C40.7145 70.0007 40.5405 70.045 40.3832 70.1271L35.4559 72.9806C35.1638 73.1515 35.1485 73.4192 35.4228 73.5799C35.5828 73.6564 35.7583 73.6946 35.9354 73.6915C36.1126 73.6884 36.2867 73.6441 36.4439 73.562Z" fill="black"/>
<path d="M53.5754 65.9577C53.1259 65.7027 52.656 65.848 52.2064 66.1107L28.4153 79.9015C27.9657 80.1565 27.9657 80.5849 28.4153 80.8475L67.3467 103.413C67.6 103.541 67.8796 103.608 68.1633 103.608C68.4469 103.608 68.7266 103.541 68.9798 103.413L92.7684 89.6198C93.2205 89.3648 93.2205 88.9364 92.7684 88.6763L53.5754 65.9577Z" fill="#407BFF"/>
<path opacity="0.85" d="M53.5754 65.9577C53.1259 65.7027 52.656 65.848 52.2064 66.1107L28.4153 79.9015C27.9657 80.1565 27.9657 80.5849 28.4153 80.8475L67.3467 103.413C67.6 103.541 67.8796 103.608 68.1633 103.608C68.4469 103.608 68.7266 103.541 68.9798 103.413L92.7684 89.6198C93.2205 89.3648 93.2205 88.9364 92.7684 88.6763L53.5754 65.9577Z" fill="white"/>
<path d="M31.1551 81.1408L30.9011 80.9929C30.8894 80.9885 30.8793 80.9807 30.8722 80.9705C30.8651 80.9602 30.8613 80.948 30.8613 80.9355C30.8613 80.923 30.8651 80.9108 30.8722 80.9006C30.8793 80.8903 30.8894 80.8825 30.9011 80.8781L30.929 80.8628C30.9595 80.8465 30.9935 80.838 31.0281 80.838C31.0626 80.838 31.0966 80.8465 31.1271 80.8628L31.3811 81.0082C31.4344 81.0413 31.4344 81.0923 31.3811 81.1229L31.3532 81.1408C31.3223 81.1559 31.2884 81.1637 31.2541 81.1637C31.2198 81.1637 31.1859 81.1559 31.1551 81.1408Z" fill="#455A64"/>
<path d="M31.6083 80.8777L31.1689 80.6227C31.1156 80.5921 31.1156 80.5411 31.1689 80.508L31.1968 80.4927C31.2277 80.4776 31.2616 80.4697 31.2959 80.4697C31.3302 80.4697 31.3641 80.4776 31.395 80.4927L31.8344 80.7477C31.8877 80.7783 31.8877 80.8293 31.8344 80.8624L31.8064 80.8777C31.7756 80.8928 31.7417 80.9007 31.7074 80.9007C31.673 80.9007 31.6392 80.8928 31.6083 80.8777Z" fill="#455A64"/>
<path d="M32.0597 80.6153L31.4374 80.2558C31.3815 80.2226 31.3815 80.1716 31.4374 80.141L31.4654 80.1232C31.4962 80.1081 31.5301 80.1002 31.5644 80.1002C31.5987 80.1002 31.6326 80.1081 31.6635 80.1232L32.2857 80.4853C32.2974 80.4896 32.3075 80.4975 32.3146 80.5077C32.3217 80.518 32.3255 80.5302 32.3255 80.5427C32.3255 80.5552 32.3217 80.5673 32.3146 80.5776C32.3075 80.5879 32.2974 80.5957 32.2857 80.6L32.2578 80.6153C32.2273 80.6316 32.1933 80.6402 32.1587 80.6402C32.1242 80.6402 32.0902 80.6316 32.0597 80.6153Z" fill="#455A64"/>
<path d="M32.5098 80.3553L31.4355 79.7306C31.3796 79.7 31.3796 79.649 31.4355 79.6158L31.4634 79.6005C31.4941 79.5848 31.528 79.5767 31.5625 79.5767C31.5969 79.5767 31.6308 79.5848 31.6615 79.6005L32.7333 80.2227C32.7892 80.2559 32.7892 80.3069 32.7333 80.3375L32.7079 80.3553C32.6771 80.3704 32.6432 80.3783 32.6089 80.3783C32.5746 80.3783 32.5407 80.3704 32.5098 80.3553Z" fill="#455A64"/>
<path d="M33.808 79.6871C33.7909 79.689 33.7736 79.6845 33.7597 79.6743L33.6023 79.5825L33.0943 79.8758C33.0834 79.8831 33.0706 79.887 33.0574 79.887C33.0443 79.887 33.0315 79.8831 33.0206 79.8758L32.9622 79.8426L32.9368 79.8248V79.7993L32.9114 79.1592C32.9097 79.1499 32.9097 79.1404 32.9114 79.1311C32.9198 79.1214 32.9302 79.1135 32.9419 79.1082L33.0105 79.0674C33.0284 79.0568 33.0483 79.0499 33.0689 79.047C33.0877 79.0473 33.1061 79.0526 33.1222 79.0623L33.6734 79.3811L33.7851 79.3173C33.8018 79.3061 33.821 79.2991 33.841 79.2969C33.8591 79.2968 33.8767 79.3022 33.8918 79.3122L33.9299 79.3351C33.9477 79.3351 33.9553 79.353 33.9528 79.3632C33.9502 79.3734 33.9528 79.3811 33.9197 79.3938L33.808 79.4601L33.9655 79.5519C33.9832 79.5519 33.9909 79.5698 33.9883 79.58C33.9858 79.5902 33.9756 79.6004 33.9528 79.6131L33.8664 79.6616C33.85 79.6758 33.8296 79.6847 33.808 79.6871ZM33.5007 79.4856L33.107 79.2586L33.1324 79.6998L33.5007 79.4856Z" fill="#455A64"/>
<path d="M34.3132 79.2842C34.1354 79.2928 33.9589 79.2494 33.8052 79.1593C33.6478 79.0675 33.5766 78.968 33.5893 78.8609C33.602 78.7538 33.7011 78.6493 33.8814 78.5447C33.9526 78.5024 34.0274 78.4665 34.1049 78.4376C34.1731 78.4111 34.2437 78.3915 34.3157 78.379C34.3264 78.3748 34.3381 78.3748 34.3488 78.379C34.3498 78.3831 34.3498 78.3875 34.3488 78.3917L34.3716 78.458C34.3741 78.4608 34.3755 78.4644 34.3755 78.4682C34.3755 78.472 34.3741 78.4756 34.3716 78.4784H34.3437C34.2343 78.5001 34.1295 78.5407 34.0338 78.5983C33.9119 78.6671 33.8459 78.7411 33.8357 78.815C33.8255 78.889 33.8814 78.9629 34.0033 79.0318C34.1148 79.1002 34.2436 79.1348 34.3742 79.1312C34.5034 79.1264 34.6292 79.0887 34.7399 79.0216C34.7795 78.9985 34.8177 78.9729 34.8542 78.9451C34.8832 78.9244 34.9088 78.8995 34.9304 78.8711L34.6764 78.7232L34.4656 78.8456C34.4476 78.8562 34.4278 78.8631 34.4072 78.866C34.3892 78.8654 34.3717 78.8601 34.3564 78.8507L34.3208 78.8303C34.3039 78.8201 34.2963 78.8099 34.298 78.7997C34.298 78.7997 34.3107 78.7819 34.331 78.7691L34.6688 78.5728C34.6888 78.5606 34.7115 78.5536 34.7348 78.5524C34.7556 78.5526 34.7759 78.5588 34.7932 78.5702L35.159 78.7819C35.1693 78.786 35.1781 78.7931 35.1844 78.8023C35.1844 78.8023 35.1844 78.815 35.1844 78.8252C35.1046 78.9451 34.994 79.0411 34.8644 79.1032C34.6983 79.2082 34.509 79.2704 34.3132 79.2842Z" fill="#455A64"/>
<path d="M41.3429 74.3296L41.9398 74.6764C41.965 74.689 41.9928 74.6955 42.021 74.6955C42.0492 74.6955 42.077 74.689 42.1023 74.6764L42.7043 74.3296C42.7474 74.3015 42.7474 74.2607 42.7043 74.2352L42.1048 73.8884C42.08 73.8746 42.052 73.8673 42.0236 73.8673C41.9951 73.8673 41.9672 73.8746 41.9423 73.8884L41.3429 74.2352C41.2972 74.2607 41.2972 74.3015 41.3429 74.3296Z" fill="#455A64"/>
<path d="M41.7577 73.8578C41.6787 73.8192 41.5916 73.8 41.5037 73.8017C41.4158 73.7994 41.3286 73.8186 41.2497 73.8578C41.1329 73.9267 41.1329 74.0312 41.2497 74.0975L41.4555 74.2174L41.6053 74.1868L41.3996 74.0695C41.3813 74.0625 41.3656 74.05 41.3545 74.0339C41.3434 74.0177 41.3375 73.9986 41.3375 73.9789C41.3375 73.9593 41.3434 73.9401 41.3545 73.924C41.3656 73.9078 41.3813 73.8954 41.3996 73.8884C41.4324 73.8705 41.469 73.8609 41.5063 73.8604C41.543 73.8593 41.5792 73.869 41.6104 73.8884L41.8161 74.0083L41.9685 73.9777L41.7577 73.8578Z" fill="#455A64"/>
<path d="M52.6577 67.5311C52.5571 67.5277 52.4573 67.5505 52.3681 67.5974L50.8442 68.4772C50.7121 68.5511 50.7121 68.671 50.8442 68.7475L51.3979 69.0662C51.487 69.1131 51.5868 69.136 51.6874 69.1325C51.7343 69.1322 51.781 69.1279 51.8271 69.1198C51.8791 69.1113 51.9291 69.0932 51.9744 69.0662L53.4984 68.189C53.6279 68.1125 53.6279 67.9927 53.4984 67.9187L52.9447 67.5974C52.8564 67.5505 52.7575 67.5276 52.6577 67.5311ZM51.6925 69.0611C51.6489 69.0605 51.6062 69.0491 51.568 69.028L51.0169 68.7067C50.9957 68.6991 50.9773 68.6851 50.9643 68.6666C50.9513 68.6481 50.9444 68.626 50.9444 68.6034C50.9444 68.5808 50.9513 68.5587 50.9643 68.5402C50.9773 68.5217 50.9957 68.5077 51.0169 68.5001L52.5408 67.6229C52.565 67.6079 52.5917 67.5976 52.6196 67.5923H52.6653C52.7083 67.5936 52.7502 67.6059 52.7872 67.628L53.3383 67.9468C53.3596 67.9544 53.3779 67.9684 53.3909 67.9869C53.4039 68.0053 53.4109 68.0274 53.4109 68.05C53.4109 68.0727 53.4039 68.0947 53.3909 68.1132C53.3779 68.1317 53.3596 68.1457 53.3383 68.1533L51.8144 69.0331C51.7774 69.0552 51.7355 69.0674 51.6925 69.0688V69.0611Z" fill="#455A64"/>
<path d="M51.7336 68.9614L51.7133 68.9487L51.2053 68.6605C51.1898 68.6547 51.1764 68.6443 51.1669 68.6306C51.1574 68.6169 51.1523 68.6007 51.1523 68.584C51.1523 68.5673 51.1574 68.5511 51.1669 68.5374C51.1764 68.5237 51.1898 68.5133 51.2053 68.5075L52.5718 67.717C52.5803 67.7111 52.5897 67.7068 52.5997 67.7042L52.6201 67.717L53.128 68.0051C53.1428 68.0114 53.1554 68.0218 53.1642 68.0352C53.1731 68.0486 53.1778 68.0643 53.1778 68.0804C53.1778 68.0964 53.1731 68.1121 53.1642 68.1255C53.1554 68.1389 53.1428 68.1494 53.128 68.1556L51.7616 68.9487L51.7336 68.9614Z" fill="#455A64"/>
<path d="M53.0225 67.5562C53.0749 67.5438 53.1294 67.5426 53.1824 67.5527C53.2353 67.5628 53.2856 67.584 53.3298 67.6149L53.4314 67.6761C53.5457 67.7398 53.594 67.8214 53.5406 67.8571L53.4416 67.9183L52.9336 67.6149L53.0225 67.5562Z" fill="#455A64"/>
<path d="M44.3443 82.5406C44.7177 82.525 45.0826 82.4238 45.4111 82.2448C46.0308 81.8852 46.1908 81.3956 45.2079 80.781C45.1748 80.9666 45.0994 81.1419 44.9874 81.2932C44.8755 81.4446 44.7301 81.5678 44.5627 81.6532C43.7195 82.1428 42.7594 82.2677 41.9848 81.8215C41.2101 81.3752 41.4768 80.7122 42.3251 80.2226C42.871 79.9099 43.489 79.7466 44.1174 79.7488C44.7459 79.751 45.3627 79.9188 45.9063 80.2353C47.3414 81.0667 47.0188 81.9464 46.0029 82.5304C45.4712 82.8294 44.879 83.0037 44.2707 83.0404L44.3443 82.5406ZM44.7024 80.5158C43.9583 80.192 43.3258 80.2379 42.8458 80.5158C42.4419 80.7479 42.3607 81.087 42.8077 81.3446C43.0316 81.4662 43.2843 81.524 43.5386 81.5119C43.7928 81.4998 44.0389 81.4181 44.2503 81.2758C44.3928 81.2091 44.5121 81.101 44.5927 80.9656C44.6733 80.8301 44.7115 80.6734 44.7024 80.5158Z" fill="#455A64"/>
<path d="M46.4796 78.9119C46.631 78.8196 46.8022 78.765 46.9789 78.7526C47.1556 78.7402 47.3327 78.7703 47.4955 78.8405C47.7495 78.9935 47.7013 79.2485 47.3761 79.4347C47.2223 79.5291 47.0481 79.585 46.8682 79.5979C46.6884 79.6108 46.5081 79.5802 46.3424 79.5086C46.0808 79.3582 46.1468 79.1006 46.4796 78.9119ZM48.4632 80.062C48.6148 79.9699 48.7861 79.9156 48.9629 79.9037C49.1396 79.8917 49.3166 79.9224 49.4792 79.9931C49.7332 80.1436 49.6849 80.3986 49.3598 80.5873C49.2057 80.6811 49.0316 80.7367 48.8518 80.7496C48.6721 80.7625 48.4918 80.7322 48.3261 80.6612C48.067 80.5108 48.1305 80.2507 48.4556 80.0722L48.4632 80.062Z" fill="#455A64"/>
<path d="M48.7977 78.6721C47.5506 77.9479 47.5506 77.1956 48.5717 76.6015C49.5927 76.0073 50.8982 76.0124 52.1427 76.7341C53.3873 77.4557 53.4127 78.231 52.3967 78.8251C51.3808 79.4193 50.0473 79.3963 48.7977 78.6721ZM51.2893 77.2262C50.2455 76.6219 49.5749 76.627 49.0949 76.9049C48.6148 77.1829 48.6047 77.573 49.6486 78.1799C50.6925 78.7869 51.4087 78.7971 51.8811 78.5242C52.3536 78.2514 52.3358 77.8331 51.2893 77.2262Z" fill="#455A64"/>
<path d="M52.7707 76.3694C51.5211 75.6452 51.5211 74.8929 52.5421 74.3013C53.5631 73.7097 54.8712 73.7122 56.1132 74.4313C57.3552 75.1505 57.3984 75.9308 56.3672 76.5224C55.336 77.114 54.0178 77.0936 52.7707 76.3694ZM55.2623 74.9261C54.2159 74.3191 53.5454 74.3242 53.0653 74.6022C52.5853 74.8802 52.5751 75.2703 53.6215 75.8772C54.668 76.4841 55.3817 76.4918 55.8516 76.2189C56.3214 75.9461 56.3062 75.5304 55.2623 74.9261Z" fill="#455A64"/>
<path d="M46.367 88.1383L66.3508 76.5559C66.5871 76.436 66.8481 76.3735 67.1128 76.3735C67.3775 76.3735 67.6385 76.436 67.8748 76.5559L72.9825 79.5165C73.4041 79.7715 73.4041 80.1566 72.9825 80.4014L53.0063 91.9838C52.77 92.1037 52.509 92.1662 52.2443 92.1662C51.9796 92.1662 51.7186 92.1037 51.4823 91.9838L46.367 89.0232C45.9454 88.7784 45.9454 88.3831 46.367 88.1383Z" fill="#407BFF"/>
<path d="M48.5107 88.5308L52.0869 90.6014C52.1886 90.6542 52.3014 90.6817 52.4158 90.6817C52.5303 90.6817 52.643 90.6542 52.7447 90.6014L58.015 87.5414C58.1979 87.4343 58.1979 87.2634 58.015 87.1588L54.4388 85.0856C54.3368 85.0341 54.2241 85.0072 54.1099 85.0072C53.9957 85.0072 53.883 85.0341 53.781 85.0856L48.5107 88.1457C48.4697 88.1584 48.4339 88.1839 48.4084 88.2186C48.3829 88.2532 48.3691 88.2952 48.3691 88.3383C48.3691 88.3813 48.3829 88.4233 48.4084 88.4579C48.4339 88.4926 48.4697 88.5181 48.5107 88.5308Z" fill="#FAFAFA"/>
<path d="M53.9055 87.5339L58.1446 87.3656L53.9207 87.3018L54.0909 85.0144L53.3975 87.8373L48.3711 88.3371L52.4756 88.1433L52.374 90.6807L52.6889 88.1331L53.8649 88.077L53.9055 87.5339Z" fill="#407BFF"/>
<path d="M56.1297 84.0044L61.2933 81.0234C61.4221 80.9579 61.5643 80.9238 61.7086 80.9238C61.8529 80.9238 61.9951 80.9579 62.1239 81.0234C62.3499 81.1534 62.3423 81.3676 62.1061 81.5053L56.9425 84.4863C56.8138 84.5518 56.6715 84.5859 56.5272 84.5859C56.3829 84.5859 56.2407 84.5518 56.112 84.4863C55.8884 84.3563 55.8986 84.1523 56.1297 84.0044Z" fill="#FAFAFA"/>
<path d="M57.7228 84.9176L68.1871 78.8459C68.3158 78.7804 68.4581 78.7463 68.6024 78.7463C68.7466 78.7463 68.8889 78.7804 69.0176 78.8459C69.2437 78.9759 69.2361 79.1927 68.9999 79.3278L58.5355 85.3995C58.4063 85.4648 58.2636 85.4988 58.119 85.4988C57.9743 85.4988 57.8317 85.4648 57.7024 85.3995C57.4789 85.2771 57.4865 85.0629 57.7228 84.9176Z" fill="#FAFAFA"/>
<path d="M59.3113 85.8453L69.7782 79.7736C69.9069 79.7082 70.0492 79.6741 70.1935 79.6741C70.3378 79.6741 70.48 79.7082 70.6087 79.7736C70.8323 79.9036 70.8246 80.1204 70.591 80.2556L60.1241 86.3273C59.9954 86.3927 59.8531 86.4268 59.7088 86.4268C59.5645 86.4268 59.4223 86.3927 59.2935 86.3273C59.0675 86.1921 59.0777 85.983 59.3113 85.8453Z" fill="#FAFAFA"/>
<path d="M44.0811 46.2942L77.9581 26.6587L79.3144 27.4441C79.4993 27.5663 79.653 27.7302 79.7633 27.9229C79.8736 28.1156 79.9373 28.3315 79.9493 28.5534V53.6435C79.9375 53.8655 79.8739 54.0815 79.7636 54.2742C79.6533 54.4669 79.4994 54.6308 79.3144 54.7528L46.7098 73.6488C46.5126 73.7474 46.2952 73.7987 46.0749 73.7987C45.8545 73.7987 45.6372 73.7474 45.4399 73.6488L44.7236 73.2332C44.5386 73.111 44.3845 72.9471 44.2738 72.7544C44.1631 72.5618 44.0989 72.3459 44.0861 72.1239L44.0811 46.2942Z" fill="#407BFF"/>
<path opacity="0.05" d="M44.0811 46.2942L77.9581 26.6587L79.3144 27.4441C79.4993 27.5663 79.653 27.7302 79.7633 27.9229C79.8736 28.1156 79.9373 28.3315 79.9493 28.5534V53.6435C79.9375 53.8655 79.8739 54.0815 79.7636 54.2742C79.6533 54.4669 79.4994 54.6308 79.3144 54.7528L46.7098 73.6488C46.5126 73.7474 46.2952 73.7987 46.0749 73.7987C45.8545 73.7987 45.6372 73.7474 45.4399 73.6488L44.7236 73.2332C44.5386 73.111 44.3845 72.9471 44.2738 72.7544C44.1631 72.5618 44.0989 72.3459 44.0861 72.1239L44.0811 46.2942Z" fill="black"/>
<path d="M77.7701 24.4503L77.9098 24.3738L77.3841 24.0678C77.3384 24.042 77.2909 24.0198 77.2418 24.0015L62.3327 18.4551C62.1283 18.3862 61.9074 18.3844 61.7019 18.45C61.4964 18.5156 61.3171 18.645 61.1897 18.8197L44.5103 43.2723C44.2514 43.694 44.1036 44.1749 44.0811 44.6698V46.2942L44.589 46.5951L77.9504 26.6561V25.0317C77.9457 24.8248 77.8832 24.6233 77.7701 24.4503Z" fill="#407BFF"/>
<path opacity="0.1" d="M61.877 18.9396C61.8106 18.9918 61.7524 19.0537 61.7043 19.1232L45.0249 43.5758C44.8879 43.7921 44.7834 44.0276 44.715 44.2745L44.207 43.9736C44.2446 43.8478 44.2896 43.7243 44.3416 43.6039C44.3645 43.5529 44.3874 43.5044 44.4128 43.456V43.433C44.4392 43.3818 44.4689 43.3324 44.5017 43.2851L61.1862 18.8223C61.2113 18.786 61.2393 18.7519 61.27 18.7203L61.3589 18.6387L61.877 18.9396Z" fill="black"/>
<path opacity="0.35" d="M77.9003 24.3736C77.8552 24.346 77.8076 24.323 77.7581 24.3047L62.8464 18.7558C62.6825 18.701 62.5073 18.6892 62.3376 18.7213C62.1678 18.7534 62.009 18.8285 61.8761 18.9394L61.3682 18.6385C61.5021 18.5286 61.6613 18.4542 61.8312 18.4222C62.0012 18.3901 62.1764 18.4013 62.3409 18.4549L77.2501 24.0013C77.2988 24.0195 77.3456 24.0426 77.3898 24.0701L77.9003 24.3736Z" fill="white"/>
<path d="M61.2715 18.7229C61.2995 18.6921 61.3302 18.6639 61.3632 18.6387C61.3296 18.6633 61.2989 18.6915 61.2715 18.7229Z" fill="#407BFF"/>
<path opacity="0.2" d="M44.4062 43.4465C44.4062 43.4465 44.4062 43.4282 44.4062 43.4204C44.4062 43.4126 44.4114 43.4386 44.4062 43.4465Z" fill="black"/>
<path opacity="0.2" d="M61.1885 18.8227C61.2136 18.7856 61.2426 18.7512 61.275 18.7201C61.2419 18.7504 61.2128 18.7849 61.1885 18.8227Z" fill="black"/>
<path d="M61.7034 19.1258L45.0265 43.581C44.7653 44.0009 44.6166 44.4813 44.5947 44.9759V46.6003L78.4717 26.9647V25.3327C78.4591 25.1128 78.3856 24.9009 78.2595 24.7207C78.1334 24.5404 77.9598 24.3991 77.758 24.3127L62.8489 18.7662C62.6445 18.6983 62.424 18.6964 62.2185 18.7609C62.013 18.8254 61.8328 18.9531 61.7034 19.1258Z" fill="#407BFF"/>
<path d="M48.2824 70.2317L47.1953 69.6018C47.1056 69.5331 47.0351 69.4423 46.9906 69.3382C46.9461 69.2341 46.9291 69.1202 46.9413 69.0076V34.9999C46.9556 34.6547 47.0607 34.3194 47.2461 34.0283L48.351 34.6658C48.164 34.9581 48.0588 35.2954 48.0462 35.6425V69.6375C48.0327 69.7485 48.0472 69.8611 48.0885 69.9649C48.1298 70.0688 48.1965 70.1605 48.2824 70.2317Z" fill="#E0E0E0"/>
<path d="M48.9614 34.0182L76.1738 18.2486C76.6818 17.9476 77.1059 18.1899 77.1059 18.7892V52.7867C77.089 53.112 76.9957 53.4287 76.8337 53.711C76.6717 53.9933 76.4456 54.2332 76.1738 54.4111L48.9614 70.1782C48.4535 70.4765 48.0293 70.2343 48.0293 69.635V35.6426C48.0469 35.3174 48.1404 35.0009 48.3023 34.7187C48.4642 34.4365 48.69 34.1965 48.9614 34.0182Z" fill="#F0F0F0"/>
<path d="M75.7292 17.5419L76.7959 18.1641C76.6926 18.1254 76.5814 18.1134 76.4722 18.1289C76.3631 18.1445 76.2596 18.1873 76.1711 18.2534L48.9613 34.0204C48.7003 34.1784 48.4835 34.4004 48.3314 34.6656L47.2266 34.0281C47.3799 33.7633 47.5952 33.5401 47.8539 33.3778L75.0663 17.5954C75.1608 17.5256 75.2726 17.4832 75.3895 17.4728C75.5065 17.4625 75.624 17.4846 75.7292 17.5368V17.5419Z" fill="#FAFAFA"/>
<path d="M51.0853 35.7983L73.7132 22.6808C74.018 22.5048 74.2644 22.6298 74.2644 22.9613C74.2505 23.1466 74.1934 23.3261 74.0977 23.4851C74.0019 23.6442 73.8702 23.7783 73.7132 23.8768L51.0853 36.9943C50.7805 37.1703 50.5342 37.0453 50.5342 36.7164C50.5476 36.5306 50.6045 36.3506 50.7003 36.1911C50.7961 36.0316 50.928 35.897 51.0853 35.7983Z" fill="#E0E0E0"/>
<path d="M51.0853 38.1822L73.7132 25.0647C74.018 24.8887 74.2644 25.0137 74.2644 25.3452C74.2505 25.5305 74.1934 25.71 74.0977 25.869C74.0019 26.0281 73.8702 26.1623 73.7132 26.2607L51.0853 39.3782C50.7805 39.5542 50.5342 39.4292 50.5342 39.1003C50.5476 38.9145 50.6045 38.7345 50.7003 38.575C50.7961 38.4155 50.928 38.2809 51.0853 38.1822Z" fill="#E0E0E0"/>
<path d="M51.0853 40.5667L73.7132 27.4492C74.018 27.2732 74.2644 27.3982 74.2644 27.7271C74.2509 27.9129 74.194 28.0929 74.0982 28.2524C74.0025 28.4119 73.8705 28.5465 73.7132 28.6451L51.0853 41.7627C50.7805 41.9387 50.5342 41.8137 50.5342 41.4847C50.5476 41.299 50.6045 41.119 50.7003 40.9595C50.7961 40.8 50.928 40.6654 51.0853 40.5667Z" fill="#E0E0E0"/>
<path d="M51.0853 42.9508L73.7132 29.8358C74.018 29.6598 74.2644 29.7848 74.2644 30.1137C74.2509 30.2995 74.194 30.4795 74.0982 30.639C74.0025 30.7985 73.8705 30.9331 73.7132 31.0317L51.0853 44.1493C50.7805 44.3253 50.5342 44.2003 50.5342 43.8688C50.5476 43.683 50.6045 43.503 50.7003 43.3435C50.7961 43.184 50.928 43.0494 51.0853 42.9508Z" fill="#E0E0E0"/>
<path d="M51.0853 45.3354L73.7132 32.2178C74.018 32.0419 74.2644 32.1668 74.2644 32.4958C74.2509 32.6816 74.194 32.8615 74.0982 33.0211C74.0025 33.1806 73.8705 33.3152 73.7132 33.4138L51.0853 46.5314C50.7805 46.7073 50.5342 46.5824 50.5342 46.2509C50.548 46.0655 50.6051 45.8861 50.7008 45.727C50.7966 45.568 50.9283 45.4338 51.0853 45.3354Z" fill="#E0E0E0"/>
<path d="M51.0853 47.7198L73.7132 34.6022C74.018 34.4263 74.2644 34.5512 74.2644 34.8802C74.2509 35.066 74.194 35.2459 74.0982 35.4055C74.0025 35.565 73.8705 35.6996 73.7132 35.7982L51.0853 48.9158C50.7805 49.0917 50.5342 48.9668 50.5342 48.6353C50.548 48.4499 50.6051 48.2705 50.7008 48.1114C50.7966 47.9524 50.9283 47.8182 51.0853 47.7198Z" fill="#E0E0E0"/>
<path d="M51.0853 50.1037L73.7132 36.9759C74.018 36.7999 74.2644 36.9249 74.2644 37.2539C74.2509 37.4396 74.194 37.6196 74.0982 37.7791C74.0025 37.9386 73.8705 38.0732 73.7132 38.1719L51.0853 51.2894C50.7805 51.4654 50.5342 51.3404 50.5342 51.0089C50.5495 50.8254 50.6073 50.648 50.703 50.4908C50.7987 50.3336 50.9296 50.2011 51.0853 50.1037Z" fill="#E0E0E0"/>
<path d="M51.0853 52.4883L73.7132 39.3707C74.018 39.1922 74.2644 39.3197 74.2644 39.6487C74.2509 39.8344 74.194 40.0144 74.0982 40.1739C74.0025 40.3335 73.8705 40.468 73.7132 40.5667L51.0853 53.6842C50.7805 53.8602 50.5342 53.7352 50.5342 53.4037C50.548 53.2184 50.6051 53.0389 50.7008 52.8799C50.7966 52.7208 50.9283 52.5867 51.0853 52.4883Z" fill="#E0E0E0"/>
<path d="M79.0893 53.9751C79.0792 53.9932 79.0673 54.0103 79.0538 54.0261L64.9371 47.7402C64.4011 47.5021 63.7975 47.4665 63.2374 47.6398C62.6774 47.8132 62.1986 48.1839 61.8892 48.6837L46.7972 72.996L46.2384 73.3199C46.1762 73.3635 46.1041 73.3908 46.0287 73.3993C45.9532 73.4077 45.8769 73.3971 45.8066 73.3684L61.3279 48.3624C61.638 47.8634 62.1167 47.4932 62.6763 47.3194C63.236 47.1457 63.8393 47.1801 64.3758 47.4163L79.0893 53.9751Z" fill="#407BFF"/>
<path opacity="0.4" d="M60.495 50.8945L60.5306 50.8639L46.7923 72.9985L46.2335 73.3224C46.171 73.3654 46.099 73.3923 46.0237 73.4007C45.9484 73.4092 45.8722 73.3989 45.8018 73.3708L59.9413 50.5681L60.495 50.8945Z" fill="white"/>
<path opacity="0.4" d="M79.0896 53.9776C79.0794 53.9957 79.0675 54.0128 79.054 54.0286L64.9348 47.7401C64.3988 47.502 63.7952 47.4664 63.2351 47.6398C62.6751 47.8132 62.1963 48.1839 61.8869 48.6836L61.3281 48.3572C61.6394 47.8596 62.1186 47.4909 62.6781 47.3186C63.2377 47.1464 63.8404 47.1819 64.376 47.4188L79.0896 53.9776Z" fill="white"/>
<path d="M79.9382 28.3902C79.9078 28.2066 79.8112 28.1556 79.6842 28.2423C79.6215 28.2893 79.5666 28.3461 79.5217 28.4106L79.4506 28.51L65.5295 47.9824L63.4493 50.892C63.3154 51.0615 63.138 51.1912 62.9361 51.2672C62.7343 51.3431 62.5157 51.3624 62.3038 51.3229L60.5081 50.8945L46.7927 47.6202C46.7005 47.6014 46.6055 47.6014 46.5133 47.6202C46.4775 47.6275 46.4426 47.6386 46.4092 47.6534L46.7876 47.4341L59.995 50.5885L61.7958 51.0016C62.0077 51.0416 62.2265 51.0226 62.4285 50.9467C62.6304 50.8707 62.8078 50.7407 62.9413 50.5707L65.0215 47.6636L79.0213 28.0918C79.064 28.0336 79.1175 27.9843 79.1788 27.9465L77.9749 27.2503L78.4829 26.957L79.321 27.4415C79.4817 27.5503 79.6191 27.6903 79.7251 27.8532C79.8311 28.0161 79.9036 28.1987 79.9382 28.3902Z" fill="#407BFF"/>
<path opacity="0.4" d="M65.5282 47.9824L63.448 50.892C63.3141 51.0616 63.1367 51.1913 62.9349 51.2672C62.7331 51.3431 62.5145 51.3624 62.3025 51.323L60.5068 50.8946L60.5424 50.864L60.6288 50.7263L61.8047 51.0068C62.0166 51.0468 62.2354 51.0278 62.4374 50.9518C62.6393 50.8758 62.8167 50.7458 62.9502 50.5758L65.0101 47.6993L65.5282 47.9824Z" fill="white"/>
<path opacity="0.1" d="M79.3107 27.4415L78.4725 26.957L77.9646 27.2503L79.1761 27.9516C79.1149 27.9896 79.0615 28.0389 79.0186 28.0969L65.0213 47.6687L65.001 47.6968L65.509 47.9798L79.4479 28.51L79.519 28.4106C79.5639 28.3461 79.6187 28.2893 79.6815 28.2423C79.806 28.1556 79.9025 28.2066 79.9355 28.3902C79.9 28.1981 79.8263 28.0152 79.719 27.8522C79.6117 27.6892 79.4728 27.5496 79.3107 27.4415Z" fill="black"/>
<path d="M47.068 48.028L44.0811 46.2939V72.1236C44.0938 72.3456 44.1581 72.5616 44.2687 72.7542C44.3794 72.9468 44.5335 73.1107 44.7186 73.2329L45.4348 73.6485C45.6321 73.7471 45.8494 73.7984 46.0698 73.7984C46.2901 73.7984 46.5075 73.7471 46.7048 73.6485L47.0629 73.4394L47.068 48.028Z" fill="#407BFF"/>
<path opacity="0.15" d="M47.068 48.028L44.0811 46.2939V72.1236C44.0938 72.3456 44.1581 72.5616 44.2687 72.7542C44.3794 72.9468 44.5335 73.1107 44.7186 73.2329L45.4348 73.6485C45.6321 73.7471 45.8494 73.7984 46.0698 73.7984C46.2901 73.7984 46.5075 73.7471 46.7048 73.6485L47.0629 73.4394L47.068 48.028Z" fill="black"/>
<path d="M79.449 28.5098V53.327C79.4423 53.5569 79.3739 53.7807 79.2509 53.9748C79.1576 54.1393 79.0303 54.2819 78.8775 54.393L78.8546 54.4083L78.8115 54.4363L46.2095 73.3323C46.1704 73.3566 46.1286 73.3763 46.085 73.391C46.0823 73.3528 46.0823 73.3144 46.085 73.2762V48.1963C46.0794 48.1065 46.0955 48.0166 46.1321 47.9344C46.1687 47.8522 46.2247 47.7801 46.2951 47.7245C46.3656 47.6688 46.4485 47.6311 46.5366 47.6147C46.6248 47.5983 46.7156 47.6036 46.8013 47.6302L60.5167 50.9045L62.3124 51.3329C62.5243 51.3723 62.7429 51.353 62.9447 51.2771C63.1465 51.2012 63.3239 51.0715 63.4579 50.9019L65.5279 47.9821L79.449 28.5098Z" fill="#455A64"/>
<path d="M79.9493 28.5607V53.6509C79.9414 53.8805 79.873 54.104 79.7512 54.2986C79.6565 54.4628 79.5295 54.606 79.3779 54.7193L79.3525 54.7321C79.3395 54.7423 79.326 54.7517 79.3118 54.7601L46.7098 73.646C46.6476 73.6904 46.5751 73.7184 46.4992 73.7273C46.4233 73.7362 46.3463 73.7258 46.2755 73.697C46.2214 73.6653 46.1758 73.6209 46.1426 73.5676C46.1095 73.5143 46.0897 73.4536 46.085 73.391C46.0823 73.3527 46.0823 73.3144 46.085 73.2762V48.1963C46.0794 48.1064 46.0955 48.0165 46.1321 47.9343C46.1687 47.8522 46.2247 47.7801 46.2951 47.7244C46.3656 47.6687 46.4485 47.6311 46.5366 47.6146C46.6248 47.5982 46.7156 47.6035 46.8013 47.6302L60.5167 50.9044L62.3124 51.3329C62.5243 51.3723 62.7429 51.353 62.9447 51.2771C63.1465 51.2011 63.3239 51.0714 63.4579 50.9019L65.5279 47.9821L79.4591 28.5097L79.5303 28.4103C79.7512 28.0813 79.9493 28.1425 79.9493 28.5607Z" fill="#407BFF"/>
<path d="M79.3142 54.7502L79.3549 54.7221L79.3803 54.7094C79.5319 54.596 79.6589 54.4529 79.7536 54.2886C79.8722 54.0974 79.9396 53.8787 79.9492 53.6537L65.5303 47.9823L75.1818 57.1447L79.3142 54.7502Z" fill="#407BFF"/>
<path opacity="0.2" d="M79.3142 54.7502L79.3549 54.7221L79.3803 54.7094C79.5319 54.596 79.6589 54.4529 79.7536 54.2886C79.8722 54.0974 79.9396 53.8787 79.9492 53.6537L65.5303 47.9823L75.1818 57.1447L79.3142 54.7502Z" fill="black"/>
<path d="M46.0732 73.2792C46.0638 73.3609 46.0775 73.4436 46.1125 73.5179C46.1475 73.5923 46.2025 73.6553 46.2713 73.6999C46.3421 73.7288 46.419 73.7392 46.4949 73.7303C46.5709 73.7214 46.6433 73.6934 46.7056 73.6489L57.9294 67.1437L60.4921 50.8972L46.0732 72.861V73.2792Z" fill="#407BFF"/>
<path opacity="0.15" d="M61.8795 48.6809L46.2693 73.6971C46.2005 73.6524 46.1455 73.5894 46.1105 73.515C46.0755 73.4407 46.0619 73.358 46.0712 73.2763V72.8606L59.845 50.7464L59.9517 50.5756L61.3207 48.3723L61.8795 48.6809Z" fill="black"/>
<path d="M79.7521 54.2884C79.6574 54.4526 79.5303 54.5958 79.3787 54.7092L79.3533 54.7219L46.7107 73.646C46.6484 73.6904 46.576 73.7184 46.5 73.7273C46.4241 73.7363 46.3472 73.7258 46.2764 73.697L61.8865 48.6731C62.1996 48.1712 62.6823 47.7992 63.2462 47.6255C63.8102 47.4517 64.4176 47.4878 64.9572 47.7271L79.7521 54.2884Z" fill="#407BFF"/>
<path d="M79.7527 54.2911C79.6594 54.4556 79.5321 54.5982 79.3793 54.7093L79.3565 54.7246L46.7087 73.6486C46.646 73.6923 46.5735 73.7195 46.4977 73.728C46.4219 73.7365 46.3451 73.7258 46.2744 73.6971L46.7087 73.0035L78.7901 54.4033L78.8155 54.388C78.9506 54.2886 79.0653 54.1639 79.1533 54.0208L79.7527 54.2911Z" fill="#407BFF"/>
<path opacity="0.15" d="M44.1936 43.9736L44.7016 44.2745C44.6296 44.5007 44.5894 44.7359 44.5822 44.9733V46.5951L44.0742 46.2942V44.6698C44.0816 44.4333 44.1218 44.199 44.1936 43.9736Z" fill="black"/>
<path d="M47.2616 47.5385L46.7841 47.4238L46.4057 47.6431L45.8824 47.3396L44.5947 46.595L45.0951 46.2966L47.2616 47.5385Z" fill="#407BFF"/>
<path opacity="0.1" d="M47.2608 47.5387L45.0968 46.2993L44.5889 46.5977L45.8766 47.3423L46.3998 47.6458C46.4302 47.6306 46.4628 47.6203 46.4963 47.6152C46.5885 47.5963 46.6835 47.5963 46.7757 47.6152L47.8298 47.8702L59.8434 50.7466L59.9501 50.5758L47.2608 47.5387Z" fill="black"/>
<path d="M85.9739 48.5386L83.5636 47.1361L83.5433 47.1233C82.4917 46.5266 81.0466 46.6133 79.449 47.5441C76.2335 49.4082 73.625 53.9422 73.625 57.6704C73.625 59.532 74.2777 60.8402 75.3267 61.4522L77.5237 62.7272L78.0317 61.8627C78.6187 61.7322 79.1824 61.512 79.703 61.2099C82.9185 59.3458 85.5269 54.8118 85.5269 51.0836C85.5264 50.5799 85.465 50.0781 85.344 49.5892L85.9739 48.5386Z" fill="#407BFF"/>
<path opacity="0.15" d="M73.8391 55.7091C73.697 56.354 73.6229 57.0122 73.6182 57.6727C73.6182 59.5342 74.2709 60.8424 75.3199 61.4544L77.5169 62.7294L78.0249 61.865C78.6119 61.7344 79.1755 61.5142 79.6961 61.2122C80.2652 60.8778 80.7973 60.4837 81.2835 60.0366L73.8391 55.7091Z" fill="black"/>
<path d="M81.7351 48.8726C78.5196 50.7367 75.9111 55.2707 75.9111 58.9989C75.9111 62.7271 78.5196 64.2393 81.7351 62.3752C84.9506 60.5111 87.5591 55.9771 87.5591 52.2489C87.5591 48.5207 84.9531 47.0085 81.7351 48.8726Z" fill="#407BFF"/>
<path d="M84.0359 54.0618V52.6287C84.0359 50.9941 83.0454 50.2418 81.8262 50.9507C80.6045 51.6596 79.614 53.5569 79.614 55.1915V56.4665C79.5872 57.3512 79.3307 58.2136 78.8698 58.9681C78.7564 59.1682 78.6944 59.3934 78.6895 59.6235C78.6895 60.0341 78.9434 60.2253 79.2457 60.0468L84.4093 57.053C84.5786 56.9309 84.7171 56.7706 84.8137 56.5851C84.9103 56.3995 84.9623 56.1939 84.9655 55.9846C84.9734 55.9046 84.9629 55.8239 84.9347 55.7487C84.9065 55.6736 84.8614 55.6059 84.803 55.551C84.3356 55.3521 84.0359 54.8268 84.0359 54.0618Z" fill="white"/>
<path d="M82.8855 58.3969C82.8855 59.1823 82.4105 60.0926 81.8263 60.4369C81.2422 60.7812 80.7646 60.4165 80.7646 59.6336L82.8855 58.3969Z" fill="white"/>
</svg>
