<svg width="120" height="119" viewBox="0 0 120 119" fill="none" xmlns="http://www.w3.org/2000/svg">
<path d="M63.7909 118.234C94.8342 118.234 120 103.279 120 84.8318C120 66.3842 94.8342 51.4296 63.7909 51.4296C32.7476 51.4296 7.58203 66.3842 7.58203 84.8318C7.58203 103.279 32.7476 118.234 63.7909 118.234Z" fill="#F5F5F5"/>
<path d="M92.2319 98.693C91.9399 98.7007 91.6509 98.6343 91.3933 98.5004L81.4557 92.9171C81.285 92.834 81.1414 92.7064 81.0411 92.5486C80.9408 92.3908 80.8877 92.209 80.8877 92.0235C80.8877 91.8381 80.9408 91.6563 81.0411 91.4985C81.1414 91.3407 81.285 91.2131 81.4557 91.13L97.9214 81.9041C98.1797 81.7697 98.4682 81.6993 98.7612 81.6993C99.0543 81.6993 99.3428 81.7697 99.6011 81.9041L109.539 87.4752C109.709 87.5584 109.853 87.686 109.953 87.8438C110.054 88.0016 110.107 88.1834 110.107 88.3688C110.107 88.5543 110.054 88.736 109.953 88.8938C109.853 89.0516 109.709 89.1792 109.539 89.2624L93.0731 98.5004C92.8146 98.6343 92.5248 98.7007 92.2319 98.693Z" fill="#E0E0E0"/>
<path d="M41.8883 106.463L9.56696 88.3819C8.88654 88.0015 8.88654 87.3823 9.56696 86.9995L75.1612 50.24C75.5435 50.0513 75.9663 49.953 76.3952 49.953C76.8241 49.953 77.2469 50.0513 77.6293 50.24L109.951 68.3186C110.633 68.699 110.633 69.3207 109.951 69.701L44.3564 106.463C43.9737 106.65 43.551 106.748 43.1223 106.748C42.6936 106.748 42.271 106.65 41.8883 106.463Z" fill="#E0E0E0"/>
<path d="M39.7208 14.4725L38.0762 15.3941C38.0849 15.3245 38.0899 15.2545 38.0913 15.1844V14.7212C38.0913 13.8971 37.4962 13.5631 36.7606 13.9751C36.4456 14.1614 36.1751 14.4108 35.9672 14.7066C35.8466 13.6704 35.0106 13.2851 33.9937 13.8532C33.4148 14.2203 32.933 14.7147 32.5875 15.2963C32.2421 15.8779 32.0425 16.5303 32.0051 17.2008V17.8932C31.9977 18.1695 32.0553 18.4438 32.1734 18.6953L30.8075 19.4609C30.5897 19.599 30.4091 19.7857 30.2807 20.0054C30.1523 20.2251 30.0798 20.4714 30.0693 20.7238C30.0693 21.1798 30.4008 21.3651 30.8075 21.1359L39.7208 16.1402C39.9357 16.0043 40.1146 15.8211 40.2428 15.6055C40.3711 15.3898 40.4452 15.1478 40.4589 14.8992C40.4589 14.4286 40.13 14.2433 39.7208 14.4725Z" fill="#EBEBEB"/>
<path d="M28.8468 10.2402L27.9404 10.5791V8.62863C27.9404 7.08774 26.685 6.71958 25.3041 7.49003C23.9307 8.25803 22.8184 10.1305 22.8184 11.669V11.9469C22.6253 11.8893 22.4213 11.8749 22.2217 11.9049C22.0221 11.9349 21.8321 12.0084 21.6659 12.12C21.1456 12.45 20.7126 12.8943 20.402 13.417C20.0914 13.9397 19.912 14.5261 19.8783 15.1286V15.2554L18.6229 15.9649C18.2802 16.1824 17.995 16.4752 17.7905 16.8195C17.5859 17.1639 17.4677 17.5502 17.4453 17.9471C17.4453 18.6785 17.9726 18.9711 18.6229 18.6054L28.8568 12.8685C29.1998 12.6513 29.4851 12.3586 29.6898 12.0142C29.8944 11.6698 30.0124 11.2834 30.0344 10.8863C30.0243 10.1598 29.4971 9.86475 28.8468 10.2402Z" fill="#EBEBEB"/>
<path d="M11.705 87.2286L41.754 104.074C42.229 104.34 42.766 104.485 43.3145 104.495C43.863 104.505 44.4051 104.379 44.89 104.13L105.387 70.2179C106.341 69.6839 107.112 68.4868 107.115 67.5359C107.117 66.5851 106.341 65.4001 105.387 64.8662L75.4487 48.0871C74.9141 47.8238 74.3232 47.6866 73.7238 47.6866C73.1244 47.6866 72.5335 47.8238 71.9989 48.0871L11.705 81.8891C10.7509 82.4255 9.97754 83.6202 9.97754 84.5589C9.97754 85.4975 10.7509 86.6946 11.705 87.2286Z" fill="#37474F"/>
<path d="M41.754 104.073L11.705 87.2285C10.7509 86.6945 9.97754 85.4998 9.97754 84.5587C9.97754 83.6176 10.7509 82.4254 11.705 81.889L43.3885 64.1224V104.49C42.815 104.497 42.2503 104.353 41.754 104.073Z" fill="#263238"/>
<path d="M42.469 101.072C42.941 101.303 43.4621 101.423 43.9906 101.423C44.519 101.423 45.0401 101.303 45.5121 101.072L105.394 67.4992C106.682 66.7678 106.682 65.5951 105.394 64.8734L75.4507 48.0869C74.9161 47.8237 74.3251 47.6865 73.7258 47.6865C73.1264 47.6865 72.5354 47.8237 72.0008 48.0869L11.7069 81.889C10.7578 82.4229 10.7578 83.2933 11.7069 83.8249L42.469 101.072Z" fill="#455A64"/>
<path d="M45.3767 97.6905C45.8845 97.9417 46.4464 98.0726 47.0163 98.0726C47.5861 98.0726 48.148 97.9417 48.6558 97.6905L100.18 68.8013C101.086 68.2942 101.086 67.4701 100.18 66.963L72.0161 51.1737C71.5079 50.9237 70.9462 50.7935 70.3766 50.7935C69.8069 50.7935 69.2452 50.9237 68.737 51.1737L17.2083 80.0605C16.3069 80.5676 16.3069 81.3942 17.2083 81.9013L45.3767 97.6905Z" fill="#37474F"/>
<path d="M70.4746 50.7985C71.0122 50.8005 71.5412 50.9294 72.0162 51.1739L100.18 66.9632C101.086 67.4703 101.086 68.2944 100.18 68.8015L94.6007 71.9247L70.4746 56.9645V50.7985Z" fill="#263238"/>
<path d="M68.7168 52.3684C69.225 52.1184 69.7866 51.9882 70.3563 51.9882C70.926 51.9882 71.4877 52.1184 71.9959 52.3684L100.164 68.1577C100.325 68.2457 100.47 68.3585 100.594 68.4917C100.475 68.6152 100.337 68.7196 100.184 68.8013L48.6556 97.6906C48.1478 97.9417 47.586 98.0726 47.0161 98.0726C46.4462 98.0726 45.8844 97.9417 45.3765 97.6906L17.2081 81.9013C17.0481 81.8142 16.9039 81.7022 16.7812 81.5697C16.899 81.4455 17.0363 81.3401 17.188 81.2577L68.7168 52.3684Z" fill="#FAFAFA"/>
<path d="M89.8861 59.5781L84.8947 56.7791C84.5959 56.6109 84.5808 56.35 84.8595 56.194C85.0232 56.1167 85.2032 56.078 85.3851 56.081C85.5671 56.0839 85.7457 56.1285 85.9065 56.211L90.8904 59.0027C91.1892 59.1709 91.2043 59.4318 90.9231 59.5903C90.7611 59.6665 90.5831 59.7051 90.4031 59.703C90.2232 59.7009 90.0462 59.6581 89.8861 59.5781Z" fill="#263238"/>
<path d="M81.3162 54.7798C81.2551 54.7597 81.2019 54.7215 81.1643 54.6705C81.1267 54.6196 81.1064 54.5585 81.1064 54.4958C81.1064 54.4331 81.1267 54.372 81.1643 54.321C81.2019 54.2701 81.2551 54.2318 81.3162 54.2117C81.4721 54.136 81.644 54.0966 81.8184 54.0966C81.9927 54.0966 82.1646 54.136 82.3205 54.2117C82.3817 54.2318 82.4348 54.2701 82.4724 54.321C82.5101 54.372 82.5303 54.4331 82.5303 54.4958C82.5303 54.5585 82.5101 54.6196 82.4724 54.6705C82.4348 54.7215 82.3817 54.7597 82.3205 54.7798C82.1646 54.8555 81.9927 54.895 81.8184 54.895C81.644 54.895 81.4721 54.8555 81.3162 54.7798Z" fill="#263238"/>
<path d="M79.2937 53.6389C79.2326 53.6188 79.1795 53.5806 79.1418 53.5297C79.1042 53.4787 79.084 53.4176 79.084 53.3549C79.084 53.2922 79.1042 53.2311 79.1418 53.1801C79.1795 53.1292 79.2326 53.091 79.2937 53.0709C79.4496 52.9951 79.6216 52.9557 79.7959 52.9557C79.9702 52.9557 80.1422 52.9951 80.2981 53.0709C80.3592 53.091 80.4123 53.1292 80.45 53.1801C80.4876 53.2311 80.5078 53.2922 80.5078 53.3549C80.5078 53.4176 80.4876 53.4787 80.45 53.5297C80.4123 53.5806 80.3592 53.6188 80.2981 53.6389C80.1422 53.7147 79.9702 53.7541 79.7959 53.7541C79.6216 53.7541 79.4496 53.7147 79.2937 53.6389Z" fill="#263238"/>
<path d="M95.4832 62.7205C95.422 62.7004 95.3689 62.6622 95.3313 62.6112C95.2937 62.5603 95.2734 62.4991 95.2734 62.4364C95.2734 62.3737 95.2937 62.3126 95.3313 62.2617C95.3689 62.2107 95.422 62.1725 95.4832 62.1524C95.6391 62.0767 95.811 62.0372 95.9854 62.0372C96.1597 62.0372 96.3316 62.0767 96.4875 62.1524C96.5487 62.1725 96.6018 62.2107 96.6394 62.2617C96.677 62.3126 96.6973 62.3737 96.6973 62.4364C96.6973 62.4991 96.677 62.5603 96.6394 62.6112C96.6018 62.6622 96.5487 62.7004 96.4875 62.7205C96.3316 62.7962 96.1597 62.8357 95.9854 62.8357C95.811 62.8357 95.6391 62.7962 95.4832 62.7205Z" fill="#263238"/>
<path d="M93.4578 61.5846C93.3967 61.5645 93.3435 61.5263 93.3059 61.4753C93.2683 61.4244 93.248 61.3633 93.248 61.3006C93.248 61.2379 93.2683 61.1768 93.3059 61.1258C93.3435 61.0749 93.3967 61.0367 93.4578 61.0165C93.6137 60.9408 93.7856 60.9014 93.96 60.9014C94.1343 60.9014 94.3062 60.9408 94.4621 61.0165C94.5233 61.0367 94.5764 61.0749 94.614 61.1258C94.6517 61.1768 94.6719 61.2379 94.6719 61.3006C94.6719 61.3633 94.6517 61.4244 94.614 61.4753C94.5764 61.5263 94.5233 61.5645 94.4621 61.5846C94.3062 61.6604 94.1343 61.6998 93.96 61.6998C93.7856 61.6998 93.6137 61.6604 93.4578 61.5846Z" fill="#263238"/>
<path d="M44.1211 89.6225V89.7224C44.1257 89.8146 44.1527 89.9043 44.1998 89.9844C44.2469 90.0645 44.3129 90.1326 44.3923 90.1833L50.2549 93.4698C50.34 93.5107 50.4337 93.5319 50.5286 93.5319C50.6235 93.5319 50.7172 93.5107 50.8023 93.4698L60.5115 88.0328C60.5906 87.9819 60.6563 87.9137 60.7034 87.8337C60.7505 87.7537 60.7777 87.6641 60.7826 87.572V87.4672C60.778 87.3751 60.7511 87.2853 60.704 87.2052C60.6568 87.1251 60.5909 87.057 60.5115 87.0064L54.6488 83.7198C54.5637 83.679 54.4701 83.6577 54.3751 83.6577C54.2802 83.6577 54.1866 83.679 54.1015 83.7198L44.3923 89.1617C44.3129 89.2123 44.2469 89.2804 44.1998 89.3605C44.1527 89.4406 44.1257 89.5304 44.1211 89.6225Z" fill="#FF5E15"/>
<path d="M44.1211 89.6225V89.7224C44.1257 89.8146 44.1527 89.9043 44.1998 89.9844C44.2469 90.0645 44.3129 90.1326 44.3923 90.1833L50.2549 93.4698C50.34 93.5107 50.4337 93.5319 50.5286 93.5319C50.6235 93.5319 50.7172 93.5107 50.8023 93.4698L60.5115 88.0328C60.5906 87.9819 60.6563 87.9137 60.7034 87.8337C60.7505 87.7537 60.7777 87.6641 60.7826 87.572V87.4672C60.778 87.3751 60.7511 87.2853 60.704 87.2052C60.6568 87.1251 60.5909 87.057 60.5115 87.0064L54.6488 83.7198C54.5637 83.679 54.4701 83.6577 54.3751 83.6577C54.2802 83.6577 54.1866 83.679 54.1015 83.7198L44.3923 89.1617C44.3129 89.2123 44.2469 89.2804 44.1998 89.3605C44.1527 89.4406 44.1257 89.5304 44.1211 89.6225Z" fill="#FF5E15"/>
<path opacity="0.3" d="M60.5106 87.0064L54.648 83.7198C54.5629 83.679 54.4692 83.6577 54.3743 83.6577C54.2794 83.6577 54.1857 83.679 54.1006 83.7198L50.5303 85.7239V93.5259C50.6255 93.5272 50.7196 93.5054 50.8039 93.4625L60.5106 88.0328C60.5898 87.9819 60.6555 87.9137 60.7026 87.8337C60.7497 87.7537 60.7768 87.6641 60.7818 87.572V87.4672C60.7772 87.3751 60.7502 87.2853 60.7031 87.2052C60.656 87.1251 60.59 87.057 60.5106 87.0064Z" fill="white"/>
<path opacity="0.15" d="M60.5106 87.0064L54.648 83.7198C54.5629 83.679 54.4692 83.6577 54.3743 83.6577C54.2794 83.6577 54.1857 83.679 54.1006 83.7198L50.5303 85.7239V93.5259C50.6255 93.5272 50.7196 93.5054 50.8039 93.4625L60.5106 88.0328C60.5898 87.9819 60.6555 87.9137 60.7026 87.8337C60.7497 87.7537 60.7768 87.6641 60.7818 87.572V87.4672C60.7772 87.3751 60.7502 87.2853 60.7031 87.2052C60.656 87.1251 60.59 87.057 60.5106 87.0064Z" fill="black"/>
<path opacity="0.3" d="M50.5286 85.7239L44.3923 89.1616C44.3129 89.2122 44.2469 89.2804 44.1998 89.3604C44.1527 89.4405 44.1257 89.5303 44.1211 89.6224V89.7224C44.1257 89.8145 44.1527 89.9043 44.1998 89.9844C44.2469 90.0644 44.3129 90.1326 44.3923 90.1832L50.2549 93.4698C50.3392 93.513 50.4333 93.5348 50.5286 93.5332V85.7239Z" fill="white"/>
<path opacity="0.2" d="M50.5286 85.7239L44.3923 89.1616C44.3129 89.2122 44.2469 89.2804 44.1998 89.3604C44.1527 89.4405 44.1257 89.5303 44.1211 89.6224V89.7224C44.1257 89.8145 44.1527 89.9043 44.1998 89.9844C44.2469 90.0644 44.3129 90.1326 44.3923 90.1832L50.2549 93.4698C50.3392 93.513 50.4333 93.5348 50.5286 93.5332V85.7239Z" fill="black"/>
<path d="M49.3159 92.2291L44.3922 89.4789C44.3597 89.4675 44.3316 89.4466 44.3118 89.4191C44.2919 89.3916 44.2812 89.3589 44.2812 89.3253C44.2812 89.2917 44.2919 89.259 44.3118 89.2315C44.3316 89.204 44.3597 89.1831 44.3922 89.1717L54.0989 83.7298C54.184 83.689 54.2776 83.6677 54.3726 83.6677C54.4675 83.6677 54.5612 83.689 54.6463 83.7298L60.5114 87.0066C60.5439 87.0181 60.572 87.0389 60.5919 87.0664C60.6117 87.0939 60.6224 87.1267 60.6224 87.1602C60.6224 87.1938 60.6117 87.2266 60.5919 87.2541C60.572 87.2815 60.5439 87.3024 60.5114 87.3138L58.8995 88.216L58.3371 88.5329L50.8048 92.7557C50.7201 92.7979 50.6263 92.8199 50.5311 92.8199C50.4359 92.8199 50.3421 92.7979 50.2574 92.7557L49.7804 92.4875L49.3159 92.2291Z" fill="#FF5E15"/>
<path opacity="0.3" d="M49.3159 92.2291L44.3922 89.4789C44.3597 89.4675 44.3316 89.4466 44.3118 89.4191C44.2919 89.3916 44.2812 89.3589 44.2812 89.3253C44.2812 89.2917 44.2919 89.259 44.3118 89.2315C44.3316 89.204 44.3597 89.1831 44.3922 89.1717L54.0989 83.7298C54.184 83.689 54.2776 83.6677 54.3726 83.6677C54.4675 83.6677 54.5612 83.689 54.6463 83.7298L60.5114 87.0066C60.5439 87.0181 60.572 87.0389 60.5919 87.0664C60.6117 87.0939 60.6224 87.1267 60.6224 87.1602C60.6224 87.1938 60.6117 87.2266 60.5919 87.2541C60.572 87.2815 60.5439 87.3024 60.5114 87.3138L58.8995 88.216L58.3371 88.5329L50.8048 92.7557C50.7201 92.7979 50.6263 92.8199 50.5311 92.8199C50.4359 92.8199 50.3421 92.7979 50.2574 92.7557L49.7804 92.4875L49.3159 92.2291Z" fill="white"/>
<path opacity="0.15" d="M53.786 87.6426L60.5123 87.0063L53.8487 87.372L54.6497 83.7148C54.557 83.6701 54.4542 83.6491 54.3509 83.6538L53.0955 88.591L44.2852 89.2981C44.2853 89.3331 44.2958 89.3673 44.3154 89.3967C44.3349 89.4261 44.3628 89.4494 44.3956 89.4639L51.5112 89.064L50.532 92.8139L51.7874 89.047L53.0026 88.9787C53.1511 88.9706 53.2921 88.9128 53.4018 88.8153C53.5046 88.7249 53.5757 88.6056 53.6052 88.474L53.786 87.6426Z" fill="black"/>
<path opacity="0.3" d="M46.3828 89.1349L53.0916 88.5961L53.3427 87.6648L53.4757 87.1454L54.362 83.6589C54.2747 83.6606 54.1889 83.6815 54.111 83.7199L49.2576 86.4408L44.3917 89.1618C44.3631 89.1752 44.3382 89.195 44.319 89.2196C44.2998 89.2441 44.2868 89.2728 44.2812 89.3032L45.627 89.1959L46.3828 89.1349Z" fill="white"/>
<path d="M53.2632 82.9422C53.6071 82.7727 53.9873 82.6844 54.3729 82.6844C54.7586 82.6844 55.1388 82.7727 55.4827 82.9422C56.0953 83.2859 56.0953 83.8418 55.4827 84.1856C55.1388 84.355 54.7586 84.4433 54.3729 84.4433C53.9873 84.4433 53.6071 84.355 53.2632 84.1856C52.6506 83.8418 52.6506 83.2859 53.2632 82.9422Z" fill="#F28F8F"/>
<path d="M53.5972 83.7688C53.5812 83.7673 53.5657 83.7623 53.552 83.7542C53.5473 83.7504 53.5436 83.7455 53.5414 83.74C53.5392 83.7344 53.5385 83.7284 53.5395 83.7225L53.6324 83.3324C53.6324 83.3324 53.6324 83.3104 53.6324 83.2958C53.6382 83.2807 53.6499 83.2684 53.665 83.2617L53.891 83.1349C53.9055 83.1268 53.922 83.1226 53.9387 83.1227C53.9563 83.1223 53.9736 83.1265 53.9889 83.1349L55.179 83.8005C55.1852 83.8023 55.1907 83.806 55.1946 83.8111C55.1984 83.8161 55.2005 83.8222 55.2005 83.8285C55.2005 83.8348 55.1984 83.841 55.1946 83.846C55.1907 83.8511 55.1852 83.8548 55.179 83.8566L54.9279 83.9931C54.9114 83.997 54.8942 83.997 54.8777 83.9931C54.8613 83.9972 54.844 83.9972 54.8275 83.9931L54.0241 83.5421L53.9713 83.7566C53.9713 83.7688 53.9588 83.7761 53.9437 83.7834C53.9265 83.7885 53.9082 83.7885 53.891 83.7834L53.5972 83.7688Z" fill="#FAFAFA"/>
<path d="M64.5276 85.4686L57.9343 81.7724C57.7836 81.6871 57.7836 81.5506 57.9343 81.4677L81.8671 68.058C81.9512 68.0171 82.0441 67.9957 82.1382 67.9957C82.2324 67.9957 82.3252 68.0171 82.4094 68.058L89.0052 71.7567C89.1558 71.8395 89.1558 71.9761 89.0052 72.0614L65.0724 85.4711C64.988 85.5128 64.8945 85.5344 64.7997 85.534C64.7049 85.5335 64.6116 85.5111 64.5276 85.4686Z" fill="#FF5E15"/>
<path d="M63.2714 81.2924C63.2508 81.3039 63.2274 81.3098 63.2036 81.3094H63.1509L61.78 81.1582L62.591 81.6142C62.5969 81.6166 62.602 81.6207 62.6056 81.6259C62.6092 81.6311 62.6111 81.6372 62.6111 81.6434C62.6111 81.6497 62.6092 81.6558 62.6056 81.661C62.602 81.6662 62.5969 81.6703 62.591 81.6727L62.4303 81.7629C62.4131 81.7681 62.3947 81.7681 62.3776 81.7629C62.3604 81.768 62.342 81.768 62.3249 81.7629L61.0519 81.051C61.0368 81.051 61.0293 81.0315 61.0293 81.0193C61.0301 81.0129 61.0326 81.0068 61.0366 81.0017C61.0405 80.9966 61.0458 80.9925 61.0519 80.99L61.19 80.912C61.2107 80.9006 61.234 80.8948 61.2578 80.8949H61.313L62.6839 81.0461L61.8704 80.5902C61.8645 80.5878 61.8594 80.5837 61.8558 80.5785C61.8522 80.5733 61.8503 80.5672 61.8503 80.5609C61.8503 80.5547 61.8522 80.5485 61.8558 80.5433C61.8594 80.5381 61.8645 80.5341 61.8704 80.5316L62.0311 80.4414C62.0474 80.4334 62.0655 80.4292 62.0838 80.4293C62.1022 80.4287 62.1204 80.4329 62.1365 80.4414L63.4095 81.1558C63.4175 81.1558 63.4252 81.1589 63.4308 81.1644C63.4365 81.1699 63.4396 81.1773 63.4396 81.1851C63.4396 81.1928 63.4365 81.2003 63.4308 81.2058C63.4252 81.2112 63.4175 81.2143 63.4095 81.2143L63.2714 81.2924Z" fill="#FAFAFA"/>
<path d="M63.1852 80.7632C63.1201 80.7282 63.0616 80.6829 63.012 80.6291C62.9728 80.5878 62.9474 80.5359 62.9392 80.4804C62.9351 80.4271 62.9492 80.3739 62.9793 80.3292C63.0194 80.2721 63.0739 80.226 63.1375 80.1951C63.2119 80.1536 63.2923 80.1232 63.376 80.1049C63.4627 80.0871 63.5511 80.0789 63.6397 80.0805C63.7243 80.0836 63.8084 80.0951 63.8907 80.1146C63.9699 80.1347 64.0459 80.165 64.1167 80.2049L64.2046 80.2536C64.2105 80.256 64.2156 80.2601 64.2192 80.2653C64.2228 80.2705 64.2247 80.2766 64.2247 80.2829C64.2247 80.2891 64.2228 80.2952 64.2192 80.3005C64.2156 80.3057 64.2105 80.3097 64.2046 80.3121L63.5468 80.6827C63.578 80.6995 63.612 80.7111 63.6472 80.7169C63.6831 80.7206 63.7193 80.7206 63.7552 80.7169C63.7916 80.7119 63.8277 80.7046 63.8631 80.6949C63.8964 80.6845 63.9284 80.6706 63.9585 80.6535C63.9917 80.6367 64.0221 80.6154 64.0489 80.5901C64.0648 80.5746 64.076 80.5552 64.0816 80.534C64.084 80.5225 64.0892 80.5116 64.0966 80.5023C64.1051 80.4925 64.1153 80.4842 64.1267 80.4779L64.2849 80.3902C64.3013 80.3821 64.3193 80.3779 64.3377 80.378C64.3561 80.3762 64.3747 80.3805 64.3904 80.3902C64.4108 80.403 64.4252 80.4231 64.4305 80.4462C64.4406 80.4772 64.4406 80.5104 64.4305 80.5413C64.4168 80.5858 64.3928 80.6267 64.3602 80.6608C64.3137 80.7117 64.2585 80.7546 64.197 80.7876C64.1219 80.8276 64.0417 80.8579 63.9585 80.8778C63.8719 80.8958 63.7834 80.904 63.6949 80.9022C63.6099 80.8972 63.5257 80.8833 63.4438 80.8607C63.3539 80.8384 63.2671 80.8056 63.1852 80.7632ZM63.3735 80.3268C63.343 80.343 63.3158 80.3645 63.2932 80.3902C63.2788 80.4085 63.2701 80.4305 63.2681 80.4535C63.2677 80.4736 63.2738 80.4932 63.2856 80.5096C63.2957 80.5283 63.3104 80.5442 63.3283 80.5559L63.7727 80.3121C63.7484 80.3013 63.7232 80.2924 63.6974 80.2853C63.6664 80.2765 63.6343 80.2716 63.602 80.2707C63.5657 80.2713 63.5295 80.2753 63.494 80.2829C63.4523 80.2932 63.4119 80.3079 63.3735 80.3268Z" fill="#FAFAFA"/>
<path d="M65.4363 79.6122L65.0521 79.1952C65.0447 79.1878 65.0395 79.1785 65.0371 79.1684C65.0371 79.1684 65.0371 79.1489 65.0597 79.1392L65.2078 79.0538C65.2249 79.0456 65.2439 79.0414 65.263 79.0416C65.2813 79.0416 65.2994 79.0458 65.3158 79.0538L65.9284 79.7292C65.9354 79.7379 65.9405 79.7478 65.9435 79.7584C65.9435 79.7584 65.9434 79.778 65.9208 79.7901L65.7702 79.873C65.7536 79.8827 65.7343 79.887 65.715 79.8852H65.6622L64.9467 79.6975L65.2806 80.0998C65.2876 80.1085 65.2927 80.1184 65.2957 80.129C65.2957 80.129 65.2957 80.1485 65.2731 80.1583L65.1249 80.2436C65.1083 80.2532 65.089 80.2574 65.0697 80.2558C65.0522 80.2584 65.0345 80.2584 65.017 80.2558L63.8118 79.9145C63.8118 79.9145 63.8118 79.9145 63.7967 79.9145C63.7887 79.9145 63.7811 79.9114 63.7754 79.9059C63.7698 79.9004 63.7666 79.893 63.7666 79.8852C63.7666 79.8775 63.7698 79.87 63.7754 79.8645C63.7811 79.8591 63.7887 79.856 63.7967 79.856L63.9449 79.7706C63.9615 79.7611 63.9808 79.7568 64.0001 79.7584H64.0478L64.7885 79.973L64.4144 79.5512C64.4125 79.547 64.4116 79.5424 64.4116 79.5378C64.4116 79.5332 64.4125 79.5286 64.4144 79.5244C64.414 79.5181 64.4158 79.5118 64.4194 79.5065C64.423 79.5012 64.4283 79.4972 64.4345 79.4951L64.5851 79.4098C64.6024 79.4057 64.6205 79.4057 64.6378 79.4098C64.6545 79.4071 64.6714 79.4071 64.6881 79.4098L65.4363 79.6122Z" fill="#FAFAFA"/>
<path d="M66.328 78.9955C66.2628 78.9597 66.2043 78.9136 66.1548 78.859C66.1152 78.818 66.0898 78.766 66.082 78.7103C66.0748 78.6579 66.0882 78.6047 66.1196 78.5616C66.1608 78.5048 66.215 78.4581 66.2778 78.425C66.3565 78.383 66.4411 78.3526 66.5289 78.3348C66.6116 78.3189 66.6957 78.3107 66.78 78.3104C66.8648 78.3134 66.949 78.3257 67.0311 78.347C67.1105 78.3652 67.1866 78.3947 67.257 78.4348L67.3449 78.4835C67.36 78.4933 67.3675 78.503 67.3675 78.5128C67.3675 78.525 67.3675 78.5347 67.3449 78.5445L66.6871 78.9126C66.7171 78.9301 66.7504 78.9417 66.785 78.9468C66.8209 78.9504 66.8571 78.9504 66.893 78.9468C66.9306 78.9442 66.9678 78.9368 67.0034 78.9248C67.0371 78.9155 67.0692 78.9016 67.0988 78.8834C67.1325 78.8675 67.1631 78.8461 67.1892 78.82C67.2042 78.8047 67.2153 78.7864 67.2219 78.7664C67.2237 78.7543 67.228 78.7427 67.2344 78.7322C67.243 78.7221 67.2543 78.7145 67.2671 78.7103L67.4252 78.6201C67.4416 78.6121 67.4597 78.608 67.478 78.608C67.4963 78.608 67.5143 78.6121 67.5307 78.6201C67.5499 78.6351 67.564 78.6555 67.5709 78.6786C67.5809 78.7095 67.5809 78.7427 67.5709 78.7737C67.5545 78.8171 67.5308 78.8574 67.5006 78.8931C67.4528 78.9432 67.3968 78.9853 67.3349 79.0175C67.2604 79.059 67.18 79.0894 67.0963 79.1077C67.014 79.126 66.9297 79.1342 66.8453 79.1321C66.7551 79.1292 66.6657 79.1153 66.5791 79.0906C66.4915 79.0699 66.407 79.0379 66.328 78.9955ZM66.5163 78.5591C66.4848 78.5738 66.4572 78.5955 66.436 78.6225C66.4203 78.6401 66.4114 78.6626 66.4109 78.6859C66.4096 78.7057 66.4149 78.7253 66.426 78.742C66.4383 78.7583 66.4526 78.773 66.4686 78.7859L66.9156 78.542C66.8905 78.5309 66.8644 78.5219 66.8377 78.5152C66.8074 78.5073 66.7762 78.5032 66.7448 78.503C66.7084 78.5012 66.6719 78.5053 66.6369 78.5152C66.5937 78.5248 66.5528 78.5421 66.5163 78.5664V78.5591Z" fill="#FAFAFA"/>
<path d="M67.3525 77.9642C67.3467 77.924 67.3566 77.8831 67.3801 77.8496C67.4073 77.8096 67.4444 77.7769 67.4881 77.7545C67.5653 77.71 67.6505 77.6802 67.7392 77.6667C67.8224 77.6551 67.907 77.6551 67.9902 77.6667C67.9853 77.6426 67.9853 77.6177 67.9902 77.5936C67.9945 77.5669 68.0039 77.5413 68.0178 77.518C68.0324 77.4926 68.0511 77.4695 68.0731 77.4497C68.097 77.4286 68.1231 77.4098 68.1509 77.3937C68.2201 77.3541 68.2956 77.3261 68.3744 77.3108C68.4471 77.2971 68.5215 77.293 68.5953 77.2986C68.6682 77.3053 68.7399 77.3209 68.8087 77.3449C68.8757 77.3687 68.9404 77.3981 69.0021 77.4327L69.5344 77.7301C69.5402 77.733 69.5451 77.7373 69.5485 77.7427C69.5519 77.7481 69.5537 77.7543 69.5537 77.7606C69.5537 77.7669 69.5519 77.7731 69.5485 77.7785C69.5451 77.7839 69.5402 77.7882 69.5344 77.7911L69.3837 77.874C69.3674 77.882 69.3493 77.8862 69.331 77.8862C69.3118 77.8864 69.2929 77.8822 69.2758 77.874L68.756 77.5814C68.6839 77.538 68.6021 77.5121 68.5175 77.5058C68.4487 77.5058 68.3811 77.5234 68.3217 77.557C68.2997 77.5661 68.2805 77.5805 68.266 77.5988C68.2515 77.6172 68.2421 77.6389 68.2388 77.6619C68.2388 77.7009 68.274 77.7472 68.3568 77.7959L68.8866 78.0934C68.8946 78.0934 68.9022 78.0965 68.9079 78.102C68.9135 78.1075 68.9167 78.1149 68.9167 78.1227C68.9167 78.1304 68.9135 78.1379 68.9079 78.1433C68.9022 78.1488 68.8946 78.1519 68.8866 78.1519L68.7359 78.2372C68.7198 78.2458 68.7016 78.25 68.6832 78.2494C68.6649 78.2495 68.6468 78.2453 68.6305 78.2372L68.1107 77.9447C68.0395 77.8995 67.9572 77.8734 67.8722 77.8691C67.8031 77.8663 67.7348 77.8842 67.6764 77.9203C67.6536 77.9292 67.6337 77.9438 67.6187 77.9627C67.6037 77.9815 67.5942 78.0039 67.591 78.0276C67.591 78.069 67.6312 78.1153 67.7216 78.1641L68.2413 78.4542C68.247 78.4576 68.2517 78.4623 68.2552 78.4678C68.2587 78.4733 68.2608 78.4795 68.2614 78.4859C68.2608 78.4921 68.2587 78.4979 68.2552 78.5031C68.2517 78.5082 68.2469 78.5123 68.2413 78.5152L68.0907 78.5981C68.0743 78.606 68.0562 78.6102 68.0379 78.6102C68.0196 78.6102 68.0016 78.606 67.9852 78.5981L67.0663 78.0836C67.0583 78.0836 67.0506 78.0806 67.045 78.0751C67.0393 78.0696 67.0361 78.0622 67.0361 78.0544C67.0361 78.0466 67.0393 78.0392 67.045 78.0337C67.0506 78.0282 67.0583 78.0251 67.0663 78.0251L67.2169 77.9398C67.233 77.9312 67.2513 77.927 67.2696 77.9276C67.288 77.9275 67.306 77.9317 67.3224 77.9398L67.3525 77.9642Z" fill="#FAFAFA"/>
<path d="M69.0613 77.1793C69.0389 77.1595 69.0209 77.1355 69.0086 77.1086C68.9984 77.0776 68.9984 77.0444 69.0086 77.0135C69.0179 76.9727 69.0378 76.9349 69.0664 76.9038C69.1088 76.8568 69.1599 76.8179 69.217 76.7892C69.2831 76.7529 69.353 76.7235 69.4254 76.7014C69.496 76.6827 69.5683 76.6713 69.6413 76.6673C69.715 76.6645 69.7887 76.6727 69.8598 76.6916C69.9335 76.7091 70.0044 76.7361 70.0707 76.7721L70.6507 77.0964C70.6563 77.0998 70.6611 77.1044 70.6646 77.1099C70.6681 77.1154 70.6702 77.1216 70.6708 77.1281C70.6705 77.1343 70.6684 77.1402 70.6649 77.1454C70.6614 77.1506 70.6564 77.1547 70.6507 77.1573L70.5 77.2402C70.4841 77.2494 70.4657 77.2537 70.4473 77.2524C70.4288 77.2542 70.4102 77.2499 70.3946 77.2402L70.3293 77.2036C70.3385 77.2456 70.3304 77.2894 70.3067 77.3256C70.2671 77.3831 70.2126 77.4294 70.1485 77.4597C70.0942 77.491 70.0359 77.5156 69.9753 77.5328C69.918 77.5487 69.859 77.5577 69.7995 77.5596C69.7431 77.5598 69.6868 77.5549 69.6313 77.545C69.5794 77.5333 69.5295 77.5144 69.4832 77.4889C69.3928 77.4377 69.3551 77.3792 69.3677 77.3158C69.3924 77.2322 69.4466 77.1597 69.5208 77.111L69.787 76.9013C69.7368 76.8711 69.6772 76.859 69.6187 76.8672C69.5604 76.8743 69.5041 76.8925 69.453 76.9208C69.4287 76.9336 69.4074 76.951 69.3903 76.972C69.3818 76.988 69.3767 77.0054 69.3752 77.0232C69.3766 77.0337 69.3766 77.0444 69.3752 77.0549C69.3676 77.0633 69.3582 77.07 69.3476 77.0744L69.1643 77.1793C69.1495 77.1832 69.1339 77.1832 69.1191 77.1793C69.1106 77.185 69.1005 77.1881 69.0902 77.1881C69.0799 77.1881 69.0698 77.185 69.0613 77.1793ZM69.9451 77.3061C69.9828 77.2856 70.0168 77.2593 70.0456 77.228C70.066 77.2064 70.0792 77.1791 70.0832 77.15C70.0853 77.126 70.0791 77.102 70.0657 77.0817C70.0498 77.0583 70.0282 77.0391 70.0029 77.0257L69.9828 77.0135L69.7619 77.1915C69.7281 77.2125 69.7018 77.2432 69.6865 77.2792C69.6865 77.3012 69.6865 77.3231 69.7217 77.3402C69.755 77.3517 69.7913 77.3517 69.8246 77.3402C69.8664 77.3349 69.907 77.3233 69.9451 77.3061Z" fill="#FAFAFA"/>
<path d="M69.7729 76.0697C69.7892 76.0618 69.8073 76.0576 69.8256 76.0576C69.8439 76.0576 69.8619 76.0618 69.8783 76.0697L70.0315 76.155C70.0375 76.1576 70.0428 76.1616 70.0468 76.1667C70.0508 76.1719 70.0533 76.1779 70.0541 76.1843C70.0541 76.1965 70.0541 76.2062 70.0315 76.216L69.8632 76.3111C69.8469 76.3191 69.8288 76.3233 69.8105 76.3233C69.7914 76.3235 69.7724 76.3193 69.7553 76.3111L69.6021 76.2233C69.5962 76.2209 69.5911 76.2168 69.5875 76.2116C69.5839 76.2064 69.582 76.2003 69.582 76.194C69.582 76.1878 69.5839 76.1817 69.5875 76.1765C69.5911 76.1713 69.5962 76.1672 69.6021 76.1648L69.7729 76.0697ZM71.1613 76.8011C71.1764 76.8011 71.1839 76.8206 71.1839 76.8328C71.1839 76.845 71.1839 76.8523 71.1613 76.8621L71.0107 76.945C70.9944 76.9533 70.9763 76.9575 70.9579 76.9572C70.9395 76.9584 70.9211 76.9542 70.9052 76.945L69.9863 76.4305C69.9805 76.4279 69.9756 76.4238 69.972 76.4186C69.9685 76.4135 69.9665 76.4075 69.9662 76.4013C69.9658 76.3949 69.9676 76.3887 69.9712 76.3834C69.9748 76.3781 69.9801 76.3741 69.9863 76.372L70.1369 76.2867C70.1532 76.2786 70.1713 76.2744 70.1896 76.2745C70.208 76.2739 70.2262 76.2781 70.2424 76.2867L71.1613 76.8011Z" fill="#FAFAFA"/>
<path d="M71.6874 76.5108C71.6933 76.5132 71.6984 76.5173 71.702 76.5225C71.7056 76.5277 71.7075 76.5338 71.7075 76.54C71.7075 76.5463 71.7056 76.5524 71.702 76.5576C71.6984 76.5628 71.6933 76.5669 71.6874 76.5693L71.5393 76.6546C71.5229 76.6627 71.5049 76.6669 71.4865 76.6668C71.4674 76.6671 71.4485 76.6629 71.4313 76.6546L70.1383 75.9232C70.1326 75.9198 70.1278 75.9152 70.1243 75.9097C70.1209 75.9042 70.1187 75.8979 70.1182 75.8915C70.1187 75.8854 70.1208 75.8795 70.1243 75.8744C70.1279 75.8693 70.1326 75.8651 70.1383 75.8623L70.2889 75.7794C70.3061 75.7743 70.3244 75.7743 70.3416 75.7794C70.3596 75.7741 70.3789 75.7741 70.3969 75.7794L71.6874 76.5108Z" fill="#FAFAFA"/>
<path d="M63.8721 82.321L83.401 71.3739C83.5187 71.3072 83.6509 71.2683 83.787 71.2602C83.923 71.2522 84.0591 71.2752 84.1843 71.3276C84.3777 71.4348 84.34 71.6323 84.1015 71.7664L64.5726 82.716C64.4543 82.7825 64.3217 82.8214 64.1853 82.8294C64.0489 82.8375 63.9124 82.8145 63.7867 82.7623C63.5934 82.6526 63.6336 82.4576 63.8721 82.321Z" fill="#FAFAFA"/>
<path d="M65.2441 83.0915L84.773 72.1443C84.8906 72.0774 85.0227 72.0382 85.1587 72.0297C85.2947 72.0212 85.4309 72.0438 85.5563 72.0955C85.7522 72.2053 85.712 72.4003 85.4735 72.5368L65.9446 83.484C65.8265 83.5509 65.694 83.5902 65.5576 83.5986C65.4212 83.6071 65.2846 83.5845 65.1587 83.5327C64.9679 83.423 65.0056 83.2255 65.2441 83.0915Z" fill="#FAFAFA"/>
<path d="M36.2506 90.1959L26.0518 84.4785L71.7379 58.8636L82.1451 64.4664L36.2506 90.1959Z" fill="#E0E0E0"/>
<path d="M33.4912 54.5478L76.9428 30.1862L78.6803 31.1614C78.9179 31.3126 79.1156 31.5157 79.2578 31.7545C79.3999 31.9933 79.4825 32.2611 79.4988 32.5365V63.6615C79.4829 63.937 79.4005 64.2049 79.2583 64.4438C79.1161 64.6826 78.9181 64.8857 78.6803 65.0366L36.8657 88.4815C36.6122 88.6054 36.3323 88.67 36.0484 88.67C35.7646 88.67 35.4847 88.6054 35.2312 88.4815L34.3097 87.9646C34.0721 87.8135 33.8743 87.6103 33.7322 87.3715C33.5901 87.1327 33.5075 86.8649 33.4912 86.5895V54.5478Z" fill="#FF5E15"/>
<path opacity="0.2" d="M33.4912 54.5478L76.9428 30.1862L78.6803 31.1614C78.9179 31.3126 79.1156 31.5157 79.2578 31.7545C79.3999 31.9933 79.4825 32.2611 79.4988 32.5365V63.6615C79.4829 63.937 79.4005 64.2049 79.2583 64.4438C79.1161 64.6826 78.9181 64.8857 78.6803 65.0366L36.8657 88.4815C36.6122 88.6054 36.3323 88.67 36.0484 88.67C35.7646 88.67 35.4847 88.6054 35.2312 88.4815L34.3097 87.9646C34.0721 87.8135 33.8743 87.6103 33.7322 87.3715C33.5901 87.1327 33.5075 86.8649 33.4912 86.5895V54.5478Z" fill="black"/>
<path d="M76.7018 27.4507L76.88 27.3581L76.2046 26.9753C76.1475 26.9425 76.0879 26.914 76.0264 26.89L56.9043 20.012C56.6414 19.9288 56.3582 19.9278 56.0947 20.0091C55.8311 20.0905 55.6006 20.2501 55.4354 20.4655L34.0436 50.8006C33.7104 51.3224 33.5202 51.9183 33.4912 52.5316V54.548L34.1541 54.921L76.9428 30.1863V28.1724C76.9348 27.9145 76.8512 27.6641 76.7018 27.4507Z" fill="#FF5E15"/>
<path opacity="0.1" d="M56.3194 20.6117C56.2351 20.6777 56.1608 20.7549 56.0985 20.8409L34.7066 51.1735C34.5302 51.4418 34.3965 51.7344 34.3099 52.0415L33.6445 51.6684C33.692 51.5122 33.7499 51.3591 33.8178 51.2101C33.8174 51.2052 33.8174 51.2003 33.8178 51.1954C33.8479 51.132 33.878 51.0735 33.9107 51.0126C33.9147 51.0023 33.9197 50.9925 33.9257 50.9833C33.9597 50.9203 33.9974 50.8592 34.0387 50.8005L55.4356 20.48C55.4673 20.4352 55.5026 20.3928 55.5411 20.3533C55.5787 20.3191 55.6164 20.2826 55.6566 20.2509L56.3194 20.6117Z" fill="black"/>
<path opacity="0.35" d="M76.8724 27.3531C76.8143 27.3188 76.7529 27.2902 76.6891 27.2678L57.5644 20.385C57.3526 20.3159 57.1261 20.3005 56.9065 20.3402C56.6868 20.3798 56.4812 20.4733 56.3091 20.6117L55.6562 20.2362C55.8289 20.0989 56.0345 20.006 56.254 19.9664C56.4734 19.9268 56.6997 19.9416 56.9116 20.0095L76.0262 26.8923C76.0882 26.9153 76.1479 26.9439 76.2045 26.9776L76.8724 27.3531Z" fill="white"/>
<path d="M33.8223 51.2004C33.8499 51.137 33.8825 51.0761 33.9127 51.0176C33.8951 51.0712 33.8499 51.1322 33.8223 51.2004Z" fill="#FF5E15"/>
<path d="M56.0983 20.8408L34.7064 51.1734C34.3709 51.6956 34.1781 52.2922 34.1465 52.9069V54.9208L77.5981 30.5592V28.5453C77.5847 28.2701 77.4916 28.0043 77.3294 27.7783C77.1673 27.5523 76.9428 27.3753 76.6817 27.2677L57.5671 20.3873C57.3043 20.303 57.0207 20.3014 56.7569 20.3828C56.4932 20.4643 56.2626 20.6246 56.0983 20.8408Z" fill="#FF5E15"/>
<path opacity="0.05" d="M77.6056 28.5456C77.5971 28.2926 77.5163 28.0469 77.3721 27.8361L34.3097 52.0417C34.2137 52.3213 34.1587 52.6127 34.1465 52.9072V54.9211L77.5981 30.5594L77.6056 28.5456Z" fill="black"/>
<path d="M75.7493 19.9926C75.7579 19.9082 75.7436 19.8231 75.7079 19.7458C75.6723 19.6684 75.6164 19.6013 75.546 19.5513L74.2178 18.8199C74.1371 18.7842 74.0481 18.77 73.9599 18.7785C73.8717 18.7871 73.7874 18.8182 73.7156 18.8686L38.0625 38.8612C37.8571 38.9914 37.6863 39.1667 37.5637 39.373C37.4411 39.5793 37.3703 39.8107 37.357 40.0485V81.4965C37.3483 81.5815 37.3627 81.6672 37.3988 81.7451C37.4349 81.823 37.4915 81.8903 37.5628 81.9403L38.886 82.6717C38.9665 82.7077 39.0553 82.7223 39.1435 82.7142C39.2317 82.7061 39.3161 82.6754 39.3882 82.6254L75.0413 62.645C75.2493 62.5132 75.422 62.3353 75.5451 62.1258C75.6683 61.9164 75.7383 61.6815 75.7493 61.4406V19.9926Z" fill="#FF5E15"/>
<path opacity="0.95" d="M75.7493 19.9926C75.7579 19.9082 75.7436 19.8231 75.7079 19.7458C75.6723 19.6684 75.6164 19.6013 75.546 19.5513L74.2178 18.8199C74.1371 18.7842 74.0481 18.77 73.9599 18.7785C73.8717 18.7871 73.7874 18.8182 73.7156 18.8686L38.0625 38.8612C37.8571 38.9914 37.6863 39.1667 37.5637 39.373C37.4411 39.5793 37.3703 39.8107 37.357 40.0485V81.4965C37.3483 81.5815 37.3627 81.6672 37.3988 81.7451C37.4349 81.823 37.4915 81.8903 37.5628 81.9403L38.886 82.6717C38.9665 82.7077 39.0553 82.7223 39.1435 82.7142C39.2317 82.7061 39.3161 82.6754 39.3882 82.6254L75.0413 62.645C75.2493 62.5132 75.422 62.3353 75.5451 62.1258C75.6683 61.9164 75.7383 61.6815 75.7493 61.4406V19.9926Z" fill="white"/>
<path d="M39.4038 82.6105L75.0569 62.6301C75.2601 62.4982 75.4286 62.3218 75.549 62.1152C75.6693 61.9086 75.7381 61.6774 75.7499 61.4403V19.9923C75.7499 19.5559 75.4335 19.3804 75.0443 19.5974L39.4038 39.5899C39.1986 39.7203 39.0278 39.8957 38.9052 40.1019C38.7827 40.3082 38.7118 40.5395 38.6982 40.7773V82.2253C38.6982 82.6519 39.0146 82.8275 39.4038 82.6105Z" fill="#FF5E15"/>
<path opacity="0.8" d="M39.4038 82.6105L75.0569 62.6301C75.2601 62.4982 75.4286 62.3218 75.549 62.1152C75.6693 61.9086 75.7381 61.6774 75.7499 61.4403V19.9923C75.7499 19.5559 75.4335 19.3804 75.0443 19.5974L39.4038 39.5899C39.1986 39.7203 39.0278 39.8957 38.9052 40.1019C38.7827 40.3082 38.7118 40.5395 38.6982 40.7773V82.2253C38.6982 82.6519 39.0146 82.8275 39.4038 82.6105Z" fill="white"/>
<path d="M38.6972 82.2132C38.6903 82.2907 38.7017 82.3687 38.7304 82.4413C38.7591 82.514 38.8044 82.5793 38.8629 82.6325C38.6243 82.5009 37.7004 81.9791 37.5824 81.9157C37.5098 81.8673 37.4521 81.8007 37.4154 81.723C37.3787 81.6453 37.3644 81.5594 37.374 81.4744V40.0264C37.382 39.7884 37.4539 39.5564 37.5824 39.3535L38.9056 40.085C38.7773 40.2897 38.7055 40.5232 38.6972 40.7627V82.2132Z" fill="#FF5E15"/>
<path opacity="0.7" d="M38.6972 82.2132C38.6903 82.2907 38.7017 82.3687 38.7304 82.4413C38.7591 82.514 38.8044 82.5793 38.8629 82.6325C38.6243 82.5009 37.7004 81.9791 37.5824 81.9157C37.5098 81.8673 37.4521 81.8007 37.4154 81.723C37.3787 81.6453 37.3644 81.5594 37.374 81.4744V40.0264C37.382 39.7884 37.4539 39.5564 37.5824 39.3535L38.9056 40.085C38.7773 40.2897 38.7055 40.5232 38.6972 40.7627V82.2132Z" fill="white"/>
<path opacity="0.05" d="M38.6972 82.2132C38.6903 82.2907 38.7017 82.3687 38.7304 82.4413C38.7591 82.514 38.8044 82.5793 38.8629 82.6325C38.6243 82.5009 37.7004 81.9791 37.5824 81.9157C37.5098 81.8673 37.4521 81.8007 37.4154 81.723C37.3787 81.6453 37.3644 81.5594 37.374 81.4744V40.0264C37.382 39.7884 37.4539 39.5564 37.5824 39.3535L38.9056 40.085C38.7773 40.2897 38.7055 40.5232 38.6972 40.7627V82.2132Z" fill="black"/>
<path d="M51.7051 50.8887C51.5494 54.7458 51.8156 63.0086 51.8156 63.0086C51.8156 63.0086 56.0262 64.2422 58.8859 63.7839C61.7457 63.3255 67.867 59.1124 67.867 59.1124L66.8476 50.1719L51.7051 50.8887Z" fill="#37474F"/>
<path d="M61.4777 62.8669L62.1606 56.5643C64.8447 55.0113 65.7159 52.8608 65.7159 52.8608C63.2754 55.9646 60.7295 55.4623 60.7295 55.4623V63.196C60.973 63.0985 61.2241 62.9863 61.4777 62.8669Z" fill="#263238"/>
<path d="M68.528 39.2734C69.2109 35.9162 69.5198 31.4568 66.5194 30.6376C65.736 30.4255 63.7424 30.5742 63.7424 30.5742L60.501 30.7303C58.6958 30.9521 56.1649 31.3008 55.5021 31.4617C53.7596 31.8786 53.2424 34.6313 52.4615 40.7607C51.9744 44.5934 51.5576 47.5874 51.5576 51.3177C54.7413 54.0899 64.6965 52.9976 66.9613 51.1934C67.0391 46.9633 67.2902 45.3955 68.528 39.2734Z" fill="#455A64"/>
<path d="M59.9427 29.587C59.9126 30.199 60.6382 31.2328 61.7505 31.9593C62.8628 32.6859 63.8194 32.9809 63.9399 33.2832C63.4126 33.3783 62.9356 33.6319 62.5439 34.5023C62.1698 35.341 62.1723 35.3678 60.8893 34.5023C59.6063 33.6367 58.4589 31.6472 58.4639 30.9841C58.4689 30.3209 59.4682 29.0336 59.9704 29.1482L59.9427 29.587Z" fill="#37474F"/>
<path d="M63.9414 33.2828C64.318 32.8829 64.6746 31.8808 64.7198 31.4493L64.883 29.8767C65.0577 29.9226 65.2131 30.0207 65.3274 30.1571C65.4654 30.3619 66.1484 31.7321 66.1258 32.4952C66.1032 33.2584 65.9199 34.2946 65.6538 34.731C65.3876 35.1674 65.2094 34.3994 65.0336 34.0995C64.8076 33.7143 64.4988 33.2925 63.9414 33.2828Z" fill="#37474F"/>
<path d="M63.4337 34.1605C63.4337 34.1605 63.4964 36.9229 63.2328 38.3931C63.7956 38.4805 64.3703 38.4656 64.9276 38.3492C64.9276 38.3492 64.4932 38.8685 62.9014 38.6296C62.9014 38.6296 63.391 35.7453 63.4337 34.1605Z" fill="#37474F"/>
<path d="M70.1699 21.3998C70.1349 20.2884 69.6667 19.2312 68.86 18.442C68.0532 17.6529 66.968 17.1905 65.8237 17.1484C64.6794 17.1063 63.5613 17.4876 62.6954 18.2152C61.8294 18.9428 61.2802 19.9625 61.1587 21.0682L59.1074 19.6517C58.8649 19.6274 58.6199 19.6571 58.391 19.7387C58.1621 19.8202 57.9555 19.9514 57.7867 20.1223C57.2243 20.6977 57.5708 22.4653 58.3064 24.1915C58.3064 24.1915 59.0471 27.3391 59.3334 27.8486C59.5236 28.1656 59.8319 28.3995 60.1946 28.5021L60.1243 26.5857L68.327 26.0127L67.516 25.452C68.316 25.1 68.993 24.5293 69.4644 23.8097C69.9357 23.09 70.1808 22.2526 70.1699 21.3998Z" fill="#263238"/>
<path d="M60.0093 24.3132C59.7582 24.4668 59.5071 23.9353 59.0426 23.6622C58.6409 23.4184 57.7395 23.021 57.147 23.9889C56.5067 25.03 57.6692 26.4685 58.4827 26.7659C59.6879 27.2048 60.1172 26.2783 60.1172 26.2783L59.8661 31.1545C61.5157 34.0656 66.3741 33.8901 64.7195 31.452L64.9178 29.5722C64.9178 29.5722 66.2159 29.7429 66.8461 29.6405C67.8931 29.4673 68.5434 28.6652 68.8547 27.5437C69.3393 25.7614 69.5126 24.3254 69.0255 20.8437C68.4907 17.0256 63.9085 17.0525 61.458 18.5982C59.0075 20.144 60.0093 24.3132 60.0093 24.3132Z" fill="#FFA8A7"/>
<path d="M70.0144 17.2766C69.6704 17.1149 69.2801 17.0711 68.9072 17.1522C68.9319 16.8797 68.8676 16.6065 68.7234 16.3715C68.5791 16.1365 68.3623 15.9516 68.1037 15.843C67.8296 15.7141 67.5225 15.6665 67.2207 15.7059C66.9189 15.7454 66.6357 15.8702 66.4064 16.0648C66.5169 15.6772 66.1554 15.2822 65.7486 15.1944C65.3351 15.1452 64.9158 15.213 64.5409 15.3895C63.966 15.6016 63.3985 15.8405 62.8135 16.0307C61.7816 16.3647 60.6844 16.5549 59.7529 17.0986C59.5256 17.2197 59.3272 17.3858 59.1704 17.5862C58.9742 17.8802 58.8857 18.2298 58.9193 18.5785C58.9258 18.6935 58.9426 18.8077 58.9695 18.9199C58.8974 18.8446 58.8124 18.7819 58.7184 18.7346C58.6137 18.6821 58.499 18.6508 58.3814 18.6427C58.2638 18.6346 58.1457 18.6499 58.0344 18.6875C57.9231 18.7252 57.8208 18.7844 57.7338 18.8617C57.6468 18.9389 57.5769 19.0325 57.5283 19.1369L59.08 19.9171C59.0423 20.2218 59.0021 20.5266 58.972 20.8314C58.8867 21.6335 58.7209 22.5722 58.9143 23.3719C58.9244 23.468 58.9589 23.5601 59.0147 23.6401C59.3135 23.8634 59.5848 24.1195 59.8232 24.4032C59.9437 24.5446 60.0893 24.7738 60.2826 24.8299C60.3874 24.8559 60.4983 24.8459 60.5963 24.8014C60.6943 24.757 60.7733 24.6808 60.82 24.5861C60.8522 24.47 60.8582 24.3486 60.8375 24.2301L60.6869 22.7428C60.6636 22.6119 60.6722 22.4775 60.712 22.3503C60.803 22.1939 60.9313 22.061 61.0861 21.9627C61.2646 21.814 61.4105 21.6322 61.5153 21.4278C61.6201 21.2234 61.6816 21.0007 61.6962 20.7729C61.6918 20.6296 61.7053 20.4863 61.7364 20.3462C61.769 20.2413 61.8544 20.078 61.9875 20.078C62.226 20.078 63.5266 20.3511 63.853 20.3949C65.5553 20.6217 67.3831 20.6656 68.8745 19.8537C69.4596 19.5392 70.4438 18.8784 70.5467 18.1811C70.5602 17.9961 70.5169 17.8114 70.4221 17.6503C70.3273 17.4893 70.1855 17.3592 70.0144 17.2766Z" fill="#263238"/>
<path d="M64.9165 29.5697C64.9165 29.5697 62.5639 29.143 61.7378 28.731C61.2515 28.4946 60.8506 28.1206 60.5879 27.6582C60.7179 28.1223 60.9434 28.5561 61.2507 28.9333C61.8609 29.6648 64.8537 30.1743 64.8537 30.1743L64.9165 29.5697Z" fill="#F28F8F"/>
<path d="M64.8163 23.8936C64.8143 23.9778 64.7869 24.0596 64.7373 24.1287C64.6878 24.1979 64.6184 24.2514 64.5378 24.2825C64.4572 24.3137 64.3689 24.3211 64.284 24.3038C64.1991 24.2866 64.1213 24.2454 64.0603 24.1855C63.9993 24.1256 63.9578 24.0496 63.941 23.967C63.9242 23.8843 63.9328 23.7987 63.9657 23.7208C63.9987 23.6429 64.0545 23.5761 64.1263 23.5288C64.1981 23.4814 64.2826 23.4557 64.3694 23.4547C64.4285 23.4547 64.487 23.4661 64.5416 23.4882C64.5961 23.5103 64.6456 23.5427 64.6872 23.5835C64.7288 23.6244 64.7616 23.6728 64.7837 23.726C64.8059 23.7792 64.817 23.8362 64.8163 23.8936Z" fill="#263238"/>
<path d="M63.9613 22.3065L62.9269 22.7941C62.8627 22.6565 62.8556 22.5002 62.9071 22.3577C62.9585 22.2151 63.0645 22.0972 63.203 22.0286C63.2714 21.997 63.3456 21.9792 63.4212 21.9762C63.4968 21.9731 63.5723 21.9849 63.6431 22.0109C63.7139 22.0369 63.7785 22.0764 63.8332 22.1272C63.8879 22.178 63.9315 22.239 63.9613 22.3065Z" fill="#263238"/>
<path d="M63.9735 26.5757L65.839 27.2242C65.8005 27.3461 65.7369 27.4593 65.6523 27.5568C65.5677 27.6543 65.4636 27.7343 65.3464 27.7919C65.2292 27.8494 65.1013 27.8835 64.9702 27.8919C64.8391 27.9004 64.7077 27.8831 64.5837 27.8411C64.3331 27.7478 64.1296 27.5638 64.0158 27.3279C63.902 27.0919 63.8869 26.8223 63.9735 26.5757Z" fill="#B16668"/>
<path d="M65.1516 27.8632C65.116 27.6164 64.9816 27.3932 64.7776 27.2421C64.5736 27.091 64.3164 27.0242 64.0619 27.0562C64.0212 27.0625 63.9809 27.0715 63.9414 27.083C63.9716 27.253 64.047 27.4124 64.1602 27.5454C64.2734 27.6784 64.4204 27.7804 64.5867 27.8412C64.7683 27.9043 64.9654 27.9119 65.1516 27.8632Z" fill="#F28F8F"/>
<path d="M68.8578 22.6382L67.8535 22.1335C67.8861 22.0692 67.9318 22.0119 67.9878 21.9653C68.0439 21.9186 68.1091 21.8835 68.1795 21.8621C68.25 21.8407 68.3242 21.8334 68.3976 21.8406C68.471 21.8479 68.5422 21.8695 68.6068 21.9043C68.7385 21.9711 68.8384 22.085 68.8852 22.2219C68.9321 22.3589 68.9223 22.5081 68.8578 22.6382Z" fill="#263238"/>
<path d="M68.3503 23.8302C68.3523 23.8872 68.3428 23.944 68.3221 23.9974C68.3015 24.0508 68.2703 24.0998 68.2301 24.1414C68.19 24.1831 68.1419 24.2167 68.0884 24.2403C68.0349 24.2638 67.9772 24.2769 67.9185 24.2788C67.799 24.2782 67.6847 24.2317 67.6005 24.1494C67.5163 24.0672 67.469 23.9559 67.469 23.84C67.4644 23.7811 67.4724 23.7219 67.4925 23.6661C67.5126 23.6103 67.5443 23.5592 67.5856 23.5159C67.627 23.4726 67.6771 23.438 67.7329 23.4144C67.7887 23.3907 67.8488 23.3785 67.9097 23.3785C67.9705 23.3785 68.0307 23.3907 68.0864 23.4144C68.1422 23.438 68.1923 23.4726 68.2337 23.5159C68.2751 23.5592 68.3068 23.6103 68.3268 23.6661C68.3469 23.7219 68.3549 23.7811 68.3503 23.84V23.8302Z" fill="#263238"/>
<path d="M66.1035 23.5648L66.1914 26.3321L67.8711 25.9517L66.1035 23.5648Z" fill="#F28F8F"/>
<path d="M78.3969 64.0762C78.3844 64.099 78.3693 64.1203 78.3517 64.1396L60.2439 58.5636C59.5561 58.2683 58.7816 58.224 58.0629 58.4391C57.3441 58.6541 56.7295 59.1139 56.3321 59.7339L36.974 87.6723L36.2584 88.0746C36.1789 88.1287 36.0865 88.1624 35.99 88.1726C35.8934 88.1828 35.7958 88.1692 35.7061 88.1331L55.614 59.3365C56.0122 58.7167 56.6271 58.2569 57.346 58.0415C58.065 57.8261 58.8397 57.8695 59.5284 58.1638L78.3969 64.0762Z" fill="#FF5E15"/>
<path opacity="0.4" d="M54.5496 62.4766L54.5948 62.4376L36.9741 87.6721L36.2561 88.0744C36.1758 88.1281 36.0833 88.1617 35.9865 88.1723C35.8897 88.183 35.7917 88.1703 35.7012 88.1354L53.8566 62.0695L54.5496 62.4766Z" fill="white"/>
<path opacity="0.4" d="M78.3971 64.0783C78.384 64.1007 78.3689 64.122 78.3519 64.1417L60.2441 58.5633C59.5561 58.2668 58.7808 58.2219 58.0614 58.437C57.342 58.6521 56.7269 59.1126 56.3298 59.7336L55.6143 59.3289C56.0131 58.7111 56.6276 58.2533 57.3454 58.0393C58.0633 57.8253 58.8364 57.8694 59.5235 58.1635L78.3971 64.0783Z" fill="white"/>
<path d="M79.484 32.3368C79.4439 32.1101 79.3208 32.0467 79.1601 32.154C79.0798 32.2128 79.0094 32.2836 78.9518 32.3637L78.8614 32.4856L60.9921 58.866L58.3257 62.4744C58.1536 62.6849 57.9257 62.8459 57.6665 62.94C57.4072 63.0341 57.1264 63.0577 56.8544 63.0083L54.552 62.4768L36.9765 56.1938C36.8589 56.1662 36.737 56.1612 36.6174 56.1792C36.572 56.1893 36.5274 56.2032 36.4844 56.2206L37.1472 55.85L54.0021 61.8478L56.2216 62.6182C56.4936 62.6685 56.7745 62.6451 57.0336 62.5504C57.2928 62.4558 57.52 62.2937 57.6904 62.0819L60.3594 58.4759L78.314 31.9736C78.3698 31.9018 78.4388 31.8406 78.5174 31.7931L76.9632 30.9227L77.616 30.5594L78.6906 31.1617C78.8965 31.2967 79.0727 31.4701 79.2089 31.6718C79.3451 31.8736 79.4387 32.0996 79.484 32.3368Z" fill="#FF5E15"/>
<path opacity="0.4" d="M60.989 58.8634L58.32 62.4743C58.1482 62.6844 57.9207 62.8451 57.6619 62.9392C57.4032 63.0332 57.1229 63.0571 56.8512 63.0082L54.5488 62.4767L54.594 62.4377L54.7045 62.267L56.211 62.6157C56.4827 62.6662 56.7635 62.6431 57.0226 62.549C57.2817 62.4548 57.509 62.2931 57.6798 62.0817L60.3236 58.5148L60.989 58.8634Z" fill="white"/>
<path opacity="0.1" d="M78.6811 31.1592L77.6065 30.5594L76.9562 30.9227L78.5079 31.7931C78.4292 31.8406 78.3603 31.9018 78.3045 31.9736L60.3474 58.4759L60.3223 58.51L60.9876 58.8611L78.8544 32.4831L78.9472 32.3588C79.0035 32.2782 79.0741 32.208 79.1556 32.1515C79.3138 32.0443 79.4394 32.1052 79.477 32.3344C79.432 32.0968 79.3384 31.8704 79.2017 31.6685C79.065 31.4667 78.888 31.2935 78.6811 31.1592Z" fill="black"/>
<path d="M37.3252 56.6983L33.4912 54.5479V86.5896C33.5075 86.8649 33.5901 87.1328 33.7322 87.3716C33.8743 87.6104 34.0721 87.8135 34.3097 87.9647L35.2312 88.4816C35.4847 88.6055 35.7646 88.67 36.0484 88.67C36.3323 88.67 36.6122 88.6055 36.8657 88.4816L37.3252 88.2231V56.6983Z" fill="#FF5E15"/>
<path opacity="0.15" d="M37.3252 56.6983L33.4912 54.5479V86.5896C33.5075 86.8649 33.5901 87.1328 33.7322 87.3716C33.8743 87.6104 34.0721 87.8135 34.3097 87.9647L35.2312 88.4816C35.4847 88.6055 35.7646 88.67 36.0484 88.67C36.3323 88.67 36.6122 88.6055 36.8657 88.4816L37.3252 88.2231V56.6983Z" fill="black"/>
<path d="M79.4992 32.5368V63.6618C79.4898 63.946 79.4032 64.2228 79.2481 64.4639C79.1266 64.6685 78.9634 64.8469 78.7685 64.9881L78.7359 65.0028L78.6857 65.0369L36.8661 88.4794C36.7861 88.5345 36.6931 88.5692 36.5957 88.5802C36.4983 88.5913 36.3996 88.5784 36.3087 88.5428C36.2384 88.5038 36.1788 88.4488 36.1351 88.3826C36.0913 88.3163 36.0648 88.2408 36.0576 88.1624C36.0537 88.1154 36.0537 88.0681 36.0576 88.021V56.896C36.0505 56.7846 36.0713 56.6731 36.1183 56.5712C36.1653 56.4692 36.237 56.3799 36.3274 56.3108C36.4178 56.2418 36.5241 56.1951 36.6371 56.1747C36.7502 56.1543 36.8667 56.1609 36.9766 56.1939L54.552 62.4769L56.8544 63.0084C57.1265 63.0578 57.4073 63.0341 57.6665 62.94C57.9258 62.8459 58.1537 62.685 58.3257 62.4744L60.9922 58.866L78.8614 32.4856L78.9518 32.3637C79.2531 31.9541 79.4992 32.0321 79.4992 32.5368Z" fill="#FF5E15"/>
<path d="M78.6827 65.0365C78.7011 65.0271 78.7187 65.0165 78.7355 65.0048L78.7656 64.9853C78.9606 64.8461 79.1238 64.6693 79.2452 64.466C79.3972 64.2279 79.4837 63.9559 79.4962 63.676L60.9893 58.8656L73.3825 68.0061L78.6827 65.0365Z" fill="#FF5E15"/>
<path opacity="0.2" d="M78.6827 65.0365C78.7011 65.0271 78.7187 65.0165 78.7355 65.0048L78.7656 64.9853C78.9606 64.8461 79.1238 64.6693 79.2452 64.466C79.3972 64.2279 79.4837 63.9559 79.4962 63.676L60.9893 58.8656L73.3825 68.0061L78.6827 65.0365Z" fill="black"/>
<path d="M36.0471 88.0158C36.0344 88.1169 36.0512 88.2194 36.0956 88.3117C36.14 88.4039 36.2102 88.4822 36.2981 88.5376C36.3888 88.5738 36.4875 88.5872 36.5849 88.5766C36.6823 88.5659 36.7754 88.5315 36.8555 88.4766L51.2524 80.4065L54.5415 62.4741L36.0496 87.5038L36.0471 88.0158Z" fill="#FF5E15"/>
<path opacity="0.15" d="M56.324 59.7336L36.303 88.5424C36.2151 88.487 36.1449 88.4087 36.1005 88.3164C36.0561 88.2242 36.0393 88.1217 36.0519 88.0206V87.5037L55.6084 59.3386L56.324 59.7336Z" fill="black"/>
<path d="M79.2455 64.4659C79.1241 64.6693 78.9609 64.8461 78.7659 64.9853L78.7358 65.0048L36.866 88.479C36.7859 88.5339 36.6928 88.5682 36.5953 88.5789C36.4979 88.5895 36.3993 88.5761 36.3086 88.5399L56.3271 59.7336C56.7269 59.1107 57.3444 58.6486 58.0665 58.4319C58.7886 58.2152 59.5669 58.2584 60.2589 58.5535L79.2455 64.4659Z" fill="#FF5E15"/>
<path opacity="0.15" d="M33.6446 51.6686L34.31 52.0416C34.2135 52.3211 34.1586 52.6126 34.1468 52.9071V54.9186L33.4814 54.5456V52.5317C33.4934 52.2379 33.5484 51.9473 33.6446 51.6686Z" fill="black"/>
<path d="M37.1396 55.8499L36.4768 56.2205L35.8039 55.8451L34.1543 54.921L34.7945 54.5504L37.1396 55.8499Z" fill="#FF5E15"/>
<path opacity="0.1" d="M37.1604 55.8621L34.7877 54.5504L34.1475 54.921L35.797 55.8451L36.4699 56.2205C36.5099 56.2024 36.5521 56.1893 36.5955 56.1815C36.7139 56.1614 36.8353 56.1656 36.952 56.1937L38.2877 56.6813L53.6361 62.1695L53.8872 61.8233L37.1604 55.8621Z" fill="black"/>
<path d="M55.4887 31.4517C53.3571 31.6004 51.8958 32.0929 50.5249 35.2966C49.6361 37.3665 46.1561 44.8052 45.8197 46.0389C45.4255 47.4823 44.5342 58.4611 44.5342 58.4611L46.5679 59.1925C46.5679 59.1925 45.8724 61.5551 45.2824 62.9034C44.6045 64.4613 47.9162 64.1346 48.9808 62.7205C50.0453 61.3064 50.7685 59.412 50.186 58.7464C49.7078 58.205 49.167 57.719 48.574 57.2981L50.7986 47.5042L55.4661 37.8688C55.4661 37.8688 57.8137 33.1583 55.4887 31.4517Z" fill="#FFA8A7"/>
<path d="M48.5785 57.3152C47.95 56.9613 47.2408 56.7644 46.5146 56.7423C47.2207 56.5493 47.9679 56.5493 48.6739 56.7423L48.5785 57.3152Z" fill="#F28F8F"/>
<path d="M55.9757 31.364C54.7806 31.364 52.5485 31.3031 51.1023 33.8387C49.6561 36.3743 47.6123 41.2043 47.6123 41.2043C47.6123 41.2043 48.4609 43.2328 53.0105 43.657L56.4929 36.4475C56.4929 36.4475 57.3441 33.1438 55.9757 31.364Z" fill="#37474F"/>
<path d="M71.4134 33.0264C73.2111 34.404 76.1286 36.5666 77.5472 37.4321C78.6193 36.174 80.5928 33.6238 81.0623 33.0654C81.68 32.3559 83.6107 31.2076 83.6107 31.2076L84.3364 34.0334C84.3364 34.0334 80.6907 40.5626 79.37 41.7695C77.9791 43.0422 76.9722 42.5156 74.2531 41.3063C71.6845 40.1628 68.8951 38.7438 68.8951 38.7438C69.4474 33.9992 69.0733 31.4295 66.7383 30.6298C68.295 30.8077 69.9044 31.8732 71.4134 33.0264Z" fill="#FFA8A7"/>
<path d="M76.105 36.479C75.166 36.7228 73.2251 39.4047 73.5792 41.1114L68.6329 38.7367C69.2305 35.4623 69.3611 31.4223 66.5113 30.6397C66.238 30.5769 65.9585 30.5426 65.6777 30.5373C67.0963 30.4007 68.0228 30.4422 69.5092 31.5272C70.9956 32.6121 76.105 36.479 76.105 36.479Z" fill="#37474F"/>
<path d="M77.5453 37.4319C76.8372 38.0366 76.6087 39.124 76.4706 39.5555C76.4124 38.7116 76.6466 37.8731 77.136 37.1735L77.5453 37.4319Z" fill="#F28F8F"/>
<path d="M84.4336 28.038L86.1309 27.0383C86.1309 27.0383 86.3242 35.9253 86.3318 36.213C86.3778 36.4379 86.504 36.6399 86.6883 36.7835L84.991 37.7904C84.8076 37.6462 84.6815 37.4445 84.6345 37.2199C84.6294 36.9176 84.4336 28.038 84.4336 28.038Z" fill="#37474F"/>
<path d="M86.2112 30.7369C86.2112 30.7369 86.6983 30.8491 86.8841 31.583C87.0699 32.3168 87.1653 33.7188 86.731 34.1796C86.2966 34.6404 85.7041 34.8427 85.3099 34.6672C84.5742 34.3575 84.8077 32.9069 85.3877 32.5704C86.3318 32.0365 86.2188 31.4464 86.2188 31.4464L86.2112 30.7369Z" fill="#FFA8A7"/>
<path d="M82.3545 28.0599L83.1077 28.9401L83.2408 35.2061L82.4876 36.4251L84.9983 37.771C84.8084 37.6324 84.6807 37.428 84.6418 37.2004L84.4661 29.179L82.3545 28.0599Z" fill="#455A64"/>
<path d="M82.4697 36.4323L82.4773 36.815L85.0006 38.1633L84.9906 37.7781L82.4697 36.4323Z" fill="#FF5E15"/>
<path d="M85.0003 38.1635L86.6951 37.1639L86.685 36.7787L84.9902 37.7783L85.0003 38.1635Z" fill="#FF5E15"/>
<path opacity="0.1" d="M85.0003 38.1635L86.6951 37.1639L86.685 36.7787L84.9902 37.7783L85.0003 38.1635Z" fill="black"/>
<path d="M82.8423 23.7126C82.5109 23.6321 82.1292 23.7662 81.7752 24.1344L81.7627 24.149C81.404 24.5646 81.1513 25.0566 81.0253 25.5849C80.8992 26.1131 80.9032 26.6628 81.037 27.1893V27.2064C81.1927 27.694 81.4839 27.9866 81.8279 28.0475L83.2942 28.3889L84.1906 24.0295L82.8423 23.7126Z" fill="#FF5E15"/>
<path opacity="0.7" d="M82.8423 23.7126C82.5109 23.6321 82.1292 23.7662 81.7752 24.1344L81.7627 24.149C81.404 24.5646 81.1513 25.0566 81.0253 25.5849C80.8992 26.1131 80.9032 26.6628 81.037 27.1893V27.2064C81.1927 27.694 81.4839 27.9866 81.8279 28.0475L83.2942 28.3889L84.1906 24.0295L82.8423 23.7126Z" fill="white"/>
<path opacity="0.05" d="M81.8323 28.0382L83.2985 28.3796L83.5948 26.9338L80.9284 26.334C80.9184 26.6197 80.9548 26.9053 81.0363 27.18V27.1971C81.197 27.6993 81.4883 27.987 81.8323 28.0382Z" fill="black"/>
<path d="M85.8121 23.835C85.5935 23.8026 85.37 23.8235 85.1618 23.8959C84.9537 23.9682 84.7673 24.0897 84.6195 24.2495C84.5768 24.286 84.5341 24.3275 84.4914 24.3714C84.4487 24.4152 84.396 24.4738 84.3508 24.5298C84.2726 24.6237 84.2005 24.7223 84.1349 24.8249C84.0077 25.0191 83.8985 25.2239 83.8085 25.4368C83.5589 26.0275 83.4351 26.6611 83.4444 27.2995C83.4492 27.5992 83.4956 27.8969 83.5825 28.1846C83.7658 28.7673 84.0997 29.1184 84.4989 29.2208L83.108 28.9087C82.8448 28.8348 82.6053 28.6972 82.412 28.5086C82.2188 28.3201 82.0781 28.0869 82.0032 27.831C81.9212 27.5558 81.8757 27.2715 81.8676 26.985C81.8513 26.3326 81.9753 25.6841 82.2317 25.0809C82.3214 24.869 82.4298 24.6651 82.5556 24.4713C82.6221 24.3693 82.6941 24.2708 82.7715 24.1763C82.8167 24.121 82.8644 24.0674 82.9146 24.0154C82.9548 23.9731 82.9976 23.9332 83.0427 23.8959C83.223 23.7368 83.4387 23.6202 83.673 23.5551C83.9072 23.49 84.1538 23.4781 84.3935 23.5205H84.4337H84.4839L85.8121 23.835Z" fill="#FF5E15"/>
<path opacity="0.1" d="M83.1075 28.9082C82.8443 28.8343 82.6049 28.6966 82.4116 28.5081C82.2183 28.3196 82.0776 28.0864 82.0028 27.8305C81.9208 27.5552 81.8752 27.271 81.8672 26.9845L83.449 27.3015C83.4538 27.6012 83.5002 27.8989 83.5871 28.1865C83.7704 28.7692 84.1043 29.1203 84.5035 29.2227L83.1075 28.9082Z" fill="black"/>
<path d="M86.761 24.8808C87.1352 26.0754 86.7284 27.7821 85.8496 28.694C85.4103 29.1523 84.9332 29.323 84.5214 29.2279H84.4988C84.0996 29.1255 83.7657 28.7744 83.5824 28.1917C83.2083 26.997 83.615 25.2904 84.4913 24.3785C84.9307 23.9226 85.4027 23.7519 85.812 23.8421C86.2212 23.9323 86.5727 24.281 86.761 24.8808Z" fill="#FF5E15"/>
<path opacity="0.2" d="M86.761 24.8808C87.1352 26.0754 86.7284 27.7821 85.8496 28.694C85.4103 29.1523 84.9332 29.323 84.5214 29.2279H84.4988C84.0996 29.1255 83.7657 28.7744 83.5824 28.1917C83.2083 26.997 83.615 25.2904 84.4913 24.3785C84.9307 23.9226 85.4027 23.7519 85.812 23.8421C86.2212 23.9323 86.5727 24.281 86.761 24.8808Z" fill="black"/>
<path d="M92.5761 22.8207C92.5761 22.8207 90.9341 24.3664 90.1507 27.653C90.0079 28.2428 89.908 28.8416 89.8519 29.445C89.641 31.6784 90.1407 33.0266 90.1407 33.0266C89.1364 31.8076 87.9588 30.6056 86.4122 29.8571C85.8078 29.5715 85.1885 29.3167 84.5567 29.094C84.1826 29.0086 83.8738 28.6746 83.7055 28.1382C83.5938 27.7599 83.5513 27.3654 83.58 26.9728C83.593 26.7091 83.6308 26.4471 83.693 26.1902C83.832 25.5443 84.1399 24.9439 84.5868 24.4469C84.981 24.0373 85.4104 23.8666 85.7845 23.9593C86.4517 24.0285 87.1221 24.0643 87.7931 24.0666C89.518 24.0641 91.1199 23.4717 92.5761 22.8207Z" fill="#FF5E15"/>
<path opacity="0.7" d="M92.5761 22.8207C92.5761 22.8207 90.9341 24.3664 90.1507 27.653C90.0079 28.2428 89.908 28.8416 89.8519 29.445C89.641 31.6784 90.1407 33.0266 90.1407 33.0266C89.1364 31.8076 87.9588 30.6056 86.4122 29.8571C85.8078 29.5715 85.1885 29.3167 84.5567 29.094C84.1826 29.0086 83.8738 28.6746 83.7055 28.1382C83.5938 27.7599 83.5513 27.3654 83.58 26.9728C83.593 26.7091 83.6308 26.4471 83.693 26.1902C83.832 25.5443 84.1399 24.9439 84.5868 24.4469C84.981 24.0373 85.4104 23.8666 85.7845 23.9593C86.4517 24.0285 87.1221 24.0643 87.7931 24.0666C89.518 24.0641 91.1199 23.4717 92.5761 22.8207Z" fill="white"/>
<path opacity="0.05" d="M89.8519 29.4448C89.641 31.6781 90.1407 33.0264 90.1407 33.0264C89.1364 31.8073 87.9588 30.6053 86.4122 29.8568C85.8078 29.5712 85.1885 29.3165 84.5567 29.0937C84.1826 29.0084 83.8738 28.6743 83.7055 28.138C83.5938 27.7596 83.5513 27.3651 83.58 26.9725C85.2773 27.2627 88.0768 27.8795 89.8519 29.4448Z" fill="black"/>
<path d="M97.0844 24.432C97.4684 25.7944 97.5242 27.2243 97.2476 28.611C96.9162 30.4761 96.0901 32.2877 94.9075 33.5067C92.8211 35.6791 90.4057 35.1329 89.5119 32.2877C89.306 31.6037 89.1954 30.896 89.183 30.1836C89.1536 28.3029 89.6158 26.4457 90.5262 24.7856C90.6543 24.5613 90.7773 24.3467 90.9279 24.1395L91.1087 23.8957C91.1966 23.7762 91.2845 23.664 91.3774 23.5543C91.4703 23.4446 91.5732 23.3276 91.6762 23.2227C93.7777 21.0479 96.1931 21.5892 97.0844 24.432Z" fill="#FF5E15"/>
<path opacity="0.1" d="M97.2482 28.6108C96.9168 30.476 96.0908 32.2875 94.9082 33.5066C92.8217 35.6789 90.4063 35.1328 89.5125 32.2875C89.3066 31.6036 89.196 30.8959 89.1836 30.1834C89.4698 30.5004 90.2507 30.8417 90.4114 30.3931C90.4244 31.0247 90.5232 31.6518 90.7051 32.2583C90.9562 33.075 91.3554 33.6797 91.845 34.004C92.0479 34.1409 92.2811 34.2295 92.5259 34.2626C92.7706 34.2956 93.0199 34.2722 93.2536 34.1941C93.8434 33.9871 94.3688 33.6372 94.7801 33.1774C95.7844 32.1412 96.5075 30.5906 96.8641 28.9766C96.8766 28.9814 97.075 29.0643 97.2482 28.6108Z" fill="black"/>
<path d="M96.8203 24.6833C97.2145 25.9389 97.2045 27.4896 96.8756 28.9817C96.519 30.5957 95.7909 32.1512 94.7916 33.1826C94.3803 33.6423 93.8548 33.9923 93.2651 34.1993C93.0314 34.2773 92.7821 34.3007 92.5374 34.2677C92.2926 34.2347 92.0594 34.1461 91.8565 34.0091C91.3543 33.6848 90.9727 33.0802 90.7166 32.2634C90.5347 31.6569 90.4359 31.0298 90.4229 30.3982C90.4229 30.1544 90.4229 29.8935 90.4229 29.6375C90.4461 29.1833 90.5015 28.7312 90.5886 28.2844C90.6061 28.1917 90.6237 28.0991 90.6438 28.0089C90.6764 27.8553 90.7116 27.7017 90.7518 27.5505C90.8851 27.038 91.058 26.5359 91.269 26.0486V26.0316C91.4058 25.7181 91.56 25.4121 91.731 25.1148C91.8515 24.9051 91.982 24.7052 92.1126 24.515L92.2858 24.2712C92.3587 24.181 92.4315 24.0908 92.5043 24.0055C92.5771 23.9201 92.6524 23.8397 92.7277 23.7617C93.1383 23.3011 93.664 22.951 94.2543 22.745C95.3842 22.4305 96.3383 23.1448 96.8203 24.6833Z" fill="#FF5E15"/>
<path opacity="0.3" d="M96.8203 24.6833C97.2145 25.9389 97.2045 27.4896 96.8756 28.9817C96.519 30.5957 95.7909 32.1512 94.7916 33.1826C94.3803 33.6423 93.8548 33.9923 93.2651 34.1993C93.0314 34.2773 92.7821 34.3007 92.5374 34.2677C92.2926 34.2347 92.0594 34.1461 91.8565 34.0091C91.3543 33.6848 90.9727 33.0802 90.7166 32.2634C90.5347 31.6569 90.4359 31.0298 90.4229 30.3982C90.4229 30.1544 90.4229 29.8935 90.4229 29.6375C90.4461 29.1833 90.5015 28.7312 90.5886 28.2844C90.6061 28.1917 90.6237 28.0991 90.6438 28.0089C90.6764 27.8553 90.7116 27.7017 90.7518 27.5505C90.8851 27.038 91.058 26.5359 91.269 26.0486V26.0316C91.4058 25.7181 91.56 25.4121 91.731 25.1148C91.8515 24.9051 91.982 24.7052 92.1126 24.515L92.2858 24.2712C92.3587 24.181 92.4315 24.0908 92.5043 24.0055C92.5771 23.9201 92.6524 23.8397 92.7277 23.7617C93.1383 23.3011 93.664 22.951 94.2543 22.745C95.3842 22.4305 96.3383 23.1448 96.8203 24.6833Z" fill="black"/>
<path d="M93.1503 26.5358L92.4573 29.9297C91.9551 29.9004 91.104 29.8614 90.4336 29.8931C90.4336 29.8077 90.4336 29.7224 90.4336 29.6493C90.4581 29.1952 90.5135 28.7431 90.5993 28.2961C90.6169 28.2035 90.637 28.1133 90.6545 28.0206C90.6872 27.867 90.7248 27.7134 90.765 27.5647C90.8976 27.0514 91.0696 26.5486 91.2797 26.0604C91.2807 26.0547 91.2807 26.0489 91.2797 26.0433C91.3124 25.9726 91.3425 25.9019 91.3751 25.8336C91.9444 26.118 92.5384 26.353 93.1503 26.5358Z" fill="#FF5E15"/>
<g opacity="0.4">
<path d="M93.1512 26.5359L92.4583 29.9298C91.9561 29.9005 91.1049 29.8615 90.4346 29.8932C90.4346 29.8079 90.4346 29.7225 90.4346 29.6494C90.4591 29.1953 90.5145 28.7433 90.6003 28.2962C90.6179 28.2036 90.6379 28.1134 90.6555 28.0207C90.6882 27.8671 90.7258 27.7135 90.766 27.5648C90.8985 27.0516 91.0706 26.5487 91.2807 26.0605C91.2817 26.0548 91.2817 26.0491 91.2807 26.0434C91.3133 25.9727 91.3435 25.902 91.3761 25.8337C91.9454 26.1181 92.5394 26.3531 93.1512 26.5359Z" fill="white"/>
</g>
<path d="M92.5814 29.8836C92.2173 29.9909 91.9085 29.7715 91.7603 29.2912V29.2766C91.6548 28.8603 91.6516 28.4258 91.751 28.0082C91.8505 27.5906 92.0498 27.2015 92.3328 26.8726C92.4563 26.7342 92.6146 26.6292 92.7923 26.5678C93.1563 26.4605 93.4626 26.6824 93.6133 27.1603V27.1749C93.7191 27.5911 93.7224 28.0257 93.6229 28.4433C93.5235 28.861 93.324 29.25 93.0408 29.5789C92.9161 29.7153 92.7581 29.8193 92.5814 29.8812V29.8836Z" fill="#FF5E15"/>
<g opacity="0.7">
<path d="M92.5804 29.8836C92.2163 29.9909 91.9075 29.7715 91.7594 29.2912V29.2766C91.6538 28.8603 91.6506 28.4258 91.75 28.0082C91.8495 27.5906 92.0488 27.2015 92.3318 26.8726C92.4553 26.7342 92.6136 26.6292 92.7913 26.5678C93.1554 26.4605 93.4617 26.6824 93.6123 27.1603V27.1749C93.7181 27.5911 93.7214 28.0257 93.622 28.4433C93.5225 28.861 93.3231 29.25 93.0399 29.5789C92.9151 29.7153 92.7572 29.8193 92.5804 29.8812V29.8836Z" fill="white"/>
</g>
<path d="M91.7339 21.1481C91.6864 21.1628 91.6364 21.168 91.5869 21.1636C91.5373 21.1593 91.4891 21.1453 91.4451 21.1226C91.4011 21.0999 91.3623 21.0689 91.3308 21.0314C91.2994 20.9939 91.2759 20.9507 91.2619 20.9043L90.1948 17.5056C90.1738 17.415 90.1888 17.3201 90.2369 17.2398C90.2849 17.1595 90.3624 17.0998 90.4539 17.0727C90.5453 17.0456 90.644 17.053 90.73 17.0935C90.816 17.134 90.8832 17.2045 90.9179 17.291L91.985 20.6898C92 20.7359 92.0055 20.7844 92.0009 20.8326C91.9964 20.8807 91.9821 20.9275 91.9587 20.9702C91.9353 21.0129 91.9034 21.0506 91.8648 21.0812C91.8262 21.1117 91.7817 21.1345 91.7339 21.1481Z" fill="#E0E0E0"/>
<path d="M88.8101 22.9181C88.7465 22.9369 88.6789 22.9392 88.6141 22.9246C88.5493 22.9101 88.4896 22.8792 88.441 22.8352L85.767 20.3971C85.727 20.3651 85.6942 20.3255 85.6706 20.2807C85.647 20.2359 85.633 20.1869 85.6297 20.1367C85.6264 20.0865 85.6336 20.0361 85.6511 19.9888C85.6686 19.9414 85.6959 19.898 85.7313 19.8613C85.7667 19.8245 85.8095 19.7953 85.857 19.7752C85.9046 19.7552 85.9558 19.7448 86.0076 19.7448C86.0594 19.7447 86.1107 19.755 86.1583 19.7749C86.2059 19.7948 86.2487 19.824 86.2842 19.8607L88.9582 22.2988C88.9947 22.3317 89.0241 22.3712 89.0447 22.4152C89.0654 22.4591 89.0769 22.5066 89.0785 22.5549C89.0801 22.6032 89.0719 22.6513 89.0543 22.6965C89.0366 22.7417 89.01 22.783 88.9758 22.8181C88.9315 22.8661 88.874 22.9007 88.8101 22.9181Z" fill="#E0E0E0"/>
<path d="M90.6396 40.2847C90.5754 40.3006 90.5081 40.3006 90.4438 40.2847C90.346 40.2627 90.2611 40.2038 90.2079 40.1211C90.1547 40.0383 90.1375 39.9385 90.1601 39.8434L90.9861 36.3813C90.9956 36.3326 91.0152 36.2863 91.0436 36.2451C91.072 36.2039 91.1087 36.1687 91.1515 36.1416C91.1942 36.1145 91.2422 36.0961 91.2925 36.0874C91.3427 36.0788 91.3943 36.0801 91.444 36.0913C91.4938 36.1024 91.5407 36.1232 91.5819 36.1524C91.6232 36.1817 91.658 36.2187 91.6841 36.2612C91.7103 36.3038 91.7273 36.3511 91.7343 36.4002C91.7412 36.4493 91.7378 36.4993 91.7243 36.5471L90.8907 40.0165C90.8762 40.0785 90.8455 40.1357 90.8015 40.1827C90.7575 40.2297 90.7018 40.2648 90.6396 40.2847Z" fill="#E0E0E0"/>
<path d="M97.2818 38.8172C97.1859 38.8454 97.0825 38.8355 96.994 38.7898C96.9056 38.7442 96.8393 38.6663 96.8098 38.5734L95.7427 35.1746C95.7237 35.1274 95.715 35.0769 95.7171 35.0263C95.7192 34.9756 95.732 34.926 95.7547 34.8804C95.7775 34.8347 95.8097 34.7942 95.8494 34.7612C95.889 34.7283 95.9352 34.7036 95.9851 34.6888C96.0351 34.674 96.0876 34.6693 96.1394 34.6752C96.1913 34.681 96.2413 34.6971 96.2864 34.7226C96.3316 34.7481 96.3708 34.7823 96.4017 34.8232C96.4325 34.864 96.4544 34.9106 96.4658 34.9601L97.5329 38.3588C97.5619 38.4519 97.5518 38.5524 97.5047 38.6383C97.4577 38.7242 97.3775 38.7885 97.2818 38.8172Z" fill="#E0E0E0"/>
<path d="M101.22 34.177C101.157 34.1959 101.089 34.1981 101.024 34.1836C100.959 34.169 100.9 34.1382 100.851 34.0941L98.1771 31.656C98.1105 31.5882 98.073 31.4982 98.0723 31.4045C98.0716 31.3107 98.1078 31.2202 98.1734 31.1515C98.2391 31.0827 98.3293 31.0409 98.4256 31.0345C98.522 31.0282 98.6172 31.0577 98.6918 31.1172L101.368 33.5431C101.405 33.576 101.434 33.6155 101.455 33.6595C101.475 33.7034 101.487 33.7509 101.489 33.7992C101.49 33.8475 101.482 33.8956 101.464 33.9408C101.447 33.986 101.42 34.0273 101.386 34.0624C101.342 34.1142 101.285 34.1538 101.22 34.177Z" fill="#E0E0E0"/>
<path d="M103.732 29.5983C103.668 29.6143 103.6 29.6143 103.536 29.5983L99.9706 28.7962C99.8731 28.7735 99.7887 28.7146 99.7356 28.632C99.6826 28.5494 99.6651 28.4499 99.6869 28.3549C99.6979 28.3077 99.7184 28.263 99.7472 28.2236C99.776 28.1841 99.8126 28.1506 99.8549 28.125C99.8972 28.0993 99.9443 28.0821 99.9934 28.0743C100.043 28.0664 100.093 28.0682 100.141 28.0794L103.707 28.8815C103.787 28.9002 103.86 28.9441 103.912 29.0065C103.965 29.069 103.995 29.1464 103.998 29.227C104 29.3075 103.976 29.3868 103.928 29.4525C103.88 29.5183 103.811 29.5669 103.732 29.591V29.5983Z" fill="#E0E0E0"/>
<path d="M103.55 24.4124L100.048 25.4486C100 25.4629 99.9504 25.4679 99.901 25.4634C99.8515 25.4589 99.8034 25.4448 99.7595 25.4222C99.7157 25.3995 99.6768 25.3686 99.6453 25.3313C99.6138 25.294 99.5901 25.251 99.5758 25.2048C99.5468 25.1117 99.5569 25.0112 99.604 24.9254C99.651 24.8395 99.7312 24.7752 99.8269 24.7465L103.342 23.7103C103.435 23.6899 103.533 23.7045 103.616 23.7512C103.698 23.7978 103.76 23.8731 103.788 23.9619C103.816 24.0507 103.808 24.1464 103.766 24.23C103.725 24.3135 103.652 24.3787 103.563 24.4124H103.55Z" fill="#E0E0E0"/>
<path d="M98.2246 22.6085C98.1448 22.6322 98.0593 22.6297 97.9812 22.6015C97.903 22.5732 97.8367 22.5207 97.7924 22.4522C97.7481 22.3836 97.7283 22.3027 97.736 22.2221C97.7438 22.1415 97.7787 22.0656 97.8354 22.0063L100.334 19.4097C100.368 19.3743 100.408 19.3457 100.454 19.3257C100.499 19.3056 100.548 19.2944 100.598 19.2927C100.648 19.291 100.697 19.2988 100.744 19.3158C100.79 19.3327 100.833 19.3584 100.87 19.3914C100.906 19.4244 100.935 19.464 100.956 19.508C100.977 19.552 100.988 19.5995 100.99 19.6479C100.992 19.6962 100.984 19.7444 100.966 19.7897C100.949 19.835 100.922 19.8765 100.889 19.9119L98.3903 22.5085C98.345 22.5554 98.2879 22.5899 98.2246 22.6085Z" fill="#E0E0E0"/>
<path d="M95.1786 21.0357C95.1152 21.0516 95.0487 21.0516 94.9853 21.0357C94.9367 21.0251 94.8907 21.0052 94.8501 20.9772C94.8095 20.9492 94.7749 20.9136 94.7486 20.8726C94.7222 20.8315 94.7044 20.7858 94.6964 20.7381C94.6883 20.6903 94.6901 20.6415 94.7016 20.5944L95.5276 17.1323C95.5372 17.0836 95.5567 17.0372 95.5851 16.996C95.6135 16.9548 95.6502 16.9196 95.693 16.8926C95.7358 16.8655 95.7837 16.8471 95.834 16.8384C95.8843 16.8298 95.9358 16.8311 95.9856 16.8422C96.0353 16.8534 96.0822 16.8742 96.1235 16.9034C96.1647 16.9326 96.1995 16.9696 96.2257 17.0122C96.2518 17.0548 96.2689 17.102 96.2758 17.1512C96.2827 17.2003 96.2793 17.2502 96.2658 17.2981L95.4398 20.7602C95.4249 20.8243 95.3929 20.8835 95.3471 20.9318C95.3013 20.9802 95.2432 21.016 95.1786 21.0357Z" fill="#E0E0E0"/>
<path d="M81.0723 33.0653C81.7929 32.1778 81.8255 31.6195 82.3829 31.1831C82.9403 30.7466 83.5127 30.7198 84.3513 30.9539C84.9816 31.1294 85.7222 31.0416 85.9783 31.2684C86.0511 31.3172 85.9382 31.7097 85.6419 31.8511C85.2854 32.0218 84.7079 31.9803 84.2836 31.9828C83.3144 31.9828 84.1103 32.9092 83.1763 33.8455C82.7821 34.516 81.0723 33.0653 81.0723 33.0653Z" fill="#FFA8A7"/>
<path d="M81.3701 90.9936V91.1716C81.3786 91.3277 81.4248 91.4798 81.5051 91.6153C81.5853 91.7509 81.6974 91.8662 81.8321 91.9518L91.7698 97.5253C91.9133 97.5962 92.072 97.6331 92.233 97.6331C92.394 97.6331 92.5527 97.5962 92.6963 97.5253L109.152 88.2995C109.287 88.2139 109.399 88.0986 109.479 87.963C109.559 87.8275 109.605 87.6754 109.614 87.5193V87.3413C109.605 87.1852 109.559 87.0331 109.479 86.8976C109.399 86.762 109.287 86.6467 109.152 86.5611L99.2142 80.99C99.0707 80.9191 98.912 80.8822 98.751 80.8822C98.59 80.8822 98.4313 80.9191 98.2878 80.99L81.8321 90.211C81.697 90.2968 81.5848 90.4125 81.5045 90.5485C81.4242 90.6845 81.3782 90.837 81.3701 90.9936Z" fill="#FF5E15"/>
<path d="M81.3701 90.9936V91.1716C81.3786 91.3277 81.4248 91.4798 81.5051 91.6153C81.5853 91.7509 81.6974 91.8662 81.8321 91.9518L91.7698 97.5253C91.9133 97.5962 92.072 97.6331 92.233 97.6331C92.394 97.6331 92.5527 97.5962 92.6963 97.5253L109.152 88.2995C109.287 88.2139 109.399 88.0986 109.479 87.963C109.559 87.8275 109.605 87.6754 109.614 87.5193V87.3413C109.605 87.1852 109.559 87.0331 109.479 86.8976C109.399 86.762 109.287 86.6467 109.152 86.5611L99.2142 80.99C99.0707 80.9191 98.912 80.8822 98.751 80.8822C98.59 80.8822 98.4313 80.9191 98.2878 80.99L81.8321 90.211C81.697 90.2968 81.5848 90.4125 81.5045 90.5485C81.4242 90.6845 81.3782 90.837 81.3701 90.9936Z" fill="#FF5E15"/>
<path opacity="0.2" d="M92.2318 84.381L81.8321 90.2105C81.6974 90.2962 81.5853 90.4114 81.5051 90.547C81.4248 90.6825 81.3786 90.8346 81.3701 90.9907V91.1687C81.3786 91.3249 81.4248 91.4769 81.5051 91.6124C81.5853 91.748 81.6974 91.8633 81.8321 91.9489L91.7698 97.5249C91.9121 97.5977 92.0709 97.6346 92.2318 97.6322V84.381Z" fill="black"/>
<path opacity="0.15" d="M92.2318 84.381L81.8321 90.2105C81.6974 90.2962 81.5853 90.4114 81.5051 90.547C81.4248 90.6825 81.3786 90.8346 81.3701 90.9907V91.1687C81.3786 91.3249 81.4248 91.4769 81.5051 91.6124C81.5853 91.748 81.6974 91.8633 81.8321 91.9489L91.7698 97.5249C91.9121 97.5977 92.0709 97.6346 92.2318 97.6322V84.381Z" fill="black"/>
<path opacity="0.2" d="M109.153 86.5532L99.2149 80.9821C99.0714 80.9112 98.9127 80.8743 98.7517 80.8743C98.5907 80.8743 98.4319 80.9112 98.2884 80.9821L92.2324 84.3759V97.6247C92.3941 97.6274 92.5538 97.5905 92.6969 97.5174L109.153 88.2916C109.287 88.2059 109.399 88.0906 109.48 87.9551C109.56 87.8195 109.606 87.6675 109.615 87.5114V87.3334C109.606 87.1772 109.56 87.0252 109.48 86.8896C109.399 86.7541 109.287 86.6388 109.153 86.5532Z" fill="black"/>
<path d="M90.1777 95.4111L81.8319 90.7324C81.7754 90.7145 81.7262 90.6798 81.6914 90.6332C81.6565 90.5865 81.6377 90.5303 81.6377 90.4727C81.6377 90.4151 81.6565 90.3589 81.6914 90.3123C81.7262 90.2656 81.7754 90.2309 81.8319 90.213L98.2875 80.9872C98.431 80.9163 98.5898 80.8794 98.7508 80.8794C98.9118 80.8794 99.0705 80.9163 99.214 80.9872L109.152 86.5534C109.208 86.5713 109.257 86.606 109.292 86.6526C109.327 86.6993 109.346 86.7555 109.346 86.8131C109.346 86.8707 109.327 86.9269 109.292 86.9735C109.257 87.0202 109.208 87.0549 109.152 87.0728L106.42 88.6039L105.466 89.1403L92.696 96.3059C92.5525 96.3768 92.3938 96.4137 92.2328 96.4137C92.0718 96.4137 91.913 96.3768 91.7695 96.3059L90.9586 95.8524L90.1777 95.4111Z" fill="#FF5E15"/>
<path opacity="0.15" d="M97.7553 87.6385L109.152 86.5536L97.8532 87.1753L99.2115 80.9825C99.0569 80.9043 98.8832 80.8689 98.7094 80.8801L96.5777 89.2501L81.6436 90.4545C81.643 90.5141 81.6606 90.5725 81.6941 90.6223C81.7276 90.6722 81.7755 90.7114 81.8319 90.7349L93.8836 90.0547L92.2215 96.4133L94.3456 90.0303L96.4045 89.9133C96.6567 89.8983 96.8964 89.8012 97.0849 89.6378C97.261 89.4851 97.3824 89.2818 97.4314 89.0575L97.7553 87.6385Z" fill="black"/>
<path opacity="0.3" d="M85.2063 90.1641L96.5777 89.2547L96.9844 87.6724L97.2104 86.7922L98.7169 80.8846C98.5699 80.8855 98.4252 80.9206 98.2951 80.987L90.0672 85.6L81.8319 90.2104C81.7824 90.2332 81.7395 90.2672 81.7066 90.3097C81.6738 90.3522 81.6522 90.4018 81.6436 90.4542L83.9259 90.2714L85.2063 90.1641Z" fill="white"/>
</svg>
